<svg width="240" height="75" viewBox="0 0 240 75" fill="none" xmlns="http://www.w3.org/2000/svg">
<path d="M126.488 18.8186C126.488 21.5177 124.314 23.692 121.615 23.692C118.916 23.692 116.742 21.5177 116.742 18.8186C116.742 16.1195 118.841 13.9453 121.615 13.9453C124.389 14.0203 126.488 16.1945 126.488 18.8186ZM106.395 28.6403C106.395 29.0902 106.395 29.8399 106.395 29.8399C106.395 29.8399 104.071 26.8409 99.1227 26.8409C90.9505 26.8409 84.5776 33.0638 84.5776 41.6859C84.5776 50.233 90.8755 56.5309 99.1227 56.5309C104.146 56.5309 106.395 53.4569 106.395 53.4569V54.7315C106.395 55.3313 106.845 55.7811 107.445 55.7811H113.518V27.5907C113.518 27.5907 107.97 27.5907 107.445 27.5907C106.845 27.5907 106.395 28.1155 106.395 28.6403ZM106.395 46.7092C105.271 48.3586 103.021 49.7831 100.322 49.7831C95.5239 49.7831 91.8501 46.7842 91.8501 41.6859C91.8501 36.5876 95.5239 33.5886 100.322 33.5886C102.946 33.5886 105.346 35.0881 106.395 36.6626V46.7092ZM118.016 27.5907H125.214V55.7811H118.016V27.5907ZM225.53 26.8409C220.582 26.8409 218.257 29.8399 218.257 29.8399V14.0203H211.06V55.7811C211.06 55.7811 216.608 55.7811 217.133 55.7811C217.733 55.7811 218.182 55.2563 218.182 54.7315V53.4569C218.182 53.4569 220.507 56.5309 225.455 56.5309C233.627 56.5309 240 50.233 240 41.6859C240 33.1388 233.627 26.8409 225.53 26.8409ZM224.33 49.7082C221.556 49.7082 219.382 48.2837 218.257 46.6342V36.5876C219.382 35.0881 221.781 33.5137 224.33 33.5137C229.129 33.5137 232.802 36.5126 232.802 41.6109C232.802 46.7092 229.129 49.7082 224.33 49.7082ZM207.311 39.0618V55.8561H200.113V39.8865C200.113 35.2381 198.614 33.3637 194.565 33.3637C192.391 33.3637 190.142 34.4883 188.717 36.1378V55.7811H181.52V27.5907H187.218C187.818 27.5907 188.268 28.1155 188.268 28.6403V29.8399C190.367 27.6656 193.141 26.8409 195.915 26.8409C199.064 26.8409 201.688 27.7406 203.787 29.54C206.336 31.6393 207.311 34.3384 207.311 39.0618ZM164.051 26.8409C159.102 26.8409 156.778 29.8399 156.778 29.8399V14.0203H149.581V55.7811C149.581 55.7811 155.129 55.7811 155.654 55.7811C156.253 55.7811 156.703 55.2563 156.703 54.7315V53.4569C156.703 53.4569 159.027 56.5309 163.976 56.5309C172.148 56.5309 178.521 50.233 178.521 41.6859C178.596 33.1388 172.223 26.8409 164.051 26.8409ZM162.851 49.7082C160.077 49.7082 157.903 48.2837 156.778 46.6342V36.5876C157.903 35.0881 160.302 33.5137 162.851 33.5137C167.649 33.5137 171.323 36.5126 171.323 41.6109C171.323 46.7092 167.649 49.7082 162.851 49.7082ZM143.358 26.8409C145.532 26.8409 146.657 27.2158 146.657 27.2158V33.8885C146.657 33.8885 140.659 31.8642 136.91 36.1378V55.8561H129.712V27.5907C129.712 27.5907 135.26 27.5907 135.785 27.5907C136.385 27.5907 136.835 28.1155 136.835 28.6403V29.8399C138.184 28.2654 141.108 26.8409 143.358 26.8409ZM68.608 53.232C68.2331 52.3323 67.8583 51.3576 67.4834 50.5329C66.8836 49.1833 66.2838 47.9088 65.759 46.7092L65.684 46.6342C60.5108 35.388 54.9626 23.9919 49.1146 12.7457L48.8897 12.2958C48.2899 11.1712 47.6901 9.97162 47.0903 8.77203C46.3406 7.42249 45.5908 5.99797 44.3912 4.64843C41.992 1.64944 38.5432 0 34.8694 0C31.1207 0 27.7469 1.64944 25.2727 4.49848C24.1481 5.84802 23.3234 7.27254 22.5736 8.62208C21.9738 9.82167 21.374 11.0213 20.7742 12.1459L20.5493 12.5957C14.7762 23.8419 9.15315 35.2381 3.9799 46.4843L3.90493 46.6342C3.38011 47.8338 2.78031 49.1084 2.18051 50.4579C1.80564 51.2826 1.43077 52.1823 1.05589 53.157C0.0812225 55.9311 -0.218676 58.5552 0.156197 61.2543C0.980918 66.8774 4.72965 71.6008 9.9029 73.7C11.8522 74.5248 13.8766 74.8996 15.9758 74.8996C16.5756 74.8996 17.3254 74.8247 17.9252 74.7497C20.3993 74.4498 22.9485 73.6251 25.4226 72.2006C28.4966 70.4761 31.4206 68.002 34.7195 64.4032C38.0184 68.002 41.0174 70.4761 44.0163 72.2006C46.4905 73.6251 49.0396 74.4498 51.5138 74.7497C52.1136 74.8247 52.8634 74.8996 53.4631 74.8996C55.5624 74.8996 57.6617 74.5248 59.5361 73.7C64.7843 71.6008 68.4581 66.8024 69.2828 61.2543C69.8826 58.6301 69.5827 56.006 68.608 53.232ZM34.7945 57.1307C30.7458 52.0324 28.1217 47.234 27.222 43.1854C26.8472 41.461 26.7722 39.9615 26.9971 38.6119C27.1471 37.4123 27.5969 36.3627 28.1967 35.463C29.6212 33.4387 32.0204 32.1641 34.7945 32.1641C37.5685 32.1641 40.0427 33.3637 41.3922 35.463C41.992 36.3627 42.4419 37.4123 42.5918 38.6119C42.8168 39.9615 42.7418 41.5359 42.3669 43.1854C41.4672 47.159 38.8431 51.9574 34.7945 57.1307ZM64.7093 60.6545C64.1845 64.5531 61.5604 67.927 57.8866 69.4265C56.0873 70.1762 54.1379 70.4012 52.1886 70.1762C50.3142 69.9513 48.4399 69.3515 46.4905 68.2269C43.7914 66.7274 41.0923 64.4032 37.9434 60.9544C42.8917 54.8814 45.8907 49.3333 47.0153 44.385C47.5402 42.0608 47.6151 39.9615 47.3902 38.0121C47.0903 36.1378 46.4155 34.4133 45.3659 32.9139C43.0417 29.54 39.143 27.5907 34.7945 27.5907C30.4459 27.5907 26.5473 29.615 24.223 32.9139C23.1734 34.4133 22.4986 36.1378 22.1987 38.0121C21.8988 39.9615 21.9738 42.1357 22.5736 44.385C23.6982 49.3333 26.7722 54.9564 31.6455 61.0293C28.5716 64.4782 25.7975 66.8024 23.0984 68.3019C21.1491 69.4265 19.2747 70.0263 17.4004 70.2512C15.376 70.4761 13.4267 70.1762 11.7023 69.5015C8.02853 68.002 5.40442 64.6281 4.8796 60.7294C4.65467 58.8551 4.80462 56.9807 5.55437 54.8814C5.77929 54.1317 6.15417 53.3819 6.52904 52.4822C7.05386 51.2826 7.65366 50.0081 8.25346 48.7335L8.32843 48.5836C13.5017 37.4123 19.0498 26.0162 24.8228 14.9199L25.0478 14.4701C25.6476 13.3455 26.2474 12.1459 26.8472 11.0213C27.447 9.82167 28.1217 8.69706 28.9464 7.72239C30.5209 5.92299 32.6202 4.94832 34.9444 4.94832C37.2686 4.94832 39.3679 5.92299 40.9424 7.72239C41.7671 8.69706 42.4419 9.82167 43.0417 11.0213C43.6415 12.1459 44.2413 13.3455 44.8411 14.4701L45.066 14.9199C50.7641 26.0912 56.3122 37.4873 61.4854 48.6585V48.7335C62.0852 49.9331 62.6101 51.2826 63.2098 52.4822C63.5847 53.3819 63.9596 54.1317 64.1845 54.8814C64.7843 56.8308 65.0092 58.7051 64.7093 60.6545Z" fill="white"/>
</svg>
