<svg width="198" height="121" viewBox="0 0 198 121" fill="none" xmlns="http://www.w3.org/2000/svg">
<path d="M1.488 53L13.296 22.088H21.648L33.456 53H25.392L22.608 45.992H12.288L9.552 53H1.488ZM13.344 40.28H21.552L17.424 29.528L13.344 40.28ZM37.3699 53V22.088H45.0979V34.088L55.7539 22.088H64.5859L53.5459 34.712L65.2579 53H57.0019L48.7459 39.656L45.0979 43.64V53H37.3699ZM69.198 53V22.088H82.59C85.726 22.088 88.366 22.616 90.51 23.672C92.654 24.696 94.286 26.36 95.406 28.664C96.526 30.936 97.086 33.96 97.086 37.736C97.086 43.048 95.854 46.92 93.39 49.352C90.958 51.784 87.358 53 82.59 53H69.198ZM76.926 47.048H81.534C83.198 47.048 84.59 46.808 85.71 46.328C86.862 45.816 87.726 44.888 88.302 43.544C88.91 42.2 89.214 40.264 89.214 37.736C89.214 35.176 88.942 33.208 88.398 31.832C87.886 30.424 87.054 29.448 85.902 28.904C84.782 28.328 83.326 28.04 81.534 28.04H76.926V47.048ZM101.026 53V22.088H123.826V28.04H108.754V34.52H122.05V40.568H108.754V47.048H123.826V53H101.026ZM127.511 53V22.088H134.135L147.287 40.568V22.088H155.062V53H148.391L135.239 34.568V53H127.511ZM161.004 18.44V13.208H166.62V18.44H161.004ZM159.948 53V22.088H167.676V53H159.948ZM171.597 53V49.064L186.093 28.232H172.317V22.088H196.221V26.408L181.869 47.048H196.509V53H171.597Z" fill="#163C74"/>
<path d="M51.0487 80L46.1287 67.12H48.9487L52.5087 76.98L56.0887 67.12H58.9087L54.0087 80H51.0487ZM63.7296 80.2C61.9563 80.2 60.6563 79.7733 59.8296 78.92C59.0029 78.0533 58.5896 76.8333 58.5896 75.26C58.5896 73.6867 59.0029 72.4733 59.8296 71.62C60.6696 70.7533 61.9696 70.32 63.7296 70.32C65.5029 70.32 66.8029 70.7533 67.6296 71.62C68.4696 72.4733 68.8896 73.6867 68.8896 75.26C68.8896 76.8333 68.4763 78.0533 67.6496 78.92C66.8229 79.7733 65.5163 80.2 63.7296 80.2ZM63.7296 77.9C64.5963 77.9 65.2163 77.7067 65.5896 77.32C65.9629 76.92 66.1496 76.2333 66.1496 75.26C66.1496 74.2867 65.9629 73.6067 65.5896 73.22C65.2163 72.82 64.5963 72.62 63.7296 72.62C62.8763 72.62 62.2629 72.82 61.8896 73.22C61.5163 73.6067 61.3296 74.2867 61.3296 75.26C61.3296 76.2333 61.5163 76.92 61.8896 77.32C62.2629 77.7067 62.8763 77.9 63.7296 77.9ZM73.407 80.2C72.487 80.2 71.8136 79.9867 71.387 79.56C70.9736 79.1333 70.767 78.4533 70.767 77.52V66.52H73.467V77.3C73.467 77.6333 73.5336 77.8667 73.667 78C73.8003 78.12 73.9936 78.18 74.247 78.18C74.5936 78.18 74.907 78.1333 75.187 78.04V79.9C74.6803 80.1 74.087 80.2 73.407 80.2ZM76.724 80V66.52H79.424V73.94L82.964 70.52H86.044L82.224 74.4L86.264 80H83.404L80.524 75.82L79.424 76.88V80H76.724ZM90.6499 80.2C89.9433 80.2 89.2699 80.1467 88.6299 80.04C87.9899 79.9467 87.4766 79.8267 87.0899 79.68V77.44C87.5566 77.6267 88.0833 77.7733 88.6699 77.88C89.2566 77.9733 89.7966 78.02 90.2899 78.02C90.9566 78.02 91.4233 77.98 91.6899 77.9C91.9699 77.82 92.1099 77.64 92.1099 77.36C92.1099 77.04 91.8966 76.8067 91.4699 76.66C91.0566 76.5133 90.4366 76.3067 89.6099 76.04C88.7433 75.7467 88.0766 75.3933 87.6099 74.98C87.1433 74.5667 86.9099 73.9533 86.9099 73.14C86.9099 72.2333 87.2366 71.54 87.8899 71.06C88.5566 70.5667 89.6233 70.32 91.0899 70.32C91.6766 70.32 92.2299 70.3667 92.7499 70.46C93.2699 70.54 93.7099 70.64 94.0699 70.76V72.98C93.7099 72.8067 93.2966 72.68 92.8299 72.6C92.3633 72.5067 91.9299 72.46 91.5299 72.46C90.9566 72.46 90.4966 72.5 90.1499 72.58C89.8166 72.66 89.6499 72.8333 89.6499 73.1C89.6499 73.3933 89.8299 73.6 90.1899 73.72C90.5633 73.84 91.1366 74.02 91.9099 74.26C92.6699 74.4867 93.2633 74.7333 93.6899 75C94.1166 75.2667 94.4166 75.5867 94.5899 75.96C94.7633 76.32 94.8499 76.7733 94.8499 77.32C94.8499 79.24 93.4499 80.2 90.6499 80.2ZM97.9255 80L95.4255 70.52H98.1255L99.5655 76.68L101.146 71.74V70.52H103.206L105.006 76.68L106.406 70.52H109.086L106.606 80H104.126L102.306 74.46L100.446 80H97.9255ZM113.044 80.2C112.444 80.2 111.884 80.0933 111.364 79.88C110.857 79.6533 110.444 79.3267 110.124 78.9C109.817 78.46 109.664 77.9133 109.664 77.26C109.664 76.3267 109.99 75.58 110.644 75.02C111.31 74.46 112.29 74.18 113.584 74.18H116.384V73.92C116.384 73.3333 116.217 72.92 115.884 72.68C115.564 72.44 114.91 72.32 113.924 72.32C112.844 72.32 111.804 72.4867 110.804 72.82V70.92C111.244 70.7467 111.777 70.6067 112.404 70.5C113.044 70.38 113.737 70.32 114.484 70.32C115.91 70.32 117.01 70.6133 117.784 71.2C118.57 71.7733 118.964 72.7 118.964 73.98V80H116.624L116.484 79.14C116.11 79.4733 115.65 79.7333 115.104 79.92C114.557 80.1067 113.87 80.2 113.044 80.2ZM113.784 78.42C114.384 78.42 114.904 78.32 115.344 78.12C115.784 77.92 116.13 77.6667 116.384 77.36V75.86H113.644C112.59 75.86 112.064 76.2933 112.064 77.16C112.064 78 112.637 78.42 113.784 78.42ZM125.138 83.52C124.431 83.52 123.705 83.4733 122.958 83.38C122.225 83.2867 121.605 83.1533 121.098 82.98V80.96C121.631 81.1333 122.258 81.2667 122.978 81.36C123.698 81.4667 124.371 81.52 124.998 81.52C125.918 81.52 126.585 81.4667 126.998 81.36C127.411 81.2667 127.618 81.0933 127.618 80.84C127.618 80.6267 127.525 80.48 127.338 80.4C127.165 80.32 126.791 80.28 126.218 80.28H123.638C121.945 80.28 121.098 79.6533 121.098 78.4C121.098 78.0133 121.205 77.66 121.418 77.34C121.631 77.02 121.971 76.7667 122.438 76.58C121.358 76.0333 120.818 75.1133 120.818 73.82C120.818 72.5933 121.198 71.7067 121.958 71.16C122.718 70.6 123.845 70.32 125.338 70.32C125.645 70.32 125.978 70.3467 126.338 70.4C126.711 70.44 126.991 70.48 127.178 70.52H130.738L130.678 72.22H129.178C129.591 72.6067 129.798 73.1467 129.798 73.84C129.798 74.8133 129.491 75.5933 128.878 76.18C128.265 76.7533 127.358 77.04 126.158 77.04C125.945 77.04 125.738 77.0333 125.538 77.02C125.351 76.9933 125.158 76.9667 124.958 76.94C124.558 76.9933 124.218 77.0867 123.938 77.22C123.671 77.3533 123.538 77.5333 123.538 77.76C123.538 78.0667 123.811 78.22 124.358 78.22H127.038C127.998 78.22 128.738 78.44 129.258 78.88C129.778 79.3067 130.038 79.9333 130.038 80.76C130.038 81.6933 129.618 82.3867 128.778 82.84C127.938 83.2933 126.725 83.52 125.138 83.52ZM125.358 75.52C126.158 75.52 126.711 75.3867 127.018 75.12C127.338 74.84 127.498 74.3733 127.498 73.72C127.498 73.0667 127.338 72.5933 127.018 72.3C126.711 72.0067 126.158 71.86 125.358 71.86C124.598 71.86 124.051 72.0067 123.718 72.3C123.385 72.58 123.218 73.0533 123.218 73.72C123.218 74.3333 123.371 74.7867 123.678 75.08C123.998 75.3733 124.558 75.52 125.358 75.52ZM137.113 80.2C135.473 80.2 134.173 79.7933 133.213 78.98C132.253 78.1533 131.773 76.9067 131.773 75.24C131.773 73.7333 132.173 72.54 132.973 71.66C133.787 70.7667 134.993 70.32 136.593 70.32C138.06 70.32 139.18 70.7067 139.953 71.48C140.74 72.24 141.133 73.24 141.133 74.48V76.2H134.273C134.42 76.96 134.767 77.48 135.313 77.76C135.873 78.04 136.66 78.18 137.673 78.18C138.18 78.18 138.693 78.1333 139.213 78.04C139.747 77.9467 140.2 77.8267 140.573 77.68V79.6C140.133 79.8 139.62 79.9467 139.033 80.04C138.447 80.1467 137.807 80.2 137.113 80.2ZM134.273 74.54H138.773V74.02C138.773 73.4733 138.613 73.0467 138.293 72.74C137.973 72.42 137.433 72.26 136.673 72.26C135.78 72.26 135.153 72.44 134.793 72.8C134.447 73.16 134.273 73.74 134.273 74.54ZM143.013 80V70.52H145.513L145.613 71.42C146 71.1267 146.486 70.8733 147.073 70.66C147.673 70.4333 148.3 70.32 148.953 70.32C150.206 70.32 151.12 70.6133 151.693 71.2C152.266 71.7867 152.553 72.6933 152.553 73.92V80H149.853V74.06C149.853 73.42 149.72 72.9667 149.453 72.7C149.2 72.4333 148.72 72.3 148.013 72.3C147.6 72.3 147.18 72.3933 146.753 72.58C146.34 72.7667 145.993 73 145.713 73.28V80H143.013Z" fill="black"/>
<path d="M39.9028 111V105.24L34.3828 95.544H36.4228L40.8868 103.56L45.3508 95.544H47.3908L41.8708 105.24V111H39.9028ZM53.8198 111.24C51.7878 111.24 50.2678 110.752 49.2598 109.776C48.2518 108.8 47.7478 107.296 47.7478 105.264C47.7478 103.44 48.1798 102.008 49.0438 100.968C49.9238 99.912 51.3078 99.384 53.1958 99.384C54.3158 99.384 55.2358 99.592 55.9558 100.008C56.6918 100.408 57.2358 100.968 57.5878 101.688C57.9558 102.392 58.1398 103.192 58.1398 104.088V106.224H49.7158C49.7798 107.088 49.9638 107.768 50.2678 108.264C50.5878 108.76 51.0598 109.12 51.6838 109.344C52.3238 109.552 53.1638 109.656 54.2038 109.656C55.3718 109.656 56.4438 109.456 57.4198 109.056V110.592C56.9238 110.8 56.3638 110.96 55.7398 111.072C55.1318 111.184 54.4918 111.24 53.8198 111.24ZM49.7158 104.808H56.3878V103.872C56.3878 102.944 56.1398 102.232 55.6438 101.736C55.1638 101.224 54.3638 100.968 53.2438 100.968C51.8838 100.968 50.9558 101.288 50.4598 101.928C49.9638 102.568 49.7158 103.528 49.7158 104.808ZM65.9207 111.24C64.3207 111.24 63.0647 110.8 62.1527 109.92C61.2407 109.024 60.7847 107.544 60.7847 105.48C60.7847 103.432 61.2567 101.904 62.2007 100.896C63.1607 99.888 64.4407 99.384 66.0407 99.384C67.4647 99.384 68.6967 99.744 69.7367 100.464V94.824H71.7047V111H70.0247L69.8807 109.8C69.3527 110.296 68.7687 110.664 68.1287 110.904C67.5047 111.128 66.7687 111.24 65.9207 111.24ZM66.4247 109.656C67.0807 109.656 67.6887 109.544 68.2487 109.32C68.8087 109.096 69.3047 108.752 69.7367 108.288V102.096C69.3367 101.744 68.8647 101.472 68.3207 101.28C67.7767 101.072 67.1607 100.968 66.4727 100.968C65.2087 100.968 64.2727 101.336 63.6647 102.072C63.0567 102.792 62.7527 103.928 62.7527 105.48C62.7527 106.968 63.0327 108.04 63.5927 108.696C64.1527 109.336 65.0967 109.656 66.4247 109.656ZM80.667 111.24C78.635 111.24 77.115 110.752 76.107 109.776C75.099 108.8 74.595 107.296 74.595 105.264C74.595 103.44 75.027 102.008 75.891 100.968C76.771 99.912 78.155 99.384 80.043 99.384C81.163 99.384 82.083 99.592 82.803 100.008C83.539 100.408 84.083 100.968 84.435 101.688C84.803 102.392 84.987 103.192 84.987 104.088V106.224H76.563C76.627 107.088 76.811 107.768 77.115 108.264C77.435 108.76 77.907 109.12 78.531 109.344C79.171 109.552 80.011 109.656 81.051 109.656C82.219 109.656 83.291 109.456 84.267 109.056V110.592C83.771 110.8 83.211 110.96 82.587 111.072C81.979 111.184 81.339 111.24 80.667 111.24ZM76.563 104.808H83.235V103.872C83.235 102.944 82.987 102.232 82.491 101.736C82.011 101.224 81.211 100.968 80.091 100.968C78.731 100.968 77.803 101.288 77.307 101.928C76.811 102.568 76.563 103.528 76.563 104.808ZM88.1119 111V94.824H90.0799V104.64L95.4079 99.624H97.6879L93.0319 104.136L97.9519 111H95.8879L91.7839 105.192L90.0799 106.8V111H88.1119ZM106.475 111V95.544H113.003C114.731 95.544 116.003 96.008 116.819 96.936C117.635 97.864 118.043 99.064 118.043 100.536C118.043 102.04 117.579 103.232 116.651 104.112C115.739 104.976 114.491 105.408 112.907 105.408H108.443V111H106.475ZM108.443 103.872H112.595C113.747 103.872 114.611 103.576 115.187 102.984C115.779 102.376 116.075 101.56 116.075 100.536C116.075 99.448 115.795 98.608 115.235 98.016C114.691 97.408 113.851 97.104 112.715 97.104H108.443V103.872ZM123.743 111.24C123.023 111.24 122.359 111.112 121.751 110.856C121.143 110.6 120.655 110.224 120.287 109.728C119.919 109.216 119.735 108.576 119.735 107.808C119.735 106.768 120.079 105.92 120.767 105.264C121.455 104.592 122.575 104.256 124.127 104.256H128.087V103.56C128.087 102.936 127.999 102.44 127.823 102.072C127.663 101.704 127.351 101.44 126.887 101.28C126.423 101.12 125.743 101.04 124.847 101.04C124.159 101.04 123.495 101.096 122.855 101.208C122.215 101.32 121.615 101.472 121.055 101.664V100.032C121.567 99.84 122.167 99.688 122.855 99.576C123.559 99.448 124.311 99.384 125.111 99.384C126.727 99.384 127.935 99.712 128.735 100.368C129.551 101.024 129.959 102.088 129.959 103.56V111H128.303L128.159 109.704C127.663 110.216 127.063 110.6 126.359 110.856C125.655 111.112 124.783 111.24 123.743 111.24ZM124.247 109.632C125.079 109.632 125.815 109.488 126.455 109.2C127.095 108.896 127.639 108.488 128.087 107.976V105.768H124.175C123.279 105.768 122.639 105.936 122.255 106.272C121.871 106.608 121.679 107.12 121.679 107.808C121.679 108.496 121.911 108.976 122.375 109.248C122.839 109.504 123.463 109.632 124.247 109.632ZM133.439 111V99.624H135.215L135.359 101.064C135.919 100.696 136.575 100.36 137.327 100.056C138.095 99.752 138.847 99.528 139.583 99.384V100.92C139.135 101.016 138.647 101.152 138.119 101.328C137.591 101.488 137.087 101.672 136.607 101.88C136.127 102.088 135.727 102.304 135.407 102.528V111H133.439ZM146.235 116.76C145.979 116.76 145.675 116.736 145.323 116.688C144.987 116.656 144.731 116.616 144.555 116.568V115.368C145.019 115.496 145.523 115.56 146.067 115.56C146.819 115.56 147.363 115.472 147.699 115.296C148.051 115.12 148.227 114.784 148.227 114.288C148.227 113.824 148.059 113.52 147.723 113.376C147.387 113.248 146.875 113.184 146.187 113.184H145.299L145.923 111.192C144.275 111.032 143.043 110.448 142.227 109.44C141.427 108.432 141.027 107.056 141.027 105.312C141.027 103.312 141.571 101.824 142.659 100.848C143.747 99.872 145.211 99.384 147.051 99.384C147.803 99.384 148.427 99.44 148.923 99.552C149.419 99.648 149.899 99.808 150.363 100.032V101.592C149.499 101.176 148.515 100.968 147.411 100.968C146.003 100.968 144.915 101.304 144.147 101.976C143.379 102.632 142.995 103.744 142.995 105.312C142.995 106.816 143.331 107.92 144.003 108.624C144.675 109.312 145.787 109.656 147.339 109.656C148.443 109.656 149.459 109.448 150.387 109.032V110.616C149.939 110.792 149.459 110.928 148.947 111.024C148.451 111.136 147.907 111.208 147.315 111.24L147.003 112.152C147.883 112.152 148.547 112.336 148.995 112.704C149.443 113.088 149.667 113.624 149.667 114.312C149.667 115.096 149.387 115.696 148.827 116.112C148.283 116.544 147.419 116.76 146.235 116.76ZM157.041 111.24C156.321 111.24 155.657 111.112 155.049 110.856C154.441 110.6 153.953 110.224 153.585 109.728C153.217 109.216 153.033 108.576 153.033 107.808C153.033 106.768 153.377 105.92 154.065 105.264C154.753 104.592 155.873 104.256 157.425 104.256H161.385V103.56C161.385 102.936 161.297 102.44 161.121 102.072C160.961 101.704 160.649 101.44 160.185 101.28C159.721 101.12 159.041 101.04 158.145 101.04C157.457 101.04 156.793 101.096 156.153 101.208C155.513 101.32 154.913 101.472 154.353 101.664V100.032C154.865 99.84 155.465 99.688 156.153 99.576C156.857 99.448 157.609 99.384 158.409 99.384C160.025 99.384 161.233 99.712 162.033 100.368C162.849 101.024 163.257 102.088 163.257 103.56V111H161.601L161.457 109.704C160.961 110.216 160.361 110.6 159.657 110.856C158.953 111.112 158.081 111.24 157.041 111.24ZM157.545 109.632C158.377 109.632 159.113 109.488 159.753 109.2C160.393 108.896 160.937 108.488 161.385 107.976V105.768H157.473C156.577 105.768 155.937 105.936 155.553 106.272C155.169 106.608 154.977 107.12 154.977 107.808C154.977 108.496 155.209 108.976 155.673 109.248C156.137 109.504 156.761 109.632 157.545 109.632Z" fill="#193D6E"/>
</svg>
