<svg width="177" height="121" viewBox="0 0 177 121" fill="none" xmlns="http://www.w3.org/2000/svg">
<path d="M58.3226 120C58.5967 119.512 58.0713 119.359 57.9146 119.057C57.7514 118.741 57.6568 118.445 57.9636 118.188C58.1888 117.999 58.5054 117.97 58.711 118.165C59.0765 118.51 59.4225 118.975 59.837 118.305C60.1797 117.749 60.8063 117.28 60.369 116.431C59.54 114.811 59.0373 113.026 57.6992 111.555C58.6522 111.132 59.5269 111.321 60.4897 111.412C59.318 112.99 60.7508 113.897 61.2469 115.521C61.7658 113.91 62.9963 112.905 61.681 111.48C62.5165 111.23 63.2345 111.262 64.1222 111.458C61.9812 114.102 61.6385 117.593 59.2984 120.003H58.3226V120Z" fill="#CA9460"/>
<path d="M36.4157 113.061C37.8942 112.804 39.0692 112.821 40.4693 113.032C38.5437 114.122 39.8688 115.96 39.0659 117.459C38.5665 116.259 38.0476 116.34 37.1501 116.991C36.0241 117.808 34.7121 117.372 33.6383 116.685C31.8922 115.569 31.4418 113.806 31.6637 111.881C31.8694 110.088 32.8517 108.777 34.5685 108.11C35.3354 107.814 36.1514 107.782 36.9412 108.11C37.1403 108.192 37.3231 108.325 37.5319 108.38C39.1769 108.8 39.5 109.486 38.968 111.581C38.2695 111.113 38.3087 110.244 37.8257 109.688C37.1795 108.943 36.4843 108.445 35.4464 108.628C34.4738 108.8 33.9418 109.486 33.6612 110.326C33.1324 111.903 33.1618 113.53 33.6905 115.088C34.092 116.272 35.0156 116.959 36.3407 116.666C37.434 116.422 37.8387 115.661 37.9007 114.522C37.9562 113.54 37.0881 113.611 36.4125 113.068L36.4157 113.061Z" fill="#CA9460"/>
<path d="M92.0631 117.027H89.0996C90.4377 115.517 89.9775 113.868 89.6871 112.251C89.6414 111.994 89.1029 111.848 89.4292 111.471C89.6642 111.194 90.1244 111.149 90.3268 111.298C91.0774 111.851 91.8216 111.282 92.4645 111.373C93.9528 111.578 95.3431 111.529 96.8347 111.373C98.052 111.243 98.2348 112.606 98.3229 113.663C98.4143 114.743 97.977 115.917 99.0475 116.981H92.6538C94.0572 115.755 93.4926 114.255 93.3457 112.843C93.2968 112.378 92.8594 112.147 92.3633 112.199C91.7465 112.268 91.2994 112.664 91.2635 113.221C91.1819 114.496 90.6662 115.875 92.0631 117.03V117.027ZM97.0533 114.441H97.0631C97.0631 114.226 97.0696 114.011 97.0631 113.797C97.0337 113.104 97.1023 112.271 96.1232 112.225C95.1995 112.183 94.8046 112.84 94.7622 113.686C94.7263 114.379 94.7361 115.078 94.7622 115.771C94.7916 116.529 95.4149 116.575 95.9306 116.562C96.4397 116.549 97.0598 116.5 97.0566 115.722C97.0566 115.293 97.0566 114.867 97.0566 114.437L97.0533 114.441Z" fill="#CA9460"/>
<path d="M135.435 116.975H128.539C129.874 115.589 129.815 109.574 128.52 108.358C130.412 107.619 130.631 107.756 130.638 109.691C130.641 110.983 130.638 112.274 130.638 113.784C131.529 113.156 132.939 113.081 131.741 111.438H134.903C134.192 112.515 132.051 112.375 132.762 114.06C133.216 115.137 134.052 116.113 135.435 116.975ZM132.746 116.191C132.025 115.778 132.26 114.311 131.026 114.662C130.501 114.812 130.501 115.527 130.683 115.921C131.117 116.851 131.917 116.581 132.746 116.194V116.191Z" fill="#CA9460"/>
<path d="M119.227 117.023C118.036 117.095 117.096 117.189 116.064 116.962C117.36 116.035 117.324 112.46 116.126 111.532C116.404 111.168 116.877 111.158 117.151 111.292C118.111 111.757 118.982 111.506 119.955 111.311C121.251 111.048 121.965 111.998 122.099 113.702C122.184 114.792 121.574 116.074 123.147 116.913C121.955 117.212 121.016 117.085 119.785 117.033C121.348 115.93 120.764 114.509 120.794 113.221C120.807 112.707 120.428 112.333 119.893 112.212C119.299 112.082 118.835 112.303 118.489 112.788C117.843 113.702 118.153 116.057 119.224 117.023H119.227Z" fill="#CA9460"/>
<path d="M144.643 111.529C146.643 111.077 146.679 111.168 146.81 112.967C146.905 114.258 146.147 115.774 147.652 116.786C147.521 117.232 147.136 117.085 146.859 117.085C145.837 117.082 144.897 116.714 143.781 117.206C142.694 117.684 141.816 116.545 141.696 115C141.608 113.845 142.241 112.482 140.805 111.663C142.574 110.879 142.916 111.077 142.929 112.853C142.936 113.608 142.929 114.363 142.939 115.117C142.949 115.713 143.213 116.184 143.801 116.347C144.483 116.536 144.927 116.129 145.263 115.592C145.919 114.538 145.658 112.538 144.64 111.526L144.643 111.529Z" fill="#CA9460"/>
<path d="M49.5331 116.425C49.2688 117.511 48.3908 117.401 47.6206 117.303C46.9711 117.219 46.3641 116.929 46.2694 116.126C46.1715 115.309 46.6154 114.815 47.2453 114.408C47.7544 114.079 48.2929 113.875 48.8967 113.787C49.4483 113.705 49.9835 113.513 49.8726 112.765C49.791 112.212 49.4679 111.9 48.9 111.864C48.2864 111.828 47.8066 111.949 47.8947 112.736C47.9306 113.078 47.8621 113.39 47.4639 113.491C47.1832 113.562 46.9058 113.517 46.7361 113.276C46.4979 112.938 46.4979 112.528 46.7133 112.206C47.4705 111.074 48.6519 111.145 49.7877 111.279C50.7309 111.389 51.1781 112.027 51.1715 112.973C51.1683 113.566 51.1911 114.161 51.1715 114.753C51.1389 115.628 51.0442 116.519 52.4215 116.627C51.1585 118.064 50.4176 116.584 49.5233 116.435C49.6506 116.031 49.8334 115.634 49.8954 115.221C49.9998 114.515 49.8758 114.05 48.9457 114.398C48.1297 114.704 47.3366 115.036 47.6434 116.061C47.9894 117.206 48.8673 116.457 49.5364 116.425H49.5331Z" fill="#CA9460"/>
<path d="M109.968 115.55C109.556 117.017 108.502 117.502 107.174 117.293C105.62 117.046 104.762 115.667 104.909 113.884C105.03 112.427 105.97 111.366 107.288 111.243C108.724 111.106 109.684 111.695 110.105 113.11C110.356 113.959 110.235 114.493 109.178 114.431C108.639 114.398 108.088 114.372 107.556 114.444C107.102 114.502 106.299 114.086 106.309 114.971C106.315 115.667 106.626 116.321 107.49 116.503C108.538 116.721 109.201 116.077 109.968 115.553V115.55ZM107.461 113.835C108.101 113.787 108.884 114.014 108.838 112.98C108.806 112.212 108.368 111.799 107.614 111.819C106.688 111.845 106.28 112.515 106.276 113.302C106.27 114.187 107.076 113.67 107.464 113.839L107.461 113.835Z" fill="#CA9460"/>
<path d="M73.091 117.014H69.5172C70.9239 115.592 70.888 112.778 69.3965 111.552C70.2646 111.331 70.9827 110.771 71.6419 111.828C72.014 112.427 72.2327 111.77 72.4611 111.607C73.153 111.116 73.7731 111.132 74.2986 111.812C74.5989 112.199 74.5858 112.638 74.2105 112.98C73.8678 113.292 73.4794 113.237 73.2509 112.84C72.7026 111.893 72.4709 112.531 72.2261 113.029C71.358 114.782 71.5571 116.012 73.091 117.014Z" fill="#CA9460"/>
<path d="M153.481 116.988C154.953 115.55 154.777 109.46 153.314 108.348C155.348 107.593 155.628 107.775 155.632 109.857C155.632 111.529 155.638 113.201 155.632 114.873C155.625 115.67 155.524 116.49 157.038 116.874C155.508 117.167 154.538 117.144 153.484 116.988H153.481Z" fill="#CA9460"/>
<path d="M83.1597 117.033H79.6055C81.2047 116.366 81.1394 115.351 81.1166 114.314C81.0905 113.25 81.2928 112.128 79.7523 111.669C82.0435 110.931 82.2883 111.087 82.3013 113.081C82.3046 113.784 82.3535 114.489 82.2883 115.182C82.2132 115.973 82.5363 116.48 83.1597 117.033Z" fill="#CA9460"/>
<g clip-path="url(#clip0_814_413)">
<path d="M90.4108 0C93.8211 0.887626 96.8188 2.41846 98.8656 5.41259C99.2879 6.03007 99.8069 6.6379 100.01 7.33256C100.542 9.13998 101.39 10.5229 103.443 10.8027C103.675 10.8348 104.026 11.0503 104.075 11.2433C104.716 13.8836 107.256 13.9801 109.1 14.9964C109.783 15.3727 110.592 15.5335 111.127 16.1316C110.811 16.8745 109.931 16.0319 109.78 16.7202C109.664 17.254 110.209 17.5403 110.553 17.8554C111.076 18.3282 110.905 18.8042 110.628 19.2962C109.686 20.975 108.726 22.6441 107.798 24.3293C107.349 25.143 106.65 25.3713 105.783 25.3617C104.013 25.3456 102.244 25.3777 100.474 25.3617C99.491 25.352 99.2492 25.6543 99.3975 26.7156C100.748 36.4184 95.1685 43.8314 85.579 44.9055C84.2188 45.0567 83.9609 44.5582 84.496 43.3554C84.9215 42.4002 85.2019 41.3807 85.3889 40.3227C83.5129 44.7447 80.9729 48.8162 78.8938 53.1193C78.4748 53.9844 78.6682 54.4893 79.6739 54.4507C80.902 54.4057 81.6981 55.0778 82.3331 55.9783C82.9585 56.8627 82.7296 57.6057 81.6111 57.6571C79.4708 57.7536 77.3241 57.7021 75.1805 57.6861C74.3264 57.6796 74.1265 57.1651 74.2232 56.3868C74.5552 53.74 74.8324 51.0835 75.1773 48.4367C75.5254 45.7771 75.5512 45.7931 72.9049 45.5166C66.6097 44.8508 60.8173 42.7829 55.4827 39.3739C52.9492 37.7563 50.2319 36.4634 47.3663 35.5276C46.4251 35.2188 46.0125 34.8232 46.409 33.8038C46.7378 32.9547 46.7056 32.051 46.6314 31.3049C43.8368 39.2549 38.7375 44.8573 30.1892 46.9091C29.0771 47.176 27.9393 47.2532 26.8337 47.0989C25.5282 46.9155 24.8836 47.4558 24.3614 48.5686C23.6361 50.1155 22.7723 51.5981 21.9342 53.0903C21.4088 54.0262 21.4024 54.6019 22.7143 54.5343C23.1945 54.5086 23.7264 54.4797 24.11 54.8013C24.8255 55.4027 26.0149 55.943 25.7732 56.9431C25.5572 57.8308 24.371 57.387 23.6168 57.4127C22.0116 57.4706 20.3999 57.3902 18.7914 57.4416C17.4505 57.4834 16.9026 57.075 17.3216 55.6471C18.3756 52.058 19.3555 48.4464 20.3612 44.8444C20.5482 44.1755 20.8769 43.7252 21.6441 43.6127C24.8288 43.1528 26.7047 41.0013 28.1681 38.4123C29.2544 36.4924 29.8894 34.3891 30.3568 32.2343C30.9789 29.3817 32.4358 26.9536 34.4472 24.9018C36.2265 23.0911 38.4313 22.091 41.0679 22.0974C49.7548 22.1199 58.4385 22.091 67.1254 22.0845C67.7056 22.0845 68.2858 22.0845 68.8854 22.0845C68.9015 21.3641 68.028 21.5442 68.0151 20.9814C72.5567 18.5212 74.278 16.688 74.6519 13.8901C73.7365 13.9833 73.1273 14.871 71.9089 14.842C72.6889 12.2627 74.2941 10.4167 76.1733 8.74119C75.909 8.04652 75.0194 9.00812 74.9001 8.27808C74.8099 7.70884 75.3578 7.33578 75.7027 6.95307C77.1726 5.32576 79.1001 4.38346 81.4113 3.41221C80.6441 3.29001 80.1799 3.21282 79.6997 3.13564C81.2727 1.2832 84.7925 0.604615 90.2464 1.09345C90.4012 0.588535 89.8757 0.379492 89.7629 0H90.4076L90.4108 0Z" fill="#CA9460"/>
<path d="M0 24.3776C1.41827 24.3294 2.76885 24.6574 4.0743 25.1591C5.7182 25.7895 6.80125 26.8636 6.61752 28.7675C6.53693 29.6133 7.10746 30.0282 7.62964 30.4688C10.8304 33.1703 15.14 33.0063 18.2602 30.0314C19.8074 28.5553 21.3256 27.0437 22.8019 25.4968C25.0357 23.1523 27.7336 21.9785 30.9827 22.1071C32.3978 22.165 33.8322 21.9495 35.4922 22.2936C33.8676 23.5768 32.6041 24.9244 30.4702 24.6832C27.8916 24.3905 25.9575 25.738 24.2169 27.4168C22.7149 28.864 21.2611 30.3595 19.772 31.8195C16.0264 35.4987 10.2244 35.7142 6.21782 32.273C5.31206 31.4947 4.48366 30.7936 3.19755 30.6585C2.12096 30.546 1.52786 29.6166 1.0218 28.6935C0.444821 27.6387 0.470608 26.4166 0 25.3392V24.3776Z" fill="#CA9460"/>
<path d="M92.9744 102.952C65.9596 102.952 38.9448 102.952 11.93 102.952C11.3401 102.952 10.7503 102.942 10.1604 102.932C9.46094 102.92 9.0548 102.604 9.04513 101.865C9.03546 101.151 9.36746 100.755 10.0895 100.729C10.6794 100.71 11.2692 100.704 11.8591 100.701C55.3291 100.681 98.799 100.749 142.269 100.582C153.145 100.54 164.023 100.508 174.902 100.424C175.888 100.417 177.084 100.186 176.994 101.839C176.955 102.534 176.691 102.958 175.946 102.974C175.357 102.987 174.767 103 174.177 103C147.107 103 120.041 103 92.9712 103V102.952H92.9744Z" fill="#CA9460"/>
<path d="M148.85 68.6336C148.428 70.3734 148.953 71.8978 148.95 73.4351C148.941 78.2977 148.999 83.1604 149.002 88.0198C149.002 89.2033 149.134 90.3643 149.347 91.5221C149.737 93.6511 150.813 95.1498 153.031 95.6901C153.611 95.8316 154.472 95.8476 154.369 96.761C154.253 97.7837 153.344 97.52 152.705 97.5264C149.866 97.5586 147.023 97.5554 144.183 97.5393C143.577 97.5361 142.771 97.7162 142.652 96.7964C142.533 95.8766 143.355 95.8541 143.941 95.6804C146.152 95.0308 147.271 93.3842 147.297 91.2777C147.387 83.5334 147.316 75.786 147.297 68.0386C147.29 65.2503 145.575 63.8127 143.161 62.9733C142.652 62.7964 142.023 62.7418 142.091 62.0214C142.168 61.1981 142.868 61.2527 143.448 61.2495C145.698 61.2334 147.951 61.2817 150.201 61.2334C151.297 61.2109 151.825 61.8992 152.37 62.6389C158.121 70.4924 163.868 78.346 169.622 86.1931C169.87 86.5308 170.024 86.9585 170.492 87.1322C171.091 86.8653 170.85 86.3153 170.859 85.894C170.991 80.0183 170.721 74.1491 170.521 68.2798C170.424 65.4239 169.074 63.7998 166.276 62.9476C165.763 62.7932 165.128 62.7611 165.18 62.031C165.231 61.301 165.85 61.2849 166.389 61.2817C169.496 61.2753 172.606 61.2817 175.714 61.2978C176.194 61.2978 176.732 61.3235 176.848 61.9474C176.964 62.5745 176.516 62.79 176.017 62.9154C172.942 63.6937 172.149 65.9835 172.12 68.7718C172.023 77.6931 172.316 86.608 172.426 95.5228C172.439 96.449 173 97.8191 171.752 98.205C170.64 98.5491 170.24 97.2113 169.699 96.4844C163.294 87.8526 156.925 79.195 150.533 70.5503C150.066 69.92 149.701 69.1867 148.86 68.6303L148.85 68.6336ZM170.914 96.5359C171.175 94.9954 170.743 94.066 170.121 93.2041C168.429 90.866 166.721 88.5376 165.009 86.2156C159.771 79.1178 154.53 72.0233 149.292 64.9255C148.522 63.8802 147.671 62.9733 146.23 62.9862C154.411 74.1072 162.556 85.1704 170.914 96.5327V96.5359Z" fill="#CA9460"/>
<path d="M46.3315 90.8338C46.3315 89.3384 46.2992 87.8397 46.3476 86.3475C46.3701 85.6592 46.022 84.6912 47.0406 84.45C48.1655 84.1831 48.2912 85.2026 48.5556 85.9294C49.7353 89.1712 51.1568 92.2521 53.8451 94.587C56.485 96.88 59.8759 97.2048 62.5481 95.2816C65.0591 93.4774 65.6135 90.8821 65.2299 88.0198C64.8689 85.3248 63.3023 83.5077 60.7172 82.7198C58.8251 82.1441 56.8685 81.7871 54.9313 81.369C46.3282 79.5166 43.0759 70.4892 48.5427 63.549C50.6088 60.9247 53.4196 60.2365 56.6042 60.7092C57.5035 60.8443 58.3964 61.0437 59.2828 61.2495C60.6108 61.5583 61.8905 61.6515 63.2217 61.1273C64.4079 60.661 65.2944 60.9183 65.4136 62.4684C65.6135 65.0734 65.9132 67.6719 66.1679 70.2705C66.2162 70.769 66.2291 71.2707 65.607 71.4315C65.0107 71.5859 64.5917 71.3511 64.279 70.8108C63.3958 69.2864 62.5674 67.7202 61.5617 66.2762C60.2627 64.4141 58.6962 62.8222 56.3722 62.1983C53.3938 61.3942 50.3477 62.9637 49.2582 65.9128C48.0237 69.251 49.0455 72.0715 52.1367 73.4061C54.754 74.5382 57.597 74.9273 60.3562 75.5802C65.1235 76.709 67.9182 79.7578 68.6047 84.5047C69.2913 89.2451 68.0277 93.4549 64.0082 96.4201C61.3232 98.4012 58.2997 98.7099 55.157 97.491C54.1577 97.1051 53.1714 96.687 52.1625 96.3333C50.7539 95.8412 49.4226 95.9088 48.2783 97.0086C47.869 97.4042 47.3855 97.6583 46.8278 97.3913C46.3057 97.1437 46.3476 96.597 46.3443 96.121C46.3314 94.3586 46.3379 92.5962 46.3379 90.8306H46.3315V90.8338ZM47.0986 71.6116C47.4113 75.0849 48.649 78.0244 52.1077 79.5037C53.7355 80.2016 55.5018 80.4686 57.2328 80.8255C59.0185 81.1922 60.8042 81.5524 62.4353 82.4207C64.943 83.7553 66.545 86.8813 66.1485 89.6889C66.0809 90.1617 65.8649 90.6441 66.1582 91.2487C68.1438 86.891 66.4838 82.5236 62.287 80.713C60.0049 79.7289 57.5745 79.2883 55.1505 78.8605C50.9279 78.1209 48.1301 75.8825 47.1018 71.6084L47.0986 71.6116Z" fill="#CA9460"/>
<path d="M132.296 97.5103C130.581 97.5103 128.867 97.5199 127.149 97.5039C126.623 97.4974 126.004 97.5392 125.895 96.8092C125.785 96.0824 126.365 95.973 126.881 95.7865C129.112 94.9857 129.457 94.3489 128.747 92.0816C128.045 89.8368 127.236 87.6274 126.527 85.3858C126.224 84.4307 125.682 83.9933 124.66 84.0094C122.14 84.048 119.622 84.0287 117.101 84.0319C116.428 84.0319 115.79 84.1252 115.535 84.8777C114.752 87.1997 113.717 89.4638 113.901 92.0109C114.026 93.7443 114.694 95.1079 116.402 95.7736C116.927 95.9795 117.453 96.1628 117.301 96.8671C117.15 97.5778 116.537 97.5264 116.012 97.5264C113.385 97.5425 110.758 97.5425 108.131 97.536C107.651 97.536 107.116 97.5489 106.987 96.9121C106.874 96.3557 107.174 95.9891 107.657 95.7736C110.32 94.5773 111.361 92.1106 112.218 89.6439C114.765 82.3242 117.156 74.9498 119.654 67.614C120.193 66.0285 119.332 65.3435 118.13 64.7614C117.627 64.517 116.879 64.5202 116.902 63.713C116.924 62.909 117.63 62.7224 118.214 62.4812C119.403 61.9924 120.583 61.4682 121.808 61.0855C123.651 60.5098 124.325 60.8925 124.928 62.6935C128 71.8688 131.065 81.0442 134.14 90.2195C134.923 92.564 135.616 94.9761 138.35 95.8991C138.737 96.0309 138.936 96.375 138.862 96.7963C138.753 97.4202 138.247 97.4781 137.753 97.4813C135.932 97.4942 134.108 97.4846 132.287 97.4846C132.287 97.491 132.287 97.5006 132.287 97.5071L132.296 97.5103ZM121.079 69.4665C120.94 69.4536 120.802 69.4439 120.66 69.4311C119.367 73.3128 118.075 77.1946 116.786 81.0763C116.547 81.7903 116.905 82.0765 117.575 82.0798C119.819 82.0894 122.065 82.0926 124.309 82.099C125.021 82.099 125.295 81.7742 125.06 81.086C123.735 77.2139 122.407 73.3418 121.079 69.4697V69.4665ZM119.783 64.1085C120.953 65.4271 121.35 67.0448 121.872 68.6046C124.209 75.5866 126.556 82.5686 128.867 89.5603C129.534 91.5735 130.575 93.561 129.395 95.9151C131.094 95.4424 131.384 94.3618 131.178 93.1204C130.988 91.9691 130.678 90.8242 130.308 89.7146C128.129 83.2407 125.921 76.7765 123.716 70.3123C123.232 68.8972 122.771 67.4757 122.23 66.0832C121.814 65.0155 121.16 64.1407 119.78 64.1053L119.783 64.1085Z" fill="#CA9460"/>
<path d="M34.2186 97.5069C32.4522 97.5069 30.6826 97.5166 28.9162 97.5005C28.4327 97.4973 27.8976 97.4748 27.788 96.8444C27.6623 96.124 28.1845 95.8989 28.7357 95.8089C31.3241 95.3843 31.3692 93.95 30.6891 91.9303C29.9574 89.7531 29.1934 87.5855 28.5101 85.3921C28.1845 84.3373 27.5431 83.9835 26.489 84.0028C24.078 84.0478 21.6669 84.0543 19.2591 84.0092C18.1761 83.9899 17.5668 84.4048 17.2832 85.45C16.8609 86.9937 16.2582 88.4956 15.9326 90.0554C15.3814 92.6861 16.2485 94.4935 18.5209 95.7896C18.9851 96.0533 19.3365 96.3074 19.2075 96.8927C19.0883 97.4233 18.6563 97.5101 18.2147 97.5134C15.4846 97.5262 12.7512 97.5294 10.021 97.5198C9.57941 97.5198 9.15393 97.4137 9.05723 96.8702C8.97342 96.3974 9.12492 96.0147 9.56974 95.8056C12.4901 94.4485 13.5183 91.7213 14.4563 88.978C16.8029 82.1021 19.0947 75.2101 21.4026 68.3246C22.1375 66.1313 21.957 65.6875 19.9199 64.6583C19.4847 64.4396 19.0109 64.2885 18.998 63.6871C18.9851 63.1114 19.359 62.8059 19.8232 62.6226C21.2189 62.0759 22.5952 61.4616 24.0329 61.0564C25.7638 60.5675 26.3214 60.9309 26.892 62.6387C30.0154 71.9587 33.1323 81.2788 36.2461 90.5989C36.981 92.8019 37.7159 94.9952 40.2172 95.886C40.675 96.0468 40.8748 96.436 40.7265 96.9216C40.5686 97.433 40.1141 97.478 39.6822 97.4812C37.861 97.4941 36.0398 97.4876 34.2186 97.4876C34.2186 97.4941 34.2186 97.5037 34.2186 97.5102V97.5069ZM23.0884 69.5853C22.9208 69.5885 22.7564 69.5949 22.5888 69.5982C21.3059 73.4349 20.0198 77.2684 18.7434 81.1051C18.5048 81.8191 18.8562 82.0893 19.5395 82.086C20.8224 82.086 22.1085 82.0957 23.3914 82.0989C26.0646 82.1032 26.9704 80.8382 26.1087 78.304C25.1127 75.3935 24.0973 72.4894 23.0884 69.5821V69.5853ZM21.4187 63.9701C23.1464 65.8772 23.6718 68.0705 24.3778 70.1803C26.589 76.7699 28.7712 83.3692 30.9953 89.9557C31.6303 91.8338 32.2588 93.6895 31.5013 95.8571C32.7552 95.5001 33.1162 94.7669 33.1485 93.7763C33.1904 92.5221 32.8422 91.3418 32.4458 90.1744C29.8897 82.6296 27.3271 75.0879 24.7517 67.5463C24.4938 66.7873 24.1844 66.0444 23.8491 65.3176C23.4301 64.4171 22.6919 64.0119 21.4187 63.9669V63.9701Z" fill="#CA9460"/>
<path d="M87.6932 97.5457C83.7801 97.5457 79.8702 97.5586 75.957 97.5329C75.3188 97.5296 74.3873 97.758 74.3873 96.6838C74.3873 95.7351 75.2543 95.9377 75.8507 95.8477C78.0425 95.5196 78.5905 95.0179 78.9418 92.8471C79.0611 92.1138 79.0998 91.3613 79.0998 90.6152C79.1095 83.244 79.1095 75.8696 79.0998 68.4985C79.0998 67.8585 79.0933 67.2121 79.0095 66.5817C78.6324 63.668 78.4616 63.4975 75.5187 62.9187C74.9932 62.8157 74.3647 62.8286 74.3711 62.0825C74.3808 61.2302 75.0738 61.2495 75.6573 61.2495C79.8895 61.2431 84.125 61.2495 88.3572 61.2656C88.9439 61.2656 89.6466 61.256 89.6208 62.1114C89.5982 62.8511 88.9535 62.8061 88.4249 62.8736C85.4498 63.266 84.76 63.8256 84.7277 66.8358C84.6343 75.2747 84.6536 83.7168 84.7148 92.1556C84.7342 94.6995 85.8075 95.5807 88.3862 95.8766C93.5274 96.4619 97.2633 94.1496 100.274 90.2775C100.699 89.7275 101.093 89.1487 101.563 88.6405C102.056 88.1067 102.762 88.0488 103.343 88.3607C103.89 88.6566 103.52 89.2355 103.391 89.6664C102.708 91.9144 101.973 94.1496 101.302 96.4008C101.006 97.3914 100.287 97.5103 99.4294 97.5071C95.5162 97.4975 91.6063 97.5039 87.6932 97.5039V97.5489V97.5457ZM79.0353 95.7319C80.2473 95.8702 80.5342 95.227 80.8017 94.5805C81.095 93.8698 81.0789 93.1172 81.0789 92.3679C81.0789 83.8743 81.0854 75.3776 81.0692 66.884C81.0692 66.035 80.9887 65.1763 80.8307 64.3434C80.6824 63.5683 80.2118 63.028 79.1385 63.0184C80.1474 64.7132 80.1151 66.4627 80.1151 68.2123C80.1087 76.0111 80.1087 83.8132 80.1151 91.6121C80.1151 93.0111 80.0926 94.394 79.0353 95.7319Z" fill="#CA9460"/>
<path d="M61.7715 56.4382C61.7361 57.2615 61.317 57.7342 60.4822 57.7085C57.9841 57.6249 55.3925 58.2456 53.075 56.763C52.3271 56.2291 51.5793 55.6952 50.8315 55.1646C48.4333 53.0903 45.629 51.598 43.0729 49.7424C42.1446 49.0702 41.9738 48.5846 42.5153 47.5458C43.4017 45.8413 43.5758 43.9631 43.0729 42.0882C42.7893 41.0333 42.9859 40.2068 43.8433 39.5282C44.0077 39.3964 44.1399 39.2195 44.2785 39.0587C45.6838 37.3906 47.3825 37.0111 49.3746 37.9202C51.6663 38.9751 53.8421 40.2325 55.9985 41.5415C57.1106 42.2168 57.1364 42.8761 56.5497 43.8892C55.6085 45.5101 54.2805 46.7354 52.7268 47.7066C51.7759 48.3016 51.5503 48.7647 52.4593 49.6202C53.5101 50.6075 54.4578 51.7041 55.4183 52.7815C56.3724 53.8525 57.3652 54.7047 58.9769 54.531C60.3855 54.3799 60.782 55.9011 61.7844 56.4607L61.7747 56.4446L61.7715 56.4382Z" fill="#CA9460"/>
<path d="M107.482 55.1582C108.33 55.1582 108.965 55.1582 109.6 55.1582C126.687 55.1389 143.777 55.1839 160.864 55.0617C165.519 55.0296 170.176 54.8816 174.834 54.8784C175.314 54.8784 175.804 54.8849 176.272 54.9749C176.952 55.1068 176.997 55.6663 176.987 56.2259C176.978 56.7952 176.881 57.329 176.178 57.3966C175.595 57.4512 175.002 57.4577 174.415 57.4577C153.151 57.4448 131.883 57.4062 110.619 57.4577C108.959 57.4609 108.069 56.9206 107.486 55.1646L107.482 55.1582Z" fill="#CA9460"/>
<path d="M86.2207 46.2949C88.8638 46.1405 90.8752 45.5231 92.7061 44.3556C93.7343 43.6996 94.1533 44.6386 94.6368 45.1982C96.8352 47.7453 99.0174 50.3053 101.167 52.8942C101.889 53.7658 102.669 54.3286 103.878 54.2932C105.164 54.2546 106.102 54.9975 106.805 56.0041C107.443 56.9175 107.147 57.6218 106.06 57.6732C103.575 57.7922 101.18 57.9981 98.9561 56.1263C94.9979 52.7945 90.7753 49.7811 86.2272 46.2981L86.2207 46.2949Z" fill="#CA9460"/>
<path d="M50.8298 55.1615C51.5776 55.6954 52.3254 56.2292 53.0732 56.7599C53.186 57.5703 52.5768 57.4449 52.1288 57.4449C44.0962 57.4385 36.0637 57.3999 28.0311 57.4192C26.8546 57.4192 26.558 56.5122 25.9972 55.853C25.72 55.5249 25.8586 55.2419 26.2873 55.1969C26.7127 55.1519 27.1415 55.1583 27.5702 55.1583C33.8363 55.139 40.0993 55.1068 46.3654 55.1133C47.8514 55.1133 49.347 54.6212 50.8265 55.1615H50.8298Z" fill="#CA9460"/>
<path d="M91.3755 57.4096C89.2352 57.4096 87.0949 57.4192 84.9546 57.4031C84.3808 57.3999 83.6975 57.5125 83.43 56.8178C83.2462 56.3354 82.6209 55.9109 82.9013 55.3963C83.1431 54.9525 83.7845 55.1648 84.2487 55.1615C88.1006 55.1262 91.9525 55.1101 95.8044 55.0844C96.0171 55.0844 96.246 55.0297 96.4426 55.0844C97.574 55.3867 98.8246 56.0749 98.8891 57.0687C98.9374 57.7955 97.4579 57.4031 96.6714 57.4321C94.9083 57.4996 93.1419 57.4546 91.3755 57.4546V57.4096Z" fill="#CA9460"/>
<path d="M61.7815 56.4543C61.3754 55.5506 61.5237 55.1421 62.6615 55.1325C65.9235 55.11 69.1888 55.2675 72.4443 54.9106C73.1503 54.8334 73.9239 54.9266 73.8884 55.9397C73.8562 56.8305 73.5274 57.4673 72.4508 57.4544C69.4015 57.4159 66.3522 57.403 63.303 57.4126C62.5422 57.4126 62.1393 56.9849 61.7719 56.4382L61.7815 56.4543Z" fill="#CA9460"/>
<path d="M15.8104 55.1711C16.3261 54.9492 16.8515 54.9942 16.7903 55.6793C16.7323 56.3643 16.6743 57.2455 15.833 57.3387C13.8087 57.5639 11.7683 57.4867 9.74085 57.3162C9.14776 57.2648 9.04461 56.7341 9.05106 56.2163C9.06073 55.467 9.51199 55.1776 10.1921 55.1743C12.0649 55.1647 13.9376 55.1711 15.8104 55.1711Z" fill="#CA9460"/>
</g>
<circle cx="81" cy="109" r="1" fill="#CA9460"/>
<defs>
<clipPath id="clip0_814_413">
<rect width="177" height="103" fill="white"/>
</clipPath>
</defs>
</svg>
