<svg width="208" height="110" viewBox="0 0 208 110" fill="none" xmlns="http://www.w3.org/2000/svg">
<g clip-path="url(#clip0_816_2798)">
<path d="M127.824 72.658C120.925 72.658 114.027 72.6537 107.127 72.6689C106.643 72.6689 106.487 72.5658 106.488 72.0493C106.505 59.2124 106.506 46.3744 106.494 33.5376C106.494 32.9939 106.663 32.5089 106.828 32.0227C108.367 27.5195 109.909 23.0185 111.35 18.4827C111.465 18.1214 111.649 18.0454 112.008 18.0454C125.462 18.0552 138.915 18.053 152.369 18.053C153.159 18.053 153.156 18.053 152.881 18.7735C151.13 23.357 149.374 27.9395 147.641 32.5306C147.488 32.9375 147.297 33.0655 146.865 33.0644C139.622 33.0471 132.38 33.0547 125.136 33.0341C124.611 33.033 124.469 33.1589 124.484 33.6873C124.526 35.0969 124.526 36.5086 124.488 37.9171C124.474 38.439 124.609 38.5768 125.137 38.5757C133.593 38.5562 142.049 38.5595 150.505 38.5573C151.206 38.5573 151.203 38.5551 150.968 39.2029C149.518 43.1907 148.059 47.1753 146.632 51.1706C146.464 51.6437 146.244 51.7761 145.755 51.775C138.875 51.7566 131.994 51.7653 125.113 51.7479C124.623 51.7468 124.476 51.8629 124.487 52.3664C124.523 53.9572 124.522 55.5491 124.491 57.1388C124.483 57.5956 124.646 57.6715 125.047 57.6705C134.336 57.6607 143.625 57.6618 152.913 57.6596C153.53 57.6596 153.533 57.6564 153.359 58.2651C152.064 62.7792 150.767 67.2943 149.469 71.8073C149.223 72.6602 149.219 72.6559 148.358 72.6559C141.513 72.6559 134.669 72.6559 127.824 72.6559V72.658Z" fill="#4F4D4E"/>
<path d="M187.908 71.4232C186.845 71.4232 185.869 71.3884 184.899 71.4373C184.403 71.4622 184.438 71.3201 184.597 70.9707C185.72 68.5053 186.714 65.9813 187.911 63.5485C187.981 63.4063 188.043 63.2599 188.161 63.0005C187.584 63.3933 187.251 63.8632 186.847 64.2527C183.839 67.1511 180.84 70.057 177.841 72.9629C177.6 73.1962 177.307 73.2602 176.998 73.2331C171.275 72.7155 165.848 71.1877 160.758 68.502C160.466 68.3479 160.39 68.2047 160.493 67.8748C161.471 64.7617 162.43 61.642 163.396 58.5244C163.904 56.8827 164.432 55.2474 164.921 53.5991C165.055 53.1477 165.153 53.0598 165.574 53.3691C171.295 57.563 177.768 59.3035 184.798 59.1701C185.86 59.1494 186.923 59.0377 187.824 58.3302C188.749 57.6042 188.847 56.3347 187.988 55.5067C187.268 54.8112 186.342 54.5149 185.414 54.2393C182.202 53.2833 178.869 52.8384 175.638 51.9562C172.651 51.1402 169.661 50.3362 166.883 48.9179C164.907 47.9099 163.068 46.7173 161.54 45.0853C159.364 42.7643 158.206 40.0189 158.012 36.8504C157.784 33.1068 158.484 29.5801 160.472 26.3617C162.432 23.191 165.21 20.9654 168.589 19.4539C172.971 17.4942 177.598 16.9332 182.347 17.046C186.067 17.1339 189.753 17.48 193.366 18.41C197.764 19.5428 201.79 21.4461 205.427 24.1719C205.814 24.4617 205.825 24.6364 205.541 25.0162C203.687 27.5043 201.853 30.0077 200.03 32.5186C199.08 33.8262 198.157 35.1522 197.243 36.4847C197.023 36.807 196.877 36.8678 196.536 36.6171C194.815 35.3529 192.945 34.3188 190.97 33.5332C188.974 32.7378 186.88 32.2039 184.749 31.86C182.957 31.5713 181.157 31.3988 179.342 31.5702C178.574 31.6429 177.872 31.8719 177.232 32.3439C176.255 33.0644 176.311 34.5 177.202 35.1771C177.986 35.7729 178.861 36.1234 179.779 36.4033C182.381 37.1976 185.081 37.5503 187.724 38.1569C191.166 38.9479 194.585 39.8117 197.786 41.3536C200.869 42.8391 203.566 44.7847 205.379 47.7742C206.305 49.301 206.838 50.9612 207.046 52.718C207.33 55.1063 207.269 57.4914 206.614 59.8179C205.387 64.1724 202.818 67.5189 198.917 69.8389C195.529 71.8539 191.831 72.8978 187.945 73.3785C187.356 73.4512 186.774 73.5728 186.177 73.5391C186.069 73.5326 185.935 73.5543 185.893 73.435C185.85 73.3134 185.983 73.257 186.052 73.18C186.606 72.5582 187.357 72.1393 187.907 71.4221L187.908 71.4232Z" fill="#4F4D4E"/>
<path d="M82.4197 18.0531C90.6405 18.0531 98.8601 18.0574 107.081 18.0433C107.575 18.0433 107.662 18.1659 107.492 18.6108C106.54 21.0838 105.826 23.6381 104.953 26.1382C104.31 27.9797 103.685 29.8276 103.051 31.6723C102.926 32.0358 102.7 32.357 102.659 32.7596C102.598 33.3488 102.292 33.5463 101.653 33.5376C98.5211 33.4931 95.3882 33.5257 92.2564 33.5051C91.7804 33.5018 91.613 33.5984 91.6141 34.1192C91.6326 46.7749 91.6283 59.4306 91.6456 72.0873C91.6456 72.5865 91.4968 72.6765 91.0338 72.6744C85.3299 72.6592 79.627 72.657 73.923 72.6787C73.3938 72.6809 73.3101 72.5105 73.3101 72.0374C73.3231 59.4175 73.3188 46.7977 73.3383 34.1778C73.3383 33.619 73.1916 33.4996 72.6505 33.5029C67.6898 33.5268 62.728 33.5148 57.7673 33.5311C57.3544 33.5322 57.2294 33.4508 57.2305 33.0103C57.2479 28.201 57.2457 23.3918 57.2305 18.5826C57.2294 18.1703 57.3131 18.039 57.7586 18.04C65.9793 18.0552 74.199 18.0509 82.4197 18.0509V18.0531Z" fill="#4F4D4E"/>
<path d="M8.71032 56.2219C11.1336 56.3195 13.408 56.4118 15.6825 56.504C17.4722 56.5767 19.2631 56.6603 21.0539 56.7134C21.6255 56.7308 21.3984 57.0032 21.2767 57.2571C19.4467 61.0691 17.6157 64.88 15.7824 68.6909C15.1902 69.9214 14.5849 71.1454 14.0046 72.3814C13.9014 72.6016 13.7764 72.6613 13.5515 72.6613C9.15151 72.6592 4.75154 72.6602 0.350488 72.6711C-0.197199 72.6722 0.0364373 72.3911 0.132065 72.1611C1.71101 68.3958 3.29539 64.6326 4.87325 60.8662C7.99311 53.419 11.1108 45.9697 14.2296 38.5215C17.0875 31.6983 19.9477 24.8762 22.798 18.0498C22.9208 17.7557 23.0675 17.6505 23.3914 17.6505C29.1682 17.6602 34.9439 17.6602 40.7207 17.6472C41.0564 17.6472 41.1934 17.7731 41.3075 18.0563C41.9377 19.6232 42.5713 21.189 43.232 22.7429C43.3298 22.9729 43.207 23.0326 43.1016 23.1357C41.9562 24.2556 40.8152 25.3797 39.6612 26.4898C38.5332 27.5738 37.3726 28.6264 36.2598 29.7213C35.1167 30.8465 33.9648 31.9642 32.8096 33.0775C28.1413 37.5786 23.4609 42.0688 18.7882 46.5644C16.1171 49.1339 13.4645 51.7219 10.7739 54.2708C10.1187 54.8915 9.47208 55.5176 8.71249 56.2219H8.71032Z" fill="#4F4D4E"/>
<path d="M128.849 78.5339C128.093 79.4758 127.415 80.3341 126.724 81.1805C125.737 82.3893 124.732 83.584 123.749 84.7972C122.631 86.1774 121.533 87.574 120.42 88.9575C119.737 89.806 119.045 90.6481 118.352 91.488C118.224 91.6431 118.174 91.7549 118.312 91.9556C119.894 94.2452 121.313 96.6401 122.804 98.9883C124.789 102.117 126.759 105.255 128.732 108.391C128.816 108.523 128.993 108.65 128.925 108.813C128.846 109.004 128.634 108.89 128.488 108.89C124.776 108.893 121.064 108.881 117.352 108.89C116.972 108.89 116.772 108.752 116.583 108.44C114.832 105.554 113.065 102.678 111.303 99.7988C110.994 99.2954 110.945 99.2921 110.592 99.7251C109.988 100.465 109.393 101.213 108.773 101.939C108.499 102.259 108.375 102.59 108.381 103.017C108.403 104.789 108.378 106.561 108.408 108.333C108.415 108.798 108.266 108.902 107.824 108.899C104.783 108.877 101.74 108.873 98.6982 108.889C98.2679 108.891 98.1973 108.747 98.1973 108.36C98.2049 98.6323 98.2049 88.9043 98.1875 79.1774C98.1875 78.6609 98.3103 78.5187 98.8406 78.523C101.846 78.5502 104.852 78.5426 107.858 78.5252C108.275 78.523 108.413 78.6164 108.41 79.0613C108.382 82.3698 108.382 85.6794 108.379 88.9879C108.379 89.1908 108.269 89.5022 108.489 89.5727C108.7 89.64 108.798 89.3308 108.922 89.1658C111.481 85.7976 114.045 82.4316 116.589 79.0526C116.879 78.6663 117.184 78.523 117.668 78.5252C121.199 78.5447 124.731 78.5339 128.261 78.5328C128.418 78.5328 128.574 78.5328 128.85 78.5328L128.849 78.5339Z" fill="#E85418"/>
<path d="M11.3872 55.2063C13.4812 53.2021 15.4883 51.2814 17.4943 49.3597C20.5544 46.4288 23.6101 43.4936 26.6757 40.5692C29.0968 38.259 31.4875 35.9162 33.9369 33.6342C36.1928 31.5324 38.3575 29.3318 40.5906 27.205C42.8183 25.0836 44.9493 22.8667 47.1476 20.716C47.2824 20.5847 47.403 20.3275 47.6193 20.5C47.8062 20.6487 47.5877 20.8158 47.5182 20.9721C46.8369 22.4825 46.162 23.9963 45.4796 25.5067C44.6809 27.2755 43.8691 29.0399 43.0791 30.8119C42.3326 32.484 41.6034 34.1638 40.8721 35.8424C40.0038 37.8369 39.1442 39.8346 38.2749 41.8279C37.7 43.1463 37.1165 44.4604 36.5297 45.7734C36.2982 46.291 36.3265 46.342 36.9046 46.342C40.1614 46.3452 43.4116 46.0751 46.6695 46.1185C47.1281 46.125 47.591 45.9763 48.0974 46.1977C47.0455 47.1764 46.0186 48.1292 44.9949 49.0852C43.504 50.4752 42.0283 51.8826 40.52 53.2531C39.3757 54.2937 38.326 55.4407 37.0709 56.3619C36.7601 56.5898 36.571 57.0195 36.2406 57.1779C35.2778 57.638 34.6584 58.5061 33.9934 59.2255C33.0251 60.2716 31.958 61.1983 30.9452 62.1846C28.9371 64.1389 26.8756 66.0389 24.8305 67.9542C22.9049 69.7565 20.9695 71.5481 19.0428 73.3494C16.6043 75.6292 14.1712 77.9144 11.7349 80.1975C11.6491 80.2778 11.5458 80.4492 11.4361 80.3331C11.3252 80.2159 11.3937 80.0423 11.4882 79.8893C12.1717 78.7836 12.6977 77.5943 13.2541 76.4235C14.268 74.2912 15.3068 72.1709 16.3326 70.0463C17.5399 67.5473 18.7429 65.045 19.9502 62.546C20.8728 60.6383 21.7965 58.7307 22.7169 56.822C23.2754 55.6631 23.2722 55.6816 22.0019 55.6392C18.6918 55.5307 15.3818 55.4048 12.0718 55.2822C11.8773 55.2746 11.6838 55.241 11.3893 55.2084L11.3872 55.2063Z" fill="url(#paint0_linear_816_2798)"/>
<path d="M96.9086 108.875C95.7698 108.875 94.6515 108.875 93.5334 108.875C91.1622 108.875 88.79 108.865 86.4189 108.887C86.0407 108.89 85.8668 108.759 85.743 108.432C85.3409 107.375 84.9073 106.33 84.5183 105.27C84.39 104.92 84.189 104.794 83.8369 104.795C80.5964 104.8 77.356 104.802 74.1155 104.795C73.7743 104.795 73.6504 104.971 73.5471 105.254C73.1548 106.321 72.7267 107.376 72.3507 108.449C72.2236 108.812 72.0323 108.893 71.6759 108.892C68.3811 108.878 65.0862 108.879 61.7925 108.887C61.4372 108.887 61.2981 108.869 61.4752 108.449C64.4071 101.486 67.3259 94.5175 70.2436 87.5478C71.4498 84.6679 72.6582 81.788 73.8416 78.8984C74.0188 78.4665 74.2317 78.3146 74.7088 78.3189C77.695 78.3428 80.6823 78.3352 83.6696 78.3189C84.0499 78.3168 84.2412 78.4242 84.3922 78.7866C87.3664 85.9212 90.3581 93.0482 93.3399 100.181C94.5244 103.013 95.6937 105.85 96.8684 108.687C96.8869 108.732 96.889 108.786 96.9064 108.876L96.9086 108.875ZM79.0696 90.5601C78.7208 90.89 78.5719 91.2947 78.4557 91.6658C77.8721 93.5203 77.144 95.3205 76.4605 97.138C76.3214 97.5081 76.3551 97.6404 76.7887 97.6361C78.3242 97.6198 79.8597 97.6253 81.3951 97.6426C81.7516 97.647 81.8363 97.5764 81.6972 97.2205C81.1843 95.9086 80.7279 94.5739 80.1922 93.2718C79.8238 92.3766 79.6119 91.4141 79.0707 90.5601H79.0696Z" fill="#EC720B"/>
<path d="M51.0535 44.8476C47.0588 44.9431 43.0642 45.0342 39.0695 45.1362C38.0828 45.1612 38.0763 45.1742 38.4534 44.3029C40.7256 39.0466 43.0022 33.7925 45.2777 28.5373C45.3201 28.4396 45.3755 28.3463 45.4223 28.2573C45.6407 28.2638 45.6429 28.4418 45.6929 28.5612C47.8173 33.6243 49.9374 38.6896 52.0597 43.7538C54.9992 50.7669 57.9397 57.7789 60.8814 64.792C61.9083 67.2411 62.932 69.6913 63.973 72.1338C64.1501 72.5494 64.1251 72.6786 63.622 72.6775C57.3399 72.6612 51.0578 72.6601 44.7746 72.6742C44.378 72.6742 44.215 72.5429 44.0802 72.1913C43.2685 70.0721 42.4241 67.9648 41.6145 65.8445C41.4646 65.4528 41.2853 65.302 40.8387 65.3052C37.2363 65.3291 33.6329 65.3193 30.0305 65.3172C29.8251 65.3172 29.6078 65.3627 29.3438 65.2304C36.6267 58.4593 43.8738 51.7218 51.1197 44.9854C51.098 44.9398 51.0752 44.8943 51.0535 44.8487V44.8476Z" fill="#4F4D4E"/>
<path d="M130.052 92.4353C130.052 90.0307 130.062 87.6261 130.043 85.2214C130.04 84.82 130.141 84.6995 130.554 84.7017C132.998 84.7158 135.442 84.7114 137.886 84.6865C138.363 84.6811 138.529 84.7852 138.526 85.3082C138.501 89.6292 138.508 93.9501 138.509 98.271C138.509 99.393 138.653 100.491 139.407 101.381C140.395 102.546 141.735 102.808 143.146 102.546C145.07 102.192 145.993 101.085 146.097 99.1044C146.165 97.7881 146.138 96.4665 146.139 95.147C146.142 91.8569 146.145 88.5658 146.125 85.2757C146.122 84.8189 146.26 84.6984 146.704 84.7017C149.166 84.718 151.629 84.7179 154.09 84.6908C154.559 84.6854 154.614 84.8644 154.612 85.2594C154.597 87.9353 154.617 90.6112 154.589 93.286C154.584 93.7678 154.737 93.8904 155.188 93.9251C159.587 94.2626 163.944 94.0998 168.215 92.8813C172.254 91.7289 175.731 89.7171 178.199 86.2165C179.873 83.8433 180.762 81.1631 181.087 78.306C181.18 77.4835 181.769 77.1558 182.247 76.7055C182.466 76.4993 182.461 76.8227 182.449 76.9496C182.374 77.7222 182.322 78.5013 182.193 79.2653C181.477 83.4983 179.708 87.1757 176.385 89.9992C174.492 91.6073 172.329 92.7087 169.983 93.5508C167.68 94.3765 165.318 94.8377 162.917 95.0981C160.507 95.3596 158.077 95.3759 155.654 95.1502C154.951 95.0851 154.6 95.3929 154.601 96.0737C154.605 98.2417 154.664 100.412 154.071 102.533C153.588 104.258 152.769 105.793 151.456 107.009C150.115 108.252 148.525 109.064 146.726 109.483C144.483 110.006 142.217 110.123 139.945 109.871C136.771 109.52 133.94 108.439 132.013 105.701C130.658 103.775 130.134 101.577 130.081 99.2671C130.029 96.9906 130.07 94.7118 130.07 92.4342H130.051L130.052 92.4353Z" fill="#E32314"/>
<path d="M186.594 65.3021C186.255 66.0878 185.917 66.8756 185.574 67.6601C185.019 68.9351 184.468 70.2123 183.897 71.4797C183.753 71.7976 183.745 71.9083 184.155 71.8942C185.015 71.8638 185.875 71.8855 186.827 71.8855C186.102 72.5778 185.42 73.2376 184.729 73.8854C182.357 76.1099 179.981 78.3311 177.603 80.548C177.487 80.6554 177.383 80.9299 177.193 80.7758C177.026 80.6402 177.231 80.4449 177.304 80.2951C178.189 78.4841 179.075 76.673 179.984 74.8728C180.174 74.4952 180.133 74.3813 179.698 74.3932C178.872 74.4138 178.044 74.3997 177.217 74.3997C177.196 74.3346 177.177 74.2695 177.156 74.2044C180.265 71.2149 183.375 68.2243 186.484 65.2349C186.521 65.2577 186.558 65.2804 186.594 65.3032V65.3021Z" fill="#4F4D4E"/>
<path d="M150.373 78.3201C151.602 78.3201 152.832 78.3309 154.061 78.3136C154.413 78.3081 154.576 78.3678 154.57 78.7769C154.545 80.1485 154.547 81.5211 154.57 82.8927C154.576 83.2703 154.441 83.3398 154.1 83.3387C151.588 83.3257 149.075 83.3213 146.561 83.3365C146.175 83.3387 146.072 83.2172 146.076 82.8461C146.093 81.4929 146.093 80.1387 146.067 78.7856C146.059 78.3787 146.223 78.3136 146.577 78.3179C147.842 78.3353 149.108 78.3244 150.374 78.3244V78.3211L150.373 78.3201Z" fill="#E32314"/>
<path d="M134.295 83.3225C133.047 83.3225 131.8 83.3117 130.552 83.3301C130.199 83.3355 130.038 83.2737 130.045 82.8679C130.065 81.4963 130.055 80.1236 130.039 78.752C130.035 78.4243 130.134 78.3191 130.471 78.3202C133.001 78.331 135.532 78.3277 138.063 78.3147C138.419 78.3126 138.527 78.4265 138.522 78.7824C138.501 80.1356 138.499 81.4898 138.519 82.844C138.524 83.2162 138.426 83.3442 138.037 83.3366C136.79 83.3138 135.542 83.3279 134.295 83.3279V83.3225Z" fill="#E32314"/>
<path d="M69.7839 13.1894C69.4535 13.2806 69.3133 13.0668 69.1829 12.7684C68.7928 11.8753 68.3679 10.9975 67.9756 10.1044C67.8528 9.82449 67.7094 9.69427 67.3747 9.69753C65.185 9.71489 62.9965 9.71163 60.8068 9.6997C60.5058 9.69753 60.3558 9.80495 60.2374 10.0741C59.844 10.966 59.4256 11.8471 59.0192 12.7326C58.8301 13.1428 58.377 13.3424 57.9738 13.1862C57.6946 13.0777 57.8988 12.916 57.9521 12.8009C58.8443 10.8467 59.744 8.89563 60.6438 6.9446C61.574 4.92846 62.514 2.91666 63.429 0.892926C63.5865 0.544605 63.78 0.430668 64.1603 0.423072C64.5537 0.415477 64.6841 0.604286 64.8243 0.909203C66.6173 4.81344 68.4201 8.71333 70.2207 12.6143C70.4004 13.0042 70.2555 13.1967 69.786 13.1916L69.7839 13.1894ZM64.1038 1.57763C63.0193 3.97573 61.9989 6.24036 60.9687 8.50065C60.847 8.76759 60.885 8.83378 61.185 8.83269C63.1008 8.82293 65.0155 8.82184 66.9313 8.83595C67.328 8.8392 67.3345 8.71984 67.1867 8.4019C66.5803 7.09326 65.9946 5.77485 65.4024 4.46078C64.9883 3.54386 64.5765 2.62585 64.1038 1.57763Z" fill="#4F4D4E"/>
<path d="M122.409 11.7474C121.066 13.2448 119.503 13.6431 117.733 13.222C115.841 12.7728 114.891 11.1256 115.527 9.45237C115.966 8.29564 116.933 7.79431 118.063 7.57295C119.361 7.31904 120.661 7.42646 121.94 7.72161C122.358 7.81819 122.434 7.73355 122.392 7.32229C122.222 5.62409 121.309 4.76902 119.599 4.71911C118.618 4.69089 117.689 4.87645 116.819 5.31917C116.524 5.46892 116.425 5.34196 116.362 5.09456C116.308 4.88404 116.033 4.6757 116.45 4.48689C117.795 3.87814 119.191 3.66329 120.633 3.94108C122.263 4.25468 123.276 5.44939 123.306 7.10093C123.342 8.9977 123.306 10.8956 123.324 12.7923C123.327 13.1591 123.161 13.1971 122.863 13.1971C122.57 13.1971 122.367 13.1797 122.403 12.801C122.432 12.5015 122.409 12.1966 122.409 11.7463V11.7474ZM119.671 8.30866C118.853 8.28587 118.047 8.33145 117.314 8.76006C116.147 9.4426 116.006 11.0399 117.039 11.8678C118.009 12.6437 119.665 12.7044 120.936 12.0089C122.076 11.385 122.568 10.3519 122.419 8.95864C122.392 8.71666 122.273 8.68194 122.083 8.63202C121.292 8.42585 120.489 8.32493 119.672 8.30974L119.671 8.30866Z" fill="#4F4D4E"/>
<path d="M97.433 11.8993C97.1733 11.933 97.0972 12.1153 96.9733 12.2314C95.6291 13.4977 93.3579 13.7581 91.7746 12.8228C90.7977 12.2455 90.3163 11.3937 90.3902 10.2565C90.4587 9.21261 90.9901 8.47039 91.9094 7.98318C92.9635 7.42434 94.099 7.41132 95.2433 7.471C95.8573 7.50247 96.4713 7.56649 97.0635 7.74337C97.3537 7.83017 97.4352 7.76507 97.4341 7.45256C97.4254 5.89325 96.5408 4.89603 94.9825 4.7452C93.9165 4.64211 92.8863 4.80054 91.9257 5.28559C91.6236 5.4375 91.4899 5.38976 91.3758 5.06965C91.2759 4.78861 91.1824 4.6139 91.566 4.44896C92.9015 3.87169 94.2762 3.66985 95.7008 3.95307C97.2971 4.26992 98.3034 5.46246 98.3306 7.08687C98.3621 8.98365 98.3306 10.8804 98.3458 12.7772C98.348 13.119 98.2339 13.2037 97.9079 13.2015C97.5764 13.1993 97.3895 13.1451 97.4275 12.7598C97.4547 12.481 97.433 12.1978 97.433 11.9004V11.8993ZM97.4341 9.39925C97.4341 8.68416 97.433 8.69067 96.6419 8.52356C95.9116 8.36839 95.1727 8.3022 94.4305 8.3022C93.6285 8.3022 92.8385 8.38684 92.1604 8.88816C91.1292 9.65099 91.0955 11.1582 92.1365 11.9069C93.2797 12.7295 94.525 12.6502 95.7486 12.1131C96.8799 11.6161 97.4906 10.7404 97.4341 9.40033V9.39925Z" fill="#4F4D4E"/>
<path d="M109.83 12.0535C110.846 9.5187 111.851 7.00449 112.863 4.49354C112.938 4.30799 112.932 4.02912 113.229 4.02152C113.48 4.01609 113.809 3.94665 113.964 4.07469C114.156 4.23203 113.898 4.49137 113.814 4.69212C112.62 7.57743 111.418 10.4606 110.209 13.3405C110.021 13.7886 109.812 14.2324 109.569 14.6534C108.636 16.2779 107.152 16.484 105.478 15.9295C105.239 15.8503 105.137 15.7331 105.287 15.4988C105.412 15.3034 105.365 14.9019 105.811 15.0875C106.041 15.1841 106.293 15.2481 106.542 15.2806C107.822 15.4478 109.081 14.508 109.264 13.2645C109.293 13.067 109.178 12.9205 109.102 12.761C107.795 10.045 106.48 7.33111 105.187 4.60857C105.11 4.4458 104.755 4.15824 105.098 4.05624C105.389 3.96943 105.871 3.78822 106.102 4.2635C106.495 5.07625 106.869 5.89876 107.248 6.71802C108.03 8.40537 108.81 10.0938 109.592 11.7812C109.636 11.8756 109.648 11.996 109.831 12.0535H109.83Z" fill="#4F4D4E"/>
<path d="M73.8556 5.39418C74.9988 3.98136 76.4451 3.62436 78.098 3.92385C79.6628 4.20706 80.7777 5.49726 80.8244 7.13687C80.8788 9.03256 80.8353 10.9315 80.8516 12.8283C80.8549 13.2309 80.6212 13.1842 80.3572 13.1972C80.0659 13.2113 79.9345 13.1451 79.9377 12.8163C79.9518 11.2809 79.9464 9.74439 79.9421 8.20787C79.9421 7.91923 79.9301 7.62951 79.8964 7.34304C79.6965 5.64158 78.7228 4.72683 77.0971 4.70187C75.4334 4.67583 74.1261 5.74901 73.9099 7.35063C73.7871 8.26647 73.8653 9.19207 73.8566 10.1122C73.848 10.9977 73.8404 11.8831 73.861 12.7686C73.8686 13.1072 73.7534 13.2059 73.4252 13.2005C73.1101 13.195 72.9275 13.1701 72.9297 12.7708C72.9449 9.98746 72.9449 7.20523 72.9297 4.42192C72.9275 4.06274 73.0677 4.0074 73.3752 4.00523C73.698 4.00306 73.8979 4.04755 73.8599 4.44145C73.8295 4.75613 73.8534 5.07515 73.8534 5.39309L73.8556 5.39418Z" fill="#4F4D4E"/>
<path d="M84.4523 8.26858C84.4523 7.32887 84.4208 6.38699 84.4654 5.44837C84.4893 4.94705 84.3132 4.80056 83.8536 4.87543C83.7481 4.89279 83.6351 4.86567 83.5286 4.88086C83.1852 4.9286 83.1016 4.76909 83.1016 4.4479C83.1016 4.12453 83.1918 4.00951 83.5308 4.00626C84.4545 3.99757 84.4545 3.9813 84.4534 3.06004C84.4534 2.53593 84.4686 2.01073 84.4436 1.48771C84.4273 1.14264 84.5718 1.05909 84.8881 1.06235C85.2119 1.06452 85.3934 1.1242 85.3792 1.50833C85.3532 2.21257 85.3825 2.91897 85.3619 3.62321C85.3532 3.93138 85.4542 4.02904 85.7628 4.02253C86.5768 4.00409 87.3929 4.0323 88.2068 4.00734C88.5839 3.9954 88.5991 4.18638 88.6045 4.47394C88.6089 4.768 88.5328 4.89388 88.21 4.88628C87.3961 4.86675 86.5811 4.88954 85.7661 4.87435C85.4618 4.86892 85.3619 4.96767 85.363 5.27801C85.3749 7.06736 85.3488 8.85779 85.3727 10.6471C85.3923 12.1739 86.4116 12.8217 87.9971 12.3833C88.1633 12.3377 88.4535 11.997 88.5524 12.4029C88.623 12.6937 88.6991 13.0789 88.1938 13.2134C87.5657 13.3805 86.9408 13.4239 86.3127 13.3057C85.1923 13.0952 84.4849 12.2466 84.4588 11.0877C84.4371 10.148 84.4545 9.2072 84.4545 8.26749H84.4523V8.26858Z" fill="#4F4D4E"/>
<path d="M101.592 6.53672C101.592 4.53034 101.598 2.52506 101.585 0.518684C101.584 0.172533 101.634 0 102.047 0C102.458 0 102.513 0.166022 102.512 0.516513C102.502 4.58243 102.503 8.64943 102.511 12.7153C102.511 13.0355 102.476 13.2145 102.08 13.2058C101.711 13.1982 101.581 13.1092 101.584 12.7186C101.603 10.6591 101.593 8.59843 101.593 6.5378L101.592 6.53672Z" fill="#4F4D4E"/>
</g>
<defs>
<linearGradient id="paint0_linear_816_2798" x1="47.7525" y1="20.4653" x2="14.4966" y2="73.7599" gradientUnits="userSpaceOnUse">
<stop stop-color="#E8A52E"/>
<stop offset="1" stop-color="#DC3718"/>
</linearGradient>
<clipPath id="clip0_816_2798">
<rect width="207.209" height="110" fill="white"/>
</clipPath>
</defs>
</svg>
