<svg width="240" height="47" viewBox="0 0 240 47" fill="none" xmlns="http://www.w3.org/2000/svg">
<path d="M18.7782 7.27655C15.9525 7.27655 15.1356 8.5298 15.1356 11.294V15.8794H22.6726L21.9172 23.2876H15.1385V45.7699H6.09347V23.2876H0V15.8794H6.09347V11.4199C6.09347 3.94725 9.10653 0.000116025 17.5132 0.000116025C19.2748 -0.00398338 21.0352 0.100549 22.7839 0.313425V7.28534L18.7782 7.27655Z" fill="#1877F2"/>
<path d="M23.3008 29.8819C23.3008 21.5309 27.2567 15.2412 35.5463 15.2412C40.0673 15.2412 42.8286 17.5662 44.1492 20.4533V15.8795H52.8135V45.77H44.1492V41.249C42.893 44.1391 40.0673 46.3996 35.5463 46.3996C27.2567 46.3996 23.3008 40.1187 23.3008 31.7589V29.8819ZM32.3429 31.8936C32.3429 36.3502 33.9739 39.3018 38.1816 39.3018C41.8886 39.3018 43.7714 36.602 43.7714 32.3328V29.3314C43.7714 25.0622 41.8886 22.3625 38.1816 22.3625C33.9739 22.3625 32.3429 25.314 32.3429 29.7707V31.8936Z" fill="#1877F2"/>
<path d="M71.6501 15.2496C75.1638 15.2496 78.4931 16.0051 80.3144 17.2583L78.3057 23.6651C76.4218 22.7679 74.3633 22.2959 72.2767 22.283C67.3779 22.283 65.2491 25.1087 65.2491 29.946V31.7029C65.2491 36.5402 67.3838 39.3658 72.2767 39.3658C74.3633 39.3526 76.4218 38.8809 78.3057 37.9837L80.3144 44.3876C78.4931 45.6438 75.1668 46.3992 71.6501 46.3992C61.0355 46.3992 56.2012 40.6835 56.2012 31.5155V30.1334C56.2012 20.9654 61.0355 15.2496 71.6501 15.2496Z" fill="#1877F2"/>
<path d="M81.5039 31.9668V29.3315C81.5039 20.8545 86.3383 15.2764 96.2003 15.2764C105.494 15.2764 109.576 20.9277 109.576 29.2173V33.9901H90.5431C90.7334 38.072 92.5547 39.8933 97.5706 39.8933C100.964 39.8933 104.543 39.2022 107.181 38.072L108.835 44.265C106.449 45.5241 101.55 46.464 97.2193 46.464C85.7731 46.4611 81.5039 40.7512 81.5039 31.9668ZM90.546 28.0724H101.474V27.3198C101.474 24.0549 100.156 21.4635 96.2032 21.4635C92.1184 21.4665 90.546 24.0432 90.546 28.0606V28.0724Z" fill="#1877F2"/>
<path d="M143.102 31.7673C143.102 40.1184 139.085 46.4081 130.804 46.4081C126.283 46.4081 123.144 44.1475 121.888 41.2575V45.7785H113.35V0.869564L122.392 0.0496826V20.0196C123.709 17.3843 126.599 15.2467 130.807 15.2467C139.097 15.2467 143.105 21.5276 143.105 29.8875L143.102 31.7673ZM134.06 29.6942C134.06 25.4865 132.429 22.3475 128.096 22.3475C124.389 22.3475 122.38 24.9828 122.38 29.255V32.394C122.38 36.6632 124.389 39.3014 128.096 39.3014C132.429 39.3014 134.06 36.1625 134.06 31.9547V29.6942Z" fill="#1877F2"/>
<path d="M146.123 31.577V30.0719C146.123 21.4661 151.022 15.2496 161.007 15.2496C170.992 15.2496 175.893 21.4661 175.893 30.0719V31.577C175.893 40.1798 170.995 46.3992 161.01 46.3992C151.025 46.3992 146.123 40.1798 146.123 31.577ZM166.848 29.4423C166.848 25.4864 165.215 22.3475 160.992 22.3475C156.77 22.3475 155.151 25.4864 155.151 29.4423V32.2065C155.151 36.1624 156.784 39.3014 160.992 39.3014C165.2 39.3014 166.848 36.1624 166.848 32.2065V29.4423Z" fill="#1877F2"/>
<path d="M178.904 31.577V30.0719C178.904 21.4661 183.803 15.2496 193.788 15.2496C203.773 15.2496 208.672 21.4661 208.672 30.0719V31.577C208.672 40.1798 203.773 46.3992 193.788 46.3992C183.803 46.3992 178.904 40.1798 178.904 31.577ZM199.63 29.4423C199.63 25.4864 197.996 22.3475 193.788 22.3475C189.58 22.3475 187.949 25.4864 187.949 29.4423V32.2065C187.949 36.1624 189.58 39.3014 193.788 39.3014C197.996 39.3014 199.63 36.1624 199.63 32.2065V29.4423Z" fill="#1877F2"/>
<path d="M221.1 30.1334L230.016 15.8792H239.623L230.268 30.6371L240.001 45.7697H230.394L221.1 31.129V45.7697H212.055V0.869564L221.1 0.0496826V30.1334Z" fill="#1877F2"/>
</svg>
