<svg width="240" height="96" viewBox="0 0 240 96" fill="none" xmlns="http://www.w3.org/2000/svg">
<g clip-path="url(#clip0_816_3860)">
<path d="M50.7827 0C54.4962 10.6471 61.7011 18.2572 68.3952 26.2161C74.0147 32.8961 79.6553 39.5549 83.256 47.623C83.8514 48.9548 84.3447 50.3324 84.8731 51.6958C85.3312 52.8726 85.1409 53.468 83.6612 53.2108C74.7616 51.6676 66.1791 52.9184 57.8679 56.2865C52.5056 58.4568 47.8127 61.7686 43.0176 64.9254C37.539 68.5332 31.6377 71.1967 25.0951 72.1973C22.7346 72.5567 20.3494 72.9689 17.9395 72.4721C17.411 72.3629 16.8614 72.3241 16.6324 71.7498C15.9101 69.9424 15.4944 68.047 15.3852 66.1233C15.3147 64.9219 16.421 65.4363 16.9812 65.468C22.5056 65.7604 27.8362 64.9712 32.9342 62.7904C34.3752 62.1738 35.781 61.4727 37.2184 60.0634C34.6148 60.5778 32.5537 61.5291 30.3447 61.9836C26.0393 62.8679 21.7164 62.7164 17.3899 62.4698C15.1808 62.3429 14.9941 61.892 15.1386 59.7111C15.7023 51.1427 19.5743 43.9448 24.4257 37.145C27.9313 32.2337 31.9301 27.717 35.8232 23.1122C41.6717 16.1926 47.5907 9.30123 50.7827 0Z" fill="#3EA9DE"/>
<path d="M60.2924 67.4234C64.7352 66.4474 69.1286 65.2143 73.6806 64.8197C77.4786 64.4886 81.273 64.4005 85.0746 64.9254C86.1985 65.0804 86.3781 65.5385 86.2443 66.5461C84.2889 81.2484 72.4792 92.9066 57.7275 94.9113C48.828 96.1198 40.323 95.2355 32.2936 91.0358C28.4604 89.0276 25.1767 86.3253 22.4745 82.943C21.7452 82.027 20.9278 81.5655 19.7087 81.3717C12.6483 80.2478 6.58485 77.1967 1.8532 71.7393C1.14504 70.9219 0.454492 70.0799 0 68.653C1.8532 69.7804 3.33294 70.788 4.90429 71.616C15.3048 77.0945 25.7722 76.2736 36.2431 71.8274C40.7951 69.8967 44.9313 67.2402 48.9759 64.4287C56.6389 59.0981 65.0628 55.7651 74.4557 55.3776C83.8379 54.9865 92.3394 57.3365 99.1533 64.2137C99.9495 65.017 101.362 66.3876 100.887 66.8702C100.112 67.6594 99.037 66.2642 98.1174 65.7745C88.9466 60.8773 79.4022 60.5426 69.5831 63.3611C67.3247 64.0094 65.165 64.9184 63.0053 65.8203C62.7692 65.7146 62.579 65.7076 62.5543 66.0388C62.4909 66.1339 62.4028 66.1762 62.2936 66.1691C62.0611 66.0564 61.8779 66.0599 61.8426 66.3805C61.4445 66.5708 61.0499 66.7575 60.6518 66.9477C60.4897 66.8491 60.4193 66.8914 60.4439 67.0816C60.4087 67.1732 60.3453 67.219 60.2501 67.219C59.5948 67.1556 59.1298 67.4234 58.7035 68.0329C59.468 68.1421 59.9366 67.9166 60.2924 67.4234Z" fill="#2473B8"/>
<path d="M164.442 18.2924C164.442 14.3746 164.428 10.4533 164.449 6.53552C164.459 4.16794 165.115 3.53728 167.482 3.53024C171.058 3.52319 174.634 3.5549 178.207 3.52319C181.839 3.49148 184.39 5.23194 185.884 8.39577C187.483 11.7851 186.987 15.1145 184.513 17.8661C183.333 19.1803 182.864 19.892 184.337 21.259C185.539 22.3758 185.658 24.081 185.76 25.67C185.859 27.1955 185.905 28.64 187.268 29.778C188.072 30.451 188.209 31.5608 187.321 32.431C186.384 33.347 185.271 33.2977 184.277 32.5966C182.53 31.3599 181.628 29.5279 181.684 27.4633C181.807 22.8197 180.183 21.5126 175.469 21.717C173.891 21.7839 172.302 21.8015 170.723 21.7064C169.367 21.6218 168.832 22.0446 168.895 23.4715C168.994 25.8074 168.972 28.1503 168.877 30.4862C168.824 31.8285 168.469 33.1215 166.668 33.0299C165.22 32.956 164.459 32.0294 164.449 30.2184C164.424 26.2407 164.442 22.2631 164.442 18.2854V18.2924ZM173.863 17.8485C175.209 17.8485 176.558 17.926 177.897 17.8309C180.455 17.6512 182.265 15.3224 182.248 12.3629C182.23 9.77686 180.518 7.92366 177.893 7.83558C175.381 7.75102 172.866 7.83558 170.35 7.80387C169.29 7.78978 168.877 8.2478 168.916 9.28009C168.958 10.5026 168.923 11.7322 168.923 12.9548C168.923 16.222 170.571 17.852 173.866 17.845L173.863 17.8485Z" fill="#3EA9DE"/>
<path d="M114.518 18.2361C118.795 14.0787 122.731 10.249 126.669 6.42279C127.423 5.68997 128.174 4.94305 128.967 4.2525C129.897 3.44217 130.964 3.07576 131.912 4.12919C132.821 5.14035 132.74 6.34176 131.824 7.29654C130.489 8.68468 129.019 9.94598 127.624 11.2778C126.187 12.6518 124.806 14.0893 123.326 15.4175C122.487 16.1679 122.484 16.7317 123.185 17.6019C126.085 21.1991 128.907 24.8597 131.785 28.4745C132.43 29.2848 132.934 30.0916 132.761 31.1768C132.62 32.0787 132.088 32.6776 131.257 32.9454C130.327 33.2449 129.52 32.9489 128.91 32.1879C126.391 29.0382 123.851 25.9061 121.371 22.7317C119.021 19.7264 119.126 19.8004 116.206 22.0975C114.789 23.2108 114.264 24.4087 114.388 26.128C114.497 27.6395 114.451 29.1685 114.366 30.6835C114.292 32.047 113.711 33.0617 112.119 33.0405C110.505 33.0194 109.962 31.9272 109.959 30.5989C109.92 22.4146 109.927 14.2267 109.952 6.04229C109.955 4.67881 110.502 3.63242 112.069 3.54434C113.813 3.44569 114.338 4.63653 114.37 6.01762C114.451 9.5831 114.409 13.1486 114.419 16.7176C114.419 17.0523 114.462 17.387 114.521 18.2431L114.518 18.2361Z" fill="#3EA9DE"/>
<path d="M201.724 33.3646C197.975 33.4774 194.846 32.3746 192.208 29.9929C190.911 28.8232 190.636 27.2131 191.57 26.3042C192.778 25.1274 193.871 25.6876 194.97 26.5895C197.862 28.9642 201.164 29.5455 204.701 28.4639C206.244 27.9918 207.6 27.118 207.738 25.2366C207.882 23.2989 206.734 22.2701 205.138 21.4985C202.636 20.2865 199.825 20.1139 197.27 19.071C193.109 17.3693 191.39 14.6776 191.809 10.3617C192.13 7.05343 194.843 4.37932 198.68 3.57604C202.319 2.81503 205.779 3.2519 209.017 5.13329C209.883 5.63711 210.69 6.23605 211.194 7.12389C211.797 8.18085 211.596 9.19553 210.722 9.9812C209.915 10.707 209.115 10.5555 208.206 9.89665C205.412 7.86729 202.301 7.07457 198.919 8.13505C197.429 8.60363 196.115 9.39283 195.988 11.2249C195.865 12.9971 196.826 14.0434 198.32 14.7727C199.754 15.4739 201.29 15.8262 202.819 16.2278C204.119 16.5696 205.437 16.8796 206.688 17.3517C210.454 18.7681 212.17 21.2449 212.131 25.0499C212.096 28.3511 209.894 31.3282 206.519 32.586C204.912 33.185 203.253 33.502 201.72 33.3682L201.724 33.3646Z" fill="#3EA9DE"/>
<path d="M217.139 14.3288C217.139 11.5807 217.149 8.83265 217.135 6.08104C217.128 4.67881 217.558 3.64299 219.143 3.54434C220.528 3.45626 221.388 4.37581 221.398 6.05285C221.43 11.3165 221.363 16.5802 221.433 21.8438C221.483 25.5784 224.206 28.5379 227.74 28.9043C231.46 29.2883 234.733 27.1356 235.621 23.6371C235.833 22.8021 235.861 21.9002 235.868 21.03C235.892 16.411 235.878 11.7886 235.878 7.16971C235.878 6.70112 235.85 6.22901 235.892 5.76747C236.009 4.5555 236.446 3.569 237.873 3.55139C239.391 3.53377 239.849 4.5555 239.969 5.84498C239.99 6.07752 239.979 6.31357 239.979 6.5461C239.979 11.6336 240.029 16.7246 239.969 21.8121C239.856 31.1204 230.516 36.451 222.473 31.7475C219.038 29.7393 217.346 26.512 217.174 22.5802C217.054 19.8356 217.149 17.084 217.149 14.3359C217.146 14.3359 217.142 14.3359 217.139 14.3359V14.3288Z" fill="#3EA9DE"/>
<path d="M158.505 33.0335C157.547 33.0722 156.969 32.5332 156.617 31.7264C155.937 30.1726 155.239 28.626 154.647 27.0405C154.267 26.0153 153.678 25.5749 152.561 25.5925C149.281 25.6418 146.001 25.6418 142.721 25.5925C141.594 25.5749 141.002 26.0681 140.621 27.0546C140.033 28.5802 139.342 30.0669 138.768 31.596C138.243 32.9947 137.162 33.4175 135.974 32.8644C134.805 32.3218 134.745 31.1204 135.22 29.9718C136.63 26.5719 138.057 23.1756 139.473 19.7792C141.474 14.9806 143.475 10.1785 145.476 5.37992C145.896 4.37229 146.385 3.50558 147.717 3.51263C149.031 3.51968 149.539 4.34763 149.968 5.36935C153.344 13.3952 156.736 21.414 160.098 29.4433C160.901 31.3564 160.129 33.0053 158.502 33.03L158.505 33.0335ZM147.573 21.4563C148.739 21.4563 149.905 21.4492 151.071 21.4563C151.79 21.4633 152.234 21.2977 151.864 20.4451C150.662 17.6688 149.479 14.8855 148.284 12.1057C148.147 11.7851 148.002 11.4152 147.611 11.3799C147.185 11.3376 147.044 11.7217 146.91 12.0388C145.737 14.8256 144.571 17.6195 143.394 20.4063C143.095 21.1145 143.186 21.4915 144.074 21.4598C145.24 21.421 146.406 21.4492 147.573 21.4492V21.4563Z" fill="#3EA9DE"/>
<path d="M174.797 84.6201C174.797 82.8091 174.779 80.9982 174.804 79.1873C174.815 78.3594 174.892 77.4962 175.9 77.2143C176.823 76.9571 177.344 77.4891 177.658 78.2607C177.986 79.0746 178.327 78.5602 178.69 78.3171C182.03 76.0869 183.912 76.256 186.593 79.1662C187.156 79.7757 187.304 79.367 187.625 79.0429C188.855 77.8027 190.243 76.9078 192.075 76.8831C194.781 76.8444 196.592 78.1832 197.028 80.8573C197.56 84.0986 197.314 87.3858 197.247 90.6518C197.229 91.522 196.866 92.3182 195.792 92.2584C194.675 92.1949 194.358 91.3846 194.351 90.4193C194.333 88.0834 194.365 85.744 194.33 83.4081C194.294 80.9454 193.431 79.9413 191.398 79.8955C189.084 79.8426 187.565 81.1744 187.495 83.4433C187.428 85.6629 187.495 87.8826 187.456 90.1022C187.438 91.1098 187.382 92.2654 185.983 92.2443C184.627 92.2231 184.521 91.1133 184.511 90.0845C184.489 87.805 184.525 85.5291 184.493 83.2495C184.458 80.9454 183.552 79.9342 181.593 79.899C179.381 79.8602 177.876 81.0581 177.785 83.1368C177.679 85.4692 177.75 87.8086 177.742 90.1444C177.742 91.2155 177.552 92.2478 176.213 92.2513C174.92 92.2513 174.822 91.1803 174.801 90.229C174.758 88.3617 174.787 86.4909 174.787 84.6201H174.794H174.797Z" fill="#2473B8"/>
<path d="M199.681 53.4187C199.681 51.6077 199.677 49.7968 199.684 47.9859C199.688 47.1333 199.811 46.2948 200.787 46.02C201.675 45.7663 202.245 46.2278 202.559 47.0382C202.777 47.6054 203.031 47.4821 203.468 47.2214C207.407 44.8784 208.316 44.9489 211.511 47.9331C212.237 48.613 212.403 47.8767 212.72 47.5948C214.023 46.4287 215.44 45.5972 217.272 45.6535C219.632 45.724 221.204 46.781 221.767 49.0781C222.627 52.5837 222.176 56.1668 222.127 59.7181C222.116 60.4792 221.63 61.057 220.767 61.0323C219.759 61.0006 219.301 60.3488 219.287 59.4222C219.252 57.0863 219.28 54.7469 219.259 52.411C219.238 49.8602 218.35 48.7434 216.335 48.6729C214.002 48.5919 212.42 49.9871 212.332 52.3476C212.255 54.4474 212.322 56.5543 212.301 58.6577C212.29 59.6935 212.484 61.0112 210.937 61.0076C209.366 61.0006 209.415 59.6864 209.412 58.5555C209.405 56.3922 209.429 54.2325 209.401 52.0693C209.369 49.7264 208.513 48.7399 206.544 48.6729C204.296 48.5954 202.76 49.892 202.682 52.0517C202.612 54.0352 202.661 56.0223 202.658 58.0094C202.658 58.478 202.693 58.9501 202.629 59.4081C202.513 60.2713 202.207 61.0464 201.15 61.0358C200.089 61.0252 199.832 60.2325 199.698 59.3764C199.681 59.2601 199.684 59.1439 199.684 59.0276C199.684 57.1568 199.684 55.2895 199.684 53.4187H199.681Z" fill="#2473B8"/>
<path d="M116.804 61.3952C114.874 61.4868 112.968 60.835 111.273 59.5596C110.906 59.2813 110.554 58.9536 110.283 58.5801C109.79 57.9002 109.677 57.1568 110.336 56.512C111.012 55.8497 111.734 56.0153 112.369 56.5931C114.042 58.1186 116.015 58.6647 118.221 58.3688C119.686 58.1715 121.06 57.6254 121.37 56.0188C121.687 54.3594 120.433 53.5984 119.115 53.1192C117.632 52.5837 116.082 52.2419 114.592 51.7275C111.576 50.6847 110.17 48.6729 110.378 45.8191C110.568 43.1944 112.358 41.2848 115.332 40.6612C118.101 40.0799 120.701 40.5273 122.998 42.2431C123.875 42.8984 124.383 43.7651 123.583 44.7974C122.815 45.7874 122.05 45.1427 121.286 44.6811C119.292 43.4762 117.195 42.9442 114.93 43.8849C113.996 44.2725 113.376 44.9278 113.334 45.9918C113.292 47.0593 113.873 47.7358 114.761 48.2149C116.54 49.1732 118.58 49.3071 120.444 50.0117C123.125 51.0264 124.326 52.6083 124.365 55.212C124.418 59.0065 121.539 61.4269 116.808 61.3881L116.804 61.3952Z" fill="#2473B8"/>
<path d="M117.051 92.6177C114.726 92.6776 112.651 91.9765 110.885 90.4792C110.1 89.8133 109.427 88.9289 110.216 87.9002C111.079 86.7763 111.928 87.4598 112.76 88.1151C114.863 89.7745 117.203 90.1374 119.693 89.1544C120.659 88.7739 121.402 88.0622 121.423 86.9313C121.441 85.8039 120.715 85.1521 119.789 84.6342C118.224 83.7604 116.431 83.623 114.782 83.0311C111.763 81.9495 110.417 80.2971 110.368 77.5948C110.329 75.4844 111.234 73.8673 113.017 72.761C115.733 71.0769 120.31 71.3588 122.84 73.3388C123.738 74.0435 124.446 74.8644 123.594 75.9988C122.769 77.0981 121.945 76.323 121.163 75.8227C119.334 74.6494 117.368 74.3042 115.286 74.9665C114.229 75.3048 113.397 75.9425 113.331 77.1826C113.267 78.4193 113.986 79.1908 115.046 79.5678C116.974 80.2513 118.964 80.7551 120.884 81.4563C123.15 82.2842 124.34 83.9366 124.369 86.4028C124.411 90.2149 121.561 92.653 117.047 92.6213L117.051 92.6177Z" fill="#2473B8"/>
<path d="M150.628 59.3235C150.709 59.0804 150.832 58.6295 151.008 58.1996C153.214 52.9149 155.43 47.6336 157.642 42.3523C157.959 41.5948 158.209 40.7775 159.252 40.7387C160.394 40.6999 160.69 41.5666 161.032 42.3805C163.23 47.6054 165.425 52.8303 167.616 58.0587C167.775 58.4357 167.951 58.8162 168.025 59.2108C168.166 59.9753 167.934 60.6518 167.18 60.9442C166.404 61.2437 165.791 60.8843 165.45 60.1621C164.999 59.2108 164.551 58.256 164.206 57.266C163.885 56.357 163.346 55.9836 162.377 56.0047C160.327 56.0505 158.276 56.0611 156.229 56.0047C155.18 55.973 154.609 56.3993 154.264 57.3541C153.904 58.3406 153.488 59.313 153.016 60.2501C152.703 60.8737 152.132 61.2049 151.406 60.9654C150.737 60.7434 150.617 60.1691 150.628 59.3306V59.3235ZM159.231 45.5549C158.195 48.0211 157.378 49.9941 156.529 51.9565C156.177 52.7704 156.515 53.0065 157.276 53.0029C158.615 52.9959 159.953 52.9924 161.292 53.0029C162.11 53.01 162.321 52.707 161.979 51.9354C161.109 49.9765 160.281 48 159.231 45.5514V45.5549Z" fill="#2473B8"/>
<path d="M236.742 47.3376C236.861 47.0734 236.981 46.8232 237.09 46.5696C237.386 45.9037 237.876 45.5655 238.623 45.6958C239.388 45.8262 239.722 46.3652 239.729 47.0663C239.761 51.2131 239.832 55.3635 239.743 59.5103C239.708 61.1239 238.468 61.5537 237.231 60.4193C236.594 59.8344 236.181 59.8837 235.586 60.3312C232.391 62.7375 226.933 61.219 225.506 56.1139C225.073 54.5672 225.069 52.9888 225.369 51.421C226.186 47.1439 231.048 43.3494 236.738 47.3376H236.742ZM236.96 53.5737C236.985 50.6459 235.149 48.5708 232.514 48.5496C229.928 48.5285 228.064 50.5191 228.015 53.3482C227.965 56.3253 229.734 58.3758 232.387 58.4216C235.114 58.4674 236.935 56.5402 236.96 53.5737Z" fill="#2473B8"/>
<path d="M215.507 85.6031C214.218 85.6031 212.932 85.5784 211.642 85.6136C210.17 85.6524 209.905 86.1773 210.666 87.4563C211.868 89.4786 214.919 90.3065 217.212 89.2284C217.424 89.1298 217.625 89.01 217.825 88.8867C218.646 88.3723 219.552 87.4351 220.383 88.633C221.201 89.8097 220.165 90.5849 219.337 91.2226C216.525 93.3858 211.885 93.0264 209.32 90.4827C206.706 87.8931 206.407 82.9149 208.679 79.7933C210.776 76.9149 214.489 76.0235 217.582 77.69C219.798 78.8843 221.06 80.7763 221.373 83.2566C221.581 84.909 221.01 85.5502 219.372 85.5925C218.086 85.6277 216.797 85.5995 215.507 85.6031ZM214.147 82.8585C215.137 82.8585 216.131 82.8761 217.121 82.8514C217.494 82.8409 218.005 83.017 218.164 82.485C218.287 82.0693 218.044 81.7099 217.804 81.3682C216.307 79.2437 212.583 79.1732 210.909 81.2554C210.589 81.6536 210.113 82.1116 210.402 82.6295C210.649 83.0699 211.251 82.8338 211.695 82.8514C212.509 82.8796 213.326 82.8585 214.144 82.8585H214.147Z" fill="#2473B8"/>
<path d="M165.922 85.6031C164.636 85.6031 163.35 85.5854 162.064 85.6136C161.571 85.6242 160.933 85.4198 160.672 86.0435C160.447 86.586 160.813 87.0581 161.088 87.4985C162.395 89.5878 165.499 90.3347 167.796 89.1227C168.155 88.9325 168.494 88.6964 168.828 88.4639C169.473 88.02 170.143 87.8649 170.713 88.5132C171.34 89.2319 171.052 89.9612 170.481 90.5461C168.702 92.3676 166.468 92.8221 164.033 92.5649C161.137 92.2584 158.597 90.1445 157.885 87.3153C157.026 83.8943 157.621 80.7939 160.404 78.4052C162.547 76.5661 165.629 76.3617 168.124 77.771C170.195 78.9407 171.376 80.7551 171.753 83.0699C172.045 84.8632 171.429 85.5608 169.611 85.596C168.384 85.6207 167.155 85.5995 165.925 85.6031H165.922ZM164.477 82.8585C165.531 82.8585 166.588 82.8444 167.641 82.862C168.804 82.8832 168.793 82.2877 168.3 81.5479C167.419 80.2196 166.094 79.6312 164.544 79.6629C163.064 79.6947 161.821 80.2689 161.014 81.6007C160.524 82.4075 160.51 82.9008 161.666 82.862C162.603 82.8303 163.54 82.855 164.477 82.855V82.8585Z" fill="#2473B8"/>
<path d="M139.12 92.6213C136.978 92.6353 135.069 92.0399 133.603 90.3981C132.994 89.7146 132.521 88.8972 133.314 88.0622C134.142 87.185 134.857 87.7099 135.565 88.3617C136.89 89.5807 138.451 90.1233 140.251 89.7675C141.086 89.6019 141.865 89.2848 141.957 88.2771C142.041 87.3365 141.368 86.9137 140.632 86.6459C139.476 86.2302 138.285 85.9201 137.126 85.5185C134.516 84.613 133.265 82.9395 133.55 80.7798C133.829 78.6624 135.77 77.0769 138.331 76.9043C140.339 76.7704 142.175 77.2037 143.669 78.6447C144.338 79.2895 144.581 80.0329 143.933 80.8185C143.267 81.6254 142.591 81.2202 141.935 80.7481C140.639 79.8144 139.251 79.3529 137.648 79.8638C136.971 80.0787 136.492 80.4451 136.443 81.1885C136.397 81.9213 136.774 82.4357 137.44 82.6788C138.483 83.0593 139.543 83.387 140.607 83.7146C143.743 84.68 145.057 86.3077 144.659 88.7528C144.282 91.0675 142.069 92.6107 139.12 92.6248V92.6213Z" fill="#2473B8"/>
<path d="M130.394 51.3365C130.394 52.6788 130.306 54.0282 130.415 55.36C130.587 57.5126 131.708 58.4428 133.889 58.4216C136.024 58.4005 137.2 57.3858 137.285 55.2613C137.38 52.8726 137.32 50.4768 137.317 48.0846C137.317 47.017 137.454 45.9601 138.8 45.9601C140.037 45.9601 140.244 46.9818 140.241 47.9683C140.237 50.6494 140.364 53.3482 140.118 56.0117C139.779 59.7041 137.408 61.4903 133.441 61.3917C129.995 61.3071 127.73 59.2425 127.529 55.744C127.374 53.0664 127.469 50.3746 127.48 47.6935C127.483 46.707 127.882 45.9143 128.995 45.953C130.003 45.9883 130.351 46.7317 130.351 47.6618C130.351 48.8878 130.351 50.1139 130.351 51.34H130.394V51.3365Z" fill="#2473B8"/>
<path d="M193.826 61.2331C191.599 61.1803 190.324 60.007 190.222 57.8121C190.112 55.4198 190.155 53.0241 190.176 50.6283C190.186 49.6524 190.109 48.9231 188.823 48.909C187.903 48.8984 187.294 48.2889 187.301 47.313C187.308 46.2807 187.995 45.8614 188.932 45.9037C189.986 45.953 190.26 45.4281 190.179 44.512C190.155 44.2231 190.172 43.9272 190.207 43.6383C190.32 42.7927 190.736 42.1832 191.656 42.1797C192.596 42.1797 193.104 42.8491 193.054 43.663C192.949 45.3365 193.414 46.1926 195.281 45.9319C196.06 45.8227 196.634 46.3582 196.683 47.1861C196.739 48.1304 196.215 48.9548 195.298 48.8702C193.037 48.6624 193.047 49.9836 193.118 51.576C193.192 53.2672 193.142 54.9654 193.135 56.6565C193.135 57.5302 193.414 58.2314 194.414 58.1221C195.404 58.0129 196.267 58.027 196.31 59.2496C196.348 60.3735 195.485 60.8456 194.534 61.1309C194.259 61.212 193.96 61.2155 193.822 61.2331H193.826Z" fill="#2473B8"/>
<path d="M149.021 85.2014C149.021 84.2678 148.993 83.3306 149.028 82.3969C149.074 81.1744 149.134 80.0822 147.355 80.047C146.527 80.0294 146.104 79.2155 146.178 78.3594C146.249 77.5244 146.826 77.0734 147.612 77.1333C148.856 77.2284 149.095 76.6119 149.039 75.5549C148.983 74.505 149.155 73.4198 150.512 73.4234C151.875 73.4269 152.041 74.5614 151.97 75.576C151.882 76.8585 152.439 77.2108 153.605 77.1121C154.637 77.0276 155.55 77.32 155.546 78.5708C155.546 79.751 154.715 80.2302 153.661 80.1597C152.326 80.0681 151.921 80.6142 151.977 81.8931C152.062 83.8168 152.02 85.7475 151.995 87.6747C151.981 88.788 152.28 89.5561 153.595 89.3165C154.341 89.1826 154.902 89.3517 155.106 90.1092C155.335 90.9583 154.933 91.5749 154.218 92.0153C152.182 93.273 149.42 91.9166 149.11 89.4011C148.94 88.02 149.078 86.6036 149.078 85.2014C149.057 85.2014 149.036 85.2014 149.014 85.2014H149.021Z" fill="#2473B8"/>
<path d="M173.676 47.9401C174.972 46.6471 176.219 45.5901 178.027 45.6641C179.154 45.7099 180.039 46.0763 179.943 47.3905C179.852 48.6483 178.946 48.9196 177.914 48.6412C175.37 47.9542 173.464 50.4839 173.464 52.6013C173.464 54.7046 173.45 56.808 173.454 58.9113C173.454 59.9859 173.211 61.1169 171.995 61.1239C170.639 61.1309 170.477 59.9119 170.477 58.7986C170.477 55.293 170.477 51.7874 170.477 48.2819C170.477 47.2637 170.487 46.1644 171.787 45.953C173.045 45.7487 173.235 46.8655 173.679 47.9401H173.676Z" fill="#2473B8"/>
<path d="M201.382 81.5373C201.382 78.7328 201.382 75.9319 201.382 73.1274C201.382 72.074 201.481 70.9959 202.823 70.9536C204.222 70.9113 204.321 72.0669 204.324 73.071C204.352 78.7363 204.356 84.4016 204.328 90.0669C204.324 91.0605 204.25 92.2513 202.873 92.2408C201.404 92.2337 201.379 91.0393 201.379 89.9472C201.379 87.1427 201.379 84.3417 201.379 81.5373H201.382Z" fill="#2473B8"/>
<path d="M227.612 79.1627C228.933 77.7992 230.202 76.7986 232.005 76.8867C233.147 76.943 234.017 77.3658 233.848 78.6624C233.693 79.8497 232.865 80.047 231.759 79.8462C229.307 79.4022 227.492 81.0158 227.387 83.7745C227.305 85.8708 227.362 87.9706 227.358 90.0705C227.358 91.1204 227.231 92.2231 225.903 92.2302C224.564 92.2337 224.459 91.1309 224.459 90.0775C224.466 86.579 224.459 83.0804 224.462 79.5819C224.462 78.5954 224.311 77.4574 225.643 77.1932C227.006 76.9254 227.133 78.155 227.612 79.1627Z" fill="#2473B8"/>
<path d="M185.101 53.5984C185.101 55.4621 185.118 57.3259 185.094 59.1897C185.083 60.1409 184.78 60.983 183.656 61.0217C182.486 61.064 182.19 60.1832 182.183 59.2531C182.155 55.4093 182.166 51.5655 182.183 47.7217C182.187 46.7457 182.55 45.9389 183.681 45.9847C184.801 46.0305 185.087 46.8832 185.094 47.8344C185.111 49.7581 185.097 51.6782 185.101 53.6019V53.5984Z" fill="#2473B8"/>
<path d="M130.259 84.8068C130.259 86.6706 130.273 88.5343 130.256 90.3981C130.245 91.3529 129.946 92.2231 128.832 92.2372C127.737 92.2478 127.342 91.4022 127.338 90.4474C127.317 86.6036 127.331 82.7563 127.356 78.9125C127.363 77.9366 127.747 77.1192 128.864 77.1685C129.97 77.2178 130.256 78.081 130.263 79.0393C130.273 80.963 130.263 82.8831 130.266 84.8068H130.259Z" fill="#2473B8"/>
<path d="M239.109 84.8315C239.109 86.6353 239.138 88.4427 239.099 90.2466C239.078 91.2331 238.817 92.2302 237.605 92.2302C236.383 92.2302 236.164 91.2543 236.164 90.2431C236.164 86.5719 236.168 82.9043 236.164 79.2331C236.164 78.2255 236.33 77.2355 237.535 77.1756C238.891 77.1086 239.074 78.1938 239.092 79.2366C239.12 81.1004 239.099 82.9642 239.099 84.8279C239.102 84.8279 239.106 84.8279 239.113 84.8279L239.109 84.8315Z" fill="#2473B8"/>
<path d="M239.238 73.5361C239.256 74.6036 238.696 75.2026 237.663 75.2449C236.511 75.2907 235.948 74.6177 235.951 73.5009C235.951 72.4157 236.55 71.9507 237.625 71.9472C238.727 71.9436 239.242 72.4615 239.238 73.5396V73.5361Z" fill="#2473B8"/>
<path d="M127.149 73.5326C127.131 72.4439 127.674 71.9542 128.759 71.9436C129.837 71.9331 130.397 72.4016 130.404 73.4903C130.411 74.5191 129.925 75.2026 128.886 75.2413C127.787 75.2836 127.152 74.6847 127.149 73.5326Z" fill="#2473B8"/>
<path d="M60.2921 67.4234C59.9362 67.9201 59.4677 68.1456 58.7031 68.0329C59.1294 67.4234 59.5945 67.1556 60.2498 67.219C60.3379 67.2719 60.352 67.3388 60.2886 67.4234H60.2921Z" fill="#3EA9DE"/>
<path d="M61.8418 66.3805C61.877 66.0599 62.0602 66.0599 62.2928 66.1691C62.2399 66.451 62.0673 66.4721 61.8418 66.3805Z" fill="#3EA9DE"/>
<path d="M62.5586 66.0388C62.5833 65.7076 62.7735 65.7146 63.0096 65.8203C62.9602 66.0987 62.7876 66.1304 62.5586 66.0388Z" fill="#3EA9DE"/>
<path d="M60.4482 67.0816C60.4235 66.8914 60.494 66.8491 60.656 66.9477L60.6032 67.0922L60.4517 67.0816H60.4482Z" fill="#3EA9DE"/>
</g>
<defs>
<clipPath id="clip0_816_3860">
<rect width="240" height="95.4081" fill="white"/>
</clipPath>
</defs>
</svg>
