<svg width="128" height="32" viewBox="0 0 128 32" fill="none" xmlns="http://www.w3.org/2000/svg">
<path d="M0 31.9999H10.8493C15.9939 31.9999 20.1644 27.8294 20.1644 22.6848H9.31507C4.1705 22.6848 0 26.8553 0 31.9999Z" fill="white"/>
<path d="M0.484375 9.31507V23.0137C5.62894 23.0137 9.7995 18.8432 9.7995 13.6986V0C4.65488 0 0.484375 4.1705 0.484375 9.31507Z" fill="white"/>
<path d="M30.6839 0H19.8346C14.69 0 10.5195 4.1705 10.5195 9.31507H21.3688C26.5134 9.31507 30.6839 5.14457 30.6839 0Z" fill="white"/>
<path d="M30.6842 22.1371V8.43848C25.5396 8.43848 21.3691 12.609 21.3691 17.7535V31.4522C26.5137 31.4522 30.6842 27.2817 30.6842 22.1371Z" fill="white"/>
<path d="M45.5126 20.48V8H41.8555V24H51.2269V20.48H45.5126Z" fill="white"/>
<path d="M60.9096 12.5715V13.6458C60.1553 12.7772 59.0353 12.2515 57.5039 12.2515C54.5096 12.2515 52.041 14.8801 52.041 18.2858C52.041 21.6915 54.5096 24.3201 57.5039 24.3201C59.0353 24.3201 60.1553 23.7944 60.9096 22.9258V24.0001H64.3381V12.5715H60.9096ZM58.1896 21.0744C56.6124 21.0744 55.4696 20.0001 55.4696 18.2858C55.4696 16.5715 56.6124 15.4972 58.1896 15.4972C59.7667 15.4972 60.9096 16.5715 60.9096 18.2858C60.9096 20.0001 59.7667 21.0744 58.1896 21.0744Z" fill="white"/>
<path d="M73.5506 12.2515C72.0421 12.2515 70.8992 12.8001 70.2821 13.6458V12.5715H66.8535V24.0001H70.2821V17.7601C70.2821 16.1372 71.1506 15.4058 72.4078 15.4058C73.5049 15.4058 74.3964 16.0687 74.3964 17.4858V24.0001H77.8249V16.9829C77.8249 13.8972 75.8592 12.2515 73.5506 12.2515Z" fill="white"/>
<path d="M88.4759 8V13.6457C87.7216 12.7771 86.6016 12.2514 85.0702 12.2514C82.0759 12.2514 79.6074 14.88 79.6074 18.2857C79.6074 21.6914 82.0759 24.32 85.0702 24.32C86.6016 24.32 87.7216 23.7943 88.4759 22.9257V24H91.9045V8H88.4759ZM85.7559 21.0743C84.1788 21.0743 83.0359 20 83.0359 18.2857C83.0359 16.5714 84.1788 15.4971 85.7559 15.4971C87.3331 15.4971 88.4759 16.5714 88.4759 18.2857C88.4759 20 87.3331 21.0743 85.7559 21.0743Z" fill="white"/>
<path d="M96.1352 11.5657C97.2552 11.5657 98.1924 10.6286 98.1924 9.50856C98.1924 8.38856 97.2552 7.45142 96.1352 7.45142C95.0152 7.45142 94.0781 8.38856 94.0781 9.50856C94.0781 10.6286 95.0152 11.5657 96.1352 11.5657ZM94.421 24H97.8495V12.5714H94.421V24Z" fill="white"/>
<path d="M106.645 10.9714V7.67999C102.85 7.45142 101.09 9.37142 101.09 12.5714H99.5586V15.8628H101.09V24H104.519V15.8628H106.645V12.5714H104.519C104.519 11.2457 105.365 10.8571 106.645 10.9714Z" fill="white"/>
<path d="M115.549 12.5713L113.401 19.5656L110.863 12.5713H107.092L111.641 23.4742C111.138 24.8685 110.383 25.3713 108.783 25.3713V28.5713C111.983 28.7313 114.018 27.2913 115.298 23.657L119.206 12.5713H115.549Z" fill="white"/>
<path d="M122.51 4.80005H119.42V5.59205H120.548V9.00005H121.376V5.59205H122.51V4.80005Z" fill="white"/>
<path d="M127.083 4.80005H126.231L125.031 6.78605L123.825 4.80005H122.973V9.00005H123.801V6.28205L124.983 8.22605H125.079L126.261 6.27605V9.00005H127.083V4.80005Z" fill="white"/>
</svg>
