<svg width="247" height="39" viewBox="0 0 247 39" fill="none" xmlns="http://www.w3.org/2000/svg">
<path d="M33.137 9.218V38H26.126V20.739L19.689 38H14.031L7.553 20.698V38H0.542V9.218H8.824L16.901 29.144L24.896 9.218H33.137ZM45.1897 14.835V20.657H54.5787V26.069H45.1897V32.383H55.8087V38H38.1787V9.218H55.8087V14.835H45.1897ZM86.1084 38H79.0974L67.3714 20.247V38H60.3604V9.218H67.3714L79.0974 27.053V9.218H86.1084V38ZM111.895 9.218V14.835H104.269V38H97.2584V14.835H89.6324V9.218H111.895ZM129.026 38.287C126.32 38.287 123.833 37.6583 121.564 36.401C119.323 35.1437 117.532 33.3943 116.193 31.153C114.881 28.8843 114.225 26.3423 114.225 23.527C114.225 20.7117 114.881 18.1833 116.193 15.942C117.532 13.7007 119.323 11.9513 121.564 10.694C123.833 9.43667 126.32 8.808 129.026 8.808C131.732 8.808 134.206 9.43667 136.447 10.694C138.716 11.9513 140.492 13.7007 141.777 15.942C143.089 18.1833 143.745 20.7117 143.745 23.527C143.745 26.3423 143.089 28.8843 141.777 31.153C140.465 33.3943 138.688 35.1437 136.447 36.401C134.206 37.6583 131.732 38.287 129.026 38.287ZM129.026 31.891C131.322 31.891 133.153 31.1257 134.52 29.595C135.914 28.0643 136.611 26.0417 136.611 23.527C136.611 20.985 135.914 18.9623 134.52 17.459C133.153 15.9283 131.322 15.163 129.026 15.163C126.703 15.163 124.844 15.9147 123.45 17.418C122.083 18.9213 121.4 20.9577 121.4 23.527C121.4 26.069 122.083 28.1053 123.45 29.636C124.844 31.1393 126.703 31.891 129.026 31.891ZM124.885 6.594C124.038 6.594 123.327 6.307 122.753 5.733C122.179 5.159 121.892 4.44833 121.892 3.601C121.892 2.75366 122.179 2.043 122.753 1.469C123.327 0.867665 124.038 0.566998 124.885 0.566998C125.76 0.566998 126.484 0.853998 127.058 1.428C127.632 2.002 127.919 2.72633 127.919 3.601C127.919 4.44833 127.618 5.159 127.017 5.733C126.443 6.307 125.732 6.594 124.885 6.594ZM133.085 6.594C132.238 6.594 131.527 6.307 130.953 5.733C130.379 5.159 130.092 4.44833 130.092 3.601C130.092 2.75366 130.379 2.043 130.953 1.469C131.527 0.867665 132.238 0.566998 133.085 0.566998C133.96 0.566998 134.684 0.853998 135.258 1.428C135.832 2.002 136.119 2.72633 136.119 3.601C136.119 4.44833 135.818 5.159 135.217 5.733C134.643 6.307 133.932 6.594 133.085 6.594ZM162.324 38L156.338 27.135H154.657V38H147.646V9.218H159.413C161.681 9.218 163.608 9.61433 165.194 10.407C166.806 11.1997 168.009 12.293 168.802 13.687C169.594 15.0537 169.991 16.5843 169.991 18.279C169.991 20.1923 169.444 21.9007 168.351 23.404C167.285 24.9073 165.699 25.9733 163.595 26.602L170.237 38H162.324ZM154.657 22.174H159.003C160.287 22.174 161.244 21.8597 161.873 21.231C162.529 20.6023 162.857 19.714 162.857 18.566C162.857 17.4727 162.529 16.6117 161.873 15.983C161.244 15.3543 160.287 15.04 159.003 15.04H154.657V22.174ZM191.817 23.24C193.484 23.5953 194.823 24.429 195.835 25.741C196.846 27.0257 197.352 28.5017 197.352 30.169C197.352 32.5743 196.504 34.4877 194.81 35.909C193.142 37.303 190.805 38 187.799 38H174.392V9.218H187.348C190.272 9.218 192.555 9.88767 194.195 11.227C195.862 12.5663 196.696 14.384 196.696 16.68C196.696 18.3747 196.245 19.7823 195.343 20.903C194.468 22.0237 193.293 22.8027 191.817 23.24ZM181.403 20.862H185.995C187.143 20.862 188.017 20.616 188.619 20.124C189.247 19.6047 189.562 18.853 189.562 17.869C189.562 16.885 189.247 16.1333 188.619 15.614C188.017 15.0947 187.143 14.835 185.995 14.835H181.403V20.862ZM186.569 32.342C187.744 32.342 188.646 32.0823 189.275 31.563C189.931 31.0163 190.259 30.2373 190.259 29.226C190.259 28.2147 189.917 27.422 189.234 26.848C188.578 26.274 187.662 25.987 186.487 25.987H181.403V32.342H186.569ZM208.306 9.218V26.438C208.306 28.16 208.73 29.4857 209.577 30.415C210.424 31.3443 211.668 31.809 213.308 31.809C214.948 31.809 216.205 31.3443 217.08 30.415C217.955 29.4857 218.392 28.16 218.392 26.438V9.218H225.403V26.397C225.403 28.9663 224.856 31.1393 223.763 32.916C222.67 34.6927 221.194 36.032 219.335 36.934C217.504 37.836 215.454 38.287 213.185 38.287C210.916 38.287 208.88 37.8497 207.076 36.975C205.299 36.073 203.892 34.7337 202.853 32.957C201.814 31.153 201.295 28.9663 201.295 26.397V9.218H208.306ZM237.337 32.588H246.521V38H230.326V9.218H237.337V32.588Z" fill="white"/>
</svg>
