<svg width="241" height="36" viewBox="0 0 241 36" fill="none" xmlns="http://www.w3.org/2000/svg">
<path d="M45.4347 11.4545H48.6591L52.9773 21.9943H53.1477L57.4659 11.4545H60.6903V26H58.1619V16.0071H58.027L54.0071 25.9574H52.1179L48.098 15.9858H47.9631V26H45.4347V11.4545ZM67.8756 26.2131C66.7818 26.2131 65.8372 25.9858 65.0418 25.5312C64.251 25.072 63.6426 24.4233 63.2165 23.5852C62.7903 22.7424 62.5773 21.7505 62.5773 20.6094C62.5773 19.4872 62.7903 18.5024 63.2165 17.6548C63.6473 16.8026 64.2487 16.1397 65.0205 15.6662C65.7922 15.188 66.699 14.9489 67.7406 14.9489C68.413 14.9489 69.0474 15.0578 69.644 15.2756C70.2454 15.4886 70.7757 15.8201 71.2349 16.2699C71.699 16.7197 72.0635 17.2926 72.3287 17.9886C72.5938 18.6799 72.7264 19.5038 72.7264 20.4602V21.2486H63.7847V19.5156H70.2619C70.2572 19.0232 70.1507 18.5852 69.9423 18.2017C69.734 17.8134 69.4428 17.508 69.0688 17.2855C68.6994 17.063 68.2686 16.9517 67.7761 16.9517C67.2506 16.9517 66.7889 17.0795 66.3912 17.3352C65.9935 17.5862 65.6833 17.9176 65.4608 18.3295C65.243 18.7367 65.1317 19.1842 65.127 19.6719V21.1847C65.127 21.8191 65.243 22.3636 65.475 22.8182C65.707 23.268 66.0313 23.6136 66.448 23.8551C66.8647 24.0919 67.3524 24.2102 67.9111 24.2102C68.2851 24.2102 68.6237 24.1581 68.9267 24.054C69.2297 23.9451 69.4925 23.7865 69.7151 23.5781C69.9376 23.3698 70.1057 23.1117 70.2193 22.804L72.6199 23.0739C72.4684 23.7083 72.1795 24.2623 71.7534 24.7358C71.332 25.2045 70.7922 25.5691 70.1341 25.8295C69.4759 26.0852 68.7231 26.2131 67.8756 26.2131ZM79.9489 15.0909V17.0795H73.6776V15.0909H79.9489ZM75.2259 12.4773H77.7969V22.7188C77.7969 23.0644 77.849 23.3295 77.9532 23.5142C78.0621 23.6941 78.2041 23.8172 78.3793 23.8835C78.5545 23.9498 78.7487 23.983 78.9617 23.983C79.1227 23.983 79.2695 23.9711 79.4021 23.9474C79.5394 23.9238 79.6435 23.9025 79.7146 23.8835L80.1478 25.8935C80.0105 25.9408 79.814 25.9929 79.5583 26.0497C79.3074 26.1065 78.9996 26.1397 78.635 26.1491C77.9911 26.1681 77.4111 26.071 76.895 25.858C76.3789 25.6402 75.9693 25.304 75.6663 24.8494C75.368 24.3949 75.2212 23.8267 75.2259 23.1449V12.4773ZM84.8384 26.2202C84.1471 26.2202 83.5244 26.0971 82.9705 25.8509C82.4212 25.5999 81.9856 25.2306 81.6636 24.7429C81.3464 24.2552 81.1878 23.6539 81.1878 22.9389C81.1878 22.3234 81.3014 21.8144 81.5287 21.4119C81.756 21.0095 82.0661 20.6875 82.4591 20.446C82.8521 20.2045 83.2948 20.0223 83.7872 19.8991C84.2844 19.7713 84.7981 19.679 85.3284 19.6222C85.9676 19.5559 86.4861 19.4967 86.8838 19.4446C87.2815 19.3878 87.5704 19.3026 87.7503 19.1889C87.9349 19.0705 88.0273 18.8883 88.0273 18.642V18.5994C88.0273 18.0644 87.8687 17.6501 87.5514 17.3565C87.2342 17.063 86.7773 16.9162 86.1807 16.9162C85.5509 16.9162 85.0514 17.0535 84.6821 17.3281C84.3175 17.6027 84.0713 17.9271 83.9435 18.3011L81.5429 17.9602C81.7323 17.2973 82.0448 16.7434 82.4804 16.2983C82.916 15.8485 83.4487 15.5123 84.0784 15.2898C84.7081 15.0625 85.4042 14.9489 86.1665 14.9489C86.692 14.9489 87.2152 15.0104 87.7361 15.1335C88.2569 15.2566 88.7328 15.4602 89.1636 15.7443C89.5945 16.0237 89.9402 16.4048 90.2006 16.8878C90.4657 17.3707 90.5983 17.9744 90.5983 18.6989V26H88.1267V24.5014H88.0415C87.8852 24.8045 87.6651 25.0885 87.381 25.3537C87.1016 25.6141 86.7489 25.8248 86.3227 25.9858C85.9013 26.142 85.4065 26.2202 84.8384 26.2202ZM85.506 24.331C86.0221 24.331 86.4695 24.2292 86.8483 24.0256C87.2271 23.8172 87.5183 23.5426 87.7219 23.2017C87.9302 22.8608 88.0344 22.4891 88.0344 22.0866V20.8011C87.9539 20.8674 87.8166 20.929 87.6224 20.9858C87.433 21.0426 87.22 21.0923 86.9832 21.1349C86.7465 21.1776 86.5121 21.2154 86.2801 21.2486C86.0481 21.2817 85.8469 21.3101 85.6764 21.3338C85.2929 21.3859 84.9496 21.4711 84.6466 21.5895C84.3436 21.7079 84.1045 21.8736 83.9293 22.0866C83.7541 22.295 83.6665 22.5649 83.6665 22.8963C83.6665 23.3698 83.8393 23.7273 84.1849 23.9688C84.5306 24.2102 84.9709 24.331 85.506 24.331ZM96.8189 13.6634V11.4545H108.424V13.6634H103.928V26H101.315V13.6634H96.8189ZM111.802 26.2202C111.111 26.2202 110.488 26.0971 109.935 25.8509C109.385 25.5999 108.95 25.2306 108.628 24.7429C108.31 24.2552 108.152 23.6539 108.152 22.9389C108.152 22.3234 108.265 21.8144 108.493 21.4119C108.72 21.0095 109.03 20.6875 109.423 20.446C109.816 20.2045 110.259 20.0223 110.751 19.8991C111.248 19.7713 111.762 19.679 112.292 19.6222C112.932 19.5559 113.45 19.4967 113.848 19.4446C114.246 19.3878 114.534 19.3026 114.714 19.1889C114.899 19.0705 114.991 18.8883 114.991 18.642V18.5994C114.991 18.0644 114.833 17.6501 114.515 17.3565C114.198 17.063 113.741 16.9162 113.145 16.9162C112.515 16.9162 112.015 17.0535 111.646 17.3281C111.282 17.6027 111.035 17.9271 110.908 18.3011L108.507 17.9602C108.696 17.2973 109.009 16.7434 109.444 16.2983C109.88 15.8485 110.413 15.5123 111.042 15.2898C111.672 15.0625 112.368 14.9489 113.131 14.9489C113.656 14.9489 114.179 15.0104 114.7 15.1335C115.221 15.2566 115.697 15.4602 116.128 15.7443C116.559 16.0237 116.904 16.4048 117.165 16.8878C117.43 17.3707 117.562 17.9744 117.562 18.6989V26H115.091V24.5014H115.006C114.849 24.8045 114.629 25.0885 114.345 25.3537C114.066 25.6141 113.713 25.8248 113.287 25.9858C112.865 26.142 112.371 26.2202 111.802 26.2202ZM112.47 24.331C112.986 24.331 113.434 24.2292 113.812 24.0256C114.191 23.8172 114.482 23.5426 114.686 23.2017C114.894 22.8608 114.998 22.4891 114.998 22.0866V20.8011C114.918 20.8674 114.781 20.929 114.587 20.9858C114.397 21.0426 114.184 21.0923 113.947 21.1349C113.711 21.1776 113.476 21.2154 113.244 21.2486C113.012 21.2817 112.811 21.3101 112.64 21.3338C112.257 21.3859 111.914 21.4711 111.611 21.5895C111.308 21.7079 111.069 21.8736 110.893 22.0866C110.718 22.295 110.631 22.5649 110.631 22.8963C110.631 23.3698 110.803 23.7273 111.149 23.9688C111.495 24.2102 111.935 24.331 112.47 24.331ZM124.492 30.3182C123.569 30.3182 122.776 30.1927 122.113 29.9418C121.45 29.6955 120.917 29.3641 120.515 28.9474C120.112 28.5308 119.833 28.0691 119.677 27.5625L121.992 27.0014C122.096 27.2145 122.248 27.4252 122.446 27.6335C122.645 27.8466 122.913 28.0218 123.249 28.1591C123.59 28.3011 124.018 28.3722 124.535 28.3722C125.264 28.3722 125.867 28.1946 126.346 27.8395C126.824 27.4891 127.063 26.9115 127.063 26.1065V24.0398H126.935C126.803 24.3049 126.608 24.5772 126.353 24.8565C126.102 25.1359 125.768 25.3703 125.351 25.5597C124.939 25.7491 124.421 25.8438 123.796 25.8438C122.958 25.8438 122.198 25.6473 121.516 25.2543C120.839 24.8565 120.299 24.2647 119.897 23.4787C119.499 22.688 119.3 21.6984 119.3 20.5099C119.3 19.312 119.499 18.3011 119.897 17.4773C120.299 16.6487 120.841 16.0213 121.523 15.5952C122.205 15.1643 122.965 14.9489 123.803 14.9489C124.442 14.9489 124.968 15.0578 125.38 15.2756C125.796 15.4886 126.128 15.7467 126.374 16.0497C126.62 16.348 126.807 16.6297 126.935 16.8949H127.077V15.0909H129.613V26.1776C129.613 27.1103 129.39 27.8821 128.945 28.4929C128.5 29.1037 127.892 29.5606 127.12 29.8636C126.348 30.1667 125.472 30.3182 124.492 30.3182ZM124.513 23.8267C125.058 23.8267 125.522 23.6941 125.905 23.429C126.289 23.1638 126.58 22.7827 126.779 22.2855C126.978 21.7884 127.077 21.1918 127.077 20.4957C127.077 19.8092 126.978 19.2079 126.779 18.6918C126.585 18.1757 126.296 17.7756 125.912 17.4915C125.534 17.2027 125.067 17.0582 124.513 17.0582C123.94 17.0582 123.462 17.2074 123.079 17.5057C122.695 17.804 122.406 18.2135 122.212 18.7344C122.018 19.2505 121.921 19.8376 121.921 20.4957C121.921 21.1634 122.018 21.7481 122.212 22.25C122.411 22.7472 122.702 23.1354 123.086 23.4148C123.474 23.6894 123.95 23.8267 124.513 23.8267ZM140.47 17.9744L138.126 18.2301C138.06 17.9934 137.944 17.7708 137.778 17.5625C137.617 17.3542 137.399 17.1861 137.125 17.0582C136.85 16.9304 136.514 16.8665 136.116 16.8665C135.581 16.8665 135.131 16.9825 134.767 17.2145C134.407 17.4465 134.229 17.7472 134.234 18.1165C134.229 18.4337 134.345 18.6918 134.582 18.8906C134.823 19.0895 135.221 19.2528 135.775 19.3807L137.636 19.7784C138.668 20.0009 139.435 20.3537 139.937 20.8366C140.444 21.3196 140.699 21.9517 140.704 22.733C140.699 23.4195 140.498 24.0256 140.1 24.5511C139.707 25.072 139.161 25.4792 138.46 25.7727C137.759 26.0663 136.954 26.2131 136.045 26.2131C134.71 26.2131 133.635 25.9337 132.821 25.375C132.006 24.8116 131.521 24.0279 131.365 23.0241L133.872 22.7827C133.985 23.2751 134.227 23.6468 134.596 23.8977C134.965 24.1487 135.446 24.2741 136.038 24.2741C136.649 24.2741 137.139 24.1487 137.508 23.8977C137.882 23.6468 138.069 23.3366 138.069 22.9673C138.069 22.6548 137.948 22.3968 137.707 22.1932C137.47 21.9896 137.101 21.8333 136.599 21.7244L134.738 21.3338C133.692 21.116 132.918 20.7491 132.416 20.233C131.914 19.7121 131.665 19.054 131.67 18.2585C131.665 17.5862 131.848 17.0038 132.217 16.5114C132.591 16.0142 133.109 15.6307 133.772 15.3608C134.44 15.0862 135.209 14.9489 136.081 14.9489C137.359 14.9489 138.365 15.2211 139.099 15.7656C139.838 16.3101 140.295 17.0464 140.47 17.9744ZM156.843 16.0994C156.725 15.7159 156.561 15.3726 156.353 15.0696C156.149 14.7618 155.903 14.4991 155.614 14.2812C155.33 14.0634 155.004 13.9001 154.634 13.7912C154.265 13.6776 153.862 13.6207 153.427 13.6207C152.646 13.6207 151.95 13.8172 151.339 14.2102C150.728 14.6032 150.247 15.1809 149.897 15.9432C149.551 16.7008 149.379 17.6241 149.379 18.7131C149.379 19.8116 149.551 20.742 149.897 21.5043C150.243 22.2666 150.723 22.8466 151.339 23.2443C151.954 23.6373 152.669 23.8338 153.484 23.8338C154.222 23.8338 154.862 23.6918 155.401 23.4077C155.946 23.1236 156.365 22.7211 156.658 22.2003C156.952 21.6747 157.099 21.0592 157.099 20.3537L157.695 20.446H153.746V18.3864H159.648V20.1335C159.648 21.3788 159.383 22.456 158.853 23.3651C158.323 24.2741 157.594 24.9749 156.665 25.4673C155.737 25.955 154.672 26.1989 153.469 26.1989C152.129 26.1989 150.953 25.8982 149.94 25.2969C148.931 24.6908 148.143 23.8314 147.575 22.7188C147.011 21.6013 146.729 20.2756 146.729 18.7415C146.729 17.5672 146.895 16.5185 147.227 15.5952C147.563 14.6719 148.031 13.8883 148.633 13.2443C149.234 12.5956 149.94 12.1032 150.749 11.767C151.559 11.4261 152.44 11.2557 153.391 11.2557C154.196 11.2557 154.947 11.3741 155.643 11.6108C156.339 11.8428 156.957 12.1742 157.496 12.6051C158.041 13.036 158.488 13.5473 158.839 14.1392C159.189 14.7311 159.419 15.3845 159.528 16.0994H156.843ZM166.512 26.2131C165.419 26.2131 164.474 25.9858 163.678 25.5312C162.888 25.072 162.279 24.4233 161.853 23.5852C161.427 22.7424 161.214 21.7505 161.214 20.6094C161.214 19.4872 161.427 18.5024 161.853 17.6548C162.284 16.8026 162.885 16.1397 163.657 15.6662C164.429 15.188 165.336 14.9489 166.377 14.9489C167.05 14.9489 167.684 15.0578 168.281 15.2756C168.882 15.4886 169.412 15.8201 169.872 16.2699C170.336 16.7197 170.7 17.2926 170.965 17.9886C171.231 18.6799 171.363 19.5038 171.363 20.4602V21.2486H162.421V19.5156H168.899C168.894 19.0232 168.787 18.5852 168.579 18.2017C168.371 17.8134 168.08 17.508 167.705 17.2855C167.336 17.063 166.905 16.9517 166.413 16.9517C165.887 16.9517 165.426 17.0795 165.028 17.3352C164.63 17.5862 164.32 17.9176 164.098 18.3295C163.88 18.7367 163.768 19.1842 163.764 19.6719V21.1847C163.764 21.8191 163.88 22.3636 164.112 22.8182C164.344 23.268 164.668 23.6136 165.085 23.8551C165.501 24.0919 165.989 24.2102 166.548 24.2102C166.922 24.2102 167.26 24.1581 167.563 24.054C167.866 23.9451 168.129 23.7865 168.352 23.5781C168.574 23.3698 168.742 23.1117 168.856 22.804L171.257 23.0739C171.105 23.7083 170.816 24.2623 170.39 24.7358C169.969 25.2045 169.429 25.5691 168.771 25.8295C168.113 26.0852 167.36 26.2131 166.512 26.2131ZM175.709 19.608V26H173.138V15.0909H175.596V16.9446H175.723C175.974 16.3338 176.374 15.8485 176.924 15.4886C177.478 15.1288 178.162 14.9489 178.976 14.9489C179.729 14.9489 180.385 15.1098 180.944 15.4318C181.507 15.7538 181.943 16.2202 182.25 16.831C182.563 17.4418 182.717 18.1828 182.712 19.054V26H180.141V19.4517C180.141 18.7225 179.952 18.152 179.573 17.7401C179.199 17.3281 178.68 17.1222 178.017 17.1222C177.568 17.1222 177.168 17.2216 176.817 17.4205C176.472 17.6146 176.199 17.8963 176 18.2656C175.806 18.6349 175.709 19.0824 175.709 19.608ZM189.755 26.2131C188.662 26.2131 187.717 25.9858 186.921 25.5312C186.131 25.072 185.522 24.4233 185.096 23.5852C184.67 22.7424 184.457 21.7505 184.457 20.6094C184.457 19.4872 184.67 18.5024 185.096 17.6548C185.527 16.8026 186.128 16.1397 186.9 15.6662C187.672 15.188 188.579 14.9489 189.62 14.9489C190.293 14.9489 190.927 15.0578 191.524 15.2756C192.125 15.4886 192.655 15.8201 193.115 16.2699C193.579 16.7197 193.943 17.2926 194.208 17.9886C194.474 18.6799 194.606 19.5038 194.606 20.4602V21.2486H185.664V19.5156H192.142C192.137 19.0232 192.03 18.5852 191.822 18.2017C191.614 17.8134 191.322 17.508 190.948 17.2855C190.579 17.063 190.148 16.9517 189.656 16.9517C189.13 16.9517 188.669 17.0795 188.271 17.3352C187.873 17.5862 187.563 17.9176 187.34 18.3295C187.123 18.7367 187.011 19.1842 187.007 19.6719V21.1847C187.007 21.8191 187.123 22.3636 187.355 22.8182C187.587 23.268 187.911 23.6136 188.328 23.8551C188.744 24.0919 189.232 24.2102 189.791 24.2102C190.165 24.2102 190.503 24.1581 190.806 24.054C191.109 23.9451 191.372 23.7865 191.595 23.5781C191.817 23.3698 191.985 23.1117 192.099 22.804L194.5 23.0739C194.348 23.7083 194.059 24.2623 193.633 24.7358C193.212 25.2045 192.672 25.5691 192.014 25.8295C191.356 26.0852 190.603 26.2131 189.755 26.2131ZM196.381 26V15.0909H198.874V16.9091H198.988C199.187 16.2794 199.527 15.794 200.01 15.4531C200.498 15.1075 201.054 14.9347 201.679 14.9347C201.822 14.9347 201.98 14.9418 202.155 14.956C202.335 14.9654 202.484 14.982 202.603 15.0057V17.3707C202.494 17.3329 202.321 17.2997 202.084 17.2713C201.852 17.2382 201.627 17.2216 201.41 17.2216C200.941 17.2216 200.519 17.3234 200.145 17.527C199.776 17.7259 199.485 18.0028 199.272 18.358C199.059 18.7131 198.952 19.1226 198.952 19.5866V26H196.381ZM206.855 26.2202C206.163 26.2202 205.541 26.0971 204.987 25.8509C204.438 25.5999 204.002 25.2306 203.68 24.7429C203.363 24.2552 203.204 23.6539 203.204 22.9389C203.204 22.3234 203.318 21.8144 203.545 21.4119C203.772 21.0095 204.083 20.6875 204.475 20.446C204.868 20.2045 205.311 20.0223 205.804 19.8991C206.301 19.7713 206.815 19.679 207.345 19.6222C207.984 19.5559 208.502 19.4967 208.9 19.4446C209.298 19.3878 209.587 19.3026 209.767 19.1889C209.951 19.0705 210.044 18.8883 210.044 18.642V18.5994C210.044 18.0644 209.885 17.6501 209.568 17.3565C209.251 17.063 208.794 16.9162 208.197 16.9162C207.567 16.9162 207.068 17.0535 206.699 17.3281C206.334 17.6027 206.088 17.9271 205.96 18.3011L203.559 17.9602C203.749 17.2973 204.061 16.7434 204.497 16.2983C204.932 15.8485 205.465 15.5123 206.095 15.2898C206.725 15.0625 207.421 14.9489 208.183 14.9489C208.708 14.9489 209.232 15.0104 209.752 15.1335C210.273 15.2566 210.749 15.4602 211.18 15.7443C211.611 16.0237 211.957 16.4048 212.217 16.8878C212.482 17.3707 212.615 17.9744 212.615 18.6989V26H210.143V24.5014H210.058C209.902 24.8045 209.681 25.0885 209.397 25.3537C209.118 25.6141 208.765 25.8248 208.339 25.9858C207.918 26.142 207.423 26.2202 206.855 26.2202ZM207.522 24.331C208.038 24.331 208.486 24.2292 208.865 24.0256C209.243 23.8172 209.535 23.5426 209.738 23.2017C209.947 22.8608 210.051 22.4891 210.051 22.0866V20.8011C209.97 20.8674 209.833 20.929 209.639 20.9858C209.449 21.0426 209.236 21.0923 209 21.1349C208.763 21.1776 208.529 21.2154 208.297 21.2486C208.065 21.2817 207.863 21.3101 207.693 21.3338C207.309 21.3859 206.966 21.4711 206.663 21.5895C206.36 21.7079 206.121 21.8736 205.946 22.0866C205.77 22.295 205.683 22.5649 205.683 22.8963C205.683 23.3698 205.856 23.7273 206.201 23.9688C206.547 24.2102 206.987 24.331 207.522 24.331ZM220.247 15.0909V17.0795H213.976V15.0909H220.247ZM215.524 12.4773H218.095V22.7188C218.095 23.0644 218.147 23.3295 218.252 23.5142C218.361 23.6941 218.503 23.8172 218.678 23.8835C218.853 23.9498 219.047 23.983 219.26 23.983C219.421 23.983 219.568 23.9711 219.701 23.9474C219.838 23.9238 219.942 23.9025 220.013 23.8835L220.446 25.8935C220.309 25.9408 220.112 25.9929 219.857 26.0497C219.606 26.1065 219.298 26.1397 218.933 26.1491C218.29 26.1681 217.709 26.071 217.193 25.858C216.677 25.6402 216.268 25.304 215.965 24.8494C215.666 24.3949 215.52 23.8267 215.524 23.1449V12.4773ZM226.639 26.2131C225.574 26.2131 224.65 25.9787 223.869 25.5099C223.088 25.0412 222.482 24.3854 222.051 23.5426C221.625 22.6998 221.412 21.715 221.412 20.5881C221.412 19.4612 221.625 18.474 222.051 17.6264C222.482 16.7789 223.088 16.1207 223.869 15.652C224.65 15.1832 225.574 14.9489 226.639 14.9489C227.704 14.9489 228.628 15.1832 229.409 15.652C230.19 16.1207 230.794 16.7789 231.22 17.6264C231.651 18.474 231.866 19.4612 231.866 20.5881C231.866 21.715 231.651 22.6998 231.22 23.5426C230.794 24.3854 230.19 25.0412 229.409 25.5099C228.628 25.9787 227.704 26.2131 226.639 26.2131ZM226.653 24.1534C227.231 24.1534 227.714 23.9948 228.102 23.6776C228.49 23.3556 228.779 22.9247 228.968 22.3849C229.163 21.8452 229.26 21.2438 229.26 20.581C229.26 19.9134 229.163 19.3097 228.968 18.7699C228.779 18.2254 228.49 17.7921 228.102 17.4702C227.714 17.1482 227.231 16.9872 226.653 16.9872C226.061 16.9872 225.569 17.1482 225.176 17.4702C224.788 17.7921 224.496 18.2254 224.302 18.7699C224.113 19.3097 224.018 19.9134 224.018 20.581C224.018 21.2438 224.113 21.8452 224.302 22.3849C224.496 22.9247 224.788 23.3556 225.176 23.6776C225.569 23.9948 226.061 24.1534 226.653 24.1534ZM233.648 26V15.0909H236.141V16.9091H236.255C236.454 16.2794 236.795 15.794 237.278 15.4531C237.765 15.1075 238.322 14.9347 238.947 14.9347C239.089 14.9347 239.247 14.9418 239.423 14.956C239.602 14.9654 239.752 14.982 239.87 15.0057V17.3707C239.761 17.3329 239.588 17.2997 239.351 17.2713C239.119 17.2382 238.895 17.2216 238.677 17.2216C238.208 17.2216 237.787 17.3234 237.413 17.527C237.043 17.7259 236.752 18.0028 236.539 18.358C236.326 18.7131 236.219 19.1226 236.219 19.5866V26H233.648Z" fill="white"/>
<rect width="36" height="36" rx="12" fill="white"/>
<rect x="10" y="10" width="16" height="16" rx="6" fill="#0E1420"/>
</svg>
