<svg width="240" height="84" viewBox="0 0 240 84" fill="none" xmlns="http://www.w3.org/2000/svg">
<path d="M28.2257 0.98707C21.956 2.91622 22.2775 2.59469 23.8047 5.80993C24.9301 8.14099 25.4927 8.62327 26.8592 8.22137C27.7434 7.98022 29.6725 7.57832 31.1194 7.25679C33.8524 6.77451 34.0131 6.3726 33.2093 2.27317C32.6466 -0.54017 32.8878 -0.459789 28.2257 0.98707Z" fill="white"/>
<path d="M42.2119 2.43393C41.4081 6.3726 41.6492 6.77451 44.3822 7.25679C45.7487 7.57832 47.6778 7.98022 48.562 8.22137C49.9285 8.62327 50.4912 8.14099 51.6165 5.80993L52.983 2.91622L50.8931 2.19279C49.6874 1.7105 47.3563 1.06745 45.7487 0.665545C42.7746 0.0224968 42.6942 0.102878 42.2119 2.43393Z" fill="white"/>
<path d="M93.0124 6.37266C90.4402 7.25685 90.2794 7.73914 91.8067 9.74867C93.4143 11.9993 97.5137 10.4721 97.8352 7.57838C98.1568 5.16695 96.9511 4.84542 93.0124 6.37266Z" fill="white"/>
<path d="M104.426 6.13147C104.426 6.53337 104.185 7.41756 103.944 8.06061C103.623 8.94481 104.346 9.58785 106.436 10.2309C109.008 11.1151 109.49 11.0347 110.455 9.66823C112.063 7.57833 111.982 7.2568 109.169 6.29223C106.034 5.24728 104.426 5.16689 104.426 6.13147Z" fill="white"/>
<path d="M26.3751 11.2759C18.2566 14.7323 13.7553 19.1533 9.7362 27.754C6.84248 33.9434 6.7621 43.7499 9.49506 50.5822C11.9869 57.0931 18.0155 63.3628 24.6871 66.6585C29.5903 69.0699 30.6353 69.311 37.7088 69.311C44.2197 69.311 45.9881 68.9895 49.9267 67.1407C64.6365 60.3084 71.71 42.3834 65.5207 27.5933C63.27 22.2881 62.7073 21.8862 60.1351 24.378L57.9648 26.4679L59.5725 30.1655C61.8231 35.2295 61.8231 43.1068 59.5725 48.1708C51.2932 66.98 25.5713 67.7034 16.4882 49.3765C13.5141 43.5087 13.5141 34.8276 16.4882 28.9597C22.1149 17.626 35.8601 12.4012 46.8723 17.3045L50.8913 19.1533L53.2224 16.8222L55.5534 14.4911L50.8913 12.1601C46.9526 10.231 45.0235 9.82905 38.5126 9.5879C31.9214 9.42714 30.2334 9.66828 26.3751 11.2759Z" fill="white"/>
<path d="M9.65731 13.0443C5.79902 17.4652 3.38758 21.645 1.45844 27.2717C0.0115786 31.5319 -0.149184 33.7022 0.0919597 40.8561C0.413484 48.1708 0.735008 50.0195 2.9053 54.5209C4.19139 57.3342 6.04016 60.5495 7.00473 61.6748L8.69273 63.6843L10.5415 61.8356C12.3099 60.0672 12.3099 59.9868 10.9434 57.8165C2.58377 45.0359 3.70911 28.6382 13.6764 17.9475C15.5251 15.8576 16.8916 14.1696 16.7308 14.0088C16.5701 13.9284 15.4447 13.0443 14.3194 11.9993L12.2295 10.1505L9.65731 13.0443Z" fill="white"/>
<path d="M54.9919 18.0279C50.5709 22.2881 44.8639 27.754 42.2917 30.2458L37.71 34.6668L31.4402 28.4774C28.0642 25.1014 24.849 22.2881 24.3667 22.2881C23.4825 22.2881 19.5438 26.1464 20.1065 26.4679C20.3477 26.6287 24.3667 30.487 29.1092 35.1491L37.71 43.5891L50.0887 31.2104L62.4673 18.8317L64.5572 21.9666C68.0136 27.2717 69.2997 31.7731 69.3801 39.1681C69.4605 46.4828 68.094 51.5468 64.5572 56.8519L62.6281 59.5849L64.7984 61.8356L66.9687 64.1666L68.4155 62.3179C71.3896 58.54 74.6853 50.4215 75.5694 44.7144C77.3378 33.6218 73.2384 20.2786 66.0845 13.2854L63.03 10.3113L54.9919 18.0279Z" fill="white"/>
<path d="M93.8967 13.6873C91.5657 14.9734 89.5562 16.9026 87.9485 19.4748C85.6979 23.0919 85.5371 23.9761 85.5371 30.6477C85.5371 36.5156 85.8586 38.6055 87.2251 41.0973C89.0739 44.7144 93.3341 48.4923 96.3886 49.2158C98.1569 49.6177 98.8 49.2158 100.649 46.6436L102.819 43.5891L100.247 43.0264C93.4948 41.6599 90.36 30.8889 94.379 23.0115C95.6651 20.6805 99.2823 18.2691 101.613 18.2691C105.874 18.2691 109.651 22.6096 110.696 28.799L111.259 32.0142L114.314 27.9148C117.85 23.2527 117.85 21.5647 114.394 17.4652C109.491 11.7582 100.729 10.0702 93.8967 13.6873Z" fill="white"/>
<path d="M155.548 29.6832C152.092 39.57 149.037 48.0904 148.796 48.6531C148.555 49.4569 149.359 49.6177 152.333 49.4569C156.191 49.2158 156.191 49.2158 157.397 45.3575L158.603 41.5796H165.194C171.705 41.5796 171.865 41.66 172.508 43.7499L173.232 45.9202L175.804 42.2226L178.376 38.4447L173.714 25.3426L169.052 12.2405L165.515 11.9993L161.898 11.7582L155.548 29.6832ZM167.846 28.6382C168.731 31.5319 169.534 34.1845 169.534 34.506C169.534 34.8276 167.525 35.1491 165.033 35.1491C161.737 35.1491 160.692 34.9079 160.934 34.1041C161.175 33.6218 162.22 30.7281 163.184 27.6736C164.229 24.6995 165.274 22.5293 165.596 22.8508C165.837 23.2527 166.882 25.8249 167.846 28.6382Z" fill="white"/>
<path d="M209.162 12.4815L204.901 12.7226L199.114 20.3588L193.246 27.995L193.005 20.3588L192.764 12.6423H188.986H185.208L185.449 31.1299L185.69 49.6176H189.227H192.844V44.0713C192.844 39.4092 193.166 38.1231 194.693 36.3547L196.461 34.2648L198.873 38.2838C200.239 40.5345 201.525 42.3833 201.767 42.3833C202.088 42.3833 203.213 40.9364 204.419 39.168L206.509 36.0332L204.017 32.0141L201.525 28.0754L207.715 20.2785C211.091 16.0183 213.743 12.4815 213.583 12.4011C213.502 12.3207 211.412 12.3207 209.162 12.4815Z" fill="white"/>
<path d="M222.186 12.9638C217.684 14.9733 215.755 17.867 215.755 22.6899C215.755 26.307 216.077 27.352 218.086 29.4419C219.372 30.728 222.427 32.6571 224.919 33.6217C227.41 34.5863 230.304 36.1939 231.349 37.2389C233.198 39.0073 233.278 39.168 231.912 41.0972C230.063 43.9105 225.562 43.9909 221.382 41.0972L218.327 39.0876L216.157 41.7402C214.63 43.5086 214.148 44.7143 214.63 45.3574C216.157 47.2061 222.668 49.6176 226.044 49.6176C229.5 49.6176 229.5 49.6176 234.564 42.3029C239.548 35.149 239.548 34.9882 238.262 33.0591C237.538 31.9337 234.243 29.7634 231.028 28.1558C223.793 24.7798 222.105 23.0918 223.311 20.7608C224.758 18.1886 227.652 17.867 231.831 19.8766C235.449 21.6449 235.609 21.6449 236.735 20.1981C239.387 16.7417 239.548 16.0986 237.619 14.8929C232.957 11.8385 226.526 11.0346 222.186 12.9638Z" fill="white"/>
<path d="M120.664 15.6164L120.905 18.6708L129.104 18.912L137.222 19.1531L128.863 31.2907C121.87 41.5794 120.503 43.9909 120.503 46.5631V49.6176H125.326C129.908 49.6176 130.149 49.5372 132.158 46.5631L134.168 43.589L132.078 43.3478C130.792 43.1871 130.149 42.7048 130.47 41.9814C130.631 41.4187 134.409 35.7116 138.75 29.3615C144.859 20.5196 146.707 17.3044 146.627 15.2145V12.6423H133.525H120.423L120.664 15.6164Z" fill="white"/>
<path d="M114.072 30.5672C112.063 33.3002 109.812 36.837 109.089 38.525C108.365 40.213 107.16 41.8206 106.597 42.0617C105.954 42.3029 104.266 44.0713 102.899 46.0808L100.327 49.6176H103.221C112.063 49.6176 118.574 41.0168 117.931 30.2457L117.689 25.664L114.072 30.5672Z" fill="white"/>
<path d="M235.447 43.6694C231.509 49.296 231.428 49.698 233.518 48.5726C236.894 46.8042 238.743 44.5536 239.466 41.0972C239.868 39.4092 240.109 37.8819 239.949 37.8016C239.788 37.6408 237.778 40.2934 235.447 43.6694Z" fill="white"/>
<path d="M204.742 41.2579L202.652 44.1516L204.26 46.8846C205.787 49.4568 206.109 49.6176 210.128 49.6176H214.388L211.092 43.9909C209.244 40.9364 207.475 38.3642 207.234 38.3642C206.993 38.3642 205.868 39.6503 204.742 41.2579Z" fill="white"/>
<path d="M176.448 43.9909C173.313 48.7334 173.634 49.6176 178.377 49.6176H182.396L180.708 45.3574C179.824 43.1067 178.939 41.0972 178.859 40.9364C178.698 40.856 177.653 42.2225 176.448 43.9909Z" fill="white"/>
<path d="M134.409 46.0004C133.364 47.5276 132.561 48.9745 132.561 49.2156C132.561 49.4568 135.615 49.6176 139.393 49.6176H146.225V46.4023V43.1871H141.242C136.338 43.1871 136.097 43.2674 134.409 46.0004Z" fill="white"/>
<path d="M15.285 66.8192L13.5166 68.7483L15.7673 70.3559C19.2237 72.7674 24.1269 75.0984 27.9852 76.1434C33.7726 77.6706 43.9006 77.2687 49.8488 75.3396C54.7521 73.7319 61.8256 69.8737 61.8256 68.8287C61.8256 68.5876 60.9414 67.5426 59.8965 66.578L58.0477 64.8096L52.9033 67.623C46.3925 71.1597 38.917 72.6066 32.6473 71.4009C27.5029 70.4363 20.5098 67.7034 19.1433 66.0154C17.8572 64.4881 17.3749 64.5685 15.285 66.8192Z" fill="white"/>
<path d="M98.563 61.6716C98.143 60.7057 97.499 59.9496 96.631 59.4036C95.777 58.8436 94.769 58.5637 93.607 58.5637C92.515 58.5637 91.535 58.8156 90.667 59.3196C89.799 59.8236 89.113 60.5446 88.609 61.4827C88.105 62.4067 87.853 63.4846 87.853 64.7166C87.853 65.9486 88.105 67.0336 88.609 67.9717C89.113 68.9097 89.799 69.6307 90.667 70.1347C91.535 70.6387 92.515 70.8907 93.607 70.8907C94.629 70.8907 95.546 70.6737 96.358 70.2397C97.184 69.7917 97.842 69.1617 98.332 68.3497C98.836 67.5237 99.123 66.5647 99.193 65.4727H93.019V64.2756H100.747V65.3466C100.677 66.6347 100.327 67.8037 99.697 68.8537C99.067 69.8897 98.22 70.7087 97.156 71.3107C96.106 71.9127 94.923 72.2137 93.607 72.2137C92.249 72.2137 91.017 71.8987 89.911 71.2687C88.805 70.6247 87.93 69.7357 87.286 68.6017C86.656 67.4537 86.341 66.1587 86.341 64.7166C86.341 63.2747 86.656 61.9866 87.286 60.8526C87.93 59.7046 88.805 58.8156 89.911 58.1857C91.017 57.5417 92.249 57.2197 93.607 57.2197C95.175 57.2197 96.547 57.6116 97.723 58.3956C98.899 59.1796 99.753 60.2716 100.285 61.6716H98.563ZM112.092 72.0667L108.459 65.9346H105.75V72.0667H104.28V57.3876H108.69C110.328 57.3876 111.567 57.7796 112.407 58.5637C113.261 59.3477 113.688 60.3767 113.688 61.6506C113.688 62.7147 113.38 63.6246 112.764 64.3806C112.162 65.1226 111.266 65.6056 110.076 65.8296L113.856 72.0667H112.092ZM105.75 64.7377H108.711C109.859 64.7377 110.72 64.4577 111.294 63.8976C111.882 63.3376 112.176 62.5886 112.176 61.6506C112.176 60.6847 111.896 59.9427 111.336 59.4246C110.776 58.8926 109.894 58.6266 108.69 58.6266H105.75V64.7377ZM124.039 72.2137C122.681 72.2137 121.449 71.8987 120.343 71.2687C119.237 70.6247 118.362 69.7357 117.718 68.6017C117.088 67.4537 116.773 66.1587 116.773 64.7166C116.773 63.2747 117.088 61.9866 117.718 60.8526C118.362 59.7046 119.237 58.8156 120.343 58.1857C121.449 57.5417 122.681 57.2197 124.039 57.2197C125.411 57.2197 126.65 57.5417 127.756 58.1857C128.862 58.8156 129.73 59.7046 130.36 60.8526C130.99 61.9866 131.305 63.2747 131.305 64.7166C131.305 66.1587 130.99 67.4537 130.36 68.6017C129.73 69.7357 128.862 70.6247 127.756 71.2687C126.65 71.8987 125.411 72.2137 124.039 72.2137ZM124.039 70.9327C125.131 70.9327 126.111 70.6807 126.979 70.1767C127.847 69.6727 128.533 68.9517 129.037 68.0137C129.541 67.0617 129.793 65.9627 129.793 64.7166C129.793 63.4707 129.541 62.3786 129.037 61.4406C128.533 60.5026 127.847 59.7817 126.979 59.2776C126.111 58.7736 125.131 58.5216 124.039 58.5216C122.947 58.5216 121.967 58.7736 121.099 59.2776C120.231 59.7817 119.545 60.5026 119.041 61.4406C118.537 62.3786 118.285 63.4707 118.285 64.7166C118.285 65.9627 118.537 67.0617 119.041 68.0137C119.545 68.9517 120.231 69.6727 121.099 70.1767C121.967 70.6807 122.947 70.9327 124.039 70.9327ZM136.242 57.3876V66.6277C136.242 68.0837 136.585 69.1617 137.271 69.8617C137.971 70.5617 138.923 70.9117 140.127 70.9117C141.331 70.9117 142.269 70.5687 142.941 69.8827C143.627 69.1827 143.97 68.0977 143.97 66.6277V57.3876H145.44V66.6066C145.44 68.4687 144.943 69.8687 143.949 70.8067C142.969 71.7447 141.688 72.2137 140.106 72.2137C138.524 72.2137 137.236 71.7447 136.242 70.8067C135.262 69.8687 134.772 68.4687 134.772 66.6066V57.3876H136.242ZM158.946 61.6086C158.946 62.8686 158.533 63.8836 157.707 64.6537C156.881 65.4237 155.642 65.8087 153.99 65.8087H151.029V72.0667H149.559V57.3876H153.99C155.628 57.3876 156.86 57.7726 157.686 58.5426C158.526 59.3126 158.946 60.3346 158.946 61.6086ZM153.99 64.5487C156.286 64.5487 157.434 63.5687 157.434 61.6086C157.434 60.6286 157.161 59.8866 156.615 59.3826C156.069 58.8786 155.194 58.6266 153.99 58.6266H151.029V64.5487H153.99Z" fill="white"/>
</svg>
