<svg width="240" height="84" viewBox="0 0 240 84" fill="none" xmlns="http://www.w3.org/2000/svg">
<path d="M28.2257 0.98707C21.956 2.91622 22.2775 2.59469 23.8047 5.80993C24.9301 8.14099 25.4927 8.62327 26.8592 8.22137C27.7434 7.98022 29.6725 7.57832 31.1194 7.25679C33.8524 6.77451 34.0131 6.3726 33.2093 2.27317C32.6466 -0.54017 32.8878 -0.459789 28.2257 0.98707Z" fill="#434242"/>
<path d="M42.2119 2.43393C41.4081 6.3726 41.6492 6.77451 44.3822 7.25679C45.7487 7.57832 47.6778 7.98022 48.562 8.22137C49.9285 8.62327 50.4912 8.14099 51.6165 5.80993L52.983 2.91622L50.8931 2.19279C49.6874 1.7105 47.3563 1.06745 45.7487 0.665545C42.7746 0.0224968 42.6942 0.102878 42.2119 2.43393Z" fill="#434242"/>
<path d="M93.0134 6.37266C90.4412 7.25685 90.2804 7.73914 91.8076 9.74867C93.4153 11.9993 97.5147 10.4721 97.8362 7.57838C98.1577 5.16695 96.952 4.84542 93.0134 6.37266Z" fill="#434242"/>
<path d="M104.426 6.13147C104.426 6.53337 104.185 7.41756 103.944 8.06061C103.623 8.94481 104.346 9.58785 106.436 10.2309C109.008 11.1151 109.49 11.0347 110.455 9.66823C112.063 7.57833 111.982 7.2568 109.169 6.29223C106.034 5.24728 104.426 5.16689 104.426 6.13147Z" fill="#434242"/>
<path d="M26.3751 11.2759C18.2566 14.7323 13.7553 19.1533 9.7362 27.754C6.84248 33.9434 6.7621 43.7499 9.49506 50.5822C11.9869 57.0931 18.0155 63.3628 24.6871 66.6585C29.5903 69.0699 30.6353 69.311 37.7088 69.311C44.2197 69.311 45.9881 68.9895 49.9267 67.1407C64.6365 60.3084 71.71 42.3834 65.5207 27.5933C63.27 22.2881 62.7073 21.8862 60.1351 24.378L57.9648 26.4679L59.5725 30.1655C61.8231 35.2295 61.8231 43.1068 59.5725 48.1708C51.2932 66.98 25.5713 67.7034 16.4882 49.3765C13.5141 43.5087 13.5141 34.8276 16.4882 28.9597C22.1149 17.626 35.8601 12.4012 46.8723 17.3045L50.8913 19.1533L53.2224 16.8222L55.5534 14.4911L50.8913 12.1601C46.9526 10.231 45.0235 9.82905 38.5126 9.5879C31.9214 9.42714 30.2334 9.66828 26.3751 11.2759Z" fill="#434242"/>
<path d="M9.65731 13.0443C5.79902 17.4652 3.38758 21.645 1.45844 27.2717C0.0115786 31.5319 -0.149184 33.7022 0.0919597 40.8561C0.413484 48.1708 0.735008 50.0195 2.9053 54.5209C4.19139 57.3342 6.04016 60.5495 7.00473 61.6748L8.69273 63.6843L10.5415 61.8356C12.3099 60.0672 12.3099 59.9868 10.9434 57.8165C2.58377 45.0359 3.70911 28.6382 13.6764 17.9475C15.5251 15.8576 16.8916 14.1696 16.7308 14.0088C16.5701 13.9284 15.4447 13.0443 14.3194 11.9993L12.2295 10.1505L9.65731 13.0443Z" fill="#85734E"/>
<path d="M54.9929 18.0279C50.5719 22.2881 44.8649 27.754 42.2927 30.2458L37.7109 34.6668L31.4412 28.4774C28.0652 25.1014 24.85 22.2881 24.3677 22.2881C23.4835 22.2881 19.5448 26.1464 20.1075 26.4679C20.3486 26.6287 24.3677 30.487 29.1102 35.1491L37.7109 43.5891L50.0896 31.2104L62.4683 18.8317L64.5582 21.9666C68.0146 27.2717 69.3007 31.7731 69.3811 39.1681C69.4615 46.4828 68.095 51.5468 64.5582 56.8519L62.6291 59.5849L64.7994 61.8356L66.9697 64.1666L68.4165 62.3179C71.3906 58.54 74.6862 50.4215 75.5704 44.7144C77.3388 33.6218 73.2394 20.2786 66.0855 13.2854L63.031 10.3113L54.9929 18.0279Z" fill="#85734E"/>
<path d="M93.8967 13.6873C91.5657 14.9734 89.5562 16.9026 87.9485 19.4748C85.6979 23.0919 85.5371 23.9761 85.5371 30.6477C85.5371 36.5156 85.8586 38.6055 87.2251 41.0973C89.0739 44.7144 93.3341 48.4923 96.3886 49.2158C98.1569 49.6177 98.8 49.2158 100.649 46.6436L102.819 43.5891L100.247 43.0264C93.4948 41.6599 90.36 30.8889 94.379 23.0115C95.6651 20.6805 99.2823 18.2691 101.613 18.2691C105.874 18.2691 109.651 22.6096 110.696 28.799L111.259 32.0142L114.314 27.9148C117.85 23.2527 117.85 21.5647 114.394 17.4652C109.491 11.7582 100.729 10.0702 93.8967 13.6873Z" fill="#434242"/>
<path d="M155.548 29.6832C152.092 39.57 149.037 48.0904 148.796 48.6531C148.555 49.4569 149.359 49.6177 152.333 49.4569C156.191 49.2158 156.191 49.2158 157.397 45.3575L158.603 41.5796H165.194C171.705 41.5796 171.865 41.66 172.508 43.7499L173.232 45.9202L175.804 42.2226L178.376 38.4447L173.714 25.3426L169.052 12.2405L165.515 11.9993L161.898 11.7582L155.548 29.6832ZM167.846 28.6382C168.731 31.5319 169.534 34.1845 169.534 34.506C169.534 34.8276 167.525 35.1491 165.033 35.1491C161.737 35.1491 160.692 34.9079 160.934 34.1041C161.175 33.6218 162.22 30.7281 163.184 27.6736C164.229 24.6995 165.274 22.5293 165.596 22.8508C165.837 23.2527 166.882 25.8249 167.846 28.6382Z" fill="#434242"/>
<path d="M209.163 12.4815L204.902 12.7226L199.115 20.3588L193.247 27.995L193.006 20.3588L192.765 12.6423H188.987H185.209L185.45 31.1299L185.691 49.6176H189.228H192.845V44.0713C192.845 39.4092 193.167 38.1231 194.694 36.3547L196.462 34.2648L198.874 38.2838C200.24 40.5345 201.526 42.3833 201.767 42.3833C202.089 42.3833 203.214 40.9364 204.42 39.168L206.51 36.0332L204.018 32.0141L201.526 28.0754L207.716 20.2785C211.092 16.0183 213.744 12.4815 213.584 12.4011C213.503 12.3207 211.413 12.3207 209.163 12.4815Z" fill="#434242"/>
<path d="M222.185 12.9638C217.683 14.9733 215.754 17.867 215.754 22.6899C215.754 26.307 216.076 27.352 218.085 29.4419C219.371 30.728 222.426 32.6571 224.918 33.6217C227.409 34.5863 230.303 36.1939 231.348 37.2389C233.197 39.0073 233.277 39.168 231.911 41.0972C230.062 43.9105 225.561 43.9909 221.381 41.0972L218.326 39.0876L216.156 41.7402C214.629 43.5086 214.147 44.7143 214.629 45.3574C216.156 47.2061 222.667 49.6176 226.043 49.6176C229.499 49.6176 229.499 49.6176 234.563 42.3029C239.547 35.149 239.547 34.9882 238.261 33.0591C237.537 31.9337 234.242 29.7634 231.027 28.1558C223.792 24.7798 222.104 23.0918 223.31 20.7608C224.757 18.1886 227.651 17.867 231.83 19.8766C235.448 21.6449 235.608 21.6449 236.734 20.1981C239.386 16.7417 239.547 16.0986 237.618 14.8929C232.956 11.8385 226.525 11.0346 222.185 12.9638Z" fill="#434242"/>
<path d="M120.665 15.6164L120.906 18.6708L129.105 18.912L137.223 19.1531L128.864 31.2907C121.871 41.5794 120.504 43.9909 120.504 46.5631V49.6176H125.327C129.909 49.6176 130.15 49.5372 132.159 46.5631L134.169 43.589L132.079 43.3478C130.793 43.1871 130.15 42.7048 130.471 41.9814C130.632 41.4187 134.41 35.7116 138.751 29.3615C144.86 20.5196 146.708 17.3044 146.628 15.2145V12.6423H133.526H120.424L120.665 15.6164Z" fill="#434242"/>
<path d="M114.071 30.5672C112.062 33.3002 109.811 36.837 109.088 38.525C108.364 40.213 107.159 41.8206 106.596 42.0617C105.953 42.3029 104.265 44.0713 102.898 46.0808L100.326 49.6176H103.22C112.062 49.6176 118.573 41.0168 117.93 30.2457L117.688 25.664L114.071 30.5672Z" fill="#85734E"/>
<path d="M235.447 43.6694C231.509 49.296 231.428 49.698 233.518 48.5726C236.894 46.8042 238.743 44.5536 239.466 41.0972C239.868 39.4092 240.109 37.8819 239.949 37.8016C239.788 37.6408 237.778 40.2934 235.447 43.6694Z" fill="#85734E"/>
<path d="M204.742 41.2579L202.652 44.1516L204.26 46.8846C205.787 49.4568 206.109 49.6176 210.128 49.6176H214.388L211.092 43.9909C209.244 40.9364 207.475 38.3642 207.234 38.3642C206.993 38.3642 205.868 39.6503 204.742 41.2579Z" fill="#85734E"/>
<path d="M176.449 43.9909C173.314 48.7334 173.635 49.6176 178.378 49.6176H182.397L180.709 45.3574C179.825 43.1067 178.94 41.0972 178.86 40.9364C178.699 40.856 177.654 42.2225 176.449 43.9909Z" fill="#85734E"/>
<path d="M134.409 46.0004C133.364 47.5276 132.561 48.9745 132.561 49.2156C132.561 49.4568 135.615 49.6176 139.393 49.6176H146.225V46.4023V43.1871H141.242C136.338 43.1871 136.097 43.2674 134.409 46.0004Z" fill="#85734E"/>
<path d="M15.286 66.8192L13.5176 68.7483L15.7682 70.3559C19.2246 72.7674 24.1279 75.0984 27.9862 76.1434C33.7736 77.6706 43.9016 77.2687 49.8498 75.3396C54.7531 73.7319 61.8266 69.8737 61.8266 68.8287C61.8266 68.5876 60.9424 67.5426 59.8975 66.578L58.0487 64.8096L52.9043 67.623C46.3934 71.1597 38.918 72.6066 32.6483 71.4009C27.5039 70.4363 20.5107 67.7034 19.1443 66.0154C17.8582 64.4881 17.3759 64.5685 15.286 66.8192Z" fill="#85734E"/>
<path d="M98.564 61.6716C98.144 60.7057 97.5 59.9496 96.632 59.4036C95.778 58.8436 94.77 58.5637 93.608 58.5637C92.516 58.5637 91.536 58.8156 90.668 59.3196C89.8 59.8236 89.114 60.5446 88.61 61.4827C88.106 62.4067 87.854 63.4846 87.854 64.7166C87.854 65.9486 88.106 67.0336 88.61 67.9717C89.114 68.9097 89.8 69.6307 90.668 70.1347C91.536 70.6387 92.516 70.8907 93.608 70.8907C94.63 70.8907 95.547 70.6737 96.359 70.2397C97.185 69.7917 97.843 69.1617 98.333 68.3497C98.837 67.5237 99.124 66.5647 99.194 65.4727H93.02V64.2756H100.748V65.3466C100.678 66.6347 100.328 67.8037 99.698 68.8537C99.068 69.8897 98.221 70.7087 97.157 71.3107C96.107 71.9127 94.924 72.2137 93.608 72.2137C92.25 72.2137 91.018 71.8987 89.912 71.2687C88.806 70.6247 87.931 69.7357 87.287 68.6017C86.657 67.4537 86.342 66.1587 86.342 64.7166C86.342 63.2747 86.657 61.9866 87.287 60.8526C87.931 59.7046 88.806 58.8156 89.912 58.1857C91.018 57.5417 92.25 57.2197 93.608 57.2197C95.176 57.2197 96.548 57.6116 97.724 58.3956C98.9 59.1796 99.754 60.2716 100.286 61.6716H98.564ZM112.093 72.0667L108.46 65.9346H105.751V72.0667H104.281V57.3876H108.691C110.329 57.3876 111.568 57.7796 112.408 58.5637C113.262 59.3477 113.689 60.3767 113.689 61.6506C113.689 62.7147 113.381 63.6246 112.765 64.3806C112.163 65.1226 111.267 65.6056 110.077 65.8296L113.857 72.0667H112.093ZM105.751 64.7377H108.712C109.86 64.7377 110.721 64.4577 111.295 63.8976C111.883 63.3376 112.177 62.5886 112.177 61.6506C112.177 60.6847 111.897 59.9427 111.337 59.4246C110.777 58.8926 109.895 58.6266 108.691 58.6266H105.751V64.7377ZM124.04 72.2137C122.682 72.2137 121.45 71.8987 120.344 71.2687C119.238 70.6247 118.363 69.7357 117.719 68.6017C117.089 67.4537 116.774 66.1587 116.774 64.7166C116.774 63.2747 117.089 61.9866 117.719 60.8526C118.363 59.7046 119.238 58.8156 120.344 58.1857C121.45 57.5417 122.682 57.2197 124.04 57.2197C125.412 57.2197 126.651 57.5417 127.757 58.1857C128.863 58.8156 129.731 59.7046 130.361 60.8526C130.991 61.9866 131.306 63.2747 131.306 64.7166C131.306 66.1587 130.991 67.4537 130.361 68.6017C129.731 69.7357 128.863 70.6247 127.757 71.2687C126.651 71.8987 125.412 72.2137 124.04 72.2137ZM124.04 70.9327C125.132 70.9327 126.112 70.6807 126.98 70.1767C127.848 69.6727 128.534 68.9517 129.038 68.0137C129.542 67.0617 129.794 65.9627 129.794 64.7166C129.794 63.4707 129.542 62.3786 129.038 61.4406C128.534 60.5026 127.848 59.7817 126.98 59.2776C126.112 58.7736 125.132 58.5216 124.04 58.5216C122.948 58.5216 121.968 58.7736 121.1 59.2776C120.232 59.7817 119.546 60.5026 119.042 61.4406C118.538 62.3786 118.286 63.4707 118.286 64.7166C118.286 65.9627 118.538 67.0617 119.042 68.0137C119.546 68.9517 120.232 69.6727 121.1 70.1767C121.968 70.6807 122.948 70.9327 124.04 70.9327ZM136.243 57.3876V66.6277C136.243 68.0837 136.586 69.1617 137.272 69.8617C137.972 70.5617 138.924 70.9117 140.128 70.9117C141.332 70.9117 142.27 70.5687 142.942 69.8827C143.628 69.1827 143.971 68.0977 143.971 66.6277V57.3876H145.441V66.6066C145.441 68.4687 144.944 69.8687 143.95 70.8067C142.97 71.7447 141.689 72.2137 140.107 72.2137C138.525 72.2137 137.237 71.7447 136.243 70.8067C135.263 69.8687 134.773 68.4687 134.773 66.6066V57.3876H136.243ZM158.947 61.6086C158.947 62.8686 158.534 63.8836 157.708 64.6537C156.882 65.4237 155.643 65.8087 153.991 65.8087H151.03V72.0667H149.56V57.3876H153.991C155.629 57.3876 156.861 57.7726 157.687 58.5426C158.527 59.3126 158.947 60.3346 158.947 61.6086ZM153.991 64.5487C156.287 64.5487 157.435 63.5687 157.435 61.6086C157.435 60.6286 157.162 59.8866 156.616 59.3826C156.07 58.8786 155.195 58.6266 153.991 58.6266H151.03V64.5487H153.991Z" fill="#434242"/>
</svg>
