<svg width="282" height="70" viewBox="0 0 282 70" fill="none" xmlns="http://www.w3.org/2000/svg">
<g clip-path="url(#clip0_816_2880)">
<path d="M-0.000138338 22.6144C6.94114 11.4082 18.619 6.59458 29.7482 1.01075C32.9252 -0.587377 35.6401 -0.250422 38.6534 1.72317C42.7643 4.40919 47.0484 6.97967 51.5732 8.88587C58.6782 11.88 63.5688 17.0113 67.7856 23.1054C69.1334 25.0501 69.6629 26.4749 66.9095 27.3799C62.3847 28.8721 60.8636 32.1069 61.2198 36.5836C61.3738 38.4705 61.4797 40.4056 61.1813 42.2541C60.8443 44.3432 63.1549 49.8115 57.0608 45.8065C55.5686 44.8245 54.8946 46.5574 54.7502 47.8186C54.5577 49.5419 54.6058 51.2844 54.5192 53.0174C54.4614 54.3844 54.8754 56.3677 52.9692 56.4254C50.7453 56.4928 51.1015 54.3267 50.9667 52.8344C50.8704 51.7562 50.9475 50.6587 50.9475 49.2916C46.1049 50.0136 43.9003 52.4108 44.2276 56.9838C44.3046 58.0813 44.2854 59.1981 44.2276 60.2956C44.1699 61.2583 43.9869 62.3558 42.7161 62.2499C41.5897 62.1633 41.2528 61.1813 41.2335 60.1608C41.2143 59.5254 41.3394 58.8611 41.1854 58.2739C40.8677 57.0608 42.1866 54.9621 40.1071 54.7695C38.0373 54.5866 36.5643 56.0788 36.3621 58.2931C36.0059 62.1922 37.0168 66.1971 35.4668 70.0095H32.5882C31.173 67.5931 31.6159 64.83 31.1345 62.2403C30.9708 61.345 31.1538 59.5928 30.4606 59.7276C26.0609 60.5844 26.0706 56.695 24.5206 54.4711C24.0007 54.7984 23.4423 54.9524 23.2401 55.3087C22.3352 56.9068 21.3724 58.3413 19.1774 57.6962C17.252 57.1282 17.2135 55.4627 17.0402 53.8838C16.9439 52.95 16.761 52.0161 16.5588 51.0919C16.2796 49.8307 15.8753 48.4829 14.3253 48.4348C12.9293 48.3963 12.756 49.7441 12.4094 50.7646C11.8318 52.4301 10.8594 53.5372 8.88585 53.0655C6.93151 52.6034 6.59455 51.0149 6.55604 49.3975C6.47903 46.1146 6.31536 42.8028 6.55604 39.5295C6.95076 34.0324 5.64145 29.5845 -0.00976562 27.351V22.6144H-0.000138338ZM44.4972 35.8712C45.4695 35.3994 46.6248 34.8988 47.7223 34.3019C52.0257 31.9529 56.3099 29.5653 60.6036 27.197C62.4232 26.1861 65.4269 25.6085 63.0875 22.624C61.3353 20.3905 60.3437 16.424 55.867 18.7538C51.1015 21.2377 46.2301 23.5482 41.3972 25.9165C39.4332 26.8793 37.5463 28.0153 38.7112 30.5569C39.8087 32.9637 41.0699 35.4283 44.4972 35.8712ZM25.3196 36.2755C28.0345 35.2646 28.9299 32.5401 30.4125 30.4221C31.2212 29.2765 31.1441 27.996 29.6519 27.2355C23.8467 24.2607 18.1473 21.0548 12.188 18.4265C8.50076 16.8091 7.38399 20.5541 5.80512 22.6914C4.04332 25.0886 6.23834 25.9647 7.90386 26.8889C13.0352 29.7482 18.1666 32.6075 23.3171 35.4476C23.8659 35.746 24.4821 35.9289 25.31 36.2755H25.3196ZM13.1796 14.9029C19.5625 18.2243 25.156 21.1125 30.7205 24.0392C32.9541 25.2138 33.4547 24.2414 33.4354 22.1523C33.368 17.2712 33.2814 12.3902 33.4643 7.5188C33.5895 4.11074 32.3668 4.25515 29.9407 5.65111C24.7227 8.64519 19.4181 11.4852 13.1892 14.9222L13.1796 14.9029ZM32.3379 34.687C28.6346 38.9038 24.2253 39.5424 19.11 36.6028C16.8572 35.3224 14.4793 34.2538 11.8896 32.9445C11.4371 36.3622 9.84858 39.3659 12.9293 41.4261C18.956 45.4599 25.3678 48.8487 32.3379 52.1124V34.687ZM55.636 14.9799C49.5323 11.6008 44.2372 8.76072 39.0481 5.75701C36.9109 4.51509 35.9482 4.9098 35.6786 7.31663C35.0913 12.4865 35.5053 17.6563 35.6112 22.8358C35.6593 24.8864 36.728 24.8383 38.0565 24.1548C43.65 21.2762 49.2049 18.3399 55.6263 14.9799H55.636ZM36.5739 34.9277C36.5739 39.0385 36.5739 42.3022 36.5739 45.5658C36.5739 46.3553 36.545 47.1447 36.5162 47.9245C36.3525 51.4577 38.0373 51.5733 40.6366 50.1388C43.6885 48.4444 46.7788 46.8078 49.8403 45.1326C51.7754 44.064 53.8742 43.1783 55.5782 41.8208C58.0043 39.8857 58.3894 36.5547 57.0415 34.4945C55.5589 32.232 53.749 35.3994 51.9968 35.9193C51.0919 36.1889 50.2832 36.7376 49.436 37.1805C44.8983 39.5295 40.6174 38.7818 36.5932 34.9373L36.5739 34.9277Z" fill="#5D4654"/>
<path d="M178.375 35.0723C178.375 38.6247 178.394 41.4166 178.365 44.2085C178.356 45.4312 178.577 47.0101 176.767 47.1064C175.082 47.2026 174.736 45.8259 174.726 44.4877C174.697 39.7511 174.707 35.0145 174.717 30.2779C174.717 29.1322 174.938 27.9769 176.161 27.5437C177.691 27.0046 178.5 28.1117 179.222 29.19C180.878 31.6834 182.524 34.1962 184.575 37.3058C186.577 34.3695 188.291 31.8182 190.034 29.2959C190.756 28.2561 191.497 27.0238 193.047 27.5341C194.279 27.9481 194.453 29.1226 194.453 30.2682C194.453 35.0049 194.453 39.7415 194.433 44.4781C194.433 45.8163 194.145 47.1352 192.45 47.1641C190.756 47.193 190.496 45.8644 190.342 44.5455C190.063 42.0905 190.775 39.5586 189.831 37.017C186.963 37.739 187.213 42.5527 184.084 41.8114C181.408 41.176 181.09 37.5465 178.365 35.053L178.375 35.0723Z" fill="#FEA52F"/>
<path d="M167.861 35.8328C163.798 40.3062 159.88 40.2003 156.106 35.5151C156.106 38.7498 156.154 41.1374 156.087 43.5153C156.048 45.0364 156.327 47.087 154.055 47.0678C151.956 47.0485 152.467 45.0846 152.447 43.7656C152.39 39.52 152.39 35.2647 152.447 31.0191C152.467 29.7002 151.908 27.9576 153.882 27.4955C155.692 27.0719 156.308 28.6989 157.097 29.8157C158.378 31.616 159.601 33.4548 160.727 35.3514C161.709 36.9977 162.45 36.834 163.413 35.3514C164.78 33.2334 166.224 31.1539 167.678 29.0937C168.313 28.1887 169.006 27.1874 170.335 27.5148C171.769 27.8614 171.644 29.1129 171.654 30.2008C171.673 34.9182 171.673 39.6452 171.654 44.3625C171.654 45.5948 171.837 47.1256 169.979 47.1641C167.947 47.2026 167.88 45.6333 167.861 44.1604C167.841 41.6476 167.861 39.1253 167.861 35.8328Z" fill="#FEA52F"/>
<path d="M213.062 36.9592C213.062 36.8052 213.062 36.6415 213.062 36.4875C213.283 26.1863 210.857 27.2453 223.594 27.3993C227.734 27.4475 230.661 31.4813 228.793 35.0145C227.108 38.2108 228.225 40.7043 228.957 43.4865C229.274 44.6996 231.152 46.0859 228.976 47.0005C226.877 47.8862 225.741 46.3555 225.192 44.507C224.528 42.3024 224.489 39.9244 220.918 40.0592C217.895 40.1748 216.99 41.3011 217.173 44.0449C217.269 45.4313 217.259 47.193 215.199 47.1642C213.293 47.1353 213.091 45.5468 213.081 44.0642C213.062 41.6959 213.081 39.3276 213.071 36.9592H213.062ZM220.359 36.7667C222.834 37.0651 225 36.603 225.192 33.7341C225.375 31 223.353 30.5571 221.072 30.4704C218.578 30.3742 216.836 30.5956 216.913 33.8593C216.98 36.5068 218.097 37.1229 220.359 36.7667Z" fill="#FEA52F"/>
<path d="M264.616 37.0555C264.616 36.7378 264.616 36.4201 264.616 36.112C264.616 27.0816 266.677 25.4739 275.794 27.3897C279.25 28.1214 282.003 32.1263 280.087 34.8509C277.796 38.1338 279.75 40.6754 280.135 43.5154C280.299 44.7381 282.253 46.1918 280.107 47.0198C277.989 47.8381 276.593 46.0667 276.439 44.3337C276.198 41.4841 275.341 40.1074 272.154 40.0881C269.208 40.0689 268.092 41.0123 268.39 43.8909C268.525 45.2291 268.756 47.0679 266.657 47.1353C264.164 47.2219 264.684 45.1617 264.636 43.6791C264.568 41.4744 264.616 39.2602 264.616 37.0555ZM271.972 36.7667C274.465 36.9977 276.246 36.4394 276.304 33.6378C276.371 30.2779 273.955 30.6052 271.683 30.4512C269.208 30.2779 268.429 31.1829 268.342 33.6571C268.236 36.6512 269.642 37.1614 271.972 36.7667Z" fill="#FEA52F"/>
<path d="M140.211 47.2796C134.416 47.3181 130.449 43.3901 130.372 37.5271C130.295 31.356 134.242 27.2741 140.231 27.3222C145.834 27.3703 150.041 31.6545 150.031 37.3057C150.031 42.9569 145.814 47.2314 140.211 47.2699V47.2796ZM134.223 37.1131C134.127 40.81 136.678 43.9293 139.894 44.0352C143.196 44.1507 145.814 41.2914 145.891 37.4982C145.968 33.657 143.59 30.711 140.279 30.5666C137.054 30.4222 134.31 33.3874 134.223 37.1131Z" fill="#FEA52F"/>
<path d="M79.7812 37.0554C79.7812 36.7377 79.7812 36.42 79.7812 36.1119C79.7812 26.7734 80.7729 25.9358 90.1691 27.3703C94.0585 27.9576 97.0622 31.8566 95.0501 34.7929C92.7781 38.1144 94.8191 40.6078 95.0983 43.4286C95.2234 44.6513 97.2644 46.1724 95.2427 46.9715C93.1728 47.7802 92.2775 45.8836 91.7095 44.1025C91.18 42.4466 91.7095 40.0302 88.879 39.8665C85.8368 39.6932 82.5443 39.106 83.3915 44.0544C83.6225 45.383 83.6899 47.241 81.5142 47.087C79.916 46.9715 79.8005 45.46 79.7909 44.1603C79.7716 41.792 79.7909 39.4237 79.7909 37.0554H79.7812ZM87.2616 36.7762C89.8321 37.1613 91.8154 36.42 91.825 33.5318C91.8442 30.451 89.5048 30.4607 87.1269 30.2777C84.2194 30.0563 83.353 30.9517 83.3241 33.9072C83.2952 37.1901 85.1051 36.9591 87.2616 36.7762Z" fill="#5D4654"/>
<path d="M248.808 37.2865V36.343C248.808 26.9275 250.396 25.6375 259.879 27.3319C260.852 27.5052 261.862 27.5918 261.949 28.7856C262.036 29.9601 261.14 30.4319 260.13 30.5281C258.705 30.6629 257.28 30.6822 255.845 30.7014C254.295 30.7207 253.025 30.894 252.986 32.9157C252.948 34.793 253.862 35.2648 255.576 35.4284C257.395 35.6017 260.649 34.3694 260.515 37.2576C260.38 40.1169 257.174 38.5092 255.364 38.6825C253.487 38.8654 252.909 39.5393 252.948 41.2914C252.986 43.0051 253.554 43.9871 255.422 43.9004C255.739 43.8812 256.067 43.8523 256.375 43.9197C258.32 44.3626 261.824 42.7644 261.747 45.874C261.68 48.4541 258.329 47.2122 256.5 47.2122C248.221 47.2122 248.837 48.9163 248.808 37.2769V37.2865Z" fill="#FEA52F"/>
<path d="M197.58 36.9591C197.58 36.8051 197.58 36.6414 197.58 36.4874C197.58 26.6676 198.475 25.9263 208.44 27.3222C209.576 27.4859 210.866 27.4955 210.75 29.007C210.635 30.48 209.248 30.4029 208.17 30.4511C206.745 30.5185 205.301 30.5474 203.876 30.4703C202.038 30.3741 201.335 31.1539 201.364 32.9638C201.383 34.639 201.787 35.4765 203.722 35.6594C205.706 35.852 209.316 34.3405 209.287 37.2094C209.258 40.0302 205.648 38.5284 203.655 38.6824C201.643 38.8365 201.335 39.7222 201.364 41.3684C201.392 42.9377 201.537 44.1892 203.607 44.1315C205.349 44.0833 207.101 44.1218 208.854 44.2181C209.836 44.2759 210.866 44.6417 210.789 45.8259C210.712 46.9619 209.71 47.2603 208.69 47.2603C205.831 47.27 202.962 47.27 200.102 47.2603C198.283 47.2507 197.609 46.1436 197.599 44.5069C197.59 41.9942 197.599 39.4815 197.599 36.9688C197.599 36.9688 197.59 36.9688 197.58 36.9688V36.9591Z" fill="#FEA52F"/>
<path d="M98.7466 37.4309C98.7466 36.9592 98.7466 36.4875 98.7466 36.0157C98.7466 27.1394 100.768 25.5605 109.645 27.3415C110.694 27.5533 111.628 27.8903 111.618 28.93C111.618 30.0949 110.54 30.326 109.52 30.326C108.085 30.326 106.641 30.4319 105.216 30.326C103.194 30.172 102.347 30.894 102.366 32.9927C102.386 34.9663 102.992 35.6788 105.091 35.8521C106.833 35.9868 110.068 34.2732 110.059 37.3635C110.039 39.8185 106.939 38.5958 105.235 38.6825C103.329 38.7787 102.328 39.0676 102.357 41.2818C102.386 43.4576 102.992 44.2663 105.341 44.3818C107.469 44.4781 111.387 42.9762 111.339 45.8548C111.291 48.4831 107.315 47.1834 105.12 47.2122C97.3217 47.3181 98.9199 47.8765 98.7658 37.4406L98.7466 37.4309Z" fill="#5D4654"/>
<path d="M243.87 30.9806C240.096 30.5089 237.458 30.8169 235.898 33.58C234.474 36.0927 234.445 38.7209 235.995 41.2144C237.67 43.9197 240.317 44.0737 243.148 43.6886C244.611 43.4864 246.787 42.5333 246.941 44.9017C247.056 46.7886 244.842 47.0004 243.302 47.1737C238.931 47.6743 234.936 46.8945 232.471 42.8414C230.334 39.3371 230.334 35.5728 232.327 32.0492C234.628 27.9673 238.556 26.9083 242.994 27.38C244.698 27.5629 247.133 27.7266 246.902 29.8831C246.662 32.1359 244.428 31.0095 243.879 30.971L243.87 30.9806Z" fill="#FEA52F"/>
<path d="M125.242 43.7656C126.696 43.7174 128.862 42.4081 129.179 44.7668C129.449 46.7404 127.196 47.01 125.704 47.1736C121.381 47.6646 117.386 47.0292 114.854 42.9569C112.563 39.2793 112.495 35.4957 114.787 31.8181C117.271 27.8324 121.198 26.9274 125.579 27.4184C127.1 27.5917 129.295 27.8228 129.141 29.7579C128.948 32.1551 126.821 31.0864 125.386 30.9035C122.566 30.5473 119.851 30.6628 118.272 33.4259C116.857 35.9001 116.818 38.5668 118.195 41.0988C119.745 43.9581 122.508 43.9004 125.252 43.7656H125.242Z" fill="#FEA52F"/>
<path d="M44.4983 35.8714C41.071 35.4382 39.8194 32.9639 38.7123 30.5571C37.5474 28.0251 39.4247 26.8891 41.3983 25.9168C46.2312 23.5485 51.093 21.2379 55.8681 18.7541C60.3352 16.4243 61.3364 20.3907 63.0886 22.6242C65.428 25.6087 62.4243 26.1863 60.6047 27.1972C56.311 29.5655 52.0268 31.9531 47.7234 34.3021C46.6259 34.899 45.4706 35.3997 44.4983 35.8714Z" fill="#FEA52F"/>
<path d="M25.3098 36.2756C24.4722 35.9387 23.8657 35.7557 23.317 35.4477C18.176 32.6076 13.035 29.7483 7.90367 26.889C6.23815 25.9648 4.04313 25.0887 5.80492 22.6915C7.37417 20.5543 8.49093 16.7996 12.1878 18.4266C18.1471 21.0452 23.8465 24.2608 29.6517 27.2356C31.1343 27.9962 31.2113 29.2766 30.4123 30.4222C28.92 32.5402 28.0247 35.2648 25.3194 36.2756H25.3098Z" fill="#FEA52F"/>
<path d="M32.3379 34.6871V52.1125C25.3581 48.8585 18.956 45.46 12.9293 41.4262C9.85821 39.366 11.4467 36.3623 11.8896 32.9446C14.4793 34.2443 16.8572 35.3129 19.11 36.6029C24.2382 39.5232 28.6475 38.8846 32.3379 34.6871Z" fill="#FEA52F"/>
<path d="M36.5653 34.9278C40.5895 38.7787 44.8704 39.5264 49.4081 37.171C50.2553 36.7281 51.0736 36.189 51.9689 35.9098C53.7211 35.3803 55.531 32.2225 57.0136 34.4849C58.3615 36.5452 57.9764 39.8762 55.5503 41.8113C53.8463 43.1688 51.7571 44.0641 49.8124 45.1231C46.751 46.8079 43.6606 48.4445 40.6087 50.1293C38.019 51.5637 36.3342 51.4482 36.4883 47.915C36.5268 47.1256 36.546 46.3361 36.546 45.5563C36.546 42.2927 36.546 39.029 36.546 34.9182L36.5653 34.9278Z" fill="#FEA52F"/>
<path d="M14.6729 61.3643C13.1422 61.1044 12.8245 59.9972 12.8052 58.9382C12.786 58.0044 13.277 56.9647 14.3937 56.9839C15.7897 57.0128 16.0785 58.1488 16.0689 59.3137C16.0689 60.3438 15.5971 61.0563 14.6729 61.3643Z" fill="#5D4654"/>
</g>
<defs>
<clipPath id="clip0_816_2880">
<rect width="281.107" height="70" fill="white"/>
</clipPath>
</defs>
</svg>
