<svg width="300" height="64" viewBox="0 0 300 64" fill="none" xmlns="http://www.w3.org/2000/svg">
<path d="M280.885 43.2911C281.679 41.4395 282.401 39.7705 283.111 38.0975C284.731 34.2784 286.353 30.4573 287.958 26.6321C289.285 23.4709 290.721 20.3604 292.223 17.2783C292.367 16.9819 292.551 16.6997 292.745 16.4337C292.933 16.1738 293.23 16.1982 293.485 16.2814C293.728 16.3606 293.814 16.59 293.806 16.8519C293.776 17.861 293.968 18.862 293.98 19.8568C294.015 22.679 294.29 25.485 294.451 28.297C294.66 31.9273 295.04 35.5514 295.452 39.1655C295.762 41.8719 296.235 44.5601 296.648 47.2544C296.872 48.7244 297.859 49.4939 299.187 49.8634C299.61 49.9811 300.063 50.0888 299.992 50.5476C299.919 51.0146 299.396 50.8562 299.048 50.8603C296.027 50.8928 293.016 50.5151 289.993 50.6776C289.582 50.6999 289.317 50.5293 289.252 50.1862C289.161 49.6949 289.58 49.7395 289.908 49.6583C291.796 49.1832 292.282 48.1883 292.073 46.1945C291.869 44.2373 291.59 42.2902 291.402 40.3309C291.192 38.1442 290.801 35.9717 290.65 33.783C290.528 32.0471 290.14 30.3395 290.199 28.4533C289.657 28.9833 289.544 29.5903 289.293 30.1324C286.407 36.4083 284.128 42.9399 281.235 49.2116C281.123 49.4512 281.057 49.7131 280.941 49.9487C280.602 50.6369 279.946 50.6816 279.479 50.0725C279.028 49.4837 278.802 48.7853 278.486 48.1295C275.421 41.746 272.679 35.2063 269.36 28.9447C269.106 28.4615 268.79 28.0107 268.432 27.4301C268.133 30.8796 267.925 34.1728 267.544 37.4478C267.176 40.6151 266.909 43.7987 266.374 46.9478C266.169 48.1437 267.182 49.5507 268.695 49.6583C269.004 49.6807 269.417 49.5446 269.385 50.1111C269.356 50.6187 269.029 50.71 268.618 50.6857C266.133 50.5456 263.664 50.9435 261.183 50.8948C260.819 50.8887 260.368 50.9638 260.303 50.4603C260.228 49.8695 260.689 49.904 261.108 49.841C262.252 49.6705 263.294 48.6655 263.478 47.4412C263.803 45.2728 264.054 43.0922 264.317 40.9156C264.661 38.0752 265.045 35.2388 265.294 32.3902C265.439 30.7273 265.609 29.0645 265.724 27.3996C265.937 24.3216 266.266 21.2476 266.155 18.1514C266.143 17.8306 266.299 17.5057 266.337 17.1768C266.384 16.791 266.24 16.3139 266.822 16.2246C267.348 16.1433 267.573 16.4986 267.803 16.9067C269.15 19.2782 270.424 21.6882 271.609 24.147C274.571 30.2888 277.532 36.4326 280.494 42.5765C280.581 42.7551 280.687 42.9277 280.887 43.2891L280.885 43.2911Z" fill="white"/>
<path d="M242.643 48.0646C242.941 49.2239 242.103 49.8513 241.523 50.5111C239.731 52.5496 237.683 54.3343 235.497 55.924C234.328 56.7748 232.836 56.99 231.402 57.1585C226.274 57.7595 221.657 56.1311 217.287 53.6947C215.631 52.7709 214.207 51.441 212.608 50.4055C208.719 47.8859 205.658 44.4526 202.473 41.1756C200.436 39.0803 198.388 36.9931 196.358 34.8896C196.153 34.6785 196.002 34.4165 195.836 34.1709C195.567 33.7729 194.799 33.5333 195.078 32.9994C195.351 32.4776 196.129 32.4674 196.679 32.4593C198.026 32.437 199.164 31.9679 200.252 31.2228C203.005 29.3386 203.894 25.753 202.351 22.8903C201.401 21.1279 199.731 20.1371 197.797 19.9199C196.519 19.7757 195.205 19.7432 193.909 19.6498C193.11 19.5909 192.962 19.8853 192.997 20.6102C193.3 27.2819 193.187 33.9577 193.225 40.6314C193.235 42.5826 192.981 44.5135 192.983 46.4667C192.987 48.7427 193.852 49.1061 195.423 49.636C195.735 49.7416 196.109 49.6239 196.044 50.1578C195.982 50.6736 195.636 50.7101 195.243 50.6898C192.358 50.5396 189.484 50.9436 186.601 50.8928C186.134 50.8847 185.462 51.0938 185.393 50.4015C185.345 49.898 185.982 49.9873 186.336 49.8594C187.8 49.3274 188.491 48.2676 188.556 46.69C188.861 39.2061 188.74 31.7202 188.732 24.2364C188.732 22.7481 188.522 21.2538 188.324 19.7737C188.241 19.1605 187.776 18.726 187.219 18.4072C186.756 18.1413 186.263 17.9829 185.757 17.8469C185.393 17.7494 185.313 17.5017 185.317 17.1647C185.321 16.716 185.65 16.8073 185.887 16.8256C189.134 17.0916 192.392 16.9373 195.64 17.0733C196.594 17.1139 197.567 17.252 198.527 17.2154C200.881 17.1261 203.037 17.7616 204.689 19.396C206.189 20.8802 207.302 22.6791 207.364 24.9571C207.423 27.0586 207.247 29.0645 205.937 30.8167C204.897 32.2055 203.538 33.2065 201.955 33.8196C201.278 34.0815 201.425 34.2379 201.737 34.6074C202.485 35.4967 203.211 36.4043 203.991 37.2651C205.118 38.5057 206.285 39.7097 207.431 40.9319C208.416 41.9816 209.336 43.1044 210.39 44.079C213.647 47.092 217 49.9995 220.806 52.312C223.629 54.0277 226.7 55.0043 230.013 55.1464C232.174 55.2378 234.029 54.3018 235.891 53.376C238.285 52.1841 240.202 50.3995 242.002 48.4645C242.115 48.3427 242.237 48.2229 242.366 48.1173C242.409 48.0828 242.492 48.093 242.645 48.0686L242.643 48.0646Z" fill="white"/>
<path d="M86.5215 43.9247C86.3031 40.6904 88.1352 39.0214 90.7803 37.9291C91.2676 37.7281 91.8257 37.6794 92.2847 37.4337C92.8489 37.1332 93.124 37.4824 93.3707 37.8174C93.765 38.3514 93.1037 38.3149 92.9238 38.4428C89.7853 40.666 90.0462 44.8059 91.3667 46.9764C92.491 48.824 94.3858 49.5853 96.3958 49.831C98.0682 50.0361 99.7769 50.0077 101.203 48.7062C102.1 47.8859 102.685 46.8931 103.053 45.817C104.485 41.6264 103.662 40.0529 100.422 37.0114C97.9246 34.6663 94.863 33.0664 92.038 31.1579C90.3981 30.0493 89.3566 28.1834 89.1787 26.1084C88.9846 23.8365 89.3688 21.666 90.8874 19.8062C92.0785 18.3444 93.6558 17.6175 95.4029 17.1343C98.238 16.3506 101.061 16.4602 103.852 17.3211C105.427 17.8084 105.93 18.5433 105.904 20.1798C105.882 21.5929 106.266 22.9837 106.106 24.3989C106.078 24.6567 106.286 25.0262 105.805 25.1257C105.39 25.211 105.287 24.8882 105.14 24.6547C104.452 23.5583 103.702 22.4883 103.126 21.3351C102.369 19.8204 100.99 19.1849 99.5525 18.9088C97.6557 18.5433 95.8478 18.9657 94.4404 20.5148C93.2311 21.8447 93.2453 24.4131 94.4768 25.745C96.6082 28.0515 99.2795 29.6128 101.846 31.3467C105.081 33.5354 107.94 36.1688 108.919 40.1666C109.823 43.8638 108.389 47.7093 105.063 49.9061C101.389 52.3324 97.5323 52.5639 93.4333 51.4167C91.0128 50.7386 88.8167 49.7417 87.3567 47.5611C86.744 46.6454 86.5256 45.679 86.5256 43.9268L86.5215 43.9247Z" fill="white"/>
<path d="M41.6177 26.516C40.4023 26.0977 39.9109 25.2186 39.8341 23.9598C39.7411 22.4715 38.3377 20.8249 37.092 20.6869C35.1871 20.4777 34.0588 20.9366 33.171 22.839C32.3217 24.6582 33.6806 27.253 35.8302 27.3992C37.6057 27.521 39.4357 27.6347 41.0616 28.5484C41.0616 34.9216 41.0616 41.2949 41.0616 47.6682C37.4601 49.7107 32.1721 48.9493 29.5352 46.251C29.5473 42.6695 29.5614 39.0879 29.5756 35.5064C30.435 35.4434 31.2115 35.7866 31.9112 36.1784C32.8657 36.7144 32.7646 37.8352 32.9547 38.7367C33.262 40.1823 34.5764 41.4858 35.994 41.5528C37.8018 41.638 39.2234 40.6147 39.6521 38.9965C40.2709 36.6616 38.3417 34.8364 36.3175 34.6313C34.0851 34.4039 31.8061 34.1521 29.9335 32.6679C29.9335 26.9688 29.9335 21.2716 29.9335 15.5724C32.8434 13.0263 37.9838 12.5472 41.6197 14.8313C41.6197 18.7255 41.6197 22.6197 41.6197 26.514L41.6177 26.516Z" fill="white"/>
<path d="M238.501 36.6863C237.391 36.6863 236.279 36.7168 235.169 36.6762C234.499 36.6518 234.129 36.7899 233.864 37.5248C232.592 41.0759 230.93 44.4747 229.745 48.0664C229.49 48.8379 229.517 49.3171 230.374 49.5729C230.669 49.6602 231.088 49.8024 230.96 50.245C230.859 50.5962 230.493 50.6693 230.158 50.6734C229.484 50.6835 228.807 50.7201 228.137 50.6693C226.524 50.5434 224.938 50.9556 223.333 50.8784C223.068 50.8663 222.684 51.0206 222.704 50.4927C222.718 50.1394 222.837 49.912 223.213 49.8755C225.541 49.644 226.728 48.0197 227.505 46.099C230.107 39.6506 232.643 33.1738 235.167 26.6929C236.25 23.9113 237.225 21.0892 238.287 18.2995C238.499 17.7391 238.62 16.9127 239.35 16.8802C240.074 16.8498 240.119 17.6437 240.341 18.1858C242.831 24.2991 244.998 30.5343 247.376 36.6883C248.737 40.211 250.102 43.7438 251.767 47.1426C252.513 48.6674 253.71 49.6359 255.407 49.8673C255.886 49.9323 256.122 50.2023 256.108 50.5516C256.088 51.0429 255.603 50.8825 255.322 50.8561C252.577 50.6104 249.829 50.6734 247.081 50.6795C246.606 50.6795 246.284 50.4785 246.175 50.0582C246.028 49.4978 246.618 49.6684 246.847 49.5344C247.423 49.1993 247.609 48.8461 247.38 48.1821C246.228 44.8605 244.729 41.6728 243.579 38.3573C243.098 36.9685 242.436 36.4589 241.025 36.664C240.2 36.7838 239.344 36.6863 238.503 36.6863H238.501ZM235.229 34.2072H241.941C240.806 31.2287 239.7 28.3274 238.574 25.3691C237.452 28.3334 236.354 31.2368 235.229 34.2072Z" fill="white"/>
<path d="M126.134 36.6927C124.922 36.6927 123.709 36.6927 122.498 36.6927C122.156 36.6927 121.847 36.6927 121.685 37.1069C120.275 40.7209 118.87 44.337 117.416 47.9327C117.044 48.8505 117.345 49.3601 118.178 49.622C118.544 49.7377 118.696 49.8717 118.623 50.2372C118.546 50.6169 118.267 50.6798 117.94 50.6778C117.266 50.6737 116.589 50.7184 115.92 50.6697C114.373 50.558 112.848 50.8991 111.307 50.8788C110.919 50.8727 110.409 50.9823 110.391 50.3834C110.375 49.8575 110.836 49.9408 111.196 49.8636C113.174 49.4413 114.328 48.0789 115.052 46.2983C117.463 40.3717 119.829 34.4289 122.091 28.4454C123.404 24.9756 124.856 21.5605 126.024 18.0358C126.118 17.7557 126.257 17.4775 126.431 17.2379C126.876 16.6207 127.468 16.7121 127.753 17.441C128.961 20.523 130.206 23.5909 131.351 26.6973C133.5 32.5386 135.67 38.3678 138.099 44.0994C138.627 45.3461 139.041 46.6435 139.844 47.7723C140.655 48.9154 141.668 49.689 143.075 49.8555C143.5 49.9062 143.862 50.1133 143.854 50.4829C143.844 50.9945 143.338 50.9255 142.991 50.893C140.246 50.6351 137.494 50.6981 134.744 50.696C134.273 50.696 133.943 50.4991 133.828 50.0768C133.676 49.5245 134.255 49.6707 134.487 49.5266C135.082 49.1591 135.318 48.7895 135.023 48.0607C133.583 44.4994 132.164 40.9301 130.809 37.3363C130.601 36.7841 130.348 36.6927 129.875 36.6968C128.629 36.7069 127.383 36.7008 126.138 36.7008V36.6968L126.134 36.6927ZM126.247 25.4629C125.119 28.3764 124.055 31.1093 123.003 33.8462C122.781 34.4248 123.282 34.2441 123.501 34.2482C124.844 34.2685 126.184 34.2563 127.527 34.2563C129.557 34.2563 129.594 34.2421 128.904 32.3579C128.075 30.1002 127.177 27.8668 126.247 25.4649V25.4629Z" fill="white"/>
<path d="M164.76 50.8785C163.245 50.8785 161.73 50.8765 160.216 50.8806C159.85 50.8806 159.427 50.9374 159.368 50.4481C159.316 49.9953 159.769 50.0928 160.014 50.0278C162.29 49.4248 162.663 48.1518 162.685 46.2128C162.723 42.9033 162.685 39.5939 162.703 36.2844C162.707 35.6591 162.549 35.1576 162.189 34.6215C159.437 30.5284 156.748 26.3905 153.993 22.2973C153.443 21.4791 152.877 20.6629 152.19 19.9279C151.251 18.9229 150.095 18.46 148.809 18.2508C148.386 18.1818 148.01 17.9991 148.008 17.6478C148.004 17.1301 148.515 17.2275 148.863 17.2417C151.676 17.3595 154.487 17.5118 157.304 17.4326C157.666 17.4225 157.973 17.4691 158.044 17.9179C158.123 18.4153 157.787 18.3524 157.466 18.4803C156.837 18.73 156.493 19.2254 156.855 19.9604C157.795 21.8608 159.097 23.5277 160.329 25.2291C161.856 27.3407 163.194 29.5721 164.644 31.7303C165.107 32.4186 165.198 32.2054 165.536 31.7263C167.392 29.0868 169.279 26.4677 171.133 23.8262C171.944 22.6709 172.703 21.4791 173.477 20.2995C174.104 19.3432 173.958 18.8335 172.901 18.466C172.644 18.3767 172.604 18.2671 172.589 18.0539C172.571 17.7899 172.66 17.5828 172.897 17.4773C173.012 17.4245 173.16 17.4245 173.291 17.4285C175.736 17.4732 178.179 17.4062 180.619 17.2194C181.018 17.189 181.325 17.193 181.311 17.7717C181.297 18.3138 180.988 18.2265 180.652 18.259C178.751 18.4356 177.344 19.4426 176.286 20.9735C173.315 25.2738 170.369 29.5924 167.39 33.8886C167.065 34.3576 166.931 34.8124 166.933 35.3687C166.948 39.1167 166.939 42.8668 166.939 46.6148C166.939 48.6411 167.473 49.3071 169.453 49.9263C169.7 50.0035 170.278 49.9141 170.175 50.5314C170.072 51.1445 169.603 50.8623 169.307 50.8684C167.793 50.8988 166.278 50.8826 164.764 50.8826V50.8765L164.76 50.8785Z" fill="white"/>
<path d="M45.4633 61.997C44.5998 62.4478 43.6231 62.4985 42.7051 62.6C40.3957 62.8538 38.0722 63.1624 35.7488 63.0305C32.3717 62.8396 28.9785 62.6691 25.7167 61.6113C25.6298 61.5828 25.559 61.5097 25.4802 61.457C25.4903 60.8945 25.4983 60.3301 25.5085 59.7677C26.198 59.991 26.9725 60.3687 27.5205 59.656C28.111 58.8886 27.4336 58.249 27.0514 57.6155C27.017 57.5587 26.9624 57.516 26.9098 57.4714C26.6935 57.2846 26.6449 57.0958 26.8896 56.8907C27.2233 56.6105 27.3689 56.8907 27.4963 57.1181C27.5792 57.2663 27.4356 57.5506 27.7632 57.5546C28.2 56.777 28.0301 56.4156 27.201 56.3587C26.0241 56.2755 25.7916 56.7628 26.3537 58.1292L26.378 58.1028C26.0221 58.2064 25.6642 58.3099 25.3083 58.4135C24.9483 57.11 24.9503 55.8065 25.3083 54.501C29.5063 55.7699 33.8216 56.0562 38.1653 55.9263C40.0702 55.8694 41.967 55.5608 43.8698 55.3679C43.8698 55.9791 43.8739 56.5902 43.8739 57.2013C43.6797 57.2135 43.3865 56.9232 43.429 57.4775C43.5058 58.5008 43.9689 59.4855 43.706 60.5433C43.6312 60.8458 43.9325 60.8722 44.0983 60.8012C44.2803 60.722 44.7616 60.6875 44.5493 60.4052C44.1853 59.922 44.4158 59.3718 44.0862 58.8337C44.8182 59.2297 45.067 59.8834 45.4977 60.3748C45.4855 60.9148 45.4734 61.4549 45.4633 61.995V61.997ZM39.6516 61.4387C38.871 61.3636 38.505 60.7017 37.9691 60.2712C37.5424 59.9281 37.415 59.6175 37.8195 59.1769C38.1814 58.783 37.9186 58.4196 37.6557 58.1434C36.9843 57.4348 34.491 57.648 34.0279 58.5089C33.6053 59.2946 33.4334 58.9535 33.1846 58.452C32.884 57.8497 32.4587 57.5966 31.9086 57.6927C32.4951 58.5251 33.3808 59.2601 32.9743 60.4743C32.7923 61.0164 32.8975 61.3108 33.4738 61.3798C33.6295 61.3981 33.7873 61.3818 33.9692 61.3818C33.4556 60.2428 33.9814 58.7119 35.0531 58.2409C35.4434 58.0683 35.8438 58.0602 35.8135 58.7302C35.7751 59.6154 35.8034 60.5047 35.8034 61.4001C36.0865 61.4001 36.412 61.4976 36.7457 61.325C36.2442 60.8519 36.41 60.2753 36.4302 59.7007C38.2381 61.662 40.3148 62.9168 41.0792 61.4407C40.5838 61.396 40.0762 61.9706 39.6172 61.4082C40.2825 61.5199 40.513 61.1747 40.6161 60.5636C40.6586 60.3139 40.4058 59.8246 41.0004 59.8002C41.4452 59.7819 41.7668 60.0418 41.8295 60.3849C41.9872 61.2681 42.5049 61.0529 43.1297 60.8438C42.4968 60.6083 42.3916 60.0316 42.1429 59.5565C41.8679 59.0307 41.6373 58.4845 41.2713 58.0074C41.154 57.8551 41.1197 57.6074 40.879 57.6764C40.7294 57.7191 40.6748 57.9018 40.6424 58.0845C40.4362 59.2398 40.1328 60.3667 39.6475 61.4387H39.6516ZM31.1503 60.9697C30.6731 60.4763 30.6347 59.8976 30.4871 59.3393C30.3435 58.7952 30.5174 58.1942 30.1716 57.7008C30.0664 57.5526 30.2444 57.2501 29.9593 57.2115C29.7348 57.181 29.658 57.4044 29.5387 57.5688C28.8794 58.4784 28.4406 59.5525 27.4417 60.2814C28.1413 60.5474 28.5175 60.4093 28.746 59.7718C28.8673 59.4347 29.1423 59.0916 29.5852 59.2114C29.9977 59.3231 29.9795 59.7109 29.9451 60.0479C29.8582 60.9047 30.3253 61.0753 31.1483 60.9697H31.1503ZM41.5989 61.1565C41.5281 61.1098 41.4614 61.0428 41.4371 61.0549C41.3704 61.0895 41.3219 61.1605 41.2673 61.2153C41.3057 61.2458 41.3603 61.3108 41.3825 61.3026C41.4574 61.2702 41.5201 61.2133 41.5989 61.1565Z" fill="white"/>
<path d="M43.8712 57.201C43.8712 56.5899 43.8672 55.9787 43.8672 55.3676C45.1007 55.0123 46.3767 54.8234 47.5779 54.3402C47.8549 54.2286 48.138 54.1534 48.3645 53.9504C48.4596 53.9281 48.5708 53.9281 48.6496 53.8793C50.0369 53.0043 50.053 52.6022 48.7487 51.7434C51.0439 50.9374 53.3896 50.2714 55.6363 49.3232C55.9254 49.2014 56.1519 49.2095 56.2712 49.5466C56.7626 49.3253 57.0275 48.9801 56.9062 48.4116C56.7505 47.6827 56.7909 46.9457 56.8374 46.2107C57.7636 45.9224 57.8971 44.8382 58.6554 44.3814C58.9243 44.426 58.7666 44.7367 58.9466 44.8524C59.0659 44.5357 59.1245 44.1905 59.4177 43.9753C59.6988 44.1357 59.9799 44.2575 60.2529 43.959C60.7807 43.4921 61.3105 43.0251 61.8383 42.5581L62.3034 42.7875C62.1942 42.95 62.085 43.1124 61.9717 43.2809C62.273 43.4697 62.4712 43.3053 62.6714 43.1286C62.9303 42.9033 63.09 43.1246 63.2619 43.2728C63.3933 43.3885 63.5106 43.5367 63.4237 43.7053C63.3084 43.9327 63.094 44.0585 62.8393 43.9814C60.9849 43.4169 60.2428 44.8422 59.4157 45.9813C58.7039 46.964 58.4107 48.2065 57.6483 49.177C57.2398 49.6948 58.0871 49.7171 57.9982 50.1029C57.6787 50.2308 57.3571 50.3567 57.0376 50.4846C56.5462 50.4501 56.5018 50.716 56.6271 51.0978L56.6231 51.1018C55.8081 51.3455 55.5695 51.7069 55.4846 52.7951C56.2712 52.7403 56.3359 52.0236 56.6271 51.5059C57.1306 51.518 57.5614 51.2805 58.0083 51.0998C58.0244 51.2257 58.0406 51.3515 58.0548 51.4754C57.9173 51.5526 57.7151 51.5932 57.7413 51.7921C57.7494 51.849 57.9517 51.9018 58.0689 51.9119C58.2651 51.9302 58.4653 51.9119 58.6635 51.9099C59.535 52.2693 60.2468 51.7475 61.0051 51.4835C61.7715 51.5607 62.5379 51.6399 63.3044 51.717C63.2396 51.7881 63.1406 51.847 63.1163 51.9302C63.0455 52.1718 63.2781 52.0845 63.3266 52.0581C63.7695 51.8307 64.2325 51.8693 64.6997 51.916C64.6228 52.2571 64.546 52.5982 64.4691 52.9393C63.6704 52.9657 63.001 52.3241 62.1618 52.5088C61.903 52.5657 61.6907 52.5434 61.8929 52.8845C61.2397 52.9149 60.629 53.1322 60.0143 53.3251C59.4076 53.1768 58.987 52.5251 58.2469 52.7078C57.9961 52.7708 57.802 52.7829 57.8425 53.0997C57.2884 53.5179 56.6797 53.8083 55.9962 53.9402C55.5331 53.9159 55.6363 54.1067 55.7637 54.4214C56.5321 56.3259 56.52 56.3259 54.5544 56.9939C53.4644 57.3654 52.3886 57.7776 51.2502 57.9908C50.6496 58.1025 50.1845 58.3705 50.326 59.1318C50.3907 59.475 50.3018 59.7877 50.0045 60.0272C48.6699 61.1053 47.1694 61.7896 45.4586 61.9946C45.4708 61.4546 45.4809 60.9145 45.493 60.3744C46.2048 59.9501 45.7721 59.0628 46.2109 58.5227C46.3787 58.8679 46.5264 59.1968 46.6982 59.5136C46.7811 59.6679 46.3706 60.0029 46.8701 59.9887C47.0966 59.9826 47.3474 60.0739 47.5334 59.8607C47.8023 59.5521 47.4424 59.4567 47.3211 59.3146C47.0663 59.0202 47.0784 58.6324 46.9106 58.3136C46.587 57.6984 46.581 56.937 46.0491 56.2833C45.7498 57.2253 45.859 58.141 45.4222 58.9491C44.7205 58.4639 44.2838 57.8405 43.8692 57.199L43.8712 57.201Z" fill="white"/>
<path d="M25.5059 59.7673C25.4958 60.3297 25.4877 60.8942 25.4776 61.4566C24.3856 61.3246 23.5383 60.6749 22.6769 60.0779C22.4099 59.8932 22.2259 59.5338 22.2825 59.1988C22.4281 58.3176 21.872 58.1024 21.2088 57.9664C19.6517 57.6456 18.1856 57.0466 16.6932 56.5248C16.1857 56.3482 16.0461 56.0091 16.309 55.5178C16.6002 54.9737 16.8833 54.4234 17.1867 53.8407C16.9784 53.8773 16.8045 53.9098 16.6306 53.9402C15.9895 53.7027 15.3202 53.5301 14.7742 53.0895C14.4911 52.3687 13.9694 52.7992 13.5346 52.8357C13.1585 52.8662 13.0331 53.39 12.6044 53.3311C12.0099 53.0387 11.387 52.8763 10.7218 52.8885C10.8229 52.6854 10.8673 52.586 10.5438 52.5108C9.73291 52.3261 9.08177 52.923 8.31536 52.8905C8.24863 52.5677 8.18392 52.2428 8.11719 51.92C8.53578 51.8855 8.94426 51.8611 9.36285 52.0093C9.79357 52.1636 9.51047 51.8469 9.51047 51.721C10.2101 51.6439 10.9118 51.5647 11.6115 51.4875C12.2808 51.6845 12.9502 51.8875 13.6236 52.0703C13.7247 52.0966 13.8501 52.0256 13.9653 51.9992C13.8925 51.9058 13.8217 51.8124 13.749 51.719C13.9471 51.7149 14.1028 51.6378 14.206 51.4632C14.6893 51.5363 14.5073 51.1221 14.6023 50.913C15.0088 51.2358 15.4516 51.4348 15.9855 51.3271C16.398 51.6459 16.0421 52.3403 16.6083 52.5941C16.7681 52.6651 16.9177 52.7281 17.0673 52.6448C17.124 52.6124 17.1725 52.4662 17.1482 52.4032C16.8671 51.6825 16.5396 50.9942 15.763 50.6693L15.7812 50.6957C15.9855 50.4419 15.7893 50.379 15.5992 50.312C15.3182 50.1678 15.0371 50.0237 14.756 49.8795C14.9724 49.6399 15.3182 49.5425 14.9178 49.0532C14.1433 48.107 13.7004 46.9375 13.1807 45.833C13.0837 45.6259 13.0513 45.4006 12.8592 45.2402C11.8259 44.3854 10.8431 43.3986 9.30623 43.9935L9.33049 44.0179C9.35072 43.3479 9.31432 42.6555 10.3133 43.3519C10.6004 43.5529 10.653 43.2524 10.5256 43.0027C10.6752 42.8545 10.8249 42.7063 10.9745 42.5581C11.199 42.8261 11.3972 43.1245 11.658 43.3479C11.8461 43.5083 11.9836 44.0585 12.386 43.5671C12.9724 43.5814 12.934 43.2321 12.8309 42.822C12.5377 41.6505 12.2566 40.477 11.9694 39.3054C12.4103 39.0862 11.8946 38.4913 12.3658 38.2842C12.7763 39.3034 13.1888 40.3206 13.5993 41.3399C13.4517 42.4302 12.8632 43.49 13.5629 44.625C13.8723 45.1244 13.8278 44.3509 13.9815 44.5762C14.3718 44.6392 14.6084 44.9153 14.8369 45.2016C15.0977 45.5285 15.2615 45.9691 15.7711 46.0036C15.7691 46.8096 15.7792 47.6157 15.759 48.4217C15.7408 49.1344 15.945 49.3049 16.6427 49.2785C16.9521 49.2663 17.2797 49.4146 17.581 49.5364C19.6901 50.3952 21.8417 51.1221 24.0519 51.6723C23.6354 52.0418 23.0267 52.1373 22.6728 52.6692C23.2572 53.0245 23.4938 53.8021 24.2562 53.9605C24.606 54.1412 24.9559 54.3239 25.3057 54.5046C24.9478 55.8081 24.9478 57.1136 25.3057 58.4171C25.1095 58.9085 25.2147 59.3531 25.5059 59.7714V59.7673Z" fill="white"/>
<path d="M41.0625 47.6701C41.0625 41.2968 41.0625 34.9236 41.0625 28.5503C44.1059 30.1116 45.9905 32.5907 46.674 35.9286C47.4101 39.5243 46.5062 42.7465 44.0776 45.4712C43.2545 46.395 42.3102 47.2742 41.0625 47.6701Z" fill="white"/>
<path d="M29.9332 15.5752C29.9332 21.2744 29.9332 26.9715 29.9332 32.6707C28.3033 31.7084 27.4439 30.1226 26.7018 28.4902C24.7645 24.2204 25.6968 19.5323 28.9626 16.2615C29.2538 15.9711 29.5814 15.764 29.9332 15.5772V15.5752Z" fill="white"/>
<path d="M41.6192 26.5161C41.6192 22.6219 41.6192 18.7277 41.6192 14.8335C44.9295 16.7359 46.6888 19.5784 46.9032 23.4198C47.0204 25.5192 45.8476 26.577 43.6919 26.7598C42.9801 26.8207 42.2987 26.6887 41.6172 26.5161H41.6192Z" fill="white"/>
<path d="M51.5456 9.34763C51.853 9.39839 52.1381 9.65421 52.5061 9.4126C51.3232 8.00557 49.9036 7.04115 48.0756 6.67163C47.3921 6.53357 46.66 6.40565 46.0918 5.91228C46.5124 5.42296 46.931 4.93365 47.3516 4.44434C48.7954 4.98238 49.8005 6.12343 50.9855 7.07567C50.7287 6.0544 50.0431 5.29505 49.5073 4.45449C49.9481 4.43825 50.2231 4.7428 50.5568 4.96411C51.58 5.64021 52.3605 6.66148 53.5597 7.08176C53.6851 7.69899 53.768 8.31418 53.7943 8.95171C53.8367 10.0237 54.9146 10.3303 55.5455 11.1892C55.6931 10.2186 55.2017 9.46133 55.4343 8.67964C55.9701 8.86441 56.2694 9.31108 56.6071 9.72324C57.0014 10.2024 57.3129 10.7892 58.0004 10.9293C58.2026 12.046 57.8326 13.1261 57.784 14.2266C57.3816 13.7027 56.9974 13.1606 56.5687 12.6591C56.1299 12.1455 55.9054 12.3505 55.8508 12.9332C54.6759 12.3546 53.4788 11.8429 52.1543 11.7353C52.2756 10.8562 51.6305 10.174 51.5436 9.34763H51.5456Z" fill="white"/>
<path d="M29.5738 35.5088C29.5597 39.0903 29.5475 42.6718 29.5334 46.2534C27.5638 44.8463 26.4172 42.9013 25.9258 40.5643C25.8186 40.0567 25.7135 39.535 25.6791 38.9969C25.5113 36.392 27.2584 35.2529 29.5718 35.5088H29.5738Z" fill="white"/>
<path d="M22.297 5.45805C22.2222 6.05903 21.5771 6.39201 21.5629 7.1879C22.9542 6.38186 23.7772 4.93015 25.2676 4.44287C25.8115 4.82255 26.0825 5.43571 26.5193 5.90675C25.7468 6.42043 24.8874 6.75544 23.9835 6.86711C22.2545 7.0803 21.3142 8.41017 20.0443 9.35632C20.5539 9.73396 20.8855 9.21013 21.2697 9.3482C21.0655 10.0954 20.8612 10.8425 20.659 11.5897C19.4093 11.941 18.1272 12.1907 16.9605 12.7896C16.8553 12.479 17.3952 12.0871 16.9746 11.8963C16.5823 11.7176 16.3518 12.1907 16.1334 12.4648C15.6784 13.0373 15.2578 13.6404 14.823 14.2292C14.9464 13.2485 14.3963 12.3166 14.6107 11.3278C15.0374 11.2973 15.1991 10.942 15.4499 10.674C16.0161 10.0669 16.4448 9.32586 17.1768 8.88325C17.3487 9.58981 17.0919 10.2639 16.9867 10.9765C18.2223 10.3512 18.744 9.59996 18.8128 8.30663C18.8269 8.04674 18.9644 7.87213 19.0615 7.66504C19.5104 7.57976 19.7814 7.21024 20.1332 6.97472C20.8653 6.48743 21.4092 5.73011 22.2929 5.45602L22.297 5.45805Z" fill="white"/>
<path d="M14.8253 14.2306C15.2601 13.6397 15.6787 13.0387 16.1357 12.4662C16.3541 12.1921 16.5846 11.719 16.9769 11.8977C17.3975 12.0885 16.8576 12.4804 16.9627 12.791C15.8687 13.8996 15.1812 15.2823 14.3966 16.5979C14.1034 17.2091 13.6464 17.7471 13.5918 18.4618C13.0761 19.41 12.795 20.4414 12.5301 21.4789H12.5524C12.2592 21.621 12.3987 21.8748 12.3967 22.09C11.792 23.6514 11.6505 25.3061 11.3957 26.9405C11.056 29.783 11.1834 32.6255 11.3755 35.47C11.4422 36.0182 11.5069 36.5644 11.5736 37.1126C11.7071 37.8435 11.8426 38.5745 11.9761 39.3074C12.2612 40.4789 12.5443 41.6525 12.8375 42.824C12.9406 43.2361 12.9811 43.5833 12.3926 43.5691C12.34 42.9844 11.9356 42.5377 11.7718 41.9976C11.695 41.5712 11.6201 41.1469 11.5433 40.7205C11.2804 39.8718 11.3209 38.9521 10.9387 38.1318C10.9367 37.8516 10.9346 37.5715 10.9326 37.2913C10.7971 36.1462 10.6616 35.001 10.5241 33.8579C10.5181 31.7687 10.512 29.6775 10.5039 27.5882C10.7102 26.3639 10.9164 25.1396 11.1227 23.9174C11.2703 23.1093 11.4179 22.2992 11.5676 21.4891C12.0994 20.145 12.6312 18.8009 13.1631 17.4588C13.3774 16.9817 13.5938 16.5066 13.8081 16.0294C14.1479 15.4325 14.4896 14.8336 14.8293 14.2366L14.8253 14.2306Z" fill="white"/>
<path d="M55.8536 12.9318C55.9082 12.349 56.1326 12.146 56.5715 12.6577C57.0002 13.1592 57.3844 13.7013 57.7868 14.2251C58.2175 14.6982 58.2317 15.4413 58.808 15.8209C58.9455 16.428 59.2347 16.96 59.6067 17.4533C60.088 18.7974 60.5693 20.1415 61.0486 21.4876C61.0971 22.3932 61.3761 23.248 61.6168 24.1109C61.7806 25.2682 61.9424 26.4275 62.1062 27.5848C62.1001 29.674 62.096 31.7632 62.09 33.8525C62.1446 34.9387 61.7179 35.9945 61.8797 37.0889C61.6673 37.3629 61.3984 37.4482 61.0688 37.3386C61.0587 37.1944 61.0506 37.0503 61.0405 36.9061C61.0182 36.3478 61.3802 35.8382 61.2386 35.2656C61.5278 32.4901 61.5379 29.7146 61.2184 26.9391C60.994 25.2986 60.8706 23.6378 60.2154 22.0866C60.2174 21.8694 60.3549 21.6176 60.0617 21.4755H60.084C59.991 20.3852 59.4429 19.4471 59.0567 18.4523C58.8889 17.6726 58.4642 17.0249 58.0133 16.3915C57.5138 15.0981 56.7717 13.9591 55.8516 12.9318H55.8536Z" fill="white"/>
<path d="M6.10852 31.5865C6.65451 31.4017 6.25412 31.0626 6.19345 30.8373C5.76677 29.2759 5.08328 27.8628 3.9367 26.6669C3.57069 26.2873 2.97819 25.6396 3.92053 25.0914C4.12274 24.9736 3.82548 24.8559 3.77493 24.732C3.57676 24.2468 3.11368 23.9016 3.07121 23.329C3.03886 22.8824 3.10559 22.5859 3.65158 22.7199C3.79313 24.2265 5.1035 25.1868 5.45738 26.5938C5.47963 26.6182 5.49783 26.6487 5.52411 26.669C5.54231 26.6832 5.59287 26.6893 5.59287 26.6872C5.74858 26.2426 5.74453 25.7858 5.70207 25.3249L5.66971 25.3614C6.33298 25.2924 6.58373 25.603 6.51498 26.2507C6.4442 26.9045 6.59991 27.5643 6.29861 28.2202C6.11054 28.6323 6.21974 29.1521 6.4078 29.5906C6.93559 30.8271 7.1641 32.159 7.87388 33.3549C8.32887 34.1203 8.37943 35.1436 8.84453 35.9619C8.98001 35.6492 9.28334 35.3649 8.88497 34.9589C8.64635 34.7152 8.93957 34.4858 9.12157 34.2868C9.36423 34.0229 9.56442 34.2543 9.73631 34.3599C9.97493 34.5081 9.9729 34.8249 9.82124 34.9772C8.71106 36.0857 9.62104 37.105 9.92639 38.1506V38.1262C9.89808 38.4227 10.1165 38.6155 10.2277 38.8551C10.2762 38.7516 10.3268 38.648 10.3753 38.5445C10.4886 38.5445 10.6038 38.5445 10.7171 38.5445C10.7231 38.7536 10.7292 38.9648 10.7353 39.1739C10.531 39.3647 10.3268 39.5556 10.1246 39.7485C9.56847 38.8511 9.07303 37.9049 8.12463 37.3344C8.13677 37.2633 8.14688 37.1902 8.15901 37.1192C8.56142 37.1192 8.62816 36.8329 8.47851 36.5872C7.53011 35.0462 7.36227 33.0727 5.86586 31.8362C5.94675 31.753 6.02966 31.6677 6.11054 31.5844L6.10852 31.5865Z" fill="white"/>
<path d="M10.9778 42.5556C10.8282 42.7039 10.6785 42.8521 10.5289 43.0003C9.33174 42.1475 8.717 40.7101 7.45718 39.9223C7.32776 39.7233 7.19834 39.5243 7.0669 39.3254C6.67865 38.3792 6.05986 37.6625 5.06697 37.3255C5.1155 37.1833 5.16606 37.0412 5.21459 36.8971C5.00631 36.0078 4.50076 35.3276 3.72222 34.8728C3.17623 34.554 2.66867 34.2069 2.26828 33.7074C1.97506 33.3419 1.57871 33.0313 2.24806 32.6313C2.58171 32.4323 2.18335 32.4486 2.12268 32.3856C1.84564 32.0933 1.56254 31.807 1.26528 31.5369C0.976106 31.273 0.705134 30.938 0.88713 30.5786C1.15001 30.0629 1.50794 30.7228 1.83553 30.605C1.99731 31.2283 2.72327 31.208 3.03266 31.6608C3.11152 31.7339 2.97604 31.9735 3.21263 31.9065C3.2551 31.8943 3.24701 31.7339 3.27937 31.6486C3.40676 31.3197 2.95986 30.735 3.54832 30.6659C4.12666 30.5989 4.01139 31.2974 4.22979 31.6364C4.32483 31.7846 4.33292 32.0486 4.27832 32.2293C3.76873 33.9185 5.04675 34.9479 5.72822 36.1864C5.99313 36.6676 6.37127 37.0859 6.69685 37.5326L6.69078 37.5123C7.27923 38.2716 7.78275 39.1 8.51276 39.7436C8.49658 40.0502 8.67453 40.2268 8.92528 40.3527C9.60878 41.0877 10.2943 41.8207 10.9778 42.5556Z" fill="white"/>
<path d="M63.6996 36.0367C64.1768 35.7139 64.2051 35.1312 64.3365 34.6764C64.8138 33.0379 65.6651 31.5537 66.1666 29.9233C66.3709 29.2615 66.4801 28.6402 66.2839 28.0371C66.1019 27.4727 66.0898 26.9286 66.1201 26.3702C66.1403 25.9987 65.9866 25.4363 66.5427 25.3997C66.9977 25.3693 66.8946 25.9296 66.9876 26.4941C67.3172 25.4525 66.838 24.6607 67.1049 23.8749C67.2 23.5988 67.1292 23.1826 67.4911 23.1562C67.9704 23.1217 67.9118 23.5663 67.9401 23.8891C67.9239 24.3135 68.207 24.6586 68.1605 25.1358C68.114 25.5926 68.4133 25.2211 68.5568 25.1236C69.1918 25.0688 69.5578 25.1845 69.1433 25.9296C68.8379 26.4758 68.5811 27.0545 68.1039 27.4788C66.8622 28.5833 66.6843 30.1284 66.381 31.6227C66.3931 31.8177 66.2738 32.0248 66.4255 32.2075C65.2587 33.176 65.2 34.7231 64.4983 35.9352C64.3204 36.2438 64.2091 36.591 64.0696 36.922C63.8088 36.9281 63.5499 36.9321 63.2891 36.9382C63.2891 36.6479 63.2911 36.3575 63.2931 36.0672C63.4286 36.057 63.5621 36.0469 63.6975 36.0367H63.6996Z" fill="white"/>
<path d="M14.2038 51.4594C14.1007 51.6319 13.943 51.7111 13.7468 51.7152C12.4547 51.098 11.387 50.1721 10.3395 49.2179C9.60137 48.893 9.36478 48.0443 8.7015 47.6403C8.64488 47.4555 8.59433 47.2606 8.32942 47.4007H8.3638C8.08676 45.8658 6.60855 46.1602 5.6743 45.6282C5.4822 45.5186 5.25571 45.4698 5.04743 45.3947C4.98878 45.346 4.92812 45.2952 4.86745 45.2465L4.8533 45.2303C4.77848 44.8222 4.70568 44.4141 4.63086 44.006C5.18898 43.8212 5.7107 44.2293 6.33353 44.1481C6.17985 43.7339 6.04638 43.3725 5.9109 43.0091C6.02818 42.9461 6.14547 42.8832 6.26276 42.8223C6.31938 43.1228 6.43464 43.3908 6.68135 43.5877C7.02916 43.9978 7.379 44.408 7.72681 44.8181C7.67019 45.411 7.96947 45.8109 8.51748 46.2617C8.51546 45.3257 8.43255 44.4608 9.33242 44.0181L9.30815 43.9938C9.69035 44.7288 10.0483 45.5348 9.90874 46.3348C9.63979 47.8596 10.4891 48.6758 11.5467 49.4351C12.1412 49.8655 12.576 50.5234 13.3404 50.7122C13.6295 50.9619 13.9167 51.2117 14.2059 51.4614L14.2038 51.4594Z" fill="white"/>
<path d="M62.303 42.7855C62.1473 42.7083 61.9936 42.6332 61.8379 42.5561C62.3091 41.6972 63.1098 41.1166 63.6963 40.3552C63.9875 40.2354 64.038 39.9674 64.0946 39.7034C64.9763 39.2019 65.2837 38.2192 65.9227 37.5147L65.9146 37.535C66.3676 36.8955 66.7963 36.2376 67.2796 35.6224C68.0177 34.6803 68.5252 33.6875 68.3473 32.4307C68.2927 32.045 68.3958 31.649 68.5475 31.2612C68.6648 30.9628 68.7153 30.6196 69.0935 30.6785C69.5343 30.7476 69.2836 31.1618 69.3442 31.4176C69.3826 31.5759 69.3503 31.7485 69.3503 31.9475C69.7365 31.7363 69.4251 31.3425 69.6435 31.1232C70.2724 31.3831 70.0965 31.8115 69.9064 32.2683C69.8356 32.4388 69.4635 32.9363 70.1531 32.6216C70.968 32.6195 70.8467 33.052 70.5373 33.5109C70.141 34.0976 69.5768 34.5098 68.958 34.8347C68.1087 35.2813 67.6496 36.0021 67.413 36.8995C67.4029 37.0944 67.3928 37.2914 67.3827 37.4863C66.4262 37.7462 65.9227 38.4588 65.5668 39.3177C65.5627 39.4598 65.5607 39.6019 65.5567 39.744C64.1452 40.4059 63.5305 41.9226 62.305 42.7835L62.303 42.7855Z" fill="white"/>
<path d="M17.1775 8.88266C16.4434 9.32528 16.0147 10.0684 15.4505 10.6734C15.1998 10.9414 15.038 11.2967 14.6113 11.3272C14.6619 7.90606 15.9439 4.94784 18.0672 2.28809C17.1775 4.41386 17.5455 6.69394 17.1775 8.88266Z" fill="white"/>
<path d="M58.0036 10.9273C57.314 10.7872 57.0046 10.2004 56.6103 9.72127C56.2706 9.30911 55.9713 8.86243 55.4374 8.67767C55.2837 6.54783 55.31 4.39566 54.6387 2.32471C56.5193 4.90325 57.9712 7.63813 58.0036 10.9273Z" fill="white"/>
<path d="M58.667 51.9103C58.4688 51.9123 58.2686 51.9306 58.0725 51.9123C57.9552 51.9022 57.753 51.8473 57.7449 51.7925C57.7166 51.5935 57.9188 51.5529 58.0583 51.4758C58.9764 51.1895 59.5749 50.7205 59.4718 49.5977C59.397 48.7876 59.668 47.9978 60.0886 47.2831C60.4222 47.1938 60.7559 47.1024 61.0895 47.0131C61.4637 47.6628 61.1846 48.3612 61.2351 49.0353C61.0552 49.1064 60.9905 49.2201 61.0997 49.3987L61.3888 49.2059C61.8297 48.7409 62.2725 48.278 62.7134 47.8151C63.1097 47.4171 63.506 47.0192 63.9004 46.6212L63.8802 46.6375C63.9489 46.5684 64.0177 46.4974 64.0864 46.4283L64.0925 46.4243C64.3351 45.9938 64.8387 45.7461 64.9378 45.2122C65.0368 45.1289 65.1521 45.0579 65.233 44.9604C65.3705 44.7939 65.4716 44.469 65.7325 44.6701C65.9933 44.8711 65.6597 45.0518 65.5909 45.2446C65.4696 45.5797 65.0935 45.7786 65.1056 46.1806C64.5535 46.542 64.3372 47.1816 63.9044 47.6425C63.4292 48.1683 62.956 48.6942 62.4808 49.2201C61.1704 50.0586 60.0805 51.2118 58.673 51.9123L58.667 51.9103Z" fill="white"/>
<path d="M61.211 8.37318C61.4961 9.97918 60.7783 11.4146 60.3637 12.8826C60.1797 13.5323 60.5113 14.2206 60.0806 14.8013C59.6822 14.6937 59.569 14.3323 59.389 14.0257C59.1443 13.6115 58.9745 13.1262 58.475 12.9232C58.3213 11.8187 58.6792 10.8644 59.2899 9.96294C59.7267 9.31932 60.0968 8.629 60.4972 7.95898C60.7358 8.09502 60.9744 8.23308 61.213 8.37115L61.211 8.37318Z" fill="white"/>
<path d="M11.3906 26.939C11.6454 25.3066 11.789 23.6498 12.3916 22.0885C12.5453 21.9098 12.7778 21.7535 12.5473 21.4774H12.5251C13.2915 21.5342 13.3784 20.6409 13.9628 20.4419C14.3612 21.3738 13.888 22.4357 14.3956 23.3494C13.8496 24.929 13.0751 26.3157 11.3926 26.937L11.3906 26.939Z" fill="white"/>
<path d="M22.2962 5.45789C21.4125 5.72995 20.8685 6.48727 20.1365 6.97659C19.7826 7.21211 19.5137 7.58163 19.0648 7.66691C19.0142 6.2213 19.819 5.16958 20.8524 4.39601C22.5105 3.1575 24.4235 2.24587 25.6207 0.428711C24.9897 2.43673 23.6268 3.93715 22.2962 5.45789Z" fill="white"/>
<path d="M12.5915 14.5737C12.3104 12.6185 11.3923 10.7932 11.4024 8.77705C11.7887 8.70396 11.908 8.3121 12.1911 8.11719C12.6319 8.80548 13.1011 9.47549 13.5055 10.1861C13.9868 11.0307 14.3144 11.9302 14.1465 12.9372C13.7057 13.0509 13.5682 13.4367 13.3761 13.7798C13.188 14.1148 13.0849 14.5412 12.5915 14.5757V14.5737Z" fill="white"/>
<path d="M26.5213 5.90656C26.0845 5.43552 25.8135 4.82032 25.2695 4.44268C27.0571 3.37065 29.0207 2.61739 30.7294 1.40527C30.873 1.62252 31.0166 1.83977 31.1601 2.05905C29.9974 3.80718 28.4767 5.12081 26.5213 5.90859V5.90656Z" fill="white"/>
<path d="M20.6602 11.5894C20.8644 10.8422 21.0686 10.0951 21.2709 9.3479C22.9331 9.29308 24.5063 8.81595 26.0735 8.31445C25.932 8.84031 25.7904 9.36617 25.6509 9.89203C24.2253 11.161 22.4579 11.4189 20.6602 11.5894Z" fill="white"/>
<path d="M60.2186 22.0882C60.8738 23.6394 60.9951 25.3002 61.2216 26.9408C60.0083 26.3357 58.975 25.5642 58.6211 24.1531C58.6878 22.9349 58.7525 21.7187 58.8193 20.5005C59.1833 20.5655 59.3046 20.866 59.4906 21.1319C59.612 21.3065 59.6767 21.7471 60.0892 21.4811L60.0669 21.4771C59.8425 21.7512 60.071 21.9096 60.2206 22.0882H60.2186Z" fill="white"/>
<path d="M47.351 4.4448C46.9304 4.93411 46.5118 5.42343 46.0912 5.91274C44.2874 5.09045 42.6979 4.00421 41.6484 2.26014C41.79 1.96777 42.0023 1.74849 42.2976 1.6084C43.8304 2.82661 45.7211 3.4012 47.351 4.4448Z" fill="white"/>
<path d="M51.5429 9.34796C51.6319 10.1743 52.2749 10.8565 52.1536 11.7357C51.6319 11.3986 51.005 11.488 50.4428 11.3986C49.3832 11.2301 48.4449 10.8585 47.5511 10.3063C47.4136 9.71952 47.2781 9.13072 47.1406 8.54395C48.5905 8.90738 50.0162 9.39872 51.5409 9.34796H51.5429Z" fill="white"/>
<path d="M10.1242 21.7062C9.53975 20.6565 9.50942 19.5135 9.52358 18.3521C9.53975 17.1055 9.52358 15.8588 9.51953 14.6122C9.66513 14.3949 9.8087 14.1777 9.9543 13.9604C10.6762 15.7147 11.2606 17.5034 11.3193 19.4261C10.5812 20.0068 10.5084 20.9388 10.1242 21.7062Z" fill="white"/>
<path d="M58.8201 20.4984C58.7534 21.7166 58.6887 22.9328 58.6219 24.151C57.8495 22.8658 57.2974 21.4425 56.0881 20.4375C55.5543 19.9949 54.9962 19.6071 54.4239 19.2254C54.4239 19.0426 54.4239 18.8619 54.4219 18.6792C56.1872 18.5553 57.5421 19.4304 58.8201 20.4964V20.4984Z" fill="white"/>
<path d="M58.6361 26.9039C59.3399 27.8703 60.1649 28.7617 60.4662 29.9697C60.1204 30.9362 59.7726 31.9026 59.4268 32.8691C58.3975 31.6305 58.0517 30.1301 57.7949 28.5952C58.074 28.0307 58.3551 27.4663 58.6361 26.9019V26.9039Z" fill="white"/>
<path d="M64.0954 39.7038C64.0388 39.9677 63.9882 40.2357 63.697 40.3555C62.413 40.319 61.7355 41.3464 60.8438 41.9981C60.9206 41.5717 60.9974 41.1433 61.0763 40.7169C61.6223 40.2703 61.9013 39.6774 61.8205 38.9911C61.778 38.6379 62.4595 38.1668 61.6809 37.9232C61.5636 37.641 61.3533 37.4826 61.0541 37.44C61.0318 37.3994 61.0399 37.3669 61.0743 37.3384C61.4039 37.4481 61.6728 37.3608 61.8852 37.0887C62.4008 37.1618 62.9225 37.2288 62.5525 37.9739C62.235 38.1506 62.2451 38.4247 62.3321 38.7313C62.5646 38.5891 62.6576 38.3719 62.6779 38.112C63.0924 37.8318 62.9387 37.2491 63.2967 36.9385C63.5575 36.9324 63.8163 36.9283 64.0772 36.9222C64.3765 37.2491 64.5747 36.9425 64.7162 36.7699C64.9548 36.4796 65.1732 36.1547 65.5858 36.3558C66.0468 36.5811 65.9801 36.9852 65.8062 37.3872C65.794 37.4156 65.8769 37.4846 65.9174 37.5354L65.9255 37.5151C63.8649 37.0806 63.2056 38.4125 62.6354 40.0835C63.327 39.5475 63.8143 39.4209 64.0974 39.7038H64.0954Z" fill="white"/>
<path d="M61.4454 18.415C61.6334 16.7217 62.1167 15.1136 62.8468 13.5767C62.9782 13.5929 63.1096 13.6091 63.2411 13.6274C62.867 16.1004 63.3503 18.616 62.8528 21.0808C62.8366 21.1641 62.7456 21.2351 62.689 21.3103C62.2745 20.3458 61.8579 19.3794 61.4434 18.415H61.4454Z" fill="white"/>
<path d="M53.5612 7.08153C52.362 6.66124 51.5794 5.63998 50.5582 4.96387C50.2246 4.74256 49.9495 4.43801 49.5087 4.45425C49.4521 4.3974 49.3955 4.34055 49.3368 4.2837C49.2802 4.19843 49.2256 4.11315 49.169 4.02991C48.2529 2.95383 47.3308 1.8818 47.0801 0.393555C48.0285 2.3366 50.0426 3.00255 51.5653 4.24513C52.5076 5.01463 53.2518 5.88565 53.5612 7.08356V7.08153Z" fill="white"/>
<path d="M12.3418 29.5658C12.724 28.4634 13.5126 27.6248 14.1779 26.7051C14.3943 27.4055 14.6107 28.104 14.8271 28.8045C14.5945 30.1851 14.1577 31.4886 13.3893 32.6682C13.0192 31.6409 12.5723 30.6399 12.3418 29.5658Z" fill="white"/>
<path d="M16.0363 15.8445C17.373 15.2354 18.7521 14.7136 20.0221 13.9624C20.0281 14.3867 20.0362 14.8111 20.0423 15.2354C19.1707 16.5673 17.8907 17.2719 16.3862 17.6312C16.1981 17.6759 16.0161 17.7449 15.8301 17.8038C15.8988 17.1521 15.9656 16.4983 16.0343 15.8466L16.0363 15.8445Z" fill="white"/>
<path d="M62.0918 33.8524C62.0979 31.7632 62.1019 29.6739 62.108 27.5847C62.5124 26.935 62.4861 26.0863 63.0564 25.5117C63.0746 26.6954 63.0908 27.8791 63.5134 29.008C63.4568 30.746 63.1413 32.4068 62.0938 33.8504L62.0918 33.8524Z" fill="white"/>
<path d="M14.3976 23.3515C13.89 22.4358 14.3632 21.3739 13.9648 20.444C15.2348 19.1812 16.7393 18.5457 18.6361 18.7913C16.8384 19.973 15.3136 21.3902 14.3976 23.3535V23.3515Z" fill="white"/>
<path d="M13.6046 41.3378C13.1921 40.3206 12.7816 39.3013 12.3711 38.2821C12.6461 36.9664 13.0971 35.7442 14.1668 34.8447C14.3083 34.995 14.4499 35.1452 14.5914 35.2955C14.2052 37.2994 14.1102 39.3501 13.6066 41.3358L13.6046 41.3378Z" fill="white"/>
<path d="M58.4656 34.8711C59.6041 35.7218 60.0025 36.9624 60.2573 38.28C59.8447 39.2404 59.4322 40.2008 59.0197 41.1591C58.5728 39.6587 58.5364 38.0851 58.2351 36.5603C58.1522 36.1462 58.1077 35.7218 58.043 35.3036C58.1845 35.1594 58.3241 35.0152 58.4656 34.8711Z" fill="white"/>
<path d="M56.6037 17.6746C55.0648 17.3781 53.7261 16.7426 52.7716 15.4371C52.713 14.9519 52.6543 14.4666 52.5957 13.9834C53.8737 14.5824 55.1517 15.1813 56.4297 15.7803C56.4864 16.4117 56.545 17.0452 56.6016 17.6766L56.6037 17.6746Z" fill="white"/>
<path d="M12.3398 29.5659C12.5703 30.64 13.0172 31.6409 13.3873 32.6683C13.0071 33.5759 12.455 34.3982 12.087 35.3199C11.8524 35.9087 11.8484 36.5463 11.5673 37.1087C11.5006 36.5605 11.4359 36.0143 11.3691 35.4661C11.7978 35.0499 11.5633 34.522 11.5633 34.0571C11.5612 32.7962 11.6017 31.5496 11.9414 30.3253C12.0203 30.041 12.0911 29.7588 12.3398 29.5659Z" fill="white"/>
<path d="M10.5013 27.5797C10.5073 29.6689 10.5154 31.7602 10.5215 33.8494C9.82991 32.7409 9.3183 31.5734 9.32032 30.2354C9.33246 30.0628 9.30617 29.9085 9.14844 29.805C9.14844 29.6669 9.14844 29.5268 9.14844 29.3888C9.63983 29.2466 9.53669 28.8243 9.55692 28.4771C9.59736 27.7442 9.63983 27.0133 9.95124 26.3311C10.4386 26.6133 10.1979 27.2163 10.5033 27.5797H10.5013Z" fill="white"/>
<path d="M59.4297 32.871C59.7755 31.9046 60.1233 30.9381 60.4691 29.9717C61.0009 30.928 61.0131 31.9756 61.0596 33.0334C61.0919 33.7766 60.7785 34.5562 61.2416 35.2648C61.3831 35.8374 61.0211 36.349 61.0434 36.9053C60.7239 35.4719 59.9656 34.2151 59.4297 32.871Z" fill="white"/>
<path d="M15.7735 46C15.2639 45.9654 15.1001 45.5249 14.8392 45.198C14.6107 44.9117 14.3741 44.6356 13.9838 44.5726C13.9616 43.263 14.1962 42.0225 14.9707 40.9302C15.1264 41.186 15.276 41.4499 15.5672 41.5819C15.6178 43.056 15.5672 44.534 15.7714 46.002L15.7735 46Z" fill="white"/>
<path d="M58.6532 44.3796C57.8929 44.8364 57.7615 45.9206 56.8353 46.2089C56.7625 45.2059 56.9668 44.2334 57.1872 43.271C57.3348 42.6213 56.9384 42.0366 57.0578 41.4051C57.3045 41.33 57.5512 41.2549 57.7958 41.1777C58.4187 42.1543 58.6088 43.2467 58.6553 44.3796H58.6532Z" fill="white"/>
<path d="M65.099 46.1781C65.0868 45.7761 65.463 45.5772 65.5843 45.2422C65.6551 45.0472 65.9867 44.8686 65.7259 44.6676C65.463 44.4666 65.3639 44.7914 65.2264 44.9579C65.1455 45.0554 65.0302 45.1264 64.9311 45.2097C64.5429 44.7366 64.6683 44.1864 64.7047 43.6504C65.3619 43.561 65.6713 43.0737 65.9564 42.558C66.1647 42.621 66.102 42.9418 66.1687 42.9438C66.3891 42.9539 66.4377 42.7205 66.4943 42.5499C66.6197 42.154 66.3082 41.685 66.6904 41.3276C66.9472 41.7012 67.3133 41.8271 67.7501 41.7946C67.5519 42.5844 66.6621 42.8869 66.4559 43.7153C66.3548 44.1194 66.4377 44.1661 66.739 44.2209C66.6803 44.7813 66.2354 45.2442 66.3244 45.8431C65.9564 46.103 65.5135 46.0908 65.099 46.1781Z" fill="white"/>
<path d="M61.445 18.415C61.8596 19.3795 62.2762 20.3459 62.6907 21.3103C62.5997 22.3458 61.8818 23.1397 61.621 24.1102C61.3803 23.2473 61.0992 22.3925 61.0527 21.487C61.079 20.4495 61.0952 19.4099 61.4471 18.415H61.445Z" fill="white"/>
<path d="M61.05 37.4395C61.3493 37.4821 61.5596 37.6405 61.6769 37.9227C61.4747 38.8546 61.2745 39.7845 61.0722 40.7164C60.9954 41.1428 60.9186 41.5712 60.8397 41.9976C60.7062 42.6696 60.1926 43.228 60.2492 43.9569C59.9762 44.2553 59.6951 44.1335 59.4141 43.9731C59.4363 43.7904 59.4565 43.6077 59.4788 43.4249C60.1461 42.0585 60.3888 40.5804 60.6334 39.1003C61.0015 38.6049 60.6638 37.9308 61.048 37.4395H61.05Z" fill="white"/>
<path d="M9.95042 26.3317C9.63901 27.0139 9.59654 27.7448 9.5561 28.4777C9.5379 28.8249 9.64103 29.2472 9.14762 29.3894C8.89283 27.4362 8.63601 25.481 8.19922 23.5298C8.99191 24.1003 9.43881 24.8617 9.7563 25.7144C9.80685 25.7997 9.8574 25.883 9.90796 25.9682C9.92211 26.0901 9.93425 26.2119 9.9484 26.3337L9.95042 26.3317Z" fill="white"/>
<path d="M10.1211 21.7064C10.5053 20.9389 10.5781 20.009 11.3162 19.4263C11.7752 20.0658 11.4537 20.7988 11.5609 21.481C11.4133 22.2911 11.2656 23.0992 11.116 23.9093C10.7419 23.1946 10.1898 22.5611 10.1211 21.7064Z" fill="white"/>
<path d="M12.5909 14.5736C13.0843 14.539 13.1875 14.1147 13.3755 13.7777C13.5676 13.4345 13.7072 13.0467 14.146 12.9351C14.3704 14.001 13.6081 14.9573 13.8022 16.0212C13.5879 16.4983 13.3715 16.9734 13.1571 17.4506C12.5019 16.5836 12.4797 15.5928 12.5889 14.5736H12.5909Z" fill="white"/>
<path d="M63.5136 29.0093C63.091 27.8784 63.0748 26.6947 63.0566 25.513C63.3054 24.6867 63.7786 24.0024 64.4398 23.3994C64.0839 25.2755 63.819 27.1454 63.5136 29.0113V29.0093Z" fill="white"/>
<path d="M56.6016 17.6747C56.545 17.0432 56.4863 16.4098 56.4297 15.7783C57.0242 15.8108 57.3983 16.4159 58.0151 16.3915C58.466 17.025 58.8907 17.6726 59.0585 18.4523C58.2395 18.1924 57.4206 17.9346 56.6016 17.6747Z" fill="white"/>
<path d="M60.6368 39.1005C60.3921 40.5786 60.1495 42.0588 59.4822 43.4252C59.4599 42.6435 58.8897 41.9755 59.0191 41.1613C59.4316 40.201 59.8441 39.2406 60.2567 38.2803C60.6692 38.4183 60.2607 38.9442 60.6389 39.1005H60.6368Z" fill="white"/>
<path d="M58.4738 12.9253C58.9753 13.1283 59.1432 13.6116 59.3878 14.0278C59.5678 14.3344 59.6811 14.6958 60.0794 14.8034C60.1522 15.7292 59.9156 16.5982 59.6062 17.457C59.2342 16.9657 58.945 16.4337 58.8075 15.8246C58.9207 14.8318 58.3282 13.9222 58.4718 12.9273L58.4738 12.9253Z" fill="white"/>
<path d="M70.1502 32.6232C69.4606 32.9379 69.8327 32.4384 69.9035 32.2699C70.0956 31.8111 70.2695 31.3827 69.6406 31.1248L69.6851 31.1207C70.2291 30.5705 70.3747 29.801 70.7609 29.1635C71.2402 28.9625 70.6841 28.3798 71.1249 28.1646C71.3979 28.2356 71.6729 28.3046 71.9459 28.3757C71.6547 29.0193 71.0966 29.4944 70.8559 30.1787C70.7366 30.5198 70.8175 30.5868 71.1168 30.5908C71.0622 31.0294 70.8115 31.4415 70.951 31.9045C70.8034 32.2801 70.3949 32.3633 70.1462 32.6252L70.1502 32.6232Z" fill="white"/>
<path d="M16.0368 15.8448C15.9681 16.4965 15.8993 17.1503 15.8326 17.8021C15.0844 18.0213 14.3362 18.2406 13.5859 18.4599C13.6405 17.7452 14.0975 17.2051 14.3908 16.596C15.0439 16.5757 15.3897 15.8753 16.0368 15.8428V15.8448Z" fill="white"/>
<path d="M14.7733 53.0879C15.3193 53.5305 15.9886 53.7031 16.6296 53.9386C16.0189 54.5335 15.2323 54.7386 14.4376 54.8807C14.1929 54.9254 13.7885 55.0594 13.653 54.6817C13.5438 54.3772 13.4993 54.0137 13.8249 53.764C14.1322 53.5285 14.3082 53.1041 14.7733 53.0879Z" fill="white"/>
<path d="M56 53.9451C56.6835 53.8151 57.2922 53.5227 57.8462 53.1045C57.913 53.1126 57.9918 53.0984 58.0444 53.1309C58.6147 53.4903 59.3245 54.0344 59.0575 54.6333C58.7643 55.2932 57.919 54.8526 57.3549 54.6861C56.8716 54.544 56.4489 54.1989 56 53.943V53.9451Z" fill="white"/>
<path d="M58.6362 26.9042C58.3551 27.4686 58.076 28.033 57.7949 28.5975C57.3945 27.1539 56.9941 25.7103 56.5938 24.2667C56.6362 24.2485 56.6767 24.2302 56.7191 24.2119C57.3581 25.1093 57.9971 26.0067 58.6362 26.9042Z" fill="white"/>
<path d="M5.45549 26.5935C5.10161 25.1864 3.79124 24.2261 3.64969 22.7195C3.58094 22.3825 3.51016 22.0475 3.44141 21.7105C3.7144 21.6333 3.98537 21.5562 4.25837 21.479C4.35341 22.1186 4.11075 22.7967 4.48081 23.4058C4.72347 23.8038 4.66482 23.1764 4.8266 23.3043C4.84682 24.0596 5.25732 24.6849 5.50605 25.3651C5.48987 25.7732 5.47369 26.1833 5.45752 26.5914L5.45549 26.5935Z" fill="white"/>
<path d="M14.8269 28.8047C14.6105 28.1042 14.3941 27.4058 14.1777 26.7053C14.7419 25.8729 15.3061 25.0405 15.8703 24.208C15.9128 24.2222 15.9532 24.2385 15.9957 24.2527C15.6054 25.7693 15.2171 27.286 14.8269 28.8027V28.8047Z" fill="white"/>
<path d="M10.7156 52.8839C11.3809 52.8717 12.0058 53.0341 12.5983 53.3265C12.0644 53.9112 11.3566 54.1427 10.6226 54.3477C10.3334 54.429 10.02 54.6381 9.81777 54.3254C9.64589 54.0594 9.83597 53.7853 9.99977 53.5052C10.1818 53.1925 10.4709 53.0808 10.7156 52.8818V52.8839Z" fill="white"/>
<path d="M8.71703 49.0997C8.00118 49.0652 7.3015 48.9433 6.6625 48.6104C6.48252 48.5149 6.14886 48.4824 6.17313 48.2144C6.1974 47.9606 6.41983 47.6845 6.66856 47.6703C7.15591 47.6419 7.59674 47.313 8.10229 47.4673C8.16093 47.5383 8.21957 47.6094 8.27822 47.6805C8.33484 48.182 8.85454 48.5393 8.71703 49.1017V49.0997Z" fill="white"/>
<path d="M66.3247 45.8433C66.2337 45.2444 66.6786 44.7815 66.7393 44.2211C66.7696 44.2048 66.7959 44.1845 66.8283 44.1723C67.4571 43.9206 68.3085 43.6668 68.6037 44.3043C68.8949 44.9297 67.9688 45.1144 67.5117 45.4088C67.1579 45.6383 66.7777 45.8535 66.3247 45.8433Z" fill="white"/>
<path d="M60.0195 53.3271C60.6343 53.1342 61.245 52.917 61.8981 52.8865C62.2439 52.8764 62.4643 53.1261 62.6039 53.3616C62.7758 53.654 63.0447 54.0316 62.7758 54.3626C62.5169 54.6793 62.1752 54.3971 61.8718 54.3098C61.1843 54.1129 60.5554 53.8124 60.0216 53.3271H60.0195Z" fill="white"/>
<path d="M47.1466 8.54157C47.2841 9.12834 47.4196 9.71714 47.5571 10.3039C46.0466 9.32934 45.1002 8.18422 44.9688 7.14062C45.6361 7.73958 46.3924 8.14159 47.1466 8.5436V8.54157Z" fill="white"/>
<path d="M64.7186 47.4678C65.3556 47.5957 66.3384 47.4069 66.393 48.2231C66.4253 48.7164 65.4425 48.7977 64.8743 48.9885C64.6054 49.0799 64.3546 49.0352 64.0938 49.0393C64.2252 48.5662 64.3546 48.0952 64.4861 47.6221L64.478 47.6322C64.5588 47.5774 64.6397 47.5226 64.7186 47.4678Z" fill="white"/>
<path d="M68.5627 25.1236C68.4171 25.2211 68.1199 25.5926 68.1664 25.1358C68.2149 24.6587 67.9298 24.3156 67.946 23.8892C68.4677 23.1501 68.31 22.2954 68.3565 21.4751C68.6295 21.5523 68.9004 21.6294 69.1734 21.7066C69.1087 22.0456 69.044 22.3847 68.9793 22.7238C68.9025 23.406 68.8256 24.0882 68.7488 24.7704C68.6881 24.8881 68.6254 25.0038 68.5648 25.1216L68.5627 25.1236Z" fill="white"/>
<path d="M62.6953 47.0224C62.6023 46.3889 62.7418 45.8001 62.9602 45.2052C63.1119 44.789 63.3828 44.791 63.7266 44.791C64.2382 44.791 64.0744 45.1646 64.0866 45.4245C64.1027 45.7554 64.0906 46.0884 64.0906 46.4194L64.0845 46.4234C64.0158 46.4924 63.947 46.5635 63.8783 46.6325L63.8985 46.6163C63.4293 46.5452 63.1402 47.0122 62.6953 47.0203V47.0224Z" fill="white"/>
<path d="M67.751 41.7948C67.3142 41.8272 66.9502 41.7014 66.6914 41.3278C66.8754 40.4811 67.4942 40.0182 68.1919 39.5269C68.481 40.4365 68.2829 41.1491 67.751 41.7948Z" fill="white"/>
<path d="M3.03271 31.6615C2.72332 31.2088 1.99736 31.227 1.83558 30.6057C1.86592 29.7489 1.15613 29.2677 0.816406 28.5998C1.08536 28.5165 1.35431 28.4333 1.62528 28.3521C1.74256 28.5409 1.52012 28.8576 1.85378 28.9652C2.25013 29.6393 2.64445 30.3113 3.0408 30.9854C3.03878 31.2108 3.03676 31.4362 3.03271 31.6615Z" fill="white"/>
<path d="M6.73601 43.1489C6.71579 42.4991 6.51762 41.5246 7.30425 41.488C7.95943 41.4555 7.66622 42.5276 7.89877 43.0758C8.03021 43.3864 7.90483 43.8047 7.89472 44.1762C7.50849 43.8351 7.12427 43.492 6.73804 43.1509L6.73601 43.1489Z" fill="white"/>
<path d="M48.7474 51.7433C50.0537 52.6021 50.0355 53.0041 48.6483 53.8792C48.5695 53.9279 48.4582 53.9279 48.3632 53.9503C48.349 53.3188 48.3349 52.6874 48.3187 52.056C48.3106 51.7433 48.4461 51.6316 48.7454 51.7412L48.7474 51.7433Z" fill="white"/>
<path d="M24.2591 53.9562C23.4988 53.7998 23.2622 53.0222 22.6758 52.6649C23.0297 52.135 23.6383 52.0375 24.0549 51.668C24.5483 52.3928 24.2025 53.1907 24.2571 53.9541L24.2591 53.9562Z" fill="white"/>
<path d="M8.11142 51.9182C8.17816 52.241 8.24287 52.5658 8.3096 52.8887C7.77372 53.2866 7.15898 53.0714 6.57659 53.11C6.34809 53.1262 6.19238 52.9678 6.13171 52.7831C6.05689 52.5516 6.25102 52.4014 6.42897 52.3262C6.96485 52.0989 7.49466 51.8207 8.11142 51.9202V51.9182Z" fill="white"/>
<path d="M5.059 42.1824C4.73949 41.752 4.49077 41.2911 4.41797 40.749C4.62019 40.4282 4.91947 40.282 5.28953 40.2617C5.79305 40.6191 5.92651 41.1754 6.06604 41.7276C5.73036 41.8799 5.39468 42.0302 5.059 42.1824Z" fill="white"/>
<path d="M25.6485 9.89172C25.7901 9.36586 25.9316 8.84 26.0711 8.31414C26.5585 7.82889 27.244 7.62179 27.7516 7.12842C27.2157 8.19029 26.7465 9.28059 25.6465 9.89172H25.6485Z" fill="white"/>
<path d="M63.307 51.7195C62.5406 51.6424 61.7742 51.5632 61.0078 51.486C61.5417 51.0333 62.1867 50.7937 62.8561 50.7287C63.1008 50.7043 63.4324 50.2841 63.6225 50.6983C63.7923 51.0678 63.762 51.4881 63.309 51.7195H63.307Z" fill="white"/>
<path d="M11.6074 51.4856C10.9077 51.5628 10.206 51.6419 9.50631 51.7191C8.90168 51.6541 8.8309 51.2379 8.96639 50.7811C9.13827 50.2024 9.50833 50.6491 9.76313 50.7039C10.4224 50.844 11.0775 51.0267 11.6074 51.4856Z" fill="white"/>
<path d="M64.4727 52.9411C64.5495 52.6 64.6263 52.2589 64.7032 51.9178C64.7355 51.9138 64.776 51.8975 64.8023 51.9097C65.328 52.1879 66.5029 51.8102 66.2967 52.73C66.1126 53.5523 65.1299 53.0853 64.4747 52.9411H64.4727Z" fill="white"/>
<path d="M64.4866 47.6216C64.3552 48.0947 64.2257 48.5657 64.0943 49.0388C63.5948 49.4631 63.0205 49.2012 62.4766 49.2174C62.9518 48.6916 63.425 48.1657 63.9002 47.6399C64.0963 47.6338 64.2905 47.6277 64.4866 47.6216Z" fill="white"/>
<path d="M4.25899 21.4797C3.986 21.5569 3.71503 21.634 3.44203 21.7112C3.06591 21.4249 3.38744 20.9559 3.13669 20.5965C2.96884 20.3529 3.23375 19.9691 3.4845 19.9306C3.69278 19.9001 4.10531 20.0097 4.077 20.4219C4.05071 20.7955 4.40661 21.0919 4.25899 21.4797Z" fill="white"/>
<path d="M69.1724 21.7087C68.8994 21.6315 68.6285 21.5544 68.3555 21.4772C68.4121 21.1564 68.5233 20.8356 68.5152 20.5169C68.5031 20.0438 68.8853 19.8814 69.136 19.926C69.4515 19.9809 69.6719 20.4661 69.5122 20.7037C69.2917 21.0326 69.502 21.459 69.1724 21.7107V21.7087Z" fill="white"/>
<path d="M7.06532 39.326C7.19474 39.5249 7.32618 39.7239 7.4556 39.9229C7.17654 40.0914 6.94804 39.5331 6.64269 39.8823C6.32521 40.2457 6.02188 40.1544 5.7044 39.8295C5.43545 39.5534 5.57902 39.3077 5.74484 39.1229C6.07244 38.7554 6.38992 38.9686 6.69729 39.2123C6.79233 39.2874 6.94197 39.2915 7.06532 39.326Z" fill="white"/>
<path d="M8.71811 49.0997C8.85764 48.5373 8.33592 48.18 8.2793 47.6785C8.30356 47.6541 8.32783 47.6318 8.3521 47.6074C8.46736 47.6196 8.58465 47.6298 8.69991 47.6419C9.36318 48.0439 9.59978 48.8947 10.3379 49.2195C9.86468 49.2276 9.38947 49.2358 8.91628 49.2439C8.84753 49.183 8.77675 49.1221 8.708 49.0612L8.71609 49.1038L8.71811 49.0997Z" fill="white"/>
<path d="M70.7642 29.1642C70.378 29.8017 70.2324 30.5712 69.6884 31.1214C69.4114 30.293 69.8684 29.5824 70.0665 28.8332C70.1171 28.6403 70.3436 28.5449 70.5579 28.5936C70.9037 28.6728 70.6975 28.9713 70.7642 29.1642Z" fill="white"/>
<path d="M63.7032 36.037C63.5677 36.0472 63.4342 36.0573 63.2987 36.0675C63.2138 35.7487 63.3998 35.3609 62.9267 35.1437C62.6173 35.0015 62.6213 34.6543 62.8903 34.3945C63.0439 34.2442 63.1774 33.9864 63.4605 34.1792C63.7072 34.3498 64.0227 34.565 63.8609 34.8858C63.6668 35.2716 63.7032 35.6472 63.7032 36.037Z" fill="white"/>
<path d="M8.15553 37.1187C8.1434 37.1897 8.13329 37.2628 8.12115 37.3339C7.64392 37.3928 7.16669 37.4537 6.68945 37.5126L6.69552 37.5329C6.92605 37.4171 6.76023 37.2507 6.74607 37.1085C6.71372 36.7938 6.70765 36.4629 7.06558 36.3492C7.40126 36.2436 7.7329 36.2862 7.90276 36.6862C7.96747 36.8385 8.07262 36.9745 8.15755 37.1166L8.15553 37.1187Z" fill="white"/>
<path d="M1.62278 28.3518C1.35383 28.435 1.08488 28.5183 0.813911 28.5995C0.621804 28.1224 0.29219 27.698 0.257812 27.16C0.52474 27.0767 0.791667 26.9914 1.05859 26.9082C1.42259 27.3183 1.35383 27.901 1.62278 28.3498V28.3518Z" fill="white"/>
<path d="M65.5547 39.7458C65.5567 39.6037 65.5608 39.4616 65.5648 39.3195C65.8196 39.3296 65.9692 39.1266 66.1694 39.0311C66.4262 38.9073 66.7114 38.8383 66.9399 39.1855C67.1178 39.4555 67.0936 39.6423 66.9338 39.8961C66.7134 40.2473 66.4182 40.16 66.1634 40.026C65.9632 39.9204 65.8095 39.7296 65.5547 39.7458Z" fill="white"/>
<path d="M66.4282 32.2077C66.2745 32.023 66.3958 31.8179 66.3837 31.623C66.596 31.3773 66.873 31.1966 67.0186 30.8779C67.1258 30.6464 67.3766 30.5814 67.6172 30.685C67.8053 30.7662 67.9468 30.9164 67.9327 31.1459C67.9165 31.4159 67.7406 31.623 67.4999 31.5946C66.9661 31.5296 66.774 31.9885 66.4282 32.2077Z" fill="white"/>
<path d="M42.3007 1.60748C42.0054 1.74555 41.7931 1.96685 41.6515 2.25922C40.9923 1.76788 40.9074 1.00853 40.7598 0.245117C41.3644 0.604489 41.6819 1.28669 42.3007 1.60748Z" fill="white"/>
<path d="M52.5964 13.9828C52.655 14.4681 52.7137 14.9533 52.7723 15.4366C52.012 14.8803 51.7268 14.062 51.5469 13.1869C51.5974 13.1362 51.648 13.0854 51.6965 13.0347C51.9958 13.3514 52.2971 13.6661 52.5964 13.9828Z" fill="white"/>
<path d="M3.04053 30.9847C2.64419 30.3106 2.24986 29.6386 1.85352 28.9645C2.15078 28.2356 2.44804 28.5584 2.66036 28.997C2.95965 29.6183 3.14569 30.2782 3.04053 30.9827V30.9847Z" fill="white"/>
<path d="M9.95546 13.9623C9.80987 14.1796 9.66629 14.3968 9.5207 14.614C9.32252 13.7836 9.12233 12.9512 8.85742 11.8467C9.56316 12.5918 9.6946 13.3106 9.95546 13.9623Z" fill="white"/>
<path d="M67.3809 37.4888C67.391 37.2939 67.4011 37.0969 67.4112 36.902C67.7246 36.902 67.9754 36.768 68.2302 36.5833C68.4506 36.4229 68.6872 36.5386 68.849 36.7396C68.9582 36.8777 68.9865 37.0523 68.8975 37.2127C68.7701 37.4441 68.5375 37.5944 68.3111 37.4583C67.9713 37.2533 67.6862 37.3101 67.3809 37.4888Z" fill="white"/>
<path d="M20.0437 15.236C20.0376 14.8116 20.0295 14.3873 20.0234 13.9629C20.3227 13.6502 20.622 13.3376 20.9193 13.0249C20.9698 13.0818 21.0204 13.1366 21.0689 13.1934C20.9395 13.9832 20.618 14.6735 20.0437 15.236Z" fill="white"/>
<path d="M65.9583 42.5584C65.6731 43.0741 65.3638 43.5634 64.7065 43.6507C64.5589 43.2406 64.9047 42.9218 64.9128 42.5401C65.1757 42.2579 65.4386 41.9757 65.7015 41.6914C66.0695 41.8965 65.8268 42.2822 65.9583 42.5563V42.5584Z" fill="white"/>
<path d="M58.0082 51.0975C57.5613 51.2782 57.1306 51.5157 56.6271 51.5036C56.6271 51.3675 56.6251 51.2335 56.623 51.0995L56.6271 51.0955C56.7646 50.8904 56.9001 50.6874 57.0376 50.4823C57.3571 50.3544 57.6786 50.2265 57.9981 50.1006C58.0022 50.4336 58.0042 50.7665 58.0082 51.0975Z" fill="white"/>
<path d="M12.1926 8.11752C11.9095 8.31243 11.7902 8.70632 11.404 8.77738C11.2442 7.96931 11.4788 7.28305 12.1097 6.49121C12.1441 7.16935 12.1684 7.64242 12.1926 8.11752Z" fill="white"/>
<path d="M61.2128 8.37326C60.9742 8.2352 60.7355 8.09916 60.4969 7.9611C60.4019 7.38448 60.5232 6.78553 60.3008 6.21094C60.9256 6.80177 61.3907 7.45148 61.2128 8.37326Z" fill="white"/>
<path d="M6.10985 31.5856C6.02896 31.6688 5.94605 31.7541 5.86516 31.8374C5.67103 31.7095 5.4769 31.61 5.22413 31.61C4.91474 31.61 4.73477 31.4191 4.72668 31.0983C4.72263 30.9115 4.82576 30.7735 4.98349 30.6983C5.28075 30.5542 5.49308 30.6943 5.66295 30.9379C5.81259 31.1531 5.96223 31.3704 6.11187 31.5856H6.10985Z" fill="white"/>
<path d="M7.87795 32.8224C7.61304 32.197 7.77279 31.7686 7.74853 31.3524C7.73639 31.1554 7.85772 31.056 8.05388 31.0417C8.26216 31.0275 8.4482 31.0478 8.5938 31.2285C8.72928 31.395 8.69693 31.5757 8.55942 31.6671C8.20554 31.9006 8.18127 32.329 7.87795 32.8224Z" fill="white"/>
<path d="M5.50562 25.3653C5.2569 24.6851 4.84639 24.0598 4.82617 23.3045C5.12343 23.0141 5.35598 22.9451 5.49349 23.4527C5.66335 24.0801 5.76446 24.7095 5.6674 25.3612L5.69975 25.3247C5.63302 25.3247 5.56831 25.3409 5.50562 25.3673V25.3653Z" fill="white"/>
<path d="M5.21491 36.8977C5.16638 37.0398 5.11582 37.182 5.06729 37.3261C4.8489 37.3809 4.63455 37.4479 4.41413 37.4885C4.12698 37.5434 3.88027 37.4642 3.75288 37.184C3.66592 36.9891 3.70839 36.7942 3.87825 36.648C4.08451 36.4693 4.31707 36.4652 4.49906 36.65C4.70735 36.8612 4.94798 36.8977 5.21491 36.8977Z" fill="white"/>
<path d="M10.7165 38.5462C10.6032 38.5462 10.4879 38.5462 10.3747 38.5462C10.3059 38.3188 10.3808 37.9371 9.92578 38.128V38.1523C10.0734 37.6468 9.88332 36.7453 10.9288 37.2854C10.9288 37.5656 10.9328 37.8457 10.9348 38.1259C10.6881 38.1747 10.7791 38.4 10.7165 38.5462Z" fill="white"/>
<path d="M64.6887 32.6907C64.4157 32.376 64.4743 31.9395 64.1346 31.7243C63.9 31.5761 64.0658 31.369 64.1407 31.1943C64.2276 30.9913 64.4197 31.0502 64.5754 31.0421C64.8464 31.0279 64.9475 31.2207 64.9071 31.4339C64.8343 31.8298 65.0729 32.2887 64.6867 32.6907H64.6887Z" fill="white"/>
<path d="M68.7461 24.7721C68.8229 24.0899 68.8998 23.4077 68.9766 22.7256C69.5206 22.6423 69.7895 22.7885 69.557 23.3915C69.3608 23.8971 69.2132 24.429 68.7461 24.7721Z" fill="white"/>
<path d="M15.5692 41.582C15.278 41.45 15.1284 41.186 14.9727 40.9302C15.1102 40.3983 15.3468 39.9272 15.8725 39.4014C15.7532 40.2561 15.6622 40.9201 15.5692 41.582Z" fill="white"/>
<path d="M31.1612 2.05674C31.0176 1.8395 30.874 1.62022 30.7305 1.40297C31.0823 0.998932 31.4322 0.592862 31.9478 0C31.8224 0.92787 31.6121 1.539 31.1612 2.05674Z" fill="white"/>
<path d="M5.05859 42.1823C5.39428 42.0321 5.72996 41.8798 6.06564 41.7275C6.3083 42.0585 6.34268 42.428 6.26179 42.8178C6.1445 42.8808 6.02722 42.9437 5.90993 43.0067C5.62683 42.7326 5.34372 42.4585 5.05859 42.1823Z" fill="white"/>
<path d="M57.7962 41.1778C57.5494 41.2529 57.3027 41.3281 57.0581 41.4052C57.1025 40.8184 56.684 40.2784 56.9044 39.5454C57.2704 40.1302 57.7173 40.5423 57.7962 41.1778Z" fill="white"/>
<path d="M6.73631 43.1489C7.12254 43.49 7.50676 43.8332 7.89299 44.1743C7.9213 44.4098 8.0123 44.6615 7.72515 44.8158C7.37734 44.4057 7.02952 43.9956 6.67969 43.5854C6.69789 43.4413 6.71609 43.2951 6.73429 43.1489H6.73631Z" fill="white"/>
<path d="M4.62818 44.004C4.703 44.4121 4.7758 44.8202 4.85062 45.2283C4.41181 45.1186 3.97704 44.8933 3.92447 44.4486C3.88604 44.1299 4.28239 43.9877 4.62818 44.0019V44.004Z" fill="white"/>
<path d="M71.9487 28.3742C71.6758 28.3032 71.4007 28.2341 71.1277 28.1631C71.0671 27.5885 71.609 27.2149 71.876 27.3002C72.1914 27.4017 72.3188 27.9763 71.9467 28.3742H71.9487Z" fill="white"/>
<path d="M1.06011 26.9101C0.793182 26.9933 0.526255 27.0786 0.259327 27.1619C0.0490211 26.8492 -0.175441 26.3903 0.208773 26.2238C0.653652 26.031 0.983267 26.4127 1.06011 26.9101Z" fill="white"/>
<path d="M5.29035 40.2636C4.92029 40.2839 4.62101 40.4301 4.41879 40.7509C4.11951 40.3672 4.29543 39.9773 4.36419 39.4434C4.71605 39.7865 5.22564 39.7317 5.28832 40.2636H5.29035Z" fill="white"/>
<path d="M70.9566 31.9029C70.815 31.44 71.0678 31.0258 71.1224 30.5892C71.2842 30.3659 71.5248 30.3111 71.7007 30.4877C71.8686 30.6542 71.8342 30.9628 71.7088 31.1354C71.5005 31.4237 71.2114 31.6511 70.9566 31.9049V31.9029Z" fill="white"/>
<path d="M62.6953 47.0232C63.1382 47.0151 63.4294 46.5481 63.8985 46.6192C63.5022 47.0171 63.1058 47.4151 62.7115 47.813C62.7074 47.5491 62.7014 47.2872 62.6973 47.0232H62.6953Z" fill="white"/>
<path d="M14.5868 35.2975C14.4452 35.1473 14.3037 34.997 14.1621 34.8468C14.3785 34.4692 14.6859 34.2316 15.2056 34.1504C15.0094 34.5991 14.9103 35.0052 14.5868 35.2975Z" fill="white"/>
<path d="M54.4213 18.6796C54.4213 18.8624 54.4213 19.0431 54.4233 19.2258C54.0128 19.0593 53.6043 18.8908 53.0664 18.6715C53.6245 18.3101 54.0229 18.4238 54.4213 18.6796Z" fill="white"/>
<path d="M65.7028 41.6933C65.4399 41.9755 65.177 42.2597 64.9141 42.5419C64.811 42.0932 64.9061 41.677 65.266 41.409C65.4338 41.2831 65.5997 41.5247 65.7028 41.6933Z" fill="white"/>
<path d="M58.4658 34.8713C58.3242 35.0154 58.1847 35.1596 58.0431 35.3037C57.8369 34.9281 57.6306 34.5545 57.3516 34.0449C57.9926 34.1749 58.2171 34.5383 58.4658 34.8713Z" fill="white"/>
<path d="M61.0873 47.0126C60.7536 47.1019 60.4199 47.1933 60.0863 47.2826C60.0458 46.8948 60.149 46.5334 60.5494 46.4563C60.8911 46.3893 61.067 46.6694 61.0873 47.0126Z" fill="white"/>
<path d="M63.2381 13.6277C63.1066 13.6114 62.9752 13.5952 62.8438 13.5769C62.9529 13.0186 63.2967 12.58 63.6708 11.8755C63.5798 12.645 63.501 13.1566 63.2381 13.6277Z" fill="white"/>
<path d="M12.5526 6.34908C12.4596 6.42014 12.3908 6.51354 12.3181 6.5176C12.1199 6.52775 12.1846 6.35111 12.2008 6.26178C12.2109 6.20493 12.3383 6.12777 12.3989 6.13995C12.4556 6.15011 12.494 6.26584 12.5506 6.35111L12.5526 6.34908Z" fill="white"/>
<path d="M9.14865 29.8057C9.30435 29.9092 9.33266 30.0655 9.32053 30.2361C9.11427 30.1529 9.13045 29.9782 9.14865 29.8057Z" fill="white"/>
<path d="M20.9199 13.0222C21.0109 12.9654 21.0675 12.7542 21.199 12.8943C21.2981 12.9999 21.2131 13.1339 21.0696 13.1908C21.019 13.1339 20.9685 13.0791 20.9199 13.0222Z" fill="white"/>
<path d="M51.544 13.1875C51.3984 13.1327 51.3135 12.9946 51.4166 12.8931C51.548 12.7632 51.6026 12.9743 51.6936 13.0332C51.6431 13.0839 51.5925 13.1347 51.544 13.1855V13.1875Z" fill="white"/>
<path d="M9.90752 25.9662C9.85697 25.8809 9.80641 25.7977 9.75586 25.7124C9.87719 25.755 9.95201 25.8241 9.90752 25.9662Z" fill="white"/>
<path d="M49.1685 4.02832C49.2252 4.11359 49.2798 4.19684 49.3364 4.28211C49.211 4.24354 49.1281 4.17654 49.1685 4.02832Z" fill="white"/>
<path d="M64.7172 47.4673C64.6363 47.5221 64.5554 47.577 64.4766 47.6318C64.5069 47.5018 64.5736 47.4288 64.7172 47.4673Z" fill="white"/>
<path d="M8.27944 47.6785C8.2208 47.6074 8.16216 47.5363 8.10352 47.4653C8.19047 47.445 8.27742 47.4226 8.36438 47.4023H8.33C8.33809 47.4714 8.34618 47.5404 8.35427 47.6094C8.33 47.6338 8.30573 47.6582 8.28147 47.6805L8.27944 47.6785Z" fill="white"/>
<path d="M4.86719 45.2461C4.92785 45.2948 4.9865 45.3456 5.04716 45.3943C4.92381 45.4207 4.88336 45.3496 4.86719 45.2461Z" fill="white"/>
<path d="M15.7647 50.6653C15.8395 50.8846 15.9123 51.1039 15.9871 51.3231C15.4532 51.4307 15.0084 51.2318 14.6039 50.9089C14.6343 50.5617 14.428 50.176 14.7617 49.8755C15.0427 50.0196 15.3238 50.1638 15.6049 50.308C15.5928 50.4704 15.5867 50.6308 15.7869 50.6917L15.7687 50.6653H15.7647Z" fill="white"/>
<path d="M11.7682 41.994C10.8117 41.462 10.1262 40.457 8.92504 40.3535C8.67429 40.2276 8.49836 40.0509 8.51252 39.7444C8.93313 39.2347 9.28701 39.0073 9.61258 39.8581C9.73391 40.1789 10.0716 40.3616 10.1242 39.7484C10.3284 39.5576 10.5327 39.3667 10.7349 39.1738C10.7349 39.8276 11.016 40.3352 11.5397 40.7149C11.6166 41.1412 11.6914 41.5656 11.7682 41.992V41.994Z" fill="white"/>
<path d="M13.1424 49.6399C13.191 49.9993 13.47 50.316 13.3386 50.7099C12.5742 50.5211 12.1394 49.8633 11.5449 49.4328C11.5611 49.2948 11.5753 49.1547 11.5914 49.0166C12.1091 49.2237 12.6248 49.4328 13.1424 49.6399Z" fill="white"/>
<path d="M36.7801 58.3846C37.0531 58.3582 37.2291 58.4252 37.221 58.7561C37.2129 59.1013 37.1138 59.351 36.7336 59.3896C36.3555 59.4282 36.4081 59.148 36.406 58.9206C36.404 58.6567 36.3454 58.344 36.7801 58.3846Z" fill="white"/>
<path d="M26.352 58.1288C26.5299 58.3623 26.8494 58.4922 26.898 58.8171C26.9384 59.0851 26.9404 59.3612 26.6593 59.5277C26.3176 59.7287 26.1053 59.5074 25.8929 59.2861C25.624 59.0079 25.8626 58.7237 26.0244 58.6546C26.3095 58.5328 26.2873 58.3074 26.3762 58.1064L26.354 58.1308L26.352 58.1288Z" fill="white"/>
<path d="M13.1443 49.6401C12.6266 49.433 12.111 49.2259 11.5933 49.0168C11.1201 48.294 11.3142 47.5509 11.5933 46.8464C11.7955 46.3388 12.1292 46.2941 12.4143 46.8281C12.8834 47.7052 13.213 48.6209 13.1423 49.6401H13.1443Z" fill="white"/>
</svg>
