<svg width="240" height="84" viewBox="0 0 240 84" fill="none" xmlns="http://www.w3.org/2000/svg">
<g clip-path="url(#clip0_816_4055)">
<path d="M69.7854 21.1818C63.3238 21.1818 56.8583 21.0188 50.4044 21.2245C43.8302 21.4341 37.2599 21.535 30.6819 21.5893C26.6613 21.6242 23.5527 26.6073 25.1633 30.329C25.8968 32.0249 27.5578 32.184 29.1024 32.2112C32.9755 32.2811 36.8524 32.2384 40.7294 32.2384C47.9633 32.2384 55.2011 32.2267 62.4351 32.2384C65.2797 32.2423 68.1011 32.5217 70.8138 33.4104C77.4579 35.5798 81.3387 40.1437 82.3322 47.0633C83.6284 56.1173 81.8588 64.5349 76.6041 72.0599C71.687 79.1036 64.6666 83.1009 56.249 83.4735C44.7966 83.978 33.3092 83.5899 21.8335 83.6015C19.016 83.6015 16.2296 84.3079 13.3771 83.6248C11.068 83.0737 9.58554 81.7853 9.66316 79.4296C9.79899 75.3974 10.6993 71.4933 12.6398 67.9384C14.6229 64.3059 18.1661 63.1106 21.9732 62.5052C25.3651 61.9658 28.7919 62.1714 32.2071 62.0783C38.5755 61.9114 44.944 61.6514 51.3203 61.6786C55.5621 61.698 56.9242 57.4213 56.6798 54.5766C56.509 52.5896 54.7354 52.2132 53.0201 52.2054C47.6568 52.186 42.2973 52.1938 36.9339 52.1938C30.7983 52.1938 24.6588 52.186 18.5232 52.1938C13.4198 52.1976 8.80937 50.6763 5.05658 47.2379C1.84323 44.2884 0.166698 40.3144 0.0308675 36.03C-0.264078 26.8207 1.51336 18.0694 7.14836 10.4629C11.4057 4.71922 17.2308 1.58737 24.2009 0.477441C28.2952 -0.174543 32.3972 0.0893553 36.5303 0.333849C40.6984 0.582224 44.913 0.795671 49.0888 0.124283C49.7214 0.0233807 50.3772 0.0621892 51.0215 0.0583084C71.5667 0.0544275 92.1081 0.0505467 112.653 0.0466658C112.975 0.0466658 113.301 0.0233807 113.624 0.0583084C114.113 0.10876 114.772 -0.100807 114.982 0.512369C115.18 1.08674 114.613 1.42825 114.264 1.77753C109.657 6.39963 105.059 11.0295 100.417 15.6128C98.7211 17.2854 96.8932 18.8261 95.1817 20.4833C94.4327 21.209 93.5634 21.1818 92.6592 21.1818C85.0372 21.1818 77.4113 21.1818 69.7893 21.1818H69.7854Z" fill="#294679"/>
<path d="M140.816 0.0505571C146.242 0.0505571 151.663 0.0389145 157.089 0.0621997C157.62 0.0621997 158.393 -0.232745 158.61 0.485213C158.765 0.997486 158.125 1.33124 157.779 1.69992C150.712 9.3064 143.447 16.7227 136.167 24.1235C130.652 29.7275 125.308 35.4983 119.84 41.1488C118.975 42.0414 119.021 42.6119 119.743 43.5899C129.065 56.2221 138.34 68.8892 147.6 81.568C147.945 82.0414 148.636 82.5653 148.264 83.2484C147.949 83.8227 147.212 83.6054 146.657 83.6054C135.938 83.6171 125.219 83.5977 114.5 83.6287C113.274 83.6287 112.439 83.1669 111.706 82.2394C103.933 72.3975 96.2018 62.5207 88.3082 52.7759C86.6084 50.6763 86.8567 48.3129 86.4725 46.0348C86.0767 43.7102 85.5334 41.4748 84.2643 39.4995C83.6473 38.5448 83.9538 38.0092 84.6136 37.3495C91.1334 30.8296 97.7891 24.4495 104.546 18.1742C104.973 17.7783 105.372 17.3592 105.791 16.9517C111.194 11.6815 116.607 6.42293 121.982 1.12167C122.786 0.329979 123.639 0.027272 124.742 0.0350337C130.101 0.0699614 135.461 0.0505571 140.82 0.0466762L140.816 0.0505571Z" fill="#294679"/>
<path d="M175.984 0.0465992C180.183 0.0465992 184.386 0.128097 188.582 0.00390978C190.351 -0.0504222 191.135 0.648132 191.551 2.25869C193.747 10.7966 195.986 19.3228 198.222 27.8529C199.673 33.3948 201.144 38.9289 202.592 44.4708C202.751 45.0878 202.898 45.7359 202.883 46.3646C202.634 55.8533 203.566 65.3304 203.263 74.8152C203.193 77.0273 203.628 79.1734 203.702 81.3661C203.756 82.9883 203.306 83.7839 201.536 83.6325C194.795 83.0581 188.007 83.5122 181.266 82.8486C180.339 82.7593 179.989 82.4139 179.745 81.498C179.136 79.22 179.349 76.8837 179.12 74.5862C178.499 68.3186 178.325 62.0045 177.832 55.7214C177.548 52.1316 177.397 48.5263 177.009 44.952C176.698 42.0724 175.189 39.4722 174.195 36.7556C169.923 25.0859 165.58 13.4433 161.206 1.80851C160.601 0.201833 161.361 0.0349566 162.611 0.0388375C167.07 0.0504801 171.525 0.0427184 175.984 0.0388375V0.0465992Z" fill="#294679"/>
<path d="M226.223 21.9773C219.978 22.1559 213.738 22.4818 207.482 22.3965C205.751 22.3732 205.394 21.9424 205.937 20.2775C207.773 14.6542 209.515 8.99975 211.204 3.32981C211.658 1.79687 212.376 1.15265 214.048 1.17206C222.051 1.24967 230.053 1.19922 238.055 1.21086C240.182 1.21086 240.314 1.40879 239.635 3.454C237.788 9.01139 235.874 14.5455 234.093 20.1223C233.639 21.5466 232.905 22.0821 231.45 22.0006C229.711 21.9036 227.965 21.9773 226.223 21.9773Z" fill="#294679"/>
</g>
<defs>
<clipPath id="clip0_816_4055">
<rect width="240" height="83.9235" fill="white"/>
</clipPath>
</defs>
</svg>
