<svg width="240" height="110" viewBox="0 0 240 110" fill="none" xmlns="http://www.w3.org/2000/svg">
<path d="M186.545 108.18L186.527 89.4327L173.039 108.18H164.324L186.514 78.9094H192.801L193.315 108.18H186.545Z" fill="white"/>
<path d="M204.109 108.18H198.324V78.9094H204.109V108.18Z" fill="white"/>
<path d="M217.534 96.4716H214.717V108.18H208.932V78.9094H228.218C234.647 78.9094 237.862 81.8386 237.862 87.6927C237.862 93.5467 234.647 96.4759 228.218 96.4759H226.425L240.001 108.184H231.109L217.534 96.4759V96.4716ZM227.255 90.6175C230.469 90.6175 232.077 89.6426 232.077 87.6883C232.077 85.734 230.469 84.7635 227.255 84.7635H214.721V90.6175H227.255Z" fill="white"/>
<path d="M104.202 100.038C98.6 100.038 95.7988 97.9968 95.7988 93.9136C95.7988 89.8304 98.6 87.7888 104.202 87.7888H121.009V91.872H105.041C102.24 91.872 100.837 92.5514 100.837 93.9136C100.837 95.2759 102.24 95.9552 105.041 95.9552H112.606C118.208 95.9552 121.009 97.9968 121.009 102.08C121.009 106.163 118.208 108.205 112.606 108.205H95.7988V104.122H111.767C114.568 104.122 115.966 103.442 115.966 102.08C115.966 100.718 114.568 100.038 111.767 100.038H104.202Z" fill="white"/>
<path d="M128.876 98.9889V108.201H124.035V87.7888H128.876V97.0012L141.009 87.7888H148.237L134.813 97.9968L148.237 108.205H141.009L128.876 98.9925V98.9889Z" fill="white"/>
<path d="M157.283 108.205H150.874L159.756 98.2359L149.244 87.7888H155.728L162.858 94.7991L169.988 87.7888H176.471L157.283 108.205Z" fill="white"/>
<path fill-rule="evenodd" clip-rule="evenodd" d="M12.5469 82.9448C28.481 98.7713 47.7117 104.45 69.7161 104.835C48.956 114.344 18.9024 112.7 12.5469 82.9448Z" fill="white"/>
<path fill-rule="evenodd" clip-rule="evenodd" d="M0.988963 27.5869C15.2381 69.2473 28.8391 84.5754 65.0797 99.8072C33.6478 104.852 -6.86144 59.2093 0.988963 27.5869Z" fill="white"/>
<path fill-rule="evenodd" clip-rule="evenodd" d="M45.4085 85.7865C21.6715 69.2867 -3.06783 25.8251 16.6165 0C14.5513 28.3215 28.822 64.2502 45.4042 85.7865H45.4085Z" fill="white"/>
<path fill-rule="evenodd" clip-rule="evenodd" d="M66.3898 94.4429C42.9337 82.8878 22.8173 56.6299 37.0232 30.8135C38.9329 56.4725 48.6713 77.4054 66.3898 94.4429Z" fill="white"/>
<path d="M92.2009 63.5332L86.2947 65.6755C86.2947 65.6755 82.8167 64.5606 79.7405 65.0153C76.6643 65.4744 65.4655 73.0203 60.8555 77.7814C60.8555 77.7814 66.7616 81.5894 67.7251 86.6827C72.2487 87.9418 75.4372 90.8623 77.8351 94.5916C79.0492 90.9104 80.2676 87.6139 82.2594 84.571C87.6514 76.3124 96.111 68.8364 100.928 67.0264C100.928 67.0264 96.6813 63.9354 92.1966 63.5419L92.2009 63.5332ZM81.7366 70.301C80.7817 70.524 79.7103 70.2048 79.7103 70.2048C79.7103 70.2048 81.6286 68.7708 82.2637 68.5303C82.8988 68.2899 84.3764 68.8233 84.3764 68.8233C84.3764 68.8233 82.6957 70.0736 81.7366 70.301Z" fill="white"/>
<path d="M98.8003 84.6168C99.8503 84.6168 100.563 84.4308 100.938 84.0588C101.313 83.6838 101.5 83.2308 101.5 82.6998C101.5 82.1838 101.34 81.8208 101.019 81.6108C100.701 81.3978 100.11 81.2028 99.2458 81.0258C98.7238 80.9178 98.3083 80.8158 97.9993 80.7198C97.6933 80.6208 97.5403 80.4303 97.5403 80.1483C97.5403 79.9383 97.6513 79.7763 97.8733 79.6623C98.0953 79.5453 98.3893 79.4868 98.7553 79.4868C99.1033 79.4868 99.3913 79.5558 99.6193 79.6938C99.8473 79.8288 99.9613 80.1498 99.9613 80.6568H101.491C101.491 79.9848 101.299 79.4508 100.915 79.0548C100.534 78.6558 99.8203 78.4563 98.7733 78.4563C97.7353 78.4563 97.0228 78.6393 96.6358 79.0053C96.2518 79.3713 96.0598 79.8108 96.0598 80.3238C96.0598 80.8428 96.2233 81.2163 96.5503 81.4443C96.8773 81.6723 97.4593 81.8763 98.2963 82.0563C98.8243 82.1613 99.2383 82.2633 99.5383 82.3623C99.8413 82.4613 99.9928 82.6443 99.9928 82.9113C99.9928 83.1393 99.8818 83.3088 99.6598 83.4198C99.4408 83.5308 99.1513 83.5863 98.7913 83.5863C98.4283 83.5863 98.1373 83.5173 97.9183 83.3793C97.6993 83.2383 97.5898 82.9083 97.5898 82.3893H96.0553C96.0553 83.1003 96.2443 83.6493 96.6223 84.0363C97.0003 84.4233 97.7263 84.6168 98.8003 84.6168ZM121.154 84.5808H122.688V82.0653H124.929V84.5808H126.459V78.5058H124.929V81.0213H122.688V78.5058H121.154V84.5808ZM149.036 84.6303C150.113 84.6303 150.864 84.3708 151.29 83.8518C151.719 83.3328 151.934 82.5633 151.934 81.5433C151.934 80.5263 151.719 79.7583 151.29 79.2393C150.864 78.7173 150.113 78.4563 149.036 78.4563C147.962 78.4563 147.21 78.7173 146.781 79.2393C146.352 79.7583 146.138 80.5263 146.138 81.5433C146.138 82.5633 146.352 83.3328 146.781 83.8518C147.21 84.3708 147.962 84.6303 149.036 84.6303ZM149.036 83.5908C148.622 83.5908 148.29 83.4738 148.041 83.2398C147.792 83.0028 147.668 82.4373 147.668 81.5433C147.668 80.6373 147.792 80.0703 148.041 79.8423C148.29 79.6113 148.622 79.4958 149.036 79.4958C149.45 79.4958 149.781 79.6113 150.03 79.8423C150.282 80.0703 150.408 80.6373 150.408 81.5433C150.408 82.4373 150.282 83.0028 150.03 83.2398C149.781 83.4738 149.45 83.5908 149.036 83.5908ZM171.487 84.5808H173.022V82.9608H174.763C175.522 82.9608 176.022 82.7463 176.262 82.3173C176.502 81.8883 176.622 81.3603 176.622 80.7333C176.622 80.1063 176.502 79.5783 176.262 79.1493C176.022 78.7203 175.522 78.5058 174.763 78.5058H171.487V84.5808ZM173.022 81.9213V79.5453H174.304C174.592 79.5453 174.796 79.6383 174.916 79.8243C175.039 80.0073 175.101 80.3103 175.101 80.7333C175.101 81.1593 175.039 81.4638 174.916 81.6468C174.796 81.8298 174.592 81.9213 174.304 81.9213H173.022Z" fill="white"/>
</svg>
