<svg width="240" height="110" viewBox="0 0 240 110" fill="none" xmlns="http://www.w3.org/2000/svg">
<path d="M186.545 108.18L186.527 89.4328L173.039 108.18H164.324L186.514 78.9095H192.801L193.315 108.18H186.545Z" fill="#279AD2"/>
<path d="M204.109 108.18H198.324V78.9095H204.109V108.18Z" fill="#279AD2"/>
<path d="M217.534 96.4716H214.717V108.18H208.932V78.9095H228.218C234.647 78.9095 237.862 81.8387 237.862 87.6927C237.862 93.5468 234.647 96.476 228.218 96.476H226.425L240.001 108.184H231.109L217.534 96.476V96.4716ZM227.255 90.6176C230.469 90.6176 232.077 89.6426 232.077 87.6884C232.077 85.7341 230.469 84.7635 227.255 84.7635H214.721V90.6176H227.255Z" fill="#279AD2"/>
<path d="M104.202 100.038C98.6 100.038 95.7988 97.9968 95.7988 93.9136C95.7988 89.8304 98.6 87.7888 104.202 87.7888H121.009V91.872H105.041C102.24 91.872 100.837 92.5514 100.837 93.9136C100.837 95.2759 102.24 95.9552 105.041 95.9552H112.606C118.208 95.9552 121.009 97.9968 121.009 102.08C121.009 106.163 118.208 108.205 112.606 108.205H95.7988V104.122H111.767C114.568 104.122 115.966 103.442 115.966 102.08C115.966 100.718 114.568 100.038 111.767 100.038H104.202Z" fill="#279AD2"/>
<path d="M128.876 98.9889V108.201H124.035V87.7888H128.876V97.0012L141.009 87.7888H148.237L134.813 97.9968L148.237 108.205H141.009L128.876 98.9925V98.9889Z" fill="#279AD2"/>
<path d="M157.283 108.205H150.874L159.756 98.2359L149.244 87.7888H155.728L162.858 94.7991L169.988 87.7888H176.471L157.283 108.205Z" fill="#279AD2"/>
<path fill-rule="evenodd" clip-rule="evenodd" d="M12.5469 82.9448C28.481 98.7712 47.7117 104.45 69.7161 104.835C48.956 114.344 18.9024 112.7 12.5469 82.9448Z" fill="url(#paint0_radial_805_835)"/>
<path fill-rule="evenodd" clip-rule="evenodd" d="M0.988963 27.587C15.2381 69.2474 28.8391 84.5755 65.0797 99.8074C33.6478 104.853 -6.86144 59.2094 0.988963 27.587Z" fill="url(#paint1_radial_805_835)"/>
<path fill-rule="evenodd" clip-rule="evenodd" d="M45.4085 85.7865C21.6715 69.2867 -3.06783 25.8251 16.6165 0C14.5513 28.3215 28.822 64.2502 45.4042 85.7865H45.4085Z" fill="url(#paint2_radial_805_835)"/>
<path fill-rule="evenodd" clip-rule="evenodd" d="M66.3898 94.443C42.9337 82.8879 22.8173 56.6299 37.0232 30.8135C38.9329 56.4725 48.6713 77.4055 66.3898 94.443Z" fill="url(#paint3_radial_805_835)"/>
<path d="M92.2009 63.5332L86.2947 65.6755C86.2947 65.6755 82.8167 64.5606 79.7405 65.0153C76.6643 65.4744 65.4655 73.0203 60.8555 77.7814C60.8555 77.7814 66.7616 81.5894 67.7251 86.6827C72.2487 87.9418 75.4372 90.8623 77.8351 94.5916C79.0492 90.9104 80.2676 87.6139 82.2594 84.571C87.6514 76.3124 96.111 68.8364 100.928 67.0264C100.928 67.0264 96.6813 63.9354 92.1966 63.5419L92.2009 63.5332ZM81.7366 70.301C80.7817 70.524 79.7103 70.2048 79.7103 70.2048C79.7103 70.2048 81.6286 68.7708 82.2637 68.5303C82.8988 68.2899 84.3764 68.8233 84.3764 68.8233C84.3764 68.8233 82.6957 70.0736 81.7366 70.301Z" fill="url(#paint4_radial_805_835)"/>
<path d="M98.8183 84.6168C99.9013 84.6168 100.624 84.3648 100.987 83.8608C101.35 83.3568 101.532 82.7748 101.532 82.1148H99.9838C99.9838 82.6848 99.8818 83.0718 99.6778 83.2758C99.4738 83.4768 99.1828 83.5773 98.8048 83.5773C98.4178 83.5773 98.1088 83.4633 97.8778 83.2353C97.6498 83.0073 97.5358 82.4388 97.5358 81.5298C97.5358 80.6268 97.6498 80.0628 97.8778 79.8378C98.1058 79.6098 98.4148 79.4958 98.8048 79.4958C99.1858 79.4958 99.4768 79.5933 99.6778 79.7883C99.8818 79.9833 99.9838 80.3733 99.9838 80.9583H101.532C101.532 80.2803 101.35 79.6938 100.987 79.1988C100.624 78.7038 99.8998 78.4563 98.8138 78.4563C97.7308 78.4563 96.9883 78.7158 96.5863 79.2348C96.1873 79.7538 95.9878 80.5188 95.9878 81.5298C95.9878 82.5378 96.1873 83.3043 96.5863 83.8293C96.9883 84.3543 97.7323 84.6168 98.8183 84.6168ZM108.572 84.5808H110.106V82.0653H112.347V84.5808H113.877V78.5058H112.347V81.0213H110.106V78.5058H108.572V84.5808ZM120.824 84.5808H122.403L122.813 83.1003H124.878L125.288 84.5808H126.867L124.928 78.5013H122.763L120.824 84.5808ZM123.065 82.0923L123.843 79.3923H123.857L124.631 82.0923H123.065ZM133.731 84.5808H135.266V82.1553H137.16C137.853 82.1553 138.32 81.9828 138.56 81.6378C138.8 81.2928 138.92 80.8683 138.92 80.3643C138.92 79.8513 138.806 79.4133 138.578 79.0503C138.35 78.6873 137.898 78.5058 137.223 78.5058H133.731V84.5808ZM137.363 84.5808H139.023L137.592 81.6918L136.076 81.7548L137.363 84.5808ZM135.266 81.2193V79.5453H136.719C136.971 79.5453 137.145 79.6188 137.241 79.7658C137.337 79.9128 137.385 80.1183 137.385 80.3823C137.385 80.6493 137.337 80.8563 137.241 81.0033C137.145 81.1473 136.971 81.2193 136.719 81.2193H135.266ZM147.539 84.5808H149.073V79.5453H150.878V78.5058H145.73V79.5453H147.539V84.5808ZM157.831 84.5808H162.268V83.5413H159.361V81.9978H162.066V81.0078H159.361V79.5453H162.268V78.5058H157.831V84.5808ZM169.348 84.5808H170.882V82.1553H172.777C173.47 82.1553 173.936 81.9828 174.176 81.6378C174.416 81.2928 174.536 80.8683 174.536 80.3643C174.536 79.8513 174.422 79.4133 174.194 79.0503C173.966 78.6873 173.515 78.5058 172.84 78.5058H169.348V84.5808ZM172.979 84.5808H174.64L173.209 81.6918L171.692 81.7548L172.979 84.5808ZM170.882 81.2193V79.5453H172.336C172.588 79.5453 172.762 79.6188 172.858 79.7658C172.954 79.9128 173.002 80.1183 173.002 80.3823C173.002 80.6493 172.954 80.8563 172.858 81.0033C172.762 81.1473 172.588 81.2193 172.336 81.2193H170.882Z" fill="#273E7C"/>
<defs>
<radialGradient id="paint0_radial_805_835" cx="0" cy="0" r="1" gradientUnits="userSpaceOnUse" gradientTransform="translate(103.868 72.452) rotate(-14.9582) scale(137.383 138.802)">
<stop stop-color="#27AAE1"/>
<stop offset="1" stop-color="#262262"/>
</radialGradient>
<radialGradient id="paint1_radial_805_835" cx="0" cy="0" r="1" gradientUnits="userSpaceOnUse" gradientTransform="translate(103.867 72.4478) rotate(-14.9582) scale(137.388 138.806)">
<stop stop-color="#27AAE1"/>
<stop offset="1" stop-color="#262262"/>
</radialGradient>
<radialGradient id="paint2_radial_805_835" cx="0" cy="0" r="1" gradientUnits="userSpaceOnUse" gradientTransform="translate(103.871 72.4466) rotate(-14.9582) scale(137.401 138.819)">
<stop stop-color="#27AAE1"/>
<stop offset="1" stop-color="#262262"/>
</radialGradient>
<radialGradient id="paint3_radial_805_835" cx="0" cy="0" r="1" gradientUnits="userSpaceOnUse" gradientTransform="translate(103.868 72.4478) rotate(-14.9582) scale(137.392 138.811)">
<stop stop-color="#27AAE1"/>
<stop offset="1" stop-color="#262262"/>
</radialGradient>
<radialGradient id="paint4_radial_805_835" cx="0" cy="0" r="1" gradientUnits="userSpaceOnUse" gradientTransform="translate(103.864 72.4488) rotate(-14.9582) scale(137.383 138.802)">
<stop stop-color="#27AAE1"/>
<stop offset="1" stop-color="#262262"/>
</radialGradient>
</defs>
</svg>
