<svg width="222" height="110" viewBox="0 0 222 110" fill="none" xmlns="http://www.w3.org/2000/svg">
<g clip-path="url(#clip0_818_4509)">
<path d="M58.6945 68.4941C59.8871 67.4547 59.9576 68.295 60.2619 69.0235C60.9312 70.6215 59.5853 70.6603 58.7651 70.9129C57.9035 71.18 57.5019 71.6002 57.2075 72.4526C56.1585 75.4931 54.8905 78.451 53.6054 81.4041C52.5005 83.9419 51.252 86.266 48.1172 86.6667C48.0783 86.6716 48.0345 86.6764 48.0004 86.6959C47.3214 87.0699 47.1388 86.793 47.2216 86.1227C47.3895 84.7676 47.5453 83.4101 47.7084 82.0525C48.2121 77.8633 48.7135 73.6741 49.2173 69.4849C49.2976 68.8098 49.4412 68.3824 48.3411 68.6884C43.3324 70.0848 38.2847 71.3452 33.2467 72.6347C32.6748 72.7804 32.2465 72.9116 32.0615 73.5988C30.6888 78.7643 29.2918 83.9225 27.8583 89.071C26.0354 95.6158 24.1663 102.151 22.3336 108.693C22.246 109.004 21.8079 109.369 22.2192 109.667C22.577 109.927 22.9031 109.526 23.1781 109.347C28.0433 106.151 32.9036 102.95 37.7444 99.7176C45.6007 94.472 53.5227 89.3284 61.0602 83.6141C65.7915 80.0271 70.7588 76.7559 75.5096 73.1933C81.358 68.8098 87.4498 64.7542 93.0865 60.0865C96.0119 57.6653 99.0225 55.3485 101.994 52.9855C104.89 50.6833 107.787 48.3762 110.69 46.0812C112.272 44.8281 113.861 43.5847 115.468 42.3632C115.653 42.2223 115.755 42.1228 115.733 41.9042C115.709 41.671 115.536 41.6783 115.378 41.7099C113.72 42.045 112.072 41.6322 110.415 41.6346C75.6581 41.6613 40.8986 41.6638 6.14157 41.6322C4.20183 41.6322 2.2694 42.0135 0.327229 41.7196C-0.0694794 41.6589 -0.0573105 41.9795 0.0838496 42.1737C0.26395 42.4263 0.529234 42.623 0.779915 42.8173C5.38466 46.4261 10.0113 50.0057 14.5917 53.6437C19.5031 57.5439 24.3707 61.4975 29.2626 65.4196C29.9173 65.9441 30.5525 66.221 31.5017 65.8664C33.8917 64.9727 36.3498 64.2563 38.7763 63.4573C41.2296 62.6486 43.678 61.8254 46.2408 60.9705C44.0212 58.2846 41.8818 55.6958 39.745 53.1045C37.9878 50.9747 36.2257 48.8449 34.4807 46.7054C34.3273 46.5184 33.8844 46.3435 34.3882 45.9792C36.1405 44.7091 38.7447 44.6096 40.6236 45.8141C44.2645 48.1528 47.9688 50.404 51.4905 52.9103C52.5979 53.6971 53.3621 53.8112 54.4548 53.2454C54.8029 53.0657 55.2726 52.8301 55.6401 53.3304C56.2315 54.1367 56.1171 55.1494 55.3091 55.8172C55.808 56.1548 56.3751 56.4146 56.7621 56.8372C57.2099 57.3253 57.6212 57.2743 58.1518 57.1019C60.7876 56.2446 63.4282 55.4019 66.0713 54.5641C68.8215 53.6947 71.5912 53.1045 74.4509 54.0711C76.4417 54.7438 77.0672 56.6405 76.0523 58.4497C75.1543 60.0525 73.6453 60.8394 72.1704 61.6578C69.0844 63.3675 65.6284 64.011 62.2576 64.8634C59.2908 65.6139 59.1156 65.6964 58.6969 68.4868L58.6945 68.4941ZM43.4224 36.2894H72.1534C67.2882 24.1735 62.4888 12.1523 57.8889 0C53.3134 12.2373 48.0856 24.0958 43.4249 36.2894H43.4224ZM62.8173 89.6538C67.0716 92.5098 71.2042 95.3099 75.3636 98.0687C79.2966 100.677 83.2637 103.239 87.2113 105.825C89.1218 107.076 91.025 108.336 92.9234 109.609C93.1887 109.786 93.4369 110.146 93.7533 109.937C94.1963 109.645 93.7095 109.281 93.6389 108.999C93.4126 108.091 93.14 107.193 92.8942 106.284C91.4339 100.878 89.8544 95.5041 88.3357 90.1128C86.8657 84.8915 85.42 79.6629 83.933 74.3298C76.8214 79.4905 69.8315 84.5636 62.8173 89.6538Z" fill="white"/>
<path d="M58.6952 68.494C59.1163 65.7012 59.2891 65.6211 62.2559 64.8707C65.6267 64.0183 69.0826 63.3747 72.1687 61.665C73.646 60.8466 75.1525 60.0598 76.0506 58.4569C77.0655 56.6477 76.44 54.751 74.4492 54.0783C71.5894 53.1118 68.8198 53.7019 66.0696 54.5713C63.4265 55.4067 60.7858 56.2518 58.15 57.1091C57.6195 57.2815 57.2082 57.3325 56.7603 56.8444C56.3734 56.4218 55.8063 56.162 55.3074 55.8244C56.1178 55.1566 56.2322 54.1439 55.6384 53.3376C55.2709 52.8373 54.7987 53.0729 54.4531 53.2526C53.3603 53.8185 52.5937 53.7043 51.4887 52.9175C47.967 50.4112 44.2628 48.16 40.6218 45.8213C38.7454 44.6168 36.1412 44.7164 34.3865 45.9865C33.8827 46.3508 34.3256 46.5256 34.4789 46.7126C36.224 48.8546 37.986 50.9819 39.7432 53.1118C41.8801 55.703 44.0219 58.2918 46.239 60.9777C43.6763 61.8326 41.2279 62.6559 38.7746 63.4646C36.3481 64.2635 33.8924 64.9824 31.5 65.8737C30.5508 66.2282 29.9156 65.9514 29.2609 65.4268C24.369 61.5047 19.5014 57.5487 14.59 53.6509C10.0096 50.013 5.38293 46.4333 0.778186 42.8245C0.529939 42.6303 0.262221 42.4311 0.0821206 42.181C-0.0566057 41.9867 -0.0687747 41.6661 0.3255 41.7268C2.26767 42.0231 4.2001 41.637 6.13984 41.6394C40.8969 41.671 75.6563 41.6686 110.413 41.6418C112.068 41.6418 113.716 42.0523 115.376 41.7171C115.532 41.6856 115.707 41.6783 115.731 41.9114C115.753 42.13 115.651 42.2295 115.466 42.3704C113.86 43.5919 112.27 44.8354 110.688 46.0885C107.785 48.3859 104.891 50.6905 101.992 52.9928C99.0183 55.3557 96.0077 57.6725 93.0847 60.0938C87.4481 64.7614 81.3563 68.817 75.5079 73.2005C70.7571 76.7607 65.7897 80.0344 61.0584 83.6213C53.521 89.3356 45.599 94.4792 37.7427 99.7249C32.9018 102.957 28.0391 106.156 23.1764 109.354C22.9014 109.534 22.5777 109.937 22.2175 109.675C21.8062 109.376 22.2443 109.012 22.3319 108.701C24.1621 102.156 26.0312 95.6231 27.8566 89.0782C29.2901 83.9297 30.6871 78.7715 32.0598 73.6061C32.2423 72.9164 32.6731 72.7877 33.245 72.642C38.283 71.3524 43.3307 70.092 48.3394 68.6956C49.4395 68.3896 49.2959 68.8146 49.2156 69.4922C48.7118 73.6814 48.208 77.8706 47.7066 82.0598C47.5436 83.4149 47.3878 84.7724 47.2199 86.13C47.1371 86.7978 47.3221 87.0771 47.9987 86.7031C48.0328 86.6837 48.0766 86.6788 48.1155 86.674C51.2502 86.2733 52.4988 83.9492 53.6037 81.4114C54.8888 78.4607 56.1568 75.5003 57.2057 72.4598C57.5002 71.6074 57.8994 71.1848 58.7634 70.9201C59.5835 70.6676 60.9294 70.6287 60.2601 69.0307C59.9559 68.3022 59.8829 67.4619 58.6928 68.5013L58.6952 68.494Z" fill="white"/>
<path d="M43.4243 36.2894C48.085 24.0958 53.3153 12.2373 57.8884 0C62.4882 12.1499 67.2877 24.1735 72.1528 36.2894H43.4219H43.4243Z" fill="white"/>
<path d="M62.8164 89.6538C69.833 84.5636 76.8229 79.4904 83.932 74.3298C85.4191 79.6629 86.8647 84.8915 88.3348 90.1128C89.8534 95.5041 91.433 100.878 92.8932 106.284C93.1391 107.19 93.4116 108.091 93.638 108.999C93.7086 109.284 94.1953 109.648 93.7524 109.937C93.436 110.143 93.1902 109.786 92.9224 109.609C91.0265 108.336 89.1209 107.078 87.2103 105.825C83.2627 103.237 79.2981 100.677 75.3626 98.0687C71.2033 95.3099 67.0707 92.5098 62.8164 89.6538Z" fill="white"/>
</g>
<path d="M81.3737 34.2938C82.2804 34.2938 82.9404 34.1405 83.3537 33.8338C83.767 33.5272 83.9737 33.0938 83.9737 32.5338C83.9737 32.2005 83.9004 31.9138 83.7537 31.6738C83.6204 31.4338 83.4204 31.2205 83.1537 31.0338C82.9004 30.8338 82.587 30.6538 82.2137 30.4938C81.8404 30.3205 81.4137 30.1538 80.9337 29.9938C80.4537 29.8205 79.987 29.6338 79.5337 29.4338C79.0937 29.2205 78.7004 28.9605 78.3537 28.6538C78.0204 28.3472 77.747 27.9805 77.5337 27.5538C77.3337 27.1272 77.2337 26.6138 77.2337 26.0138C77.2337 24.7605 77.667 23.7805 78.5337 23.0738C79.4004 22.3538 80.5804 21.9938 82.0737 21.9938C82.9404 21.9938 83.707 22.0938 84.3737 22.2938C85.0537 22.4805 85.587 22.6872 85.9737 22.9138L85.1937 24.9538C84.7404 24.7005 84.2404 24.5072 83.6937 24.3738C83.1604 24.2405 82.607 24.1738 82.0337 24.1738C81.3537 24.1738 80.8204 24.3138 80.4337 24.5938C80.0604 24.8738 79.8737 25.2672 79.8737 25.7738C79.8737 26.0805 79.9337 26.3472 80.0537 26.5738C80.187 26.7872 80.367 26.9805 80.5937 27.1538C80.8337 27.3272 81.107 27.4872 81.4137 27.6338C81.7337 27.7805 82.0804 27.9205 82.4537 28.0538C83.107 28.2938 83.687 28.5405 84.1937 28.7938C84.7137 29.0338 85.147 29.3272 85.4937 29.6738C85.8537 30.0072 86.127 30.4072 86.3137 30.8738C86.5004 31.3272 86.5937 31.8805 86.5937 32.5338C86.5937 33.7872 86.147 34.7605 85.2537 35.4538C84.3737 36.1338 83.0804 36.4738 81.3737 36.4738C80.8004 36.4738 80.2737 36.4338 79.7937 36.3538C79.327 36.2872 78.907 36.2005 78.5337 36.0938C78.1737 35.9872 77.8604 35.8805 77.5937 35.7738C77.327 35.6538 77.1137 35.5472 76.9537 35.4538L77.6937 33.3938C78.0537 33.5938 78.5404 33.7938 79.1537 33.9938C79.767 34.1938 80.507 34.2938 81.3737 34.2938ZM98.4745 22.3138V24.4938H94.2145V36.1738H91.6745V24.4938H87.4145V22.3138H98.4745ZM108.464 36.1738C108.277 35.6272 108.084 35.0872 107.884 34.5538C107.684 34.0205 107.49 33.4738 107.304 32.9138H101.464C101.277 33.4738 101.084 34.0272 100.884 34.5738C100.697 35.1072 100.51 35.6405 100.324 36.1738H97.7037C98.2237 34.6938 98.717 33.3272 99.1837 32.0738C99.6504 30.8205 100.104 29.6338 100.544 28.5138C100.997 27.3938 101.444 26.3272 101.884 25.3138C102.324 24.3005 102.777 23.3005 103.244 22.3138H105.624C106.09 23.3005 106.544 24.3005 106.984 25.3138C107.424 26.3272 107.864 27.3938 108.304 28.5138C108.757 29.6338 109.217 30.8205 109.684 32.0738C110.164 33.3272 110.664 34.6938 111.184 36.1738H108.464ZM104.384 24.9938C104.077 25.7005 103.724 26.5605 103.324 27.5738C102.937 28.5872 102.53 29.6872 102.104 30.8738H106.664C106.237 29.6872 105.824 28.5805 105.424 27.5538C105.024 26.5272 104.677 25.6738 104.384 24.9938ZM116.756 22.1738C118.756 22.1738 120.282 22.5405 121.336 23.2738C122.402 24.0072 122.936 25.1272 122.936 26.6338C122.936 28.5138 122.009 29.7872 120.156 30.4538C120.409 30.7605 120.696 31.1338 121.016 31.5738C121.336 32.0138 121.662 32.4938 121.996 33.0138C122.329 33.5205 122.649 34.0472 122.956 34.5938C123.262 35.1272 123.536 35.6538 123.776 36.1738H120.956C120.702 35.6938 120.429 35.2138 120.136 34.7338C119.842 34.2405 119.542 33.7672 119.236 33.3138C118.942 32.8472 118.649 32.4138 118.356 32.0138C118.062 31.6005 117.789 31.2338 117.536 30.9138C117.349 30.9272 117.189 30.9338 117.056 30.9338C116.922 30.9338 116.796 30.9338 116.676 30.9338H115.456V36.1738H112.936V22.5138C113.549 22.3805 114.202 22.2938 114.896 22.2538C115.589 22.2005 116.209 22.1738 116.756 22.1738ZM116.936 24.3538C116.402 24.3538 115.909 24.3738 115.456 24.4138V28.8938H116.556C117.169 28.8938 117.709 28.8605 118.176 28.7938C118.642 28.7272 119.029 28.6072 119.336 28.4338C119.656 28.2605 119.896 28.0272 120.056 27.7338C120.216 27.4405 120.296 27.0672 120.296 26.6138C120.296 26.1872 120.216 25.8272 120.056 25.5338C119.896 25.2405 119.662 25.0072 119.356 24.8338C119.062 24.6605 118.709 24.5405 118.296 24.4738C117.882 24.3938 117.429 24.3538 116.936 24.3538ZM139.596 36.1738C139.41 35.6272 139.216 35.0872 139.016 34.5538C138.816 34.0205 138.623 33.4738 138.436 32.9138H132.596C132.41 33.4738 132.216 34.0272 132.016 34.5738C131.83 35.1072 131.643 35.6405 131.456 36.1738H128.836C129.356 34.6938 129.85 33.3272 130.316 32.0738C130.783 30.8205 131.236 29.6338 131.676 28.5138C132.13 27.3938 132.576 26.3272 133.016 25.3138C133.456 24.3005 133.91 23.3005 134.376 22.3138H136.756C137.223 23.3005 137.676 24.3005 138.116 25.3138C138.556 26.3272 138.996 27.3938 139.436 28.5138C139.89 29.6338 140.35 30.8205 140.816 32.0738C141.296 33.3272 141.796 34.6938 142.316 36.1738H139.596ZM135.516 24.9938C135.21 25.7005 134.856 26.5605 134.456 27.5738C134.07 28.5872 133.663 29.6872 133.236 30.8738H137.796C137.37 29.6872 136.956 28.5805 136.556 27.5538C136.156 26.5272 135.81 25.6738 135.516 24.9938ZM146.935 36.1738C145.935 34.0138 144.968 31.7538 144.035 29.3938C143.115 27.0338 142.255 24.6738 141.455 22.3138H144.235C144.555 23.2472 144.881 24.2005 145.215 25.1738C145.548 26.1472 145.881 27.1072 146.215 28.0538C146.548 28.9872 146.881 29.8938 147.215 30.7738C147.548 31.6538 147.875 32.4605 148.195 33.1938C148.501 32.4605 148.821 31.6605 149.155 30.7938C149.488 29.9138 149.821 29.0005 150.155 28.0538C150.501 27.1072 150.841 26.1472 151.175 25.1738C151.508 24.2005 151.828 23.2472 152.135 22.3138H154.835C154.021 24.6738 153.155 27.0338 152.235 29.3938C151.315 31.7538 150.355 34.0138 149.355 36.1738H146.935ZM156.627 22.3138H159.147V36.1738H156.627V22.3138ZM171.667 36.1738C171.48 35.6272 171.287 35.0872 171.087 34.5538C170.887 34.0205 170.693 33.4738 170.507 32.9138H164.667C164.48 33.4738 164.287 34.0272 164.087 34.5738C163.9 35.1072 163.713 35.6405 163.527 36.1738H160.907C161.427 34.6938 161.92 33.3272 162.387 32.0738C162.853 30.8205 163.307 29.6338 163.747 28.5138C164.2 27.3938 164.647 26.3272 165.087 25.3138C165.527 24.3005 165.98 23.3005 166.447 22.3138H168.827C169.293 23.3005 169.747 24.3005 170.187 25.3138C170.627 26.3272 171.067 27.3938 171.507 28.5138C171.96 29.6338 172.42 30.8205 172.887 32.0738C173.367 33.3272 173.867 34.6938 174.387 36.1738H171.667ZM167.587 24.9938C167.28 25.7005 166.927 26.5605 166.527 27.5738C166.14 28.5872 165.733 29.6872 165.307 30.8738H169.867C169.44 29.6872 169.027 28.5805 168.627 27.5538C168.227 26.5272 167.88 25.6738 167.587 24.9938ZM184.666 22.3138V24.4938H180.406V36.1738H177.866V24.4938H173.606V22.3138H184.666ZM186.588 22.3138H189.108V36.1738H186.588V22.3138ZM194.488 29.2338C194.488 29.9938 194.581 30.6872 194.768 31.3138C194.954 31.9272 195.221 32.4538 195.568 32.8938C195.928 33.3205 196.361 33.6538 196.868 33.8938C197.374 34.1338 197.948 34.2538 198.588 34.2538C199.214 34.2538 199.781 34.1338 200.288 33.8938C200.794 33.6538 201.221 33.3205 201.568 32.8938C201.928 32.4538 202.201 31.9272 202.388 31.3138C202.574 30.6872 202.668 29.9938 202.668 29.2338C202.668 28.4738 202.574 27.7872 202.388 27.1738C202.201 26.5472 201.928 26.0205 201.568 25.5938C201.221 25.1538 200.794 24.8138 200.288 24.5738C199.781 24.3338 199.214 24.2138 198.588 24.2138C197.948 24.2138 197.374 24.3338 196.868 24.5738C196.361 24.8138 195.928 25.1538 195.568 25.5938C195.221 26.0338 194.954 26.5605 194.768 27.1738C194.581 27.7872 194.488 28.4738 194.488 29.2338ZM205.308 29.2338C205.308 30.4205 205.128 31.4672 204.768 32.3738C204.421 33.2805 203.941 34.0405 203.328 34.6538C202.728 35.2538 202.021 35.7072 201.208 36.0138C200.394 36.3205 199.528 36.4738 198.608 36.4738C197.688 36.4738 196.814 36.3205 195.988 36.0138C195.174 35.7072 194.461 35.2538 193.848 34.6538C193.248 34.0405 192.768 33.2805 192.408 32.3738C192.048 31.4672 191.868 30.4205 191.868 29.2338C191.868 28.0472 192.048 27.0072 192.408 26.1138C192.768 25.2072 193.254 24.4472 193.868 23.8338C194.494 23.2205 195.214 22.7605 196.028 22.4538C196.841 22.1472 197.701 21.9938 198.608 21.9938C199.514 21.9938 200.374 22.1472 201.188 22.4538C202.001 22.7605 202.708 23.2205 203.308 23.8338C203.921 24.4472 204.408 25.2072 204.768 26.1138C205.128 27.0072 205.308 28.0472 205.308 29.2338ZM217.412 36.1738C216.959 35.4138 216.452 34.6005 215.892 33.7338C215.332 32.8538 214.752 31.9738 214.152 31.0938C213.552 30.2005 212.939 29.3405 212.312 28.5138C211.699 27.6738 211.112 26.9205 210.552 26.2538V36.1738H208.072V22.3138H210.132C210.666 22.8738 211.239 23.5405 211.852 24.3138C212.466 25.0738 213.079 25.8672 213.692 26.6938C214.319 27.5205 214.919 28.3538 215.492 29.1938C216.079 30.0205 216.599 30.7938 217.052 31.5138V22.3138H219.552V36.1738H217.412ZM136.335 57.2938C137.241 57.2938 137.901 57.1405 138.315 56.8338C138.728 56.5272 138.935 56.0938 138.935 55.5338C138.935 55.2005 138.861 54.9138 138.715 54.6738C138.581 54.4338 138.381 54.2205 138.115 54.0338C137.861 53.8338 137.548 53.6538 137.175 53.4938C136.801 53.3205 136.375 53.1538 135.895 52.9938C135.415 52.8205 134.948 52.6338 134.495 52.4338C134.055 52.2205 133.661 51.9605 133.315 51.6538C132.981 51.3472 132.708 50.9805 132.495 50.5538C132.295 50.1272 132.195 49.6138 132.195 49.0138C132.195 47.7605 132.628 46.7805 133.495 46.0738C134.361 45.3538 135.541 44.9938 137.035 44.9938C137.901 44.9938 138.668 45.0938 139.335 45.2938C140.015 45.4805 140.548 45.6872 140.935 45.9138L140.155 47.9538C139.701 47.7005 139.201 47.5072 138.655 47.3738C138.121 47.2405 137.568 47.1738 136.995 47.1738C136.315 47.1738 135.781 47.3138 135.395 47.5938C135.021 47.8738 134.835 48.2672 134.835 48.7738C134.835 49.0805 134.895 49.3472 135.015 49.5738C135.148 49.7872 135.328 49.9805 135.555 50.1538C135.795 50.3272 136.068 50.4872 136.375 50.6338C136.695 50.7805 137.041 50.9205 137.415 51.0538C138.068 51.2938 138.648 51.5405 139.155 51.7938C139.675 52.0338 140.108 52.3272 140.455 52.6738C140.815 53.0072 141.088 53.4072 141.275 53.8738C141.461 54.3272 141.555 54.8805 141.555 55.5338C141.555 56.7872 141.108 57.7605 140.215 58.4538C139.335 59.1338 138.041 59.4738 136.335 59.4738C135.761 59.4738 135.235 59.4338 134.755 59.3538C134.288 59.2872 133.868 59.2005 133.495 59.0938C133.135 58.9872 132.821 58.8805 132.555 58.7738C132.288 58.6538 132.075 58.5472 131.915 58.4538L132.655 56.3938C133.015 56.5938 133.501 56.7938 134.115 56.9938C134.728 57.1938 135.468 57.2938 136.335 57.2938ZM143.775 59.1738V45.3138H152.675V47.4538H146.295V50.8738H151.975V52.9738H146.295V57.0338H153.155V59.1738H143.775ZM159.314 45.1738C161.314 45.1738 162.841 45.5405 163.894 46.2738C164.961 47.0072 165.494 48.1272 165.494 49.6338C165.494 51.5138 164.567 52.7872 162.714 53.4538C162.967 53.7605 163.254 54.1338 163.574 54.5738C163.894 55.0138 164.221 55.4938 164.554 56.0138C164.887 56.5205 165.207 57.0472 165.514 57.5938C165.821 58.1272 166.094 58.6538 166.334 59.1738H163.514C163.261 58.6938 162.987 58.2138 162.694 57.7338C162.401 57.2405 162.101 56.7672 161.794 56.3138C161.501 55.8472 161.207 55.4138 160.914 55.0138C160.621 54.6005 160.347 54.2338 160.094 53.9138C159.907 53.9272 159.747 53.9338 159.614 53.9338C159.481 53.9338 159.354 53.9338 159.234 53.9338H158.014V59.1738H155.494V45.5138C156.107 45.3805 156.761 45.2938 157.454 45.2538C158.147 45.2005 158.767 45.1738 159.314 45.1738ZM159.494 47.3538C158.961 47.3538 158.467 47.3738 158.014 47.4138V51.8938H159.114C159.727 51.8938 160.267 51.8605 160.734 51.7938C161.201 51.7272 161.587 51.6072 161.894 51.4338C162.214 51.2605 162.454 51.0272 162.614 50.7338C162.774 50.4405 162.854 50.0672 162.854 49.6138C162.854 49.1872 162.774 48.8272 162.614 48.5338C162.454 48.2405 162.221 48.0072 161.914 47.8338C161.621 47.6605 161.267 47.5405 160.854 47.4738C160.441 47.3938 159.987 47.3538 159.494 47.3538ZM172.071 59.1738C171.071 57.0138 170.105 54.7538 169.171 52.3938C168.251 50.0338 167.391 47.6738 166.591 45.3138H169.371C169.691 46.2472 170.018 47.2005 170.351 48.1738C170.685 49.1472 171.018 50.1072 171.351 51.0538C171.685 51.9872 172.018 52.8938 172.351 53.7738C172.685 54.6538 173.011 55.4605 173.331 56.1938C173.638 55.4605 173.958 54.6605 174.291 53.7938C174.625 52.9138 174.958 52.0005 175.291 51.0538C175.638 50.1072 175.978 49.1472 176.311 48.1738C176.645 47.2005 176.965 46.2472 177.271 45.3138H179.971C179.158 47.6738 178.291 50.0338 177.371 52.3938C176.451 54.7538 175.491 57.0138 174.491 59.1738H172.071ZM181.764 45.3138H184.284V59.1738H181.764V45.3138ZM193.764 59.4738C192.724 59.4738 191.79 59.3138 190.964 58.9938C190.137 58.6738 189.437 58.2072 188.864 57.5938C188.29 56.9672 187.85 56.2072 187.544 55.3138C187.237 54.4205 187.084 53.3938 187.084 52.2338C187.084 51.0738 187.257 50.0472 187.604 49.1538C187.964 48.2605 188.45 47.5072 189.064 46.8938C189.677 46.2672 190.397 45.7938 191.224 45.4738C192.05 45.1538 192.937 44.9938 193.884 44.9938C194.457 44.9938 194.977 45.0405 195.444 45.1338C195.91 45.2138 196.317 45.3072 196.664 45.4138C197.01 45.5205 197.297 45.6338 197.524 45.7538C197.75 45.8738 197.91 45.9605 198.004 46.0138L197.264 48.0738C196.944 47.8738 196.484 47.6872 195.884 47.5138C195.297 47.3272 194.657 47.2338 193.964 47.2338C193.364 47.2338 192.804 47.3405 192.284 47.5538C191.764 47.7538 191.31 48.0605 190.924 48.4738C190.55 48.8872 190.257 49.4072 190.044 50.0338C189.83 50.6605 189.724 51.3872 189.724 52.2138C189.724 52.9472 189.804 53.6205 189.964 54.2338C190.137 54.8472 190.397 55.3805 190.744 55.8338C191.09 56.2738 191.53 56.6205 192.064 56.8738C192.597 57.1138 193.237 57.2338 193.984 57.2338C194.877 57.2338 195.604 57.1472 196.164 56.9738C196.724 56.7872 197.157 56.6138 197.464 56.4538L198.144 58.5138C197.984 58.6205 197.764 58.7272 197.484 58.8338C197.217 58.9405 196.897 59.0472 196.524 59.1538C196.15 59.2472 195.73 59.3205 195.264 59.3738C194.797 59.4405 194.297 59.4738 193.764 59.4738ZM200.357 59.1738V45.3138H209.257V47.4538H202.877V50.8738H208.557V52.9738H202.877V57.0338H209.737V59.1738H200.357ZM215.436 57.2938C216.343 57.2938 217.003 57.1405 217.416 56.8338C217.83 56.5272 218.036 56.0938 218.036 55.5338C218.036 55.2005 217.963 54.9138 217.816 54.6738C217.683 54.4338 217.483 54.2205 217.216 54.0338C216.963 53.8338 216.65 53.6538 216.276 53.4938C215.903 53.3205 215.476 53.1538 214.996 52.9938C214.516 52.8205 214.05 52.6338 213.596 52.4338C213.156 52.2205 212.763 51.9605 212.416 51.6538C212.083 51.3472 211.81 50.9805 211.596 50.5538C211.396 50.1272 211.296 49.6138 211.296 49.0138C211.296 47.7605 211.73 46.7805 212.596 46.0738C213.463 45.3538 214.643 44.9938 216.136 44.9938C217.003 44.9938 217.77 45.0938 218.436 45.2938C219.116 45.4805 219.65 45.6872 220.036 45.9138L219.256 47.9538C218.803 47.7005 218.303 47.5072 217.756 47.3738C217.223 47.2405 216.67 47.1738 216.096 47.1738C215.416 47.1738 214.883 47.3138 214.496 47.5938C214.123 47.8738 213.936 48.2672 213.936 48.7738C213.936 49.0805 213.996 49.3472 214.116 49.5738C214.25 49.7872 214.43 49.9805 214.656 50.1538C214.896 50.3272 215.17 50.4872 215.476 50.6338C215.796 50.7805 216.143 50.9205 216.516 51.0538C217.17 51.2938 217.75 51.5405 218.256 51.7938C218.776 52.0338 219.21 52.3272 219.556 52.6738C219.916 53.0072 220.19 53.4072 220.376 53.8738C220.563 54.3272 220.656 54.8805 220.656 55.5338C220.656 56.7872 220.21 57.7605 219.316 58.4538C218.436 59.1338 217.143 59.4738 215.436 59.4738C214.863 59.4738 214.336 59.4338 213.856 59.3538C213.39 59.2872 212.97 59.2005 212.596 59.0938C212.236 58.9872 211.923 58.8805 211.656 58.7738C211.39 58.6538 211.176 58.5472 211.016 58.4538L211.756 56.3938C212.116 56.5938 212.603 56.7938 213.216 56.9938C213.83 57.1938 214.57 57.2938 215.436 57.2938Z" fill="white"/>
<defs>
<clipPath id="clip0_818_4509">
<rect width="115.739" height="110" fill="white"/>
</clipPath>
</defs>
</svg>
