<svg width="148" height="120" viewBox="0 0 148 120" fill="none" xmlns="http://www.w3.org/2000/svg">
<path d="M93.9127 53.3025C84.5375 53.8053 76.0058 50.4154 67.3767 47.512C52.3732 44.4464 49.5023 39.5966 53.9141 23.4739C66.3224 23.3117 78.7307 23.1333 91.1391 22.9711C93.1503 24.074 93.2639 26.0367 93.4423 27.9831C92.9557 31.146 92.907 34.2764 93.9776 37.3582C93.6369 42.6784 97.4811 48.0148 93.9127 53.3187V53.3025Z" fill="#0F75BB"/>
<path d="M92.4525 28.2427C92.0146 26.491 91.5766 24.723 91.1387 22.9712C96.5724 17.3429 102.006 11.7145 107.44 6.08618C114.447 11.1306 118.421 17.9755 119.426 26.5234C115.209 33.498 110.96 40.4726 108.543 48.3556C106.418 52.2646 106.548 57.6983 101.065 59.3041C99.4758 56.7089 100.644 53.3676 98.7459 50.8535C94.4962 45.9063 94.6746 39.4021 92.6958 33.644C92.566 31.8436 91.5442 30.0918 92.4363 28.2427H92.4525Z" fill="#283891"/>
<path d="M53.9134 23.474C53.9134 24.0741 54.0594 24.7067 53.9134 25.2744C51.3831 36.9204 56.2653 44.0897 67.3598 47.5121C66.9867 51.5022 67.7653 55.6221 66.0622 59.4662C61.8125 59.7095 60.6771 56.2385 58.9091 53.5135C56.6383 50.2533 54.9352 50.5939 52.924 54.0001C49.3555 60.0177 45.4141 65.8245 41.6186 71.7286C38.1151 69.474 38.18 66.2949 39.364 62.84C38.8125 53.5135 38.261 44.187 37.6933 34.8605C37.4825 30.9677 41.6024 31.2921 43.2244 29.1834C46.7766 27.2857 50.345 25.388 53.8972 23.474H53.9134Z" fill="#283991"/>
<path d="M119.429 26.5071C116.445 19.0945 112.422 12.2983 107.442 6.06982C107.442 5.68054 107.329 4.98308 107.475 4.93442C113.655 2.4041 119.818 -0.255987 126.712 0.0197535C124.847 4.93442 122.9 9.84909 126.582 14.8124C126.842 18.543 124.749 21.5762 123.614 24.8851C122.868 27.0748 121.359 27.3667 119.413 26.5071H119.429Z" fill="#26A9DF"/>
<path d="M141.909 11.8604C142.445 17.2455 142.964 22.6305 143.499 28.0155C143.677 29.7673 143.385 31.1785 141.342 31.6813C138.844 32.3139 138.811 30.5134 138.487 28.9563C137.222 22.9225 132.518 19.2405 128.836 14.8611C129.469 9.7518 133.069 7.3999 137.384 5.71301C141.504 5.84277 141.893 8.71372 141.909 11.8604Z" fill="#2A3A92"/>
<path d="M137.382 6.36181C134.056 8.72993 131.25 11.6009 128.834 14.8773C128.088 14.8611 127.341 14.8449 126.595 14.8124C124.762 14.6827 122.816 14.5854 122.994 12.0064C123.303 7.74051 121.616 2.80962 126.709 0.0197754C131.056 0.976757 135.403 1.93374 139.75 2.89072C140.253 4.93444 139.052 5.81032 137.365 6.36181H137.382Z" fill="#1276BC"/>
<path d="M23.5677 54.5678C17.2419 60.9585 9.13188 61.6884 0 61.8668C3.21157 58.2173 6.08251 54.9733 5.59591 49.5558C11.6622 53.0107 17.5663 53.6595 23.6975 51.9401C24.5247 52.8647 24.4598 53.7406 23.5677 54.5678Z" fill="#2D3D93"/>
<path d="M101.066 59.3041C104.732 56.4494 104.473 50.9184 108.544 48.3556C111.301 55.0382 112.712 62.094 114.318 69.0848C110.263 70.3986 108.917 64.4459 104.911 65.6137C103.11 67.2357 104.521 69.7174 103.337 71.5178C99.7039 70.5284 102.932 67.2844 101.391 65.6137C101.277 63.5051 101.18 61.4127 101.066 59.3041Z" fill="#1376BC"/>
<path d="M85.2047 115.474C83.6476 118.783 81.0037 120.016 77.4191 119.902C73.3154 119.772 69.1955 119.87 65.0756 119.221C68.4818 116.253 72.472 117.988 76.1377 117.437C77.9705 117.161 80.8091 118.102 80.7766 115.133C80.7442 112.36 77.9706 112.879 76.0728 112.733C74.2724 112.603 72.4557 112.636 70.6553 112.636C67.5411 112.636 64.9783 111.841 64.8648 108.094C64.7512 104.039 67.46 103.033 70.8013 103.001C72.034 103.001 73.6398 102.303 74.3859 104.055C74.1751 104.428 74.0777 104.882 73.8182 105.028C71.9205 106.018 68.0277 104.38 68.3034 107.98C68.5629 111.451 72.0827 110.008 74.2237 110.105C77.5813 110.284 80.9713 109.992 84.0693 112.636C84.5721 110.203 84.9776 108.321 85.3669 106.439C87.1997 109.473 87.6377 112.49 85.2047 115.458V115.474Z" fill="#164380"/>
<path d="M23.5664 54.5677C23.6151 53.6918 23.6475 52.8159 23.6962 51.94C26.486 48.2905 26.4374 44.0085 26.113 39.8237C25.8534 36.4499 26.8591 34.6657 30.2004 33.6925C34.6122 32.3949 38.651 29.9619 43.2575 29.1833C41.4084 31.0811 39.5594 32.9788 37.7265 34.8766C33.9472 33.7574 34.1094 36.7905 33.4931 38.9478C31.7413 45.1439 29.1461 50.8046 23.5664 54.5839V54.5677Z" fill="#2CABE0"/>
<path d="M85.2043 115.474C85.253 112.473 85.3179 109.456 85.3665 106.455C88.6754 102.384 90.1839 102.06 95.9906 104.298C94.2713 106.082 92.114 105.061 90.3298 105.515C88.7889 105.904 87.832 106.65 87.8482 108.386C87.8644 110.721 89.5837 110.137 90.8489 110.17C95.0174 110.235 99.2022 110.186 103.468 111.078C100.078 113.317 96.1691 112.149 92.552 112.684C90.93 112.927 88.0104 111.046 87.9131 114.533C87.8157 117.907 90.6705 117.355 92.7791 117.404C96.2988 117.485 99.8348 117.42 104.652 117.42C97.5802 121.8 87.4102 120.243 85.1719 115.458L85.2043 115.474Z" fill="#14417E"/>
<path d="M104.91 65.6136C104.894 63.1319 105.948 62.9535 107.749 64.2835C109.922 65.8893 112.128 67.4789 114.318 69.0847C115.291 70.0579 116.118 71.2744 117.254 71.9394C124.018 75.8971 123.774 81.7363 121.86 88.1107C118.681 85.7913 116.897 82.5635 115.697 78.9302C111.625 74.8752 109.825 68.9873 104.91 65.6136Z" fill="#2BABE0"/>
<path d="M39.3824 62.84C40.1448 65.792 40.8909 68.7603 41.6532 71.7123C39.2202 75.67 36.771 79.6277 34.338 83.5854C31.2075 82.596 32.9593 80.6171 33.381 78.8978C33.3486 76.4972 33.6243 74.048 33.2188 71.7285C32.3105 66.5706 34.484 63.8294 39.3986 62.84H39.3824Z" fill="#1376BB"/>
<path d="M58.9277 53.5134C61.3121 55.4923 63.6964 57.4873 66.0808 59.4662C65.9834 61.1044 65.8861 62.7588 65.7726 64.3971C65.1887 66.5705 65.432 68.744 65.7564 70.9337C65.9997 72.6368 66.5511 74.6806 63.8424 75.1185C57.4841 68.9873 60.2416 60.78 58.9277 53.5134Z" fill="#197BBF"/>
<path d="M45.6602 103.39H63.8752C63.6644 104.217 63.5508 104.85 63.486 104.85C56.3654 104.169 55.8301 108.418 56.3005 113.901C56.4627 115.766 57.6305 119.464 55.0678 119.432C51.7913 119.399 53.8351 115.652 53.2673 113.593C53.1214 113.041 53.17 112.392 53.2673 111.808C53.9324 107.315 52.9592 104.363 47.4768 105.32C46.7793 105.434 45.871 105.239 45.6764 103.39H45.6602Z" fill="#1F4A85"/>
<path d="M101.39 65.6134C103.369 67.1381 101.325 69.9928 103.336 71.5175C103.044 77.5838 97.3026 78.8327 93.9288 82.174C92.2744 81.8821 90.4253 81.947 89.9062 79.7735C92.8583 76.7566 95.7292 73.6748 98.7624 70.7389C100.271 69.2791 101.568 67.868 101.39 65.6134Z" fill="#2BABE0"/>
<path d="M93.6397 33.0112C95.3428 38.964 97.0459 44.9167 98.749 50.8695C96.9486 51.3236 96.1213 53.6755 93.8992 53.3187C93.4775 47.7228 93.072 42.1431 92.6502 36.5472C92.1961 35.1523 91.0282 33.5627 93.6234 33.0275L93.6397 33.0112Z" fill="#27A3DB"/>
<path d="M63.8398 75.1184C66.4837 71.9068 63.3046 67.641 65.77 64.397C65.2672 70.3659 68.8843 74.9886 70.9442 80.1304C71.7552 82.1579 72.5176 84.2016 73.3123 86.2291C71.2037 86.6671 70.4576 85.2884 69.9224 83.6501C67.8948 80.7954 65.8673 77.9569 63.8398 75.1022V75.1184Z" fill="#35AEE1"/>
<path d="M89.9081 79.7575C91.2543 80.5685 92.5844 81.3632 93.9306 82.1742C90.2 85.7102 86.9614 84.3477 84.2148 78.0868C86.3721 78.7194 88.1401 79.2384 89.9081 79.7737V79.7575Z" fill="#314296"/>
<path d="M69.9268 83.6665C71.0622 84.5262 72.1814 85.3858 73.3168 86.2455C74.0629 87.6891 76.1877 89.5706 72.3436 89.6679C69.8132 89.7328 67.2829 89.6679 63.6172 89.6679C66.2773 87.1214 68.1101 85.3858 69.9268 83.6503V83.6665Z" fill="#2E4196"/>
<path d="M137.383 6.36176C138.178 5.21013 138.972 4.04229 139.767 2.89067C140.562 2.85823 141.373 2.82579 142.168 2.80957C142.687 3.76655 145.282 2.48517 144.455 4.90195C143.984 5.16147 143.53 5.42099 143.06 5.68051C145.882 7.6107 145.201 8.76232 142.297 9.67064C141.973 9.76796 142.022 11.098 141.908 11.8603C141.227 9.34624 140.124 7.17276 137.383 6.34554V6.36176Z" fill="#39ACDF"/>
<path d="M115.696 78.9301C118.243 81.655 120.319 84.7044 121.844 88.1106C116.102 87.5267 114.61 84.088 115.696 78.9301Z" fill="#2E4498"/>
<path d="M33.3618 78.9141C33.6051 80.4874 32.9563 82.2554 34.3187 83.6016C33.1022 85.8076 31.2207 86.2293 28.3984 85.6778C30.1826 83.2448 31.7722 81.0875 33.3618 78.9303V78.9141Z" fill="#43519E"/>
<path d="M144.457 4.90202C143.695 4.20456 142.932 3.5071 142.17 2.80964C143.127 2.74476 144.1 2.55012 145.041 2.64744C145.836 2.72854 147.36 2.17706 147.214 3.62064C147.068 4.98312 145.657 5.048 144.457 4.90202Z" fill="#B0DFF3"/>
<path d="M93.6369 33.0112C92.4204 33.9358 92.7448 35.2983 92.6637 36.531C90.912 33.806 90.9119 31.0486 92.4529 28.2426C92.8421 29.8321 93.2476 31.4217 93.6369 33.0112Z" fill="#2D9DD6"/>
</svg>
