<svg width="148" height="120" viewBox="0 0 148 120" fill="none" xmlns="http://www.w3.org/2000/svg">
<path d="M93.9127 53.3025C84.5375 53.8053 76.0058 50.4154 67.3767 47.512C52.3732 44.4464 49.5023 39.5966 53.9141 23.4739C66.3224 23.3117 78.7307 23.1333 91.1391 22.9711C93.1503 24.074 93.2639 26.0367 93.4423 27.9831C92.9557 31.146 92.907 34.2764 93.9776 37.3582C93.6369 42.6784 97.4811 48.0148 93.9127 53.3187V53.3025Z" fill="white"/>
<path d="M92.4535 28.2427C92.0155 26.491 91.5776 24.723 91.1396 22.9712C96.5734 17.3429 102.007 11.7145 107.441 6.08618C114.448 11.1306 118.422 17.9755 119.427 26.5234C115.21 33.498 110.961 40.4726 108.544 48.3556C106.419 52.2646 106.549 57.6983 101.066 59.3041C99.4767 56.7089 100.645 53.3676 98.7468 50.8535C94.4972 45.9063 94.6756 39.4021 92.6968 33.644C92.567 31.8436 91.5452 30.0918 92.4373 28.2427H92.4535Z" fill="white"/>
<path d="M53.9124 23.474C53.9124 24.0741 54.0584 24.7067 53.9124 25.2744C51.3821 36.9204 56.2643 44.0897 67.3588 47.5121C66.9857 51.5022 67.7643 55.6221 66.0612 59.4662C61.8116 59.7095 60.6761 56.2385 58.9082 53.5135C56.6374 50.2533 54.9343 50.5939 52.923 54.0001C49.3546 60.0177 45.4131 65.8245 41.6176 71.7286C38.1141 69.474 38.179 66.2949 39.363 62.84C38.8116 53.5135 38.2601 44.187 37.6924 34.8605C37.4815 30.9677 41.6014 31.2921 43.2234 29.1834C46.7756 27.2857 50.344 25.388 53.8962 23.474H53.9124Z" fill="white"/>
<path d="M119.43 26.5071C116.446 19.0945 112.423 12.2983 107.443 6.06982C107.443 5.68054 107.33 4.98308 107.476 4.93442C113.656 2.4041 119.819 -0.255987 126.713 0.0197535C124.848 4.93442 122.901 9.84909 126.583 14.8124C126.843 18.543 124.75 21.5762 123.615 24.8851C122.869 27.0748 121.36 27.3667 119.414 26.5071H119.43Z" fill="white"/>
<path d="M141.909 11.8604C142.445 17.2455 142.964 22.6305 143.499 28.0155C143.677 29.7673 143.385 31.1785 141.342 31.6813C138.844 32.3139 138.811 30.5134 138.487 28.9563C137.222 22.9225 132.518 19.2405 128.836 14.8611C129.469 9.7518 133.069 7.3999 137.384 5.71301C141.504 5.84277 141.893 8.71372 141.909 11.8604Z" fill="white"/>
<path d="M137.382 6.36181C134.056 8.72993 131.25 11.6009 128.834 14.8773C128.088 14.8611 127.341 14.8449 126.595 14.8124C124.762 14.6827 122.816 14.5854 122.994 12.0064C123.303 7.74051 121.616 2.80962 126.709 0.0197754C131.056 0.976757 135.403 1.93374 139.75 2.89072C140.253 4.93444 139.052 5.81032 137.365 6.36181H137.382Z" fill="white"/>
<path d="M23.5677 54.5678C17.2419 60.9585 9.13188 61.6884 0 61.8668C3.21157 58.2173 6.08251 54.9733 5.59591 49.5558C11.6622 53.0107 17.5663 53.6595 23.6975 51.9401C24.5247 52.8647 24.4598 53.7406 23.5677 54.5678Z" fill="white"/>
<path d="M101.067 59.3041C104.733 56.4494 104.474 50.9184 108.545 48.3556C111.302 55.0382 112.713 62.094 114.319 69.0848C110.264 70.3986 108.918 64.4459 104.912 65.6137C103.111 67.2357 104.522 69.7174 103.338 71.5178C99.7049 70.5284 102.933 67.2844 101.392 65.6137C101.278 63.5051 101.181 61.4127 101.067 59.3041Z" fill="white"/>
<path d="M85.2047 115.474C83.6476 118.783 81.0037 120.016 77.4191 119.902C73.3154 119.772 69.1955 119.87 65.0756 119.221C68.4818 116.253 72.472 117.988 76.1377 117.437C77.9705 117.161 80.8091 118.102 80.7766 115.133C80.7442 112.36 77.9706 112.879 76.0728 112.733C74.2724 112.603 72.4557 112.636 70.6553 112.636C67.5411 112.636 64.9783 111.841 64.8648 108.094C64.7512 104.039 67.46 103.033 70.8013 103.001C72.034 103.001 73.6398 102.303 74.3859 104.055C74.1751 104.428 74.0777 104.882 73.8182 105.028C71.9205 106.018 68.0277 104.38 68.3034 107.98C68.5629 111.451 72.0827 110.008 74.2237 110.105C77.5813 110.284 80.9713 109.992 84.0693 112.636C84.5721 110.203 84.9776 108.321 85.3669 106.439C87.1997 109.473 87.6377 112.49 85.2047 115.458V115.474Z" fill="white"/>
<path d="M23.5674 54.5677C23.616 53.6918 23.6485 52.8159 23.6971 51.94C26.487 48.2905 26.4383 44.0085 26.1139 39.8237C25.8544 36.4499 26.86 34.6657 30.2014 33.6925C34.6132 32.3949 38.652 29.9619 43.2585 29.1833C41.4094 31.0811 39.5603 32.9788 37.7275 34.8766C33.9482 33.7574 34.1104 36.7905 33.494 38.9478C31.7423 45.1439 29.1471 50.8046 23.5674 54.5839V54.5677Z" fill="white"/>
<path d="M85.2043 115.474C85.253 112.473 85.3179 109.456 85.3665 106.455C88.6754 102.384 90.1839 102.06 95.9906 104.298C94.2713 106.082 92.114 105.061 90.3298 105.515C88.7889 105.904 87.832 106.65 87.8482 108.386C87.8644 110.721 89.5837 110.137 90.8489 110.17C95.0174 110.235 99.2022 110.186 103.468 111.078C100.078 113.317 96.1691 112.149 92.552 112.684C90.93 112.927 88.0104 111.046 87.9131 114.533C87.8157 117.907 90.6705 117.355 92.7791 117.404C96.2988 117.485 99.8348 117.42 104.652 117.42C97.5802 121.8 87.4102 120.243 85.1719 115.458L85.2043 115.474Z" fill="white"/>
<path d="M104.91 65.6136C104.894 63.1319 105.948 62.9535 107.749 64.2835C109.922 65.8893 112.128 67.4789 114.318 69.0847C115.291 70.0579 116.118 71.2744 117.254 71.9394C124.018 75.8971 123.774 81.7363 121.86 88.1107C118.681 85.7913 116.897 82.5635 115.697 78.9302C111.625 74.8752 109.825 68.9873 104.91 65.6136Z" fill="white"/>
<path d="M39.3824 62.84C40.1448 65.792 40.8909 68.7603 41.6532 71.7123C39.2202 75.67 36.771 79.6277 34.338 83.5854C31.2075 82.596 32.9593 80.6171 33.381 78.8978C33.3486 76.4972 33.6243 74.048 33.2188 71.7285C32.3105 66.5706 34.484 63.8294 39.3986 62.84H39.3824Z" fill="white"/>
<path d="M58.9268 53.5134C61.3111 55.4923 63.6954 57.4873 66.0798 59.4662C65.9825 61.1044 65.8851 62.7588 65.7716 64.3971C65.1877 66.5705 65.431 68.744 65.7554 70.9337C65.9987 72.6368 66.5502 74.6806 63.8414 75.1185C57.4832 68.9873 60.2406 60.78 58.9268 53.5134Z" fill="white"/>
<path d="M45.6592 103.39H63.8743C63.6634 104.217 63.5499 104.85 63.485 104.85C56.3644 104.169 55.8291 108.418 56.2995 113.901C56.4617 115.766 57.6296 119.464 55.0668 119.432C51.7904 119.399 53.8341 115.652 53.2664 113.593C53.1204 113.041 53.1691 112.392 53.2664 111.808C53.9314 107.315 52.9582 104.363 47.4758 105.32C46.7784 105.434 45.87 105.239 45.6754 103.39H45.6592Z" fill="white"/>
<path d="M101.39 65.6134C103.369 67.1381 101.325 69.9928 103.336 71.5175C103.044 77.5838 97.3026 78.8327 93.9288 82.174C92.2744 81.8821 90.4253 81.947 89.9062 79.7735C92.8583 76.7566 95.7292 73.6748 98.7624 70.7389C100.271 69.2791 101.568 67.868 101.39 65.6134Z" fill="white"/>
<path d="M93.6387 33.0112C95.3418 38.964 97.0449 44.9167 98.748 50.8695C96.9476 51.3236 96.1204 53.6755 93.8982 53.3187C93.4765 47.7228 93.071 42.1431 92.6493 36.5472C92.1951 35.1523 91.0273 33.5627 93.6225 33.0275L93.6387 33.0112Z" fill="white"/>
<path d="M63.8398 75.1184C66.4837 71.9068 63.3046 67.641 65.77 64.397C65.2672 70.3659 68.8843 74.9886 70.9442 80.1304C71.7552 82.1579 72.5176 84.2016 73.3123 86.2291C71.2037 86.6671 70.4576 85.2884 69.9224 83.6501C67.8948 80.7954 65.8673 77.9569 63.8398 75.1022V75.1184Z" fill="white"/>
<path d="M89.9081 79.7575C91.2543 80.5685 92.5844 81.3632 93.9306 82.1742C90.2 85.7102 86.9614 84.3477 84.2148 78.0868C86.3721 78.7194 88.1401 79.2384 89.9081 79.7737V79.7575Z" fill="white"/>
<path d="M69.9258 83.6665C71.0612 84.5262 72.1804 85.3858 73.3158 86.2455C74.0619 87.6891 76.1867 89.5706 72.3426 89.6679C69.8123 89.7328 67.2819 89.6679 63.6162 89.6679C66.2763 87.1214 68.1092 85.3858 69.9258 83.6503V83.6665Z" fill="white"/>
<path d="M137.382 6.36176C138.177 5.21013 138.971 4.04229 139.766 2.89067C140.561 2.85823 141.372 2.82579 142.167 2.80957C142.686 3.76655 145.281 2.48517 144.454 4.90195C143.983 5.16147 143.529 5.42099 143.059 5.68051C145.881 7.6107 145.2 8.76232 142.297 9.67064C141.972 9.76796 142.021 11.098 141.907 11.8603C141.226 9.34624 140.123 7.17276 137.382 6.34554V6.36176Z" fill="white"/>
<path d="M115.697 78.9301C118.244 81.655 120.32 84.7044 121.845 88.1106C116.103 87.5267 114.611 84.088 115.697 78.9301Z" fill="white"/>
<path d="M33.3627 78.9141C33.606 80.4874 32.9572 82.2554 34.3197 83.6016C33.1032 85.8076 31.2217 86.2293 28.3994 85.6778C30.1836 83.2448 31.7732 81.0875 33.3627 78.9303V78.9141Z" fill="white"/>
<path d="M144.457 4.90202C143.695 4.20456 142.932 3.5071 142.17 2.80964C143.127 2.74476 144.1 2.55012 145.041 2.64744C145.836 2.72854 147.36 2.17706 147.214 3.62064C147.068 4.98312 145.657 5.048 144.457 4.90202Z" fill="white"/>
<path d="M93.6369 33.0112C92.4204 33.9358 92.7448 35.2983 92.6637 36.531C90.912 33.806 90.9119 31.0486 92.4529 28.2426C92.8421 29.8321 93.2476 31.4217 93.6369 33.0112Z" fill="white"/>
</svg>
