<svg width="149" height="36" viewBox="0 0 149 36" fill="none" xmlns="http://www.w3.org/2000/svg">
<path d="M31.3713 13.8682C31.5487 13.8682 31.7261 13.8408 31.8901 13.7592L35.1256 12.4229C35.8356 12.1229 36.177 11.3045 35.8902 10.5957C35.6033 9.87284 34.7842 9.53209 34.0743 9.83204L30.8387 11.1684C30.1288 11.4683 29.7874 12.2868 30.0742 12.9956C30.3065 13.5409 30.8254 13.8682 31.3713 13.8682Z" fill="black"/>
<path d="M24.8188 30.8181C24.5185 30.109 23.7128 29.768 23.0029 30.0682C22.2929 30.3681 21.9652 31.1865 22.2658 31.909L23.6037 35.1407C23.8223 35.6726 24.3408 36 24.8871 36C25.0645 36 25.2419 35.9592 25.4196 35.891C26.1296 35.5911 26.4573 34.7726 26.1567 34.0501L24.8188 30.8181Z" fill="black"/>
<path d="M18.0201 7.51367C12.2178 7.51367 7.50781 12.2181 7.50781 18.0004C7.50781 23.7826 12.2316 28.4871 18.0201 28.4871C23.8224 28.4871 28.5324 23.7826 28.5324 18.0004C28.5459 12.2184 23.8221 7.51367 18.0201 7.51367Z" fill="black"/>
<path d="M13.0094 30.0686C12.2994 29.7686 11.494 30.1094 11.1935 30.8185L9.85552 34.0502C9.55524 34.7593 9.89637 35.5912 10.5926 35.8911C10.77 35.9593 10.9475 36.0001 11.1252 36.0001C11.6711 36.0001 12.1765 35.6728 12.4085 35.1408L13.7465 31.9091C14.047 31.1869 13.7193 30.3687 13.0094 30.0686Z" fill="black"/>
<path d="M35.1393 23.5777L31.9038 22.2413C31.1938 21.9414 30.3884 22.2958 30.0879 23.0049C29.801 23.7277 30.1425 24.5459 30.8524 24.8321L34.0879 26.1685C34.2654 26.2367 34.4428 26.2775 34.6068 26.2775C35.1527 26.2775 35.6716 25.9502 35.8902 25.4049C36.1907 24.682 35.8493 23.8639 35.1393 23.5777Z" fill="black"/>
<path d="M23.0028 5.93188C23.1803 6.00008 23.3577 6.04089 23.5354 6.04089C24.0814 6.04089 24.5868 5.71358 24.8188 5.18164L26.1567 1.94994C26.457 1.24082 26.1158 0.408967 25.4196 0.109086C24.7096 -0.190831 23.9042 0.149893 23.6037 0.859045L22.2658 4.09075C21.9652 4.81357 22.2929 5.63171 23.0028 5.93188Z" fill="black"/>
<path d="M5.15859 11.1685L1.92305 9.83212C1.21309 9.53221 0.407682 9.88663 0.107152 10.5957C-0.193121 11.3049 0.161721 12.1367 0.871677 12.4229L4.10721 13.7593C4.28463 13.8275 4.46205 13.8683 4.62605 13.8683C5.17202 13.8683 5.69088 13.541 5.90942 12.9957C6.2097 12.2866 5.86858 11.4684 5.15859 11.1685Z" fill="black"/>
<path d="M11.1936 5.18254C11.4121 5.71445 11.9306 6.04179 12.4769 6.04179C12.6543 6.04179 12.8318 6.00098 13.0095 5.93278C13.7194 5.63286 14.0472 4.81441 13.7466 4.09192L12.4086 0.859636C12.1084 0.150514 11.3027 -0.190495 10.5927 0.109678C9.88276 0.409596 9.55503 1.22804 9.85563 1.95053L11.1936 5.18254Z" fill="black"/>
<path d="M4.10748 22.2279L0.871944 23.5643C0.161981 23.8642 -0.179433 24.6826 0.107419 25.3915C0.325981 25.9368 0.844516 26.2641 1.39079 26.2641C1.56821 26.2641 1.74564 26.2367 1.90963 26.1551L5.14516 24.8187C5.85513 24.5188 6.19654 23.7004 5.90969 22.9915C5.63656 22.2824 4.81744 21.9414 4.10748 22.2279Z" fill="black"/>
<path d="M53.446 26L48.4517 8.54545H52.483L55.3722 20.6733H55.517L58.7045 8.54545H62.1562L65.3352 20.6989H65.4886L68.3778 8.54545H72.4091L67.4148 26H63.8182L60.4943 14.5881H60.358L57.0426 26H53.446ZM78.8757 26.2557C77.5291 26.2557 76.37 25.983 75.3984 25.4375C74.4325 24.8864 73.6882 24.108 73.1655 23.1023C72.6428 22.0909 72.3814 20.8949 72.3814 19.5142C72.3814 18.1676 72.6428 16.9858 73.1655 15.9688C73.6882 14.9517 74.424 14.1591 75.3729 13.5909C76.3274 13.0227 77.4467 12.7386 78.7308 12.7386C79.5945 12.7386 80.3984 12.8778 81.1428 13.1562C81.8928 13.429 82.5462 13.8409 83.103 14.392C83.6655 14.9432 84.103 15.6364 84.4155 16.4716C84.728 17.3011 84.8842 18.2727 84.8842 19.3864V20.3835H73.8303V18.1335H81.4666C81.4666 17.6108 81.353 17.1477 81.1257 16.7443C80.8984 16.3409 80.5831 16.0256 80.1797 15.7983C79.782 15.5653 79.3189 15.4489 78.7905 15.4489C78.2393 15.4489 77.7507 15.5767 77.3246 15.8324C76.9041 16.0824 76.5746 16.4205 76.3359 16.8466C76.0973 17.267 75.9751 17.7358 75.9695 18.2528V20.392C75.9695 21.0398 76.0888 21.5994 76.3274 22.071C76.5717 22.5426 76.9155 22.9062 77.3587 23.1619C77.8018 23.4176 78.3274 23.5455 78.9354 23.5455C79.3388 23.5455 79.7081 23.4886 80.0433 23.375C80.3786 23.2614 80.6655 23.0909 80.9041 22.8636C81.1428 22.6364 81.3246 22.358 81.4496 22.0284L84.8075 22.25C84.6371 23.0568 84.2876 23.7614 83.7592 24.3636C83.2365 24.9602 82.5604 25.4261 81.7308 25.7614C80.907 26.0909 79.9553 26.2557 78.8757 26.2557ZM90.9865 26.2472C90.1513 26.2472 89.407 26.1023 88.7536 25.8125C88.1001 25.517 87.5831 25.0824 87.2024 24.5085C86.8274 23.929 86.6399 23.2074 86.6399 22.3438C86.6399 21.6165 86.7734 21.0057 87.0405 20.5114C87.3075 20.017 87.6712 19.6193 88.1314 19.3182C88.5916 19.017 89.1143 18.7898 89.6996 18.6364C90.2905 18.483 90.9098 18.375 91.5575 18.3125C92.3189 18.233 92.9325 18.1591 93.3984 18.0909C93.8643 18.017 94.2024 17.9091 94.4126 17.767C94.6229 17.625 94.728 17.4148 94.728 17.1364V17.0852C94.728 16.5455 94.5575 16.1278 94.2166 15.8324C93.8814 15.5369 93.4041 15.3892 92.7848 15.3892C92.1314 15.3892 91.6115 15.5341 91.2251 15.8239C90.8388 16.108 90.5831 16.4659 90.4581 16.8977L87.1001 16.625C87.2706 15.8295 87.6058 15.142 88.1058 14.5625C88.6058 13.9773 89.2507 13.5284 90.0405 13.2159C90.8359 12.8977 91.7564 12.7386 92.8018 12.7386C93.5291 12.7386 94.2251 12.8239 94.8899 12.9943C95.5604 13.1648 96.1541 13.429 96.6712 13.7869C97.1939 14.1449 97.6058 14.6051 97.907 15.1676C98.2081 15.7244 98.3587 16.392 98.3587 17.1705V26H94.9155V24.1847H94.8132C94.603 24.5938 94.3217 24.9545 93.9695 25.267C93.6172 25.5739 93.1939 25.8153 92.6996 25.9915C92.2053 26.1619 91.6342 26.2472 90.9865 26.2472ZM92.0263 23.7415C92.5604 23.7415 93.032 23.6364 93.4411 23.4261C93.8501 23.2102 94.1712 22.9205 94.4041 22.5568C94.6371 22.1932 94.7536 21.7812 94.7536 21.321V19.9318C94.6399 20.0057 94.4837 20.0739 94.2848 20.1364C94.0916 20.1932 93.8729 20.2472 93.6286 20.2983C93.3842 20.3437 93.1399 20.3864 92.8956 20.4261C92.6513 20.4602 92.4297 20.4915 92.2308 20.5199C91.8047 20.5824 91.4325 20.6818 91.1143 20.8182C90.7962 20.9545 90.549 21.1392 90.3729 21.3722C90.1967 21.5994 90.1087 21.8835 90.1087 22.2244C90.1087 22.7188 90.2876 23.0966 90.6456 23.358C91.0092 23.6136 91.4695 23.7415 92.0263 23.7415ZM108.138 12.9091V15.6364H100.255V12.9091H108.138ZM102.045 9.77273H105.675V21.9773C105.675 22.3125 105.727 22.5739 105.829 22.7614C105.931 22.9432 106.073 23.071 106.255 23.1449C106.442 23.2187 106.658 23.2557 106.903 23.2557C107.073 23.2557 107.244 23.2415 107.414 23.2131C107.585 23.179 107.715 23.1534 107.806 23.1364L108.377 25.8381C108.195 25.8949 107.94 25.9602 107.61 26.0341C107.281 26.1136 106.88 26.1619 106.408 26.179C105.533 26.2131 104.766 26.0966 104.107 25.8295C103.454 25.5625 102.945 25.1477 102.582 24.5852C102.218 24.0227 102.039 23.3125 102.045 22.4545V9.77273ZM114.415 18.4318V26H110.785V8.54545H114.313V15.2188H114.467C114.762 14.446 115.239 13.8409 115.898 13.4034C116.558 12.9602 117.384 12.7386 118.379 12.7386C119.288 12.7386 120.08 12.9375 120.756 13.3352C121.438 13.7273 121.967 14.2926 122.342 15.0312C122.722 15.7642 122.91 16.642 122.904 17.6648V26H119.273V18.3125C119.279 17.5057 119.075 16.8778 118.66 16.429C118.251 15.9801 117.677 15.7557 116.938 15.7557C116.444 15.7557 116.006 15.8608 115.626 16.071C115.251 16.2812 114.955 16.5881 114.739 16.9915C114.529 17.3892 114.421 17.8693 114.415 18.4318ZM131.727 26.2557C130.381 26.2557 129.222 25.983 128.25 25.4375C127.284 24.8864 126.54 24.108 126.017 23.1023C125.494 22.0909 125.233 20.8949 125.233 19.5142C125.233 18.1676 125.494 16.9858 126.017 15.9688C126.54 14.9517 127.276 14.1591 128.224 13.5909C129.179 13.0227 130.298 12.7386 131.582 12.7386C132.446 12.7386 133.25 12.8778 133.994 13.1562C134.744 13.429 135.398 13.8409 135.955 14.392C136.517 14.9432 136.955 15.6364 137.267 16.4716C137.58 17.3011 137.736 18.2727 137.736 19.3864V20.3835H126.682V18.1335H134.318C134.318 17.6108 134.205 17.1477 133.977 16.7443C133.75 16.3409 133.435 16.0256 133.031 15.7983C132.634 15.5653 132.17 15.4489 131.642 15.4489C131.091 15.4489 130.602 15.5767 130.176 15.8324C129.756 16.0824 129.426 16.4205 129.188 16.8466C128.949 17.267 128.827 17.7358 128.821 18.2528V20.392C128.821 21.0398 128.94 21.5994 129.179 22.071C129.423 22.5426 129.767 22.9062 130.21 23.1619C130.653 23.4176 131.179 23.5455 131.787 23.5455C132.19 23.5455 132.56 23.4886 132.895 23.375C133.23 23.2614 133.517 23.0909 133.756 22.8636C133.994 22.6364 134.176 22.358 134.301 22.0284L137.659 22.25C137.489 23.0568 137.139 23.7614 136.611 24.3636C136.088 24.9602 135.412 25.4261 134.582 25.7614C133.759 26.0909 132.807 26.2557 131.727 26.2557ZM140.105 26V12.9091H143.625V15.1932H143.761C144 14.3807 144.401 13.767 144.963 13.3523C145.526 12.9318 146.173 12.7216 146.906 12.7216C147.088 12.7216 147.284 12.733 147.494 12.7557C147.705 12.7784 147.889 12.8097 148.048 12.8494V16.071C147.878 16.0199 147.642 15.9744 147.341 15.9347C147.04 15.8949 146.764 15.875 146.514 15.875C145.98 15.875 145.503 15.9915 145.082 16.2244C144.668 16.4517 144.338 16.7699 144.094 17.179C143.855 17.5881 143.736 18.0597 143.736 18.5938V26H140.105Z" fill="black"/>
</svg>
