<svg width="240" height="61" viewBox="0 0 240 61" fill="none" xmlns="http://www.w3.org/2000/svg">
<g clip-path="url(#clip0_816_3926)">
<path d="M77.496 23.6051C77.496 19.2998 73.3094 14.7272 66.0646 14.7272C57.929 14.7272 48.9917 20.6953 47.6259 32.6018C46.2304 44.627 53.7127 49.9715 61.2545 49.9715C68.7962 49.9715 72.7453 47.032 76.7834 43.1127C73.3094 38.748 68.8259 40.767 67.9649 41.2124C67.0147 41.6875 65.7974 42.3407 63.3032 42.3407C60.3934 42.3407 57.4242 41.0343 57.4242 35.6006C76.0708 33.7597 77.496 27.9104 77.496 23.6051ZM68.2618 24.3177C68.143 25.6538 67.6086 27.9401 58.1665 29.2169C60.1559 22.1502 63.9565 21.6157 65.7083 21.6157C67.3413 21.6157 68.3806 22.8925 68.2618 24.3177ZM36.6696 25.4757C36.6696 25.4757 32.6611 38.0651 32.3345 39.1043C32.2158 38.0354 29.2763 15.4398 29.2763 15.4398C22.4471 15.4398 18.795 20.3093 16.865 25.446C16.865 25.446 11.9955 38.0651 11.5799 39.134C11.5502 38.1542 10.8376 25.5945 10.8376 25.5945C10.4219 19.2998 4.66164 15.4695 0 15.4695L5.64147 49.7043C12.7972 49.6746 16.6572 44.8348 18.6762 39.6981C18.6762 39.6981 22.9816 28.5637 23.1597 28.0589C23.1894 28.534 26.2477 49.7043 26.2477 49.7043C33.4331 49.7043 37.2931 45.1614 39.3715 40.2029L49.4371 15.4695C42.3407 15.4695 38.5995 20.3093 36.6696 25.4757ZM103.862 14.6678C99.4383 14.6678 96.0534 17.0729 93.203 20.6062V20.5765L95.7565 0C89.8775 0 85.0971 5.10701 84.1767 12.7082L79.7229 49.4371C83.1078 49.4371 86.7005 48.4573 88.6305 45.9631C90.3526 48.19 92.9358 49.9715 96.7661 49.9715C106.683 49.9715 113.483 38.4511 113.483 27.6432C113.423 17.7855 108.643 14.6678 103.862 14.6678ZM102.942 32.3345C101.903 38.362 98.5476 42.4595 95.3111 42.4595C92.045 42.4595 90.6495 41.0046 90.6495 41.0046C91.273 35.7194 91.659 32.483 92.8467 29.6919C94.0344 26.9009 96.8551 22.4471 99.7946 22.4471C102.675 22.4471 103.981 26.2774 102.942 32.3345ZM138.246 15.4695H131.327L131.357 15.1132C131.832 10.6 132.901 8.22467 136.434 7.83867C138.84 7.60114 139.908 6.35408 140.176 4.98825C140.384 3.91934 141.037 0.207844 141.037 0.207844C127.141 0.118768 122.776 6.11654 121.648 15.2617L121.618 15.4695H121.47C119.213 15.4695 116.719 18.023 116.303 21.2594L116.155 22.4471H120.787L116.897 54.5738L115.71 60.334C115.858 60.334 116.036 60.3637 116.185 60.3637C122.687 60.1262 126.844 54.9895 127.764 47.5368L130.793 22.4471H132.961C135.098 22.4471 137.592 20.3093 138.038 16.7463L138.246 15.4695ZM174.232 14.8757C166.245 14.8757 158.703 20.7547 156.387 29.9889C154.072 39.2231 157.575 50.1497 169.333 50.1497C181.061 50.1497 187.831 38.7777 187.831 29.306C187.831 19.8936 181.447 14.8757 174.232 14.8757ZM177.469 32.0376C177.053 36.2242 175.212 42.5782 170.165 42.5782C165.087 42.5782 165.8 35.1553 166.305 31.6219C166.839 27.851 168.947 22.4768 173.49 22.4768C177.558 22.4768 177.944 27.3166 177.469 32.0376ZM227.292 25.4757C227.292 25.4757 223.283 38.0651 222.957 39.1043C222.838 38.0354 219.899 15.4398 219.899 15.4398C213.069 15.4398 209.417 20.3093 207.487 25.446C207.487 25.446 202.618 38.0651 202.202 39.134C202.172 38.1542 201.46 25.5945 201.46 25.5945C201.044 19.2998 195.284 15.4695 190.622 15.4695L196.234 49.7043C203.39 49.6746 207.25 44.8348 209.269 39.6981C209.269 39.6981 213.574 28.5637 213.723 28.0589C213.782 28.534 216.811 49.7043 216.811 49.7043C223.996 49.7043 227.856 45.1614 229.934 40.2029L240 15.4695C232.933 15.4695 229.192 20.3093 227.292 25.4757ZM144.778 0.207844L138.958 47.1508L137.771 52.9407C137.919 52.9407 138.097 52.9704 138.246 52.9704C144.511 52.8814 148.964 47.3883 149.796 40.4701L153.151 13.5395C154.161 5.31486 149.261 0.207844 144.778 0.207844Z" fill="white"/>
</g>
<defs>
<clipPath id="clip0_816_3926">
<rect width="240" height="60.3637" fill="white"/>
</clipPath>
</defs>
</svg>
