<svg width="12" height="9" viewBox="0 0 12 9" fill="none" xmlns="http://www.w3.org/2000/svg">
<path d="M11.8445 4.89486C11.9481 4.78293 12 4.65131 12 4.50001C12 4.34871 11.9481 4.2204 11.8445 4.11521L8.18599 0.167824C8.0884 0.0558945 7.96948 0 7.82923 0C7.68897 0 7.56709 0.0558945 7.46337 0.167824C7.36578 0.273008 7.31709 0.401319 7.31709 0.552624C7.31709 0.703929 7.36578 0.835542 7.46337 0.947468L10.253 3.94738H0.512136C0.371878 3.94738 0.250001 4.00327 0.146282 4.1152C0.0486925 4.22039 0 4.3487 0 4.5C0 4.65131 0.0486925 4.78292 0.146282 4.89485C0.249996 5.00003 0.371878 5.05262 0.512136 5.05262H10.253L7.46337 8.06258C7.36578 8.16776 7.31709 8.29607 7.31709 8.44738C7.31709 8.59868 7.36578 8.7303 7.46337 8.84222C7.56709 8.94741 7.68897 9 7.82923 9C7.96949 9 8.08841 8.94741 8.18599 8.84222L11.8445 4.89486Z" fill="white"/>
</svg>
